<?xml version="1.0" encoding="UTF-8" standalone="no"?>
<!-- Created with Inkscape (http://www.inkscape.org/) -->

<svg
   xmlns:dc="http://purl.org/dc/elements/1.1/"
   xmlns:cc="http://creativecommons.org/ns#"
   xmlns:rdf="http://www.w3.org/1999/02/22-rdf-syntax-ns#"
   xmlns:svg="http://www.w3.org/2000/svg"
   xmlns="http://www.w3.org/2000/svg"
   xmlns:xlink="http://www.w3.org/1999/xlink"
   xmlns:sodipodi="http://sodipodi.sourceforge.net/DTD/sodipodi-0.dtd"
   xmlns:inkscape="http://www.inkscape.org/namespaces/inkscape"
   width="450mm"
   height="512mm"
   viewBox="0 0 1594.4882 1814.1732"
   id="svg2"
   version="1.1"
   inkscape:version="0.91 r13725"
   sodipodi:docname="ascensor.svg"
   inkscape:export-filename="C:\xampp\htdocs\tc2000\aFuentes\mainMenu\ascensor.png"
   inkscape:export-xdpi="18.852446"
   inkscape:export-ydpi="18.852446">
  <defs
     id="defs4">
    <linearGradient
       inkscape:collect="always"
       id="linearGradient7981">
      <stop
         style="stop-color:#3a3a3a;stop-opacity:1"
         offset="0"
         id="stop7983" />
      <stop
         style="stop-color:#646464;stop-opacity:1"
         offset="1"
         id="stop7985" />
    </linearGradient>
    <linearGradient
       inkscape:collect="always"
       id="linearGradient7710">
      <stop
         style="stop-color:#974300;stop-opacity:1;"
         offset="0"
         id="stop7712" />
      <stop
         id="stop7718"
         offset="0.5"
         style="stop-color:#b66f00;stop-opacity:1" />
      <stop
         style="stop-color:#974300;stop-opacity:1"
         offset="1"
         id="stop7714" />
    </linearGradient>
    <linearGradient
       inkscape:collect="always"
       id="linearGradient7634">
      <stop
         style="stop-color:#000000;stop-opacity:1;"
         offset="0"
         id="stop7636" />
      <stop
         id="stop7642"
         offset="0.5"
         style="stop-color:#d2d2d2;stop-opacity:1" />
      <stop
         style="stop-color:#000000;stop-opacity:1"
         offset="1"
         id="stop7638" />
    </linearGradient>
    <linearGradient
       inkscape:collect="always"
       xlink:href="#linearGradient7634"
       id="linearGradient7640"
       x1="0"
       y1="952.36218"
       x2="1600"
       y2="952.36218"
       gradientUnits="userSpaceOnUse"
       gradientTransform="scale(0.99803804,1)" />
    <linearGradient
       inkscape:collect="always"
       xlink:href="#linearGradient7634"
       id="linearGradient7685"
       x1="17.800142"
       y1="1545.7068"
       x2="1580.6757"
       y2="1545.7068"
       gradientUnits="userSpaceOnUse"
       gradientTransform="translate(-1.993764,-542.12598)" />
    <linearGradient
       inkscape:collect="always"
       xlink:href="#linearGradient7634"
       id="linearGradient7689"
       gradientUnits="userSpaceOnUse"
       x1="17.800142"
       y1="1545.7068"
       x2="1580.6757"
       y2="1545.7068"
       gradientTransform="translate(-1.9937634,-641.14415)" />
    <linearGradient
       inkscape:collect="always"
       xlink:href="#linearGradient7710"
       id="linearGradient7716"
       x1="158.5"
       y1="1254.1732"
       x2="1441.5"
       y2="1254.1732"
       gradientUnits="userSpaceOnUse" />
    <radialGradient
       inkscape:collect="always"
       xlink:href="#linearGradient7634"
       id="radialGradient7756"
       cx="916.89258"
       cy="779.16895"
       fx="916.89258"
       fy="779.16895"
       r="102.27418"
       gradientTransform="matrix(0.33585912,0,0,0.33588797,543.3239,339.01568)"
       gradientUnits="userSpaceOnUse" />
    <radialGradient
       inkscape:collect="always"
       xlink:href="#linearGradient7634"
       id="radialGradient7760"
       gradientUnits="userSpaceOnUse"
       gradientTransform="matrix(0.33585912,0,0,0.33588797,543.3239,483.75479)"
       cx="916.89258"
       cy="779.16895"
       fx="916.89258"
       fy="779.16895"
       r="102.27418" />
    <linearGradient
       inkscape:collect="always"
       xlink:href="#linearGradient7634"
       id="linearGradient7776"
       x1="850"
       y1="754.17322"
       x2="850"
       y2="584.17322"
       gradientUnits="userSpaceOnUse" />
    <radialGradient
       inkscape:collect="always"
       xlink:href="#linearGradient7634"
       id="radialGradient7832"
       gradientUnits="userSpaceOnUse"
       gradientTransform="matrix(0.33585912,0,0,0.33588797,543.3239,339.01568)"
       cx="916.89258"
       cy="779.16895"
       fx="916.89258"
       fy="779.16895"
       r="102.27418" />
    <radialGradient
       inkscape:collect="always"
       xlink:href="#linearGradient7634"
       id="radialGradient7834"
       gradientUnits="userSpaceOnUse"
       gradientTransform="matrix(0.33585912,0,0,0.33588797,543.3239,483.75479)"
       cx="916.89258"
       cy="779.16895"
       fx="916.89258"
       fy="779.16895"
       r="102.27418" />
    <linearGradient
       inkscape:collect="always"
       xlink:href="#linearGradient7634"
       id="linearGradient7836"
       gradientUnits="userSpaceOnUse"
       x1="850"
       y1="754.17322"
       x2="850"
       y2="584.17322" />
    <linearGradient
       inkscape:collect="always"
       xlink:href="#linearGradient7634"
       id="linearGradient7884"
       x1="780"
       y1="849.17322"
       x2="780"
       y2="839.17322"
       gradientUnits="userSpaceOnUse"
       gradientTransform="translate(-4.5522461,0.44775391)" />
    <linearGradient
       inkscape:collect="always"
       xlink:href="#linearGradient7634"
       id="linearGradient7944"
       gradientUnits="userSpaceOnUse"
       gradientTransform="translate(-4.5522461,0.44775391)"
       x1="780"
       y1="849.17322"
       x2="780"
       y2="839.17322" />
    <linearGradient
       inkscape:collect="always"
       xlink:href="#linearGradient7634"
       id="linearGradient7960"
       gradientUnits="userSpaceOnUse"
       gradientTransform="translate(-4.5522461,0.44775391)"
       x1="780"
       y1="849.17322"
       x2="780"
       y2="839.17322" />
    <linearGradient
       inkscape:collect="always"
       xlink:href="#linearGradient7981"
       id="linearGradient7987"
       x1="248.5"
       y1="1254.1732"
       x2="510.38544"
       y2="1254.1732"
       gradientUnits="userSpaceOnUse" />
    <linearGradient
       inkscape:collect="always"
       xlink:href="#linearGradient7981"
       id="linearGradient8009"
       gradientUnits="userSpaceOnUse"
       x1="248.5"
       y1="1254.1732"
       x2="510.38544"
       y2="1254.1732" />
    <linearGradient
       inkscape:collect="always"
       xlink:href="#linearGradient7634"
       id="linearGradient8023"
       x1="700"
       y1="1304.1732"
       x2="1075.6357"
       y2="1304.1732"
       gradientUnits="userSpaceOnUse" />
  </defs>
  <sodipodi:namedview
     id="base"
     pagecolor="#ffffff"
     bordercolor="#666666"
     borderopacity="1.0"
     inkscape:pageopacity="0.0"
     inkscape:pageshadow="2"
     inkscape:zoom="0.17587882"
     inkscape:cx="1119.3696"
     inkscape:cy="1075.3228"
     inkscape:document-units="px"
     inkscape:current-layer="layer1"
     showgrid="true"
     height="450mm"
     inkscape:window-width="1360"
     inkscape:window-height="716"
     inkscape:window-x="-8"
     inkscape:window-y="-8"
     inkscape:window-maximized="1">
    <inkscape:grid
       type="xygrid"
       id="grid7630" />
  </sodipodi:namedview>
  <metadata
     id="metadata7">
    <rdf:RDF>
      <cc:Work
         rdf:about="">
        <dc:format>image/svg+xml</dc:format>
        <dc:type
           rdf:resource="http://purl.org/dc/dcmitype/StillImage" />
        <dc:title></dc:title>
      </cc:Work>
    </rdf:RDF>
  </metadata>
  <g
     inkscape:label="Capa 1"
     inkscape:groupmode="layer"
     id="layer1"
     transform="translate(0,761.81102)">
    <g
       id="g7703"
       transform="translate(108.98759,543.59448)">
      <path
         inkscape:connector-curvature="0"
         id="path7691"
         d="m 90,200.11811 0,40 0,70 30,0 0,-60 -20,-50 -10,0 z m 201.05273,0 0,40 0,70 30,0 0,-60 -20,-50 -10,0 z m -192.449214,31.5449 4.263674,0 8.52929,21.3222 0,25.5879 -12.792964,0 0,-29.8515 0,-17.0586 z m 201.052734,0 4.26367,0 8.5293,21.3222 0,25.5879 -12.79297,0 0,-29.8515 0,-17.0586 z"
         style="fill:#000000;fill-rule:evenodd;stroke:#000000;stroke-width:1px;stroke-linecap:butt;stroke-linejoin:miter;stroke-opacity:1" />
      <path
         inkscape:connector-curvature="0"
         style="fill:#000000;fill-rule:evenodd;stroke:#000000;stroke-width:1px;stroke-linecap:butt;stroke-linejoin:miter;stroke-opacity:1"
         d="m 1286.513,200.11811 0,40 0,70 -30,0 0,-60 20,-50 10,0 z m -201.0528,0 0,40 0,70 -30,0 0,-60 20,-50 10,0 z m 192.4493,31.5449 -4.2637,0 -8.5293,21.3222 0,25.5879 12.793,0 0,-29.8515 0,-17.0586 z m -201.0528,0 -4.2636,0 -8.5293,21.3222 0,25.5879 12.7929,0 0,-29.8515 0,-17.0586 z"
         id="path7699" />
    </g>
    <path
       style="opacity:1;fill:#000000;fill-opacity:1;fill-rule:evenodd;stroke:none;stroke-width:30;stroke-linecap:round;stroke-linejoin:round;stroke-miterlimit:4;stroke-dasharray:30, 30;stroke-dashoffset:0;stroke-opacity:1"
       id="path7648"
       sodipodi:type="arc"
       sodipodi:cx="797.24408"
       sodipodi:cy="864.36218"
       sodipodi:rx="100"
       sodipodi:ry="100"
       sodipodi:start="5.0136677"
       sodipodi:end="4.9764922"
       sodipodi:open="true"
       d="M 826.91824,768.8664 A 100,100 0 0 1 893.01152,893.14755 100,100 0 0 1 769.35,960.39301 100,100 0 0 1 700.95816,837.36179 100,100 0 0 1 823.34845,767.82948" />
    <rect
       style="opacity:1;fill:url(#linearGradient7640);fill-opacity:1;fill-rule:evenodd;stroke:none;stroke-width:6;stroke-linecap:round;stroke-linejoin:round;stroke-miterlimit:4;stroke-dasharray:none;stroke-dashoffset:0;stroke-opacity:1"
       id="rect7632"
       width="1596.8608"
       height="200"
       x="0"
       y="852.36218" />
    <path
       style="opacity:1;fill:url(#linearGradient7685);fill-opacity:1;fill-rule:evenodd;stroke:#000000;stroke-width:3;stroke-linecap:round;stroke-linejoin:round;stroke-miterlimit:4;stroke-dasharray:none;stroke-dashoffset:0;stroke-opacity:0.36213995"
       d="m 45.883189,973.58102 a 30,30 0 0 0 -28.962891,21.9004 30,30 0 0 0 20.517579,36.90818 30,30 0 0 0 37.097656,-20.1738 30,30 0 0 0 -19.828125,-37.28318 l -1.070313,-0.3125 a 30,30 0 0 0 -7.753906,-1.0391 z m 136.624991,0 a 30,30 0 0 0 -28.96289,21.9004 30,30 0 0 0 20.51758,36.90818 30,30 0 0 0 37.09766,-20.1738 30,30 0 0 0 -19.82813,-37.28318 l -1.07031,-0.3125 a 30,30 0 0 0 -7.75391,-1.0391 z m 136.625,0 a 30,30 0 0 0 -28.96289,21.9004 30,30 0 0 0 20.51758,36.90818 30,30 0 0 0 37.09766,-20.1738 30,30 0 0 0 -19.82813,-37.28318 l -1.07031,-0.3125 a 30,30 0 0 0 -7.75391,-1.0391 z m 136.625,0 a 30,30 0 0 0 -28.96289,21.9004 30,30 0 0 0 20.51758,36.90818 30,30 0 0 0 37.09766,-20.1738 30,30 0 0 0 -19.82813,-37.28318 l -1.07031,-0.3125 a 30,30 0 0 0 -7.75391,-1.0391 z m 136.625,0 a 30,30 0 0 0 -28.96289,21.9004 30,30 0 0 0 20.51758,36.90818 30,30 0 0 0 37.09766,-20.1738 30,30 0 0 0 -19.82813,-37.28318 l -1.07031,-0.3125 a 30,30 0 0 0 -7.75391,-1.0391 z m 136.62696,0 a 30,30 0 0 0 -28.96485,21.9004 30,30 0 0 0 20.51758,36.90818 30,30 0 0 0 37.09766,-20.1738 30,30 0 0 0 -19.82618,-37.28318 l -1.07226,-0.3125 a 30,30 0 0 0 -7.75195,-1.0391 z m 136.625,0 a 30,30 0 0 0 -28.96485,21.9004 30,30 0 0 0 20.51758,36.90818 30,30 0 0 0 37.09766,-20.1738 30,30 0 0 0 -19.82618,-37.28318 l -1.07226,-0.3125 a 30,30 0 0 0 -7.75195,-1.0391 z m 136.62496,0 a 30,30 0 0 0 -28.96481,21.9004 30,30 0 0 0 20.51758,36.90818 30,30 0 0 0 37.09763,-20.1738 30,30 0 0 0 -19.8262,-37.28318 l -1.0722,-0.3125 a 30,30 0 0 0 -7.752,-1.0391 z m 136.625,0 a 30,30 0 0 0 -28.9648,21.9004 30,30 0 0 0 20.5175,36.90818 30,30 0 0 0 37.0996,-20.1738 30,30 0 0 0 -19.8281,-37.28318 l -1.0722,-0.3125 a 30,30 0 0 0 -7.752,-1.0391 z m 136.625,0 a 30,30 0 0 0 -28.9648,21.9004 30,30 0 0 0 20.5175,36.90818 30,30 0 0 0 37.0996,-20.1738 30,30 0 0 0 -19.8281,-37.28318 l -1.0722,-0.3125 a 30,30 0 0 0 -7.752,-1.0391 z m 136.625,0 a 30,30 0 0 0 -28.9648,21.9004 30,30 0 0 0 20.5175,36.90818 30,30 0 0 0 37.0996,-20.1738 30,30 0 0 0 -19.8281,-37.28318 l -1.0722,-0.3125 a 30,30 0 0 0 -7.752,-1.0391 z m 136.625,0 a 30,30 0 0 0 -28.9648,21.9004 30,30 0 0 0 20.5175,36.90818 30,30 0 0 0 37.0996,-20.1738 30,30 0 0 0 -19.8281,-37.28318 l -1.0722,-0.3125 a 30,30 0 0 0 -7.752,-1.0391 z"
       id="path7654"
       inkscape:connector-curvature="0" />
    <path
       id="path7687"
       d="m 45.88319,874.56285 a 30,30 0 0 0 -28.962891,21.9004 30,30 0 0 0 20.517579,36.9082 30,30 0 0 0 37.097656,-20.1738 30,30 0 0 0 -19.828125,-37.2832 l -1.070313,-0.3125 a 30,30 0 0 0 -7.753906,-1.0391 z m 136.62499,0 a 30,30 0 0 0 -28.96289,21.9004 30,30 0 0 0 20.51758,36.9082 30,30 0 0 0 37.09766,-20.1738 30,30 0 0 0 -19.82813,-37.2832 l -1.07031,-0.3125 a 30,30 0 0 0 -7.75391,-1.0391 z m 136.625,0 a 30,30 0 0 0 -28.96289,21.9004 30,30 0 0 0 20.51758,36.9082 30,30 0 0 0 37.09766,-20.1738 30,30 0 0 0 -19.82813,-37.2832 l -1.07031,-0.3125 a 30,30 0 0 0 -7.75391,-1.0391 z m 136.625,0 a 30,30 0 0 0 -28.96289,21.9004 30,30 0 0 0 20.51758,36.9082 30,30 0 0 0 37.09766,-20.1738 30,30 0 0 0 -19.82813,-37.2832 l -1.07031,-0.3125 a 30,30 0 0 0 -7.75391,-1.0391 z m 136.625,0 a 30,30 0 0 0 -28.96289,21.9004 30,30 0 0 0 20.51758,36.9082 30,30 0 0 0 37.09766,-20.1738 30,30 0 0 0 -19.82813,-37.2832 l -1.07031,-0.3125 a 30,30 0 0 0 -7.75391,-1.0391 z m 136.62696,0 a 30,30 0 0 0 -28.96485,21.9004 30,30 0 0 0 20.51758,36.9082 30,30 0 0 0 37.09766,-20.1738 30,30 0 0 0 -19.82618,-37.2832 l -1.07226,-0.3125 a 30,30 0 0 0 -7.75195,-1.0391 z m 136.625,0 a 30,30 0 0 0 -28.96485,21.9004 30,30 0 0 0 20.51758,36.9082 30,30 0 0 0 37.09766,-20.1738 30,30 0 0 0 -19.82618,-37.2832 l -1.07226,-0.3125 a 30,30 0 0 0 -7.75195,-1.0391 z m 136.62496,0 a 30,30 0 0 0 -28.96481,21.9004 30,30 0 0 0 20.51758,36.9082 30,30 0 0 0 37.09763,-20.1738 30,30 0 0 0 -19.8262,-37.2832 l -1.0722,-0.3125 a 30,30 0 0 0 -7.752,-1.0391 z m 136.625,0 a 30,30 0 0 0 -28.9648,21.9004 30,30 0 0 0 20.5175,36.9082 30,30 0 0 0 37.0996,-20.1738 30,30 0 0 0 -19.8281,-37.2832 l -1.0722,-0.3125 a 30,30 0 0 0 -7.752,-1.0391 z m 136.625,0 a 30,30 0 0 0 -28.9648,21.9004 30,30 0 0 0 20.5175,36.9082 30,30 0 0 0 37.0996,-20.1738 30,30 0 0 0 -19.8281,-37.2832 l -1.0722,-0.3125 a 30,30 0 0 0 -7.752,-1.0391 z m 136.625,0 a 30,30 0 0 0 -28.9648,21.9004 30,30 0 0 0 20.5175,36.9082 30,30 0 0 0 37.0996,-20.1738 30,30 0 0 0 -19.8281,-37.2832 l -1.0722,-0.3125 a 30,30 0 0 0 -7.752,-1.0391 z m 136.625,0 a 30,30 0 0 0 -28.9648,21.9004 30,30 0 0 0 20.5175,36.9082 30,30 0 0 0 37.0996,-20.1738 30,30 0 0 0 -19.8281,-37.2832 l -1.0722,-0.3125 a 30,30 0 0 0 -7.752,-1.0391 z"
       style="opacity:1;fill:url(#linearGradient7689);fill-opacity:1;fill-rule:evenodd;stroke:#000000;stroke-width:3;stroke-linecap:round;stroke-linejoin:round;stroke-miterlimit:4;stroke-dasharray:none;stroke-dashoffset:0;stroke-opacity:0.36213995"
       inkscape:connector-curvature="0" />
  </g>
  <g
     inkscape:groupmode="layer"
     id="layer5"
     inkscape:label="container"
     sodipodi:insensitive="true">
    <path
       style="opacity:1;fill:url(#linearGradient7716);fill-opacity:1;fill-rule:evenodd;stroke:#000000;stroke-width:3;stroke-linecap:round;stroke-linejoin:round;stroke-miterlimit:4;stroke-dasharray:none;stroke-dashoffset:0;stroke-opacity:1"
       d="m 160,1054.1738 0,400 36.95703,0 -0.20703,-20.3379 40.81055,10.3379 0,10 159.25586,0 -0.20703,-20.3379 40.80859,10.3379 0,10 725.16213,0 0,-10 40.8105,-10.3379 -0.207,20.3379 159.2559,0 0,-10 40.8085,-10.3379 -0.207,20.3379 36.959,0 0,-400 -1280,0 z"
       id="rect7708"
       inkscape:connector-curvature="0" />
    <g
       id="g7807"
       transform="translate(-8.606456,0)">
      <g
         id="g7764">
        <path
           style="opacity:1;fill:url(#radialGradient7756);fill-opacity:1;fill-rule:evenodd;stroke:#000000;stroke-width:0.82833582;stroke-linecap:round;stroke-linejoin:round;stroke-miterlimit:4;stroke-dasharray:none;stroke-dashoffset:0;stroke-opacity:1"
           d="m 855.47741,566.79066 c -2.80016,3.37653 -5.82947,7.40863 -7.19342,7.52796 -1.334,0.11671 -4.88649,-3.17631 -8.17082,-5.97789 a 34.096499,34.096499 0 0 0 -1.35853,0.4513 34.096499,34.096499 0 0 0 -3.11129,1.39264 34.096499,34.096499 0 0 0 -2.6626,1.52711 c 0.0363,4.3055 0.26927,9.11315 -0.67434,10.05675 -0.94138,0.94138 -5.72878,0.7109 -10.02658,0.67369 a 34.096499,34.096499 0 0 0 -1.09285,1.78228 34.096499,34.096499 0 0 0 -1.48251,3.06931 34.096499,34.096499 0 0 0 -0.8298,2.27492 c 2.80271,3.28604 6.09862,6.84255 5.98183,8.17738 -0.11927,1.36315 -4.14608,4.38874 -7.52141,7.18752 a 34.096499,34.096499 0 0 0 0.17384,1.4333 34.096499,34.096499 0 0 0 0.7465,3.32514 34.096499,34.096499 0 0 0 0.85867,2.58388 c 4.3655,0.75167 9.50787,1.35997 10.30471,2.49796 0.82268,1.17492 -0.47224,6.51464 -1.25423,10.9633 a 34.096499,34.096499 0 0 0 0.97937,0.91246 34.096499,34.096499 0 0 0 2.71311,2.06304 34.096499,34.096499 0 0 0 1.95875,1.20044 c 3.94867,-2.2645 8.63894,-5.40397 10.04428,-5.02739 1.44744,0.38784 4.04987,5.76204 6.39182,9.73926 a 34.096499,34.096499 0 0 0 0.85802,0.0426 34.096499,34.096499 0 0 0 2.41136,-0.0853 34.096499,34.096499 0 0 0 3.24576,-0.39359 c 1.63258,-4.33805 3.28227,-10.19994 4.6548,-10.83998 1.38816,-0.64731 7.03989,1.91401 11.4343,3.44649 a 34.096499,34.096499 0 0 0 2.00859,-1.76457 34.096499,34.096499 0 0 0 2.32347,-2.49402 34.096499,34.096499 0 0 0 0.15153,-0.19941 c -1.53162,-4.39727 -4.10071,-10.06301 -3.4524,-11.45332 0.63822,-1.36866 6.47153,-3.01299 10.80586,-4.64103 a 34.096499,34.096499 0 0 0 0.34244,-2.26705 34.096499,34.096499 0 0 0 0.17055,-3.40451 34.096499,34.096499 0 0 0 -0.0302,-0.85145 c -3.97845,-2.3438 -9.36415,-4.94946 -9.7524,-6.39838 -0.37644,-1.40496 2.76237,-6.09237 5.02673,-10.04035 a 34.096499,34.096499 0 0 0 -0.64942,-1.13221 34.096499,34.096499 0 0 0 -1.98234,-2.77215 34.096499,34.096499 0 0 0 -1.53826,-1.7508 c -4.4496,0.7819 -9.79257,2.07786 -10.9679,1.25488 -1.13651,-0.79579 -1.74503,-5.92639 -2.49533,-10.28831 a 34.096499,34.096499 0 0 0 -1.63075,-0.59497 34.096499,34.096499 0 0 0 -3.30284,-0.84293 34.096499,34.096499 0 0 0 -2.40611,-0.36406 z m -4.20677,18.82516 a 15.113661,15.113661 0 0 1 15.11366,15.11366 15.113661,15.113661 0 0 1 -15.11366,15.11366 15.113661,15.113661 0 0 1 -15.11366,-15.11366 15.113661,15.113661 0 0 1 15.11366,-15.11366 z"
           id="path7729"
           inkscape:connector-curvature="0" />
        <path
           inkscape:connector-curvature="0"
           id="path7758"
           d="m 855.47741,711.52977 c -2.80016,3.37653 -5.82947,7.40863 -7.19342,7.52796 -1.334,0.11671 -4.88649,-3.17631 -8.17082,-5.97789 a 34.096499,34.096499 0 0 0 -1.35853,0.4513 34.096499,34.096499 0 0 0 -3.11129,1.39264 34.096499,34.096499 0 0 0 -2.6626,1.52711 c 0.0363,4.3055 0.26927,9.11315 -0.67434,10.05675 -0.94138,0.94138 -5.72878,0.7109 -10.02658,0.67369 a 34.096499,34.096499 0 0 0 -1.09285,1.78228 34.096499,34.096499 0 0 0 -1.48251,3.06931 34.096499,34.096499 0 0 0 -0.8298,2.27492 c 2.80271,3.28604 6.09862,6.84255 5.98183,8.17738 -0.11927,1.36315 -4.14608,4.38874 -7.52141,7.18752 a 34.096499,34.096499 0 0 0 0.17384,1.4333 34.096499,34.096499 0 0 0 0.7465,3.32514 34.096499,34.096499 0 0 0 0.85867,2.58388 c 4.3655,0.75167 9.50787,1.35997 10.30471,2.49796 0.82268,1.17492 -0.47224,6.51464 -1.25423,10.9633 a 34.096499,34.096499 0 0 0 0.97937,0.91246 34.096499,34.096499 0 0 0 2.71311,2.06304 34.096499,34.096499 0 0 0 1.95875,1.20044 c 3.94867,-2.2645 8.63894,-5.40397 10.04428,-5.02739 1.44744,0.38784 4.04987,5.76204 6.39182,9.73926 a 34.096499,34.096499 0 0 0 0.85802,0.0426 34.096499,34.096499 0 0 0 2.41136,-0.0853 34.096499,34.096499 0 0 0 3.24576,-0.39359 c 1.63258,-4.33805 3.28227,-10.19994 4.6548,-10.83998 1.38816,-0.64731 7.03989,1.91401 11.4343,3.44649 a 34.096499,34.096499 0 0 0 2.00859,-1.76457 34.096499,34.096499 0 0 0 2.32347,-2.49402 34.096499,34.096499 0 0 0 0.15153,-0.19941 c -1.53162,-4.39727 -4.10071,-10.06301 -3.4524,-11.45332 0.63822,-1.36866 6.47153,-3.01299 10.80586,-4.64103 a 34.096499,34.096499 0 0 0 0.34244,-2.26705 34.096499,34.096499 0 0 0 0.17055,-3.40451 34.096499,34.096499 0 0 0 -0.0302,-0.85145 c -3.97845,-2.3438 -9.36415,-4.94946 -9.7524,-6.39838 -0.37644,-1.40496 2.76237,-6.09237 5.02673,-10.04035 a 34.096499,34.096499 0 0 0 -0.64942,-1.13221 34.096499,34.096499 0 0 0 -1.98234,-2.77215 34.096499,34.096499 0 0 0 -1.53826,-1.7508 c -4.4496,0.7819 -9.79257,2.07786 -10.9679,1.25488 -1.13651,-0.79579 -1.74503,-5.92639 -2.49533,-10.28831 a 34.096499,34.096499 0 0 0 -1.63075,-0.59497 34.096499,34.096499 0 0 0 -3.30284,-0.84293 34.096499,34.096499 0 0 0 -2.40611,-0.36406 z m -4.20677,18.82516 a 15.113661,15.113661 0 0 1 15.11366,15.11366 15.113661,15.113661 0 0 1 -15.11366,15.11366 15.113661,15.113661 0 0 1 -15.11366,-15.11366 15.113661,15.113661 0 0 1 15.11366,-15.11366 z"
           style="opacity:1;fill:url(#radialGradient7760);fill-opacity:1;fill-rule:evenodd;stroke:#000000;stroke-width:0.82833582;stroke-linecap:round;stroke-linejoin:round;stroke-miterlimit:4;stroke-dasharray:none;stroke-dashoffset:0;stroke-opacity:1" />
      </g>
      <g
         id="g7802">
        <rect
           style="opacity:1;fill:url(#linearGradient7776);fill-opacity:1;fill-rule:evenodd;stroke:#000000;stroke-width:3.94710469;stroke-linecap:round;stroke-linejoin:round;stroke-miterlimit:4;stroke-dasharray:none;stroke-dashoffset:0;stroke-opacity:1"
           id="rect7762"
           width="24.727106"
           height="162.76628"
           x="838.69647"
           y="591.71552"
           ry="12.363553" />
        <path
           inkscape:connector-curvature="0"
           style="fill:#1a1a1a;fill-rule:evenodd;stroke:#000000;stroke-width:1px;stroke-linecap:butt;stroke-linejoin:miter;stroke-opacity:1"
           d="m 866,644.17383 0,60 24,0 20,20 0,329.99997 40,0 0,-339.99997 -50,-70 -34,0 z m 64.59961,110.33398 a 10.802447,10.802447 0 0 1 10.80078,10.80078 10.802447,10.802447 0 0 1 -10.80078,10.80274 10.802447,10.802447 0 0 1 -10.80273,-10.80274 10.802447,10.802447 0 0 1 10.80273,-10.80078 z m 0,39.95508 a 10.802447,10.802447 0 0 1 10.80078,10.80078 10.802447,10.802447 0 0 1 -10.80078,10.80274 10.802447,10.802447 0 0 1 -10.80273,-10.80274 10.802447,10.802447 0 0 1 10.80273,-10.80078 z m 0,39.95313 a 10.802447,10.802447 0 0 1 10.80078,10.80273 10.802447,10.802447 0 0 1 -10.80078,10.80273 10.802447,10.802447 0 0 1 -10.80273,-10.80273 10.802447,10.802447 0 0 1 10.80273,-10.80273 z m 0,39.95507 a 10.802447,10.802447 0 0 1 10.80078,10.80274 10.802447,10.802447 0 0 1 -10.80078,10.80273 10.802447,10.802447 0 0 1 -10.80273,-10.80273 10.802447,10.802447 0 0 1 10.80273,-10.80274 z m 0,39.95508 a 10.802447,10.802447 0 0 1 10.80078,10.80078 10.802447,10.802447 0 0 1 -10.80078,10.80469 10.802447,10.802447 0 0 1 -10.80273,-10.80469 10.802447,10.802447 0 0 1 10.80273,-10.80078 z m 0,39.95508 a 10.802447,10.802447 0 0 1 10.80078,10.80078 10.802447,10.802447 0 0 1 -10.80078,10.80274 10.802447,10.802447 0 0 1 -10.80273,-10.80274 10.802447,10.802447 0 0 1 10.80273,-10.80078 z m 0,39.95508 a 10.802447,10.802447 0 0 1 10.80078,10.80077 10.802447,10.802447 0 0 1 -10.80078,10.8027 10.802447,10.802447 0 0 1 -10.80273,-10.8027 10.802447,10.802447 0 0 1 10.80273,-10.80077 z"
           id="path7768" />
        <path
           style="fill:#333333;fill-opacity:1;fill-rule:evenodd;stroke:#000000;stroke-width:1px;stroke-linecap:butt;stroke-linejoin:miter;stroke-opacity:1"
           d="m 870,654.17322 0,40 20,0 25,25 0,20 c 0,0 6.47467,-3.32108 10,-4 3.27319,-0.63036 6.72681,-0.63036 10,0 3.52533,0.67892 10,4 10,4 l 0,-20 -45,-50 0,-15 z"
           id="path7800"
           inkscape:connector-curvature="0"
           sodipodi:nodetypes="cccccaaccccc" />
      </g>
    </g>
    <g
       id="g7816"
       transform="matrix(-1,0,0,1,1603.0946,-1.8122201)">
      <g
         id="g7818">
        <path
           inkscape:connector-curvature="0"
           id="path7820"
           d="m 855.47741,566.79066 c -2.80016,3.37653 -5.82947,7.40863 -7.19342,7.52796 -1.334,0.11671 -4.88649,-3.17631 -8.17082,-5.97789 a 34.096499,34.096499 0 0 0 -1.35853,0.4513 34.096499,34.096499 0 0 0 -3.11129,1.39264 34.096499,34.096499 0 0 0 -2.6626,1.52711 c 0.0363,4.3055 0.26927,9.11315 -0.67434,10.05675 -0.94138,0.94138 -5.72878,0.7109 -10.02658,0.67369 a 34.096499,34.096499 0 0 0 -1.09285,1.78228 34.096499,34.096499 0 0 0 -1.48251,3.06931 34.096499,34.096499 0 0 0 -0.8298,2.27492 c 2.80271,3.28604 6.09862,6.84255 5.98183,8.17738 -0.11927,1.36315 -4.14608,4.38874 -7.52141,7.18752 a 34.096499,34.096499 0 0 0 0.17384,1.4333 34.096499,34.096499 0 0 0 0.7465,3.32514 34.096499,34.096499 0 0 0 0.85867,2.58388 c 4.3655,0.75167 9.50787,1.35997 10.30471,2.49796 0.82268,1.17492 -0.47224,6.51464 -1.25423,10.9633 a 34.096499,34.096499 0 0 0 0.97937,0.91246 34.096499,34.096499 0 0 0 2.71311,2.06304 34.096499,34.096499 0 0 0 1.95875,1.20044 c 3.94867,-2.2645 8.63894,-5.40397 10.04428,-5.02739 1.44744,0.38784 4.04987,5.76204 6.39182,9.73926 a 34.096499,34.096499 0 0 0 0.85802,0.0426 34.096499,34.096499 0 0 0 2.41136,-0.0853 34.096499,34.096499 0 0 0 3.24576,-0.39359 c 1.63258,-4.33805 3.28227,-10.19994 4.6548,-10.83998 1.38816,-0.64731 7.03989,1.91401 11.4343,3.44649 a 34.096499,34.096499 0 0 0 2.00859,-1.76457 34.096499,34.096499 0 0 0 2.32347,-2.49402 34.096499,34.096499 0 0 0 0.15153,-0.19941 c -1.53162,-4.39727 -4.10071,-10.06301 -3.4524,-11.45332 0.63822,-1.36866 6.47153,-3.01299 10.80586,-4.64103 a 34.096499,34.096499 0 0 0 0.34244,-2.26705 34.096499,34.096499 0 0 0 0.17055,-3.40451 34.096499,34.096499 0 0 0 -0.0302,-0.85145 c -3.97845,-2.3438 -9.36415,-4.94946 -9.7524,-6.39838 -0.37644,-1.40496 2.76237,-6.09237 5.02673,-10.04035 a 34.096499,34.096499 0 0 0 -0.64942,-1.13221 34.096499,34.096499 0 0 0 -1.98234,-2.77215 34.096499,34.096499 0 0 0 -1.53826,-1.7508 c -4.4496,0.7819 -9.79257,2.07786 -10.9679,1.25488 -1.13651,-0.79579 -1.74503,-5.92639 -2.49533,-10.28831 a 34.096499,34.096499 0 0 0 -1.63075,-0.59497 34.096499,34.096499 0 0 0 -3.30284,-0.84293 34.096499,34.096499 0 0 0 -2.40611,-0.36406 z m -4.20677,18.82516 a 15.113661,15.113661 0 0 1 15.11366,15.11366 15.113661,15.113661 0 0 1 -15.11366,15.11366 15.113661,15.113661 0 0 1 -15.11366,-15.11366 15.113661,15.113661 0 0 1 15.11366,-15.11366 z"
           style="opacity:1;fill:url(#radialGradient7832);fill-opacity:1;fill-rule:evenodd;stroke:#000000;stroke-width:0.82833582;stroke-linecap:round;stroke-linejoin:round;stroke-miterlimit:4;stroke-dasharray:none;stroke-dashoffset:0;stroke-opacity:1" />
        <path
           style="opacity:1;fill:url(#radialGradient7834);fill-opacity:1;fill-rule:evenodd;stroke:#000000;stroke-width:0.82833582;stroke-linecap:round;stroke-linejoin:round;stroke-miterlimit:4;stroke-dasharray:none;stroke-dashoffset:0;stroke-opacity:1"
           d="m 855.47741,711.52977 c -2.80016,3.37653 -5.82947,7.40863 -7.19342,7.52796 -1.334,0.11671 -4.88649,-3.17631 -8.17082,-5.97789 a 34.096499,34.096499 0 0 0 -1.35853,0.4513 34.096499,34.096499 0 0 0 -3.11129,1.39264 34.096499,34.096499 0 0 0 -2.6626,1.52711 c 0.0363,4.3055 0.26927,9.11315 -0.67434,10.05675 -0.94138,0.94138 -5.72878,0.7109 -10.02658,0.67369 a 34.096499,34.096499 0 0 0 -1.09285,1.78228 34.096499,34.096499 0 0 0 -1.48251,3.06931 34.096499,34.096499 0 0 0 -0.8298,2.27492 c 2.80271,3.28604 6.09862,6.84255 5.98183,8.17738 -0.11927,1.36315 -4.14608,4.38874 -7.52141,7.18752 a 34.096499,34.096499 0 0 0 0.17384,1.4333 34.096499,34.096499 0 0 0 0.7465,3.32514 34.096499,34.096499 0 0 0 0.85867,2.58388 c 4.3655,0.75167 9.50787,1.35997 10.30471,2.49796 0.82268,1.17492 -0.47224,6.51464 -1.25423,10.9633 a 34.096499,34.096499 0 0 0 0.97937,0.91246 34.096499,34.096499 0 0 0 2.71311,2.06304 34.096499,34.096499 0 0 0 1.95875,1.20044 c 3.94867,-2.2645 8.63894,-5.40397 10.04428,-5.02739 1.44744,0.38784 4.04987,5.76204 6.39182,9.73926 a 34.096499,34.096499 0 0 0 0.85802,0.0426 34.096499,34.096499 0 0 0 2.41136,-0.0853 34.096499,34.096499 0 0 0 3.24576,-0.39359 c 1.63258,-4.33805 3.28227,-10.19994 4.6548,-10.83998 1.38816,-0.64731 7.03989,1.91401 11.4343,3.44649 a 34.096499,34.096499 0 0 0 2.00859,-1.76457 34.096499,34.096499 0 0 0 2.32347,-2.49402 34.096499,34.096499 0 0 0 0.15153,-0.19941 c -1.53162,-4.39727 -4.10071,-10.06301 -3.4524,-11.45332 0.63822,-1.36866 6.47153,-3.01299 10.80586,-4.64103 a 34.096499,34.096499 0 0 0 0.34244,-2.26705 34.096499,34.096499 0 0 0 0.17055,-3.40451 34.096499,34.096499 0 0 0 -0.0302,-0.85145 c -3.97845,-2.3438 -9.36415,-4.94946 -9.7524,-6.39838 -0.37644,-1.40496 2.76237,-6.09237 5.02673,-10.04035 a 34.096499,34.096499 0 0 0 -0.64942,-1.13221 34.096499,34.096499 0 0 0 -1.98234,-2.77215 34.096499,34.096499 0 0 0 -1.53826,-1.7508 c -4.4496,0.7819 -9.79257,2.07786 -10.9679,1.25488 -1.13651,-0.79579 -1.74503,-5.92639 -2.49533,-10.28831 a 34.096499,34.096499 0 0 0 -1.63075,-0.59497 34.096499,34.096499 0 0 0 -3.30284,-0.84293 34.096499,34.096499 0 0 0 -2.40611,-0.36406 z m -4.20677,18.82516 a 15.113661,15.113661 0 0 1 15.11366,15.11366 15.113661,15.113661 0 0 1 -15.11366,15.11366 15.113661,15.113661 0 0 1 -15.11366,-15.11366 15.113661,15.113661 0 0 1 15.11366,-15.11366 z"
           id="path7822"
           inkscape:connector-curvature="0" />
      </g>
      <g
         id="g7824">
        <rect
           ry="12.363553"
           y="591.71552"
           x="838.69647"
           height="162.76628"
           width="24.727106"
           id="rect7826"
           style="opacity:1;fill:url(#linearGradient7836);fill-opacity:1;fill-rule:evenodd;stroke:#000000;stroke-width:3.94710469;stroke-linecap:round;stroke-linejoin:round;stroke-miterlimit:4;stroke-dasharray:none;stroke-dashoffset:0;stroke-opacity:1" />
        <path
           id="path7828"
           d="m 866,644.17383 0,60 24,0 20,20 0,329.99997 40,0 0,-339.99997 -50,-70 -34,0 z m 64.59961,110.33398 a 10.802447,10.802447 0 0 1 10.80078,10.80078 10.802447,10.802447 0 0 1 -10.80078,10.80274 10.802447,10.802447 0 0 1 -10.80273,-10.80274 10.802447,10.802447 0 0 1 10.80273,-10.80078 z m 0,39.95508 a 10.802447,10.802447 0 0 1 10.80078,10.80078 10.802447,10.802447 0 0 1 -10.80078,10.80274 10.802447,10.802447 0 0 1 -10.80273,-10.80274 10.802447,10.802447 0 0 1 10.80273,-10.80078 z m 0,39.95313 a 10.802447,10.802447 0 0 1 10.80078,10.80273 10.802447,10.802447 0 0 1 -10.80078,10.80273 10.802447,10.802447 0 0 1 -10.80273,-10.80273 10.802447,10.802447 0 0 1 10.80273,-10.80273 z m 0,39.95507 a 10.802447,10.802447 0 0 1 10.80078,10.80274 10.802447,10.802447 0 0 1 -10.80078,10.80273 10.802447,10.802447 0 0 1 -10.80273,-10.80273 10.802447,10.802447 0 0 1 10.80273,-10.80274 z m 0,39.95508 a 10.802447,10.802447 0 0 1 10.80078,10.80078 10.802447,10.802447 0 0 1 -10.80078,10.80469 10.802447,10.802447 0 0 1 -10.80273,-10.80469 10.802447,10.802447 0 0 1 10.80273,-10.80078 z m 0,39.95508 a 10.802447,10.802447 0 0 1 10.80078,10.80078 10.802447,10.802447 0 0 1 -10.80078,10.80274 10.802447,10.802447 0 0 1 -10.80273,-10.80274 10.802447,10.802447 0 0 1 10.80273,-10.80078 z m 0,39.95508 a 10.802447,10.802447 0 0 1 10.80078,10.80077 10.802447,10.802447 0 0 1 -10.80078,10.8027 10.802447,10.802447 0 0 1 -10.80273,-10.8027 10.802447,10.802447 0 0 1 10.80273,-10.80077 z"
           style="fill:#1a1a1a;fill-rule:evenodd;stroke:#000000;stroke-width:1px;stroke-linecap:butt;stroke-linejoin:miter;stroke-opacity:1"
           inkscape:connector-curvature="0" />
        <path
           sodipodi:nodetypes="cccccaaccccc"
           inkscape:connector-curvature="0"
           id="path7830"
           d="m 870,654.17322 0,40 20,0 25,25 0,20 c 0,0 6.47467,-3.32108 10,-4 3.27319,-0.63036 6.72681,-0.63036 10,0 3.52533,0.67892 10,4 10,4 l 0,-20 -45,-50 0,-15 z"
           style="fill:#333333;fill-opacity:1;fill-rule:evenodd;stroke:#000000;stroke-width:1px;stroke-linecap:butt;stroke-linejoin:miter;stroke-opacity:1" />
      </g>
    </g>
    <g
       id="g7922">
      <g
         id="g7918">
        <circle
           style="opacity:1;fill:#974c00;fill-opacity:1;fill-rule:evenodd;stroke:none;stroke-width:3;stroke-linecap:round;stroke-linejoin:round;stroke-miterlimit:4;stroke-dasharray:none;stroke-dashoffset:0;stroke-opacity:1"
           id="path7872"
           cx="672.56543"
           cy="843.46649"
           r="10" />
        <circle
           r="10"
           cy="845.19049"
           cx="922.05811"
           id="circle7874"
           style="opacity:1;fill:#974c00;fill-opacity:1;fill-rule:evenodd;stroke:none;stroke-width:3;stroke-linecap:round;stroke-linejoin:round;stroke-miterlimit:4;stroke-dasharray:none;stroke-dashoffset:0;stroke-opacity:1" />
      </g>
      <g
         transform="translate(1.6095093,-0.63473916)"
         id="g7888">
        <rect
           style="opacity:1;fill:url(#linearGradient7884);fill-opacity:1;fill-rule:evenodd;stroke:none;stroke-width:3;stroke-linecap:round;stroke-linejoin:round;stroke-miterlimit:4;stroke-dasharray:none;stroke-dashoffset:0;stroke-opacity:1"
           id="rect7876"
           width="250"
           height="10"
           x="670.44775"
           y="839.62097"
           ry="5" />
        <rect
           style="opacity:1;fill:#974c00;fill-opacity:1;fill-rule:evenodd;stroke:none;stroke-width:3;stroke-linecap:round;stroke-linejoin:round;stroke-miterlimit:4;stroke-dasharray:none;stroke-dashoffset:0;stroke-opacity:1"
           id="rect7886"
           width="180"
           height="20"
           x="705.44775"
           y="834.62097"
           ry="0" />
      </g>
    </g>
    <g
       id="g7930"
       transform="translate(0,40.134835)">
      <g
         id="g7932">
        <circle
           r="10"
           cy="843.46649"
           cx="672.56543"
           id="circle7934"
           style="opacity:1;fill:#974c00;fill-opacity:1;fill-rule:evenodd;stroke:none;stroke-width:3;stroke-linecap:round;stroke-linejoin:round;stroke-miterlimit:4;stroke-dasharray:none;stroke-dashoffset:0;stroke-opacity:1" />
        <circle
           style="opacity:1;fill:#974c00;fill-opacity:1;fill-rule:evenodd;stroke:none;stroke-width:3;stroke-linecap:round;stroke-linejoin:round;stroke-miterlimit:4;stroke-dasharray:none;stroke-dashoffset:0;stroke-opacity:1"
           id="circle7936"
           cx="922.05811"
           cy="845.19049"
           r="10" />
      </g>
      <g
         id="g7938"
         transform="translate(1.6095093,-0.63473916)">
        <rect
           ry="5"
           y="839.62097"
           x="670.44775"
           height="10"
           width="250"
           id="rect7940"
           style="opacity:1;fill:url(#linearGradient7944);fill-opacity:1;fill-rule:evenodd;stroke:none;stroke-width:3;stroke-linecap:round;stroke-linejoin:round;stroke-miterlimit:4;stroke-dasharray:none;stroke-dashoffset:0;stroke-opacity:1" />
        <rect
           ry="0"
           y="834.62097"
           x="705.44775"
           height="20"
           width="180"
           id="rect7942"
           style="opacity:1;fill:#974c00;fill-opacity:1;fill-rule:evenodd;stroke:none;stroke-width:3;stroke-linecap:round;stroke-linejoin:round;stroke-miterlimit:4;stroke-dasharray:none;stroke-dashoffset:0;stroke-opacity:1" />
      </g>
    </g>
    <g
       transform="translate(0.37509192,80.26967)"
       id="g7946">
      <g
         id="g7948">
        <circle
           style="opacity:1;fill:#974c00;fill-opacity:1;fill-rule:evenodd;stroke:none;stroke-width:3;stroke-linecap:round;stroke-linejoin:round;stroke-miterlimit:4;stroke-dasharray:none;stroke-dashoffset:0;stroke-opacity:1"
           id="circle7950"
           cx="672.56543"
           cy="843.46649"
           r="10" />
        <circle
           r="10"
           cy="845.19049"
           cx="922.05811"
           id="circle7952"
           style="opacity:1;fill:#974c00;fill-opacity:1;fill-rule:evenodd;stroke:none;stroke-width:3;stroke-linecap:round;stroke-linejoin:round;stroke-miterlimit:4;stroke-dasharray:none;stroke-dashoffset:0;stroke-opacity:1" />
      </g>
      <g
         transform="translate(1.6095093,-0.63473916)"
         id="g7954">
        <rect
           style="opacity:1;fill:url(#linearGradient7960);fill-opacity:1;fill-rule:evenodd;stroke:none;stroke-width:3;stroke-linecap:round;stroke-linejoin:round;stroke-miterlimit:4;stroke-dasharray:none;stroke-dashoffset:0;stroke-opacity:1"
           id="rect7956"
           width="250"
           height="10"
           x="670.44775"
           y="839.62097"
           ry="5" />
        <rect
           style="opacity:1;fill:#974c00;fill-opacity:1;fill-rule:evenodd;stroke:none;stroke-width:3;stroke-linecap:round;stroke-linejoin:round;stroke-miterlimit:4;stroke-dasharray:none;stroke-dashoffset:0;stroke-opacity:1"
           id="rect7958"
           width="180"
           height="20"
           x="705.44775"
           y="834.62097"
           ry="0" />
      </g>
    </g>
    <path
       style="fill:none;fill-rule:evenodd;stroke:#000000;stroke-width:3;stroke-linecap:butt;stroke-linejoin:miter;stroke-miterlimit:4;stroke-dasharray:3, 6;stroke-dashoffset:0;stroke-opacity:0.53909463"
       d="m 197.70279,1430.4472 0,-80 1200.00001,0 0,80"
       id="path7972"
       inkscape:connector-curvature="0" />
    <path
       inkscape:connector-curvature="0"
       id="path7974"
       d="m 200,1054.1732 0,80 1200,0 0,-80"
       style="fill:none;fill-rule:evenodd;stroke:#000000;stroke-width:3;stroke-linecap:butt;stroke-linejoin:miter;stroke-miterlimit:4;stroke-dasharray:3, 6;stroke-dashoffset:0;stroke-opacity:0.53909463" />
    <g
       id="g7996"
       transform="translate(-9.6424178,0)">
      <rect
         ry="30"
         y="1174.1732"
         x="250"
         height="160"
         width="258.88544"
         id="rect7976"
         style="opacity:1;fill:url(#linearGradient7987);fill-opacity:1;fill-rule:evenodd;stroke:#000000;stroke-width:3;stroke-linecap:round;stroke-linejoin:round;stroke-miterlimit:4;stroke-dasharray:none;stroke-dashoffset:0;stroke-opacity:0.53909463" />
      <path
         inkscape:connector-curvature="0"
         id="path7989"
         d="m 497.41016,1211.4652 a 5,5 0 0 0 -5,5 5,5 0 0 0 5,5 5,5 0 0 0 5,-5 5,5 0 0 0 -5,-5 z m 0,75.416 a 5,5 0 0 0 -5,5 5,5 0 0 0 5,5 5,5 0 0 0 5,-5 5,5 0 0 0 -5,-5 z"
         style="opacity:1;fill:#3a3a3a;fill-opacity:1;fill-rule:evenodd;stroke:#000000;stroke-width:3;stroke-linecap:round;stroke-linejoin:round;stroke-miterlimit:4;stroke-dasharray:none;stroke-dashoffset:0;stroke-opacity:0.53909463" />
      <rect
         ry="2.5"
         y="1216.6732"
         x="495"
         height="75"
         width="5"
         id="rect7994"
         style="opacity:1;fill:#a97c0a;fill-opacity:1;fill-rule:evenodd;stroke:none;stroke-width:3;stroke-linecap:round;stroke-linejoin:round;stroke-miterlimit:4;stroke-dasharray:none;stroke-dashoffset:0;stroke-opacity:0.53909463" />
    </g>
    <g
       id="g8001"
       transform="matrix(-1,0,0,1,1607.4182,1.3774879)">
      <rect
         style="opacity:1;fill:url(#linearGradient8009);fill-opacity:1;fill-rule:evenodd;stroke:#000000;stroke-width:3;stroke-linecap:round;stroke-linejoin:round;stroke-miterlimit:4;stroke-dasharray:none;stroke-dashoffset:0;stroke-opacity:0.53909463"
         id="rect8003"
         width="258.88544"
         height="160"
         x="250"
         y="1174.1732"
         ry="30" />
      <path
         style="opacity:1;fill:#3a3a3a;fill-opacity:1;fill-rule:evenodd;stroke:#000000;stroke-width:3;stroke-linecap:round;stroke-linejoin:round;stroke-miterlimit:4;stroke-dasharray:none;stroke-dashoffset:0;stroke-opacity:0.53909463"
         d="m 497.41016,1211.4652 a 5,5 0 0 0 -5,5 5,5 0 0 0 5,5 5,5 0 0 0 5,-5 5,5 0 0 0 -5,-5 z m 0,75.416 a 5,5 0 0 0 -5,5 5,5 0 0 0 5,5 5,5 0 0 0 5,-5 5,5 0 0 0 -5,-5 z"
         id="path8005"
         inkscape:connector-curvature="0" />
      <rect
         style="opacity:1;fill:#a97c0a;fill-opacity:1;fill-rule:evenodd;stroke:none;stroke-width:3;stroke-linecap:round;stroke-linejoin:round;stroke-miterlimit:4;stroke-dasharray:none;stroke-dashoffset:0;stroke-opacity:0.53909463"
         id="rect8007"
         width="5"
         height="75"
         x="495"
         y="1216.6732"
         ry="2.5" />
    </g>
    <g
       id="g8025"
       transform="matrix(0.71571336,0,0,0.71571336,-298.50098,161.80834)">
      <rect
         ry="2.5"
         y="1254.1732"
         x="700"
         height="100"
         width="375.63577"
         id="rect8015"
         style="opacity:0.43500001;fill:url(#linearGradient8023);fill-opacity:1;fill-rule:evenodd;stroke:none;stroke-width:3;stroke-linecap:round;stroke-linejoin:round;stroke-miterlimit:4;stroke-dasharray:none;stroke-dashoffset:0;stroke-opacity:0.53909463" />
      <text
         sodipodi:linespacing="125%"
         id="text8011"
         y="1328.6117"
         x="714.59094"
         style="font-style:normal;font-weight:normal;font-size:125px;line-height:125%;font-family:sans-serif;letter-spacing:0px;word-spacing:0px;fill:#ffffff;fill-opacity:1;stroke:none;stroke-width:1px;stroke-linecap:butt;stroke-linejoin:miter;stroke-opacity:1"
         xml:space="preserve"><tspan
           style="font-style:normal;font-variant:normal;font-weight:bold;font-stretch:normal;font-size:87.5px;font-family:sans-serif;-inkscape-font-specification:'sans-serif Bold';fill:#ffffff;fill-opacity:1"
           y="1328.6117"
           x="714.59094"
           id="tspan8013"
           sodipodi:role="line">suplies</tspan></text>
    </g>
    <path
       style="opacity:1;fill:#ff0000;fill-opacity:1;fill-rule:evenodd;stroke:#ffffff;stroke-width:1.54426014;stroke-linecap:round;stroke-linejoin:round;stroke-miterlimit:4;stroke-dasharray:none;stroke-dashoffset:0;stroke-opacity:1"
       d="m 797.2435,1101.3356 -26.84529,45.165 20.89233,0 0,215.3464 -20.89233,0 26.84529,45.1649 26.84647,-45.1649 -20.8935,0 0,-215.3464 20.8935,0 -26.84647,-45.165 z"
       id="rect8030"
       inkscape:connector-curvature="0" />
  </g>
</svg>
