<?xml version="1.0" encoding="UTF-8" standalone="no"?>
<!-- Created with Inkscape (http://www.inkscape.org/) -->

<svg
   xmlns:dc="http://purl.org/dc/elements/1.1/"
   xmlns:cc="http://creativecommons.org/ns#"
   xmlns:rdf="http://www.w3.org/1999/02/22-rdf-syntax-ns#"
   xmlns:svg="http://www.w3.org/2000/svg"
   xmlns="http://www.w3.org/2000/svg"
   xmlns:xlink="http://www.w3.org/1999/xlink"
   xmlns:sodipodi="http://sodipodi.sourceforge.net/DTD/sodipodi-0.dtd"
   xmlns:inkscape="http://www.inkscape.org/namespaces/inkscape"
   width="640mm"
   height="480mm"
   viewBox="0 0 2267.7166 1700.7874"
   id="svg2"
   version="1.1"
   inkscape:version="0.91 r13725"
   sodipodi:docname="enemigo7.svg"
   enable-background="new">
  <defs
     id="defs4">
    <inkscape:path-effect
       effect="spiro"
       id="path-effect4279"
       is_visible="true" />
    <linearGradient
       inkscape:collect="always"
       id="linearGradient4257">
      <stop
         style="stop-color:#2591a3;stop-opacity:1"
         offset="0"
         id="stop4259" />
      <stop
         style="stop-color:#001143;stop-opacity:1"
         offset="1"
         id="stop4261" />
    </linearGradient>
    <linearGradient
       inkscape:collect="always"
       id="linearGradient4247">
      <stop
         style="stop-color:#642800;stop-opacity:1"
         offset="0"
         id="stop4249" />
      <stop
         id="stop4255"
         offset="0.5"
         style="stop-color:#d05909;stop-opacity:1" />
      <stop
         style="stop-color:#642800;stop-opacity:1"
         offset="1"
         id="stop4251" />
    </linearGradient>
    <inkscape:path-effect
       effect="spiro"
       id="path-effect4209"
       is_visible="true" />
    <filter
       inkscape:collect="always"
       style="color-interpolation-filters:sRGB"
       id="filter4164">
      <feBlend
         inkscape:collect="always"
         mode="darken"
         in2="BackgroundImage"
         id="feBlend4166" />
    </filter>
    <linearGradient
       inkscape:collect="always"
       xlink:href="#linearGradient4247"
       id="linearGradient4253"
       x1="814.28009"
       y1="1254.6898"
       x2="814.28009"
       y2="443.67825"
       gradientUnits="userSpaceOnUse" />
    <linearGradient
       inkscape:collect="always"
       xlink:href="#linearGradient4257"
       id="linearGradient4263"
       x1="1124.5229"
       y1="850.39355"
       x2="1778.1247"
       y2="850.39355"
       gradientUnits="userSpaceOnUse" />
  </defs>
  <sodipodi:namedview
     id="base"
     pagecolor="#ffffff"
     bordercolor="#666666"
     borderopacity="1.0"
     inkscape:pageopacity="0.0"
     inkscape:pageshadow="2"
     inkscape:zoom="0.20653219"
     inkscape:cx="1040.5788"
     inkscape:cy="97.260758"
     inkscape:document-units="px"
     inkscape:current-layer="layer1"
     showgrid="false"
     height="450mm"
     inkscape:window-width="1360"
     inkscape:window-height="716"
     inkscape:window-x="-8"
     inkscape:window-y="-8"
     inkscape:window-maximized="1" />
  <metadata
     id="metadata7">
    <rdf:RDF>
      <cc:Work
         rdf:about="">
        <dc:format>image/svg+xml</dc:format>
        <dc:type
           rdf:resource="http://purl.org/dc/dcmitype/StillImage" />
        <dc:title></dc:title>
      </cc:Work>
    </rdf:RDF>
  </metadata>
  <g
     inkscape:label="Capa 1"
     inkscape:groupmode="layer"
     id="layer1"
     transform="translate(0,648.42519)"
     style="filter:url(#filter4164)">
    <path
       style="opacity:1;fill:url(#linearGradient4253);fill-opacity:1;fill-rule:evenodd;stroke:#000000;stroke-width:2;stroke-linecap:round;stroke-linejoin:miter;stroke-miterlimit:4;stroke-dasharray:none;stroke-dashoffset:0;stroke-opacity:1"
       d="M 1029.1777 443.58594 A 746.23212 373.11606 0 0 0 310.00195 717.20312 L 409.02344 717.20312 A 455.51254 455.51254 0 0 1 766.44336 543.08398 A 455.51254 455.51254 0 0 1 1124.5156 717.20312 L 1747.5781 717.20312 A 746.23212 373.11606 0 0 0 1505.2773 529.88867 A 91.724365 91.724365 0 0 1 1419.3965 589.72266 A 91.724365 91.724365 0 0 1 1327.6719 497.99805 A 91.724365 91.724365 0 0 1 1330.5117 475.81641 A 746.23212 373.11606 0 0 0 1029.1777 443.58594 z M 1544.793 583.6875 A 42.973148 42.973148 0 0 1 1587.7676 626.66211 A 42.973148 42.973148 0 0 1 1544.793 669.63477 A 42.973148 42.973148 0 0 1 1501.8203 626.66211 A 42.973148 42.973148 0 0 1 1544.793 583.6875 z M 310.00195 983.58594 A 746.23212 373.11606 0 0 0 1029.1777 1257.2031 A 746.23212 373.11606 0 0 0 1330.5117 1224.9727 A 91.724365 91.724365 0 0 1 1327.6719 1202.791 A 91.724365 91.724365 0 0 1 1419.3965 1111.0664 A 91.724365 91.724365 0 0 1 1505.2773 1170.9004 A 746.23212 373.11606 0 0 0 1747.5781 983.58594 L 1124.5156 983.58594 A 455.51254 455.51254 0 0 1 766.44336 1157.7051 A 455.51254 455.51254 0 0 1 409.02344 983.58594 L 310.00195 983.58594 z M 1544.793 1031.1543 A 42.973148 42.973148 0 0 1 1587.7676 1074.1289 A 42.973148 42.973148 0 0 1 1544.793 1117.1016 A 42.973148 42.973148 0 0 1 1501.8203 1074.1289 A 42.973148 42.973148 0 0 1 1544.793 1031.1543 z "
       transform="translate(0,-648.42519)"
       id="path4133" />
    <path
       style="opacity:1;fill:url(#linearGradient4263);fill-opacity:1;fill-rule:evenodd;stroke:#000000;stroke-width:2.25340366;stroke-linecap:round;stroke-linejoin:miter;stroke-miterlimit:4;stroke-dasharray:none;stroke-dashoffset:0;stroke-opacity:1"
       d="M 1126.7324 725.69336 A 171.14157 195.69766 0 0 1 1166.1602 850.39453 A 171.14157 195.69766 0 0 1 1126.8262 975.09375 L 1148.6797 975.09375 L 1148.6797 969.08203 C 1148.6797 962.27999 1154.155 956.80273 1160.957 956.80273 L 1192.3359 956.80273 C 1199.138 956.80273 1204.6133 962.27999 1204.6133 969.08203 L 1204.6133 975.09375 L 1237.9004 975.09375 L 1237.9004 969.08203 C 1237.9004 962.27999 1243.3757 956.80273 1250.1777 956.80273 L 1281.5547 956.80273 C 1288.3567 956.80273 1293.834 962.27999 1293.834 969.08203 L 1293.834 975.09375 L 1327.1211 975.09375 L 1327.1211 969.08203 C 1327.1211 962.27999 1332.5963 956.80273 1339.3984 956.80273 L 1370.7754 956.80273 C 1377.5774 956.80273 1383.0547 962.27999 1383.0547 969.08203 L 1383.0547 975.09375 L 1416.3418 975.09375 L 1416.3418 969.08203 C 1416.3418 962.27999 1421.817 956.80273 1428.6191 956.80273 L 1459.9961 956.80273 C 1466.7981 956.80273 1472.2754 962.27999 1472.2754 969.08203 L 1472.2754 975.09375 L 1505.5625 975.09375 L 1505.5625 969.08203 C 1505.5625 962.27999 1511.0377 956.80273 1517.8398 956.80273 L 1549.2168 956.80273 C 1556.0188 956.80273 1561.4941 962.27999 1561.4941 969.08203 L 1561.4941 975.09375 L 1594.7812 975.09375 L 1594.7812 969.08203 C 1594.7813 962.27999 1600.2584 956.80273 1607.0605 956.80273 L 1638.4375 956.80273 C 1645.2395 956.80273 1650.7148 962.27999 1650.7148 969.08203 L 1650.7148 975.09375 L 1672.0586 975.09375 C 1730.1947 975.09375 1776.998 928.29042 1776.998 870.1543 L 1776.998 830.63281 C 1776.998 772.49669 1730.1947 725.69336 1672.0586 725.69336 L 1650.7148 725.69336 L 1650.7148 731.70508 C 1650.7148 738.50711 1645.2395 743.98438 1638.4375 743.98438 L 1607.0605 743.98438 C 1600.2584 743.98437 1594.7812 738.50711 1594.7812 731.70508 L 1594.7812 725.69336 L 1561.4941 725.69336 L 1561.4941 731.70508 C 1561.4941 738.50711 1556.0188 743.98438 1549.2168 743.98438 L 1517.8398 743.98438 C 1511.0377 743.98437 1505.5625 738.50711 1505.5625 731.70508 L 1505.5625 725.69336 L 1472.2754 725.69336 L 1472.2754 731.70508 C 1472.2754 738.50711 1466.7981 743.98438 1459.9961 743.98438 L 1428.6191 743.98438 C 1421.817 743.98437 1416.3418 738.50711 1416.3418 731.70508 L 1416.3418 725.69336 L 1383.0547 725.69336 L 1383.0547 731.70508 C 1383.0547 738.50711 1377.5774 743.98438 1370.7754 743.98438 L 1339.3984 743.98438 C 1332.5963 743.98437 1327.1211 738.50711 1327.1211 731.70508 L 1327.1211 725.69336 L 1293.834 725.69336 L 1293.834 731.70508 C 1293.834 738.50711 1288.3567 743.98438 1281.5547 743.98438 L 1250.1777 743.98438 C 1243.3757 743.98437 1237.9004 738.50711 1237.9004 731.70508 L 1237.9004 725.69336 L 1204.6133 725.69336 L 1204.6133 731.70508 C 1204.6133 738.50711 1199.138 743.98438 1192.3359 743.98438 L 1160.957 743.98438 C 1154.155 743.98437 1148.6797 738.50711 1148.6797 731.70508 L 1148.6797 725.69336 L 1126.7324 725.69336 z "
       transform="translate(0,-648.42519)"
       id="rect4174" />
    <path
       style="opacity:1;fill:#25a2a3;fill-opacity:1;fill-rule:evenodd;stroke:#000000;stroke-width:2.18806458;stroke-linecap:round;stroke-linejoin:miter;stroke-miterlimit:4;stroke-dasharray:none;stroke-dashoffset:0;stroke-opacity:1"
       d="M 1616.2344 1983.459 A 462.56525 191.37061 16.56769 0 0 1411.1211 2060.6758 L 1578.4473 2122.0293 C 1801.386 2171.014 2022.6655 2227.5452 2241.7812 2291.4941 C 2258.8287 2296.4694 2275.8579 2301.5053 2292.8789 2306.5703 A 462.56525 191.37061 16.56769 0 0 2287.2461 2282.0605 A 462.56525 191.37061 16.56769 0 0 1770.4883 1995.334 A 462.56525 191.37061 16.56769 0 0 1616.2344 1983.459 z "
       transform="translate(0,-648.42519)"
       id="path4275" />
    <path
       style="opacity:1;fill:#a34825;fill-opacity:1;fill-rule:evenodd;stroke:#000000;stroke-width:2.36947465;stroke-linecap:round;stroke-linejoin:miter;stroke-miterlimit:4;stroke-dasharray:none;stroke-dashoffset:0;stroke-opacity:1"
       d="m 1404.0625,1406.3072 0,64.0175 c 0,58.1037 -46.7772,104.8809 -104.8809,104.8809 l -1087.70308,0 c -1.7934,0 -3.57494,-0.047 -5.34571,-0.1348 -64.53188,36.3524 -103.47731,75.8862 -114.683591,116.416 0,0 370.694661,8 556.041991,12 185.34734,4 370.65149,12 556.04199,12 185.3905,0 370.6947,-8 556.042,-12 185.3473,-4 556.042,-12 556.042,-12 -39.24,-142.3682 -413.4643,-259.4441 -911.5547,-285.1796 z"
       id="path4265"
       inkscape:connector-curvature="0"
       sodipodi:nodetypes="csssccaaacc" />
    <rect
       style="opacity:1;fill:#ff0000;fill-opacity:1;fill-rule:evenodd;stroke:#000000;stroke-width:2.36947465;stroke-linecap:round;stroke-linejoin:miter;stroke-miterlimit:4;stroke-dasharray:none;stroke-dashoffset:0;stroke-opacity:1"
       id="rect4282"
       width="111.36279"
       height="106.52093"
       x="1699.4929"
       y="1584.9669"
       ry="0" />
  </g>
</svg>
