<?xml version="1.0" encoding="UTF-8" standalone="no"?>
<!-- Created with Inkscape (http://www.inkscape.org/) -->

<svg
   xmlns:dc="http://purl.org/dc/elements/1.1/"
   xmlns:cc="http://creativecommons.org/ns#"
   xmlns:rdf="http://www.w3.org/1999/02/22-rdf-syntax-ns#"
   xmlns:svg="http://www.w3.org/2000/svg"
   xmlns="http://www.w3.org/2000/svg"
   xmlns:xlink="http://www.w3.org/1999/xlink"
   xmlns:sodipodi="http://sodipodi.sourceforge.net/DTD/sodipodi-0.dtd"
   xmlns:inkscape="http://www.inkscape.org/namespaces/inkscape"
   width="450mm"
   height="450mm"
   viewBox="0 0 1594.4882 1594.4882"
   id="svg2"
   version="1.1"
   inkscape:version="0.91 r13725"
   sodipodi:docname="enemigo3.svg"
   inkscape:export-filename="C:\Users\pc\Desktop\enemigo3.png"
   inkscape:export-xdpi="57.79911"
   inkscape:export-ydpi="57.79911">
  <defs
     id="defs4">
    <linearGradient
       id="linearGradient4797"
       inkscape:collect="always">
      <stop
         id="stop4799"
         offset="0"
         style="stop-color:#690060;stop-opacity:1" />
      <stop
         style="stop-color:#c767bf;stop-opacity:1"
         offset="0.20023488"
         id="stop4801" />
      <stop
         id="stop4803"
         offset="1"
         style="stop-color:#690060;stop-opacity:1" />
    </linearGradient>
    <linearGradient
       inkscape:collect="always"
       id="linearGradient4744">
      <stop
         style="stop-color:#ff2a2a;stop-opacity:1;"
         offset="0"
         id="stop4746" />
      <stop
         style="stop-color:#ff2a2a;stop-opacity:0;"
         offset="1"
         id="stop4748" />
    </linearGradient>
    <linearGradient
       inkscape:collect="always"
       id="linearGradient4607">
      <stop
         style="stop-color:#690060;stop-opacity:1"
         offset="0"
         id="stop4609" />
      <stop
         id="stop4615"
         offset="0.5"
         style="stop-color:#c767bf;stop-opacity:1" />
      <stop
         style="stop-color:#690060;stop-opacity:1"
         offset="1"
         id="stop4611" />
    </linearGradient>
    <linearGradient
       inkscape:collect="always"
       id="linearGradient4596">
      <stop
         style="stop-color:#00ffff;stop-opacity:1;"
         offset="0"
         id="stop4598" />
      <stop
         style="stop-color:#636f6f;stop-opacity:1"
         offset="1"
         id="stop4600" />
    </linearGradient>
    <linearGradient
       inkscape:collect="always"
       id="linearGradient4583">
      <stop
         style="stop-color:#4e0000;stop-opacity:0.35882353"
         offset="0"
         id="stop4585" />
      <stop
         style="stop-color:#8c0000;stop-opacity:1"
         offset="1"
         id="stop4587" />
    </linearGradient>
    <linearGradient
       inkscape:collect="always"
       id="linearGradient4228">
      <stop
         style="stop-color:#ffff00;stop-opacity:1;"
         offset="0"
         id="stop4230" />
      <stop
         style="stop-color:#8c8c00;stop-opacity:1"
         offset="1"
         id="stop4232" />
    </linearGradient>
    <linearGradient
       inkscape:collect="always"
       id="linearGradient4175">
      <stop
         style="stop-color:#002200;stop-opacity:1"
         offset="0"
         id="stop4177" />
      <stop
         style="stop-color:#5d5d5d;stop-opacity:1"
         offset="1"
         id="stop4179" />
    </linearGradient>
    <linearGradient
       inkscape:collect="always"
       xlink:href="#linearGradient4175"
       id="linearGradient4181"
       x1="800"
       y1="214.48816"
       x2="800"
       y2="309.48816"
       gradientUnits="userSpaceOnUse" />
    <linearGradient
       inkscape:collect="always"
       xlink:href="#linearGradient4228"
       id="linearGradient4234"
       x1="790"
       y1="279.48816"
       x2="790"
       y2="309.48816"
       gradientUnits="userSpaceOnUse" />
    <linearGradient
       inkscape:collect="always"
       xlink:href="#linearGradient4175"
       id="linearGradient4261"
       gradientUnits="userSpaceOnUse"
       x1="800"
       y1="214.48816"
       x2="800"
       y2="309.48816" />
    <linearGradient
       inkscape:collect="always"
       xlink:href="#linearGradient4228"
       id="linearGradient4263"
       gradientUnits="userSpaceOnUse"
       x1="790"
       y1="279.48816"
       x2="790"
       y2="309.48816" />
    <linearGradient
       inkscape:collect="always"
       xlink:href="#linearGradient4175"
       id="linearGradient4317"
       gradientUnits="userSpaceOnUse"
       x1="800"
       y1="214.48816"
       x2="800"
       y2="309.48816" />
    <linearGradient
       inkscape:collect="always"
       xlink:href="#linearGradient4228"
       id="linearGradient4319"
       gradientUnits="userSpaceOnUse"
       x1="790"
       y1="279.48816"
       x2="790"
       y2="309.48816" />
    <linearGradient
       inkscape:collect="always"
       xlink:href="#linearGradient4175"
       id="linearGradient4321"
       gradientUnits="userSpaceOnUse"
       x1="800"
       y1="214.48816"
       x2="800"
       y2="309.48816" />
    <linearGradient
       inkscape:collect="always"
       xlink:href="#linearGradient4228"
       id="linearGradient4323"
       gradientUnits="userSpaceOnUse"
       x1="790"
       y1="279.48816"
       x2="790"
       y2="309.48816" />
    <linearGradient
       inkscape:collect="always"
       xlink:href="#linearGradient4175"
       id="linearGradient4359"
       gradientUnits="userSpaceOnUse"
       x1="800"
       y1="214.48816"
       x2="800"
       y2="309.48816" />
    <linearGradient
       inkscape:collect="always"
       xlink:href="#linearGradient4228"
       id="linearGradient4361"
       gradientUnits="userSpaceOnUse"
       x1="790"
       y1="279.48816"
       x2="790"
       y2="309.48816" />
    <linearGradient
       inkscape:collect="always"
       xlink:href="#linearGradient4175"
       id="linearGradient4363"
       gradientUnits="userSpaceOnUse"
       x1="800"
       y1="214.48816"
       x2="800"
       y2="309.48816" />
    <linearGradient
       inkscape:collect="always"
       xlink:href="#linearGradient4228"
       id="linearGradient4365"
       gradientUnits="userSpaceOnUse"
       x1="790"
       y1="279.48816"
       x2="790"
       y2="309.48816" />
    <radialGradient
       inkscape:collect="always"
       xlink:href="#linearGradient4175"
       id="radialGradient4552"
       cx="801.00293"
       cy="864.125"
       fx="801.00293"
       fy="864.125"
       r="634.38605"
       gradientTransform="matrix(0.81810913,0,0,0.92946062,145.69512,60.954846)"
       gradientUnits="userSpaceOnUse" />
    <linearGradient
       inkscape:collect="always"
       xlink:href="#linearGradient4583"
       id="linearGradient4589"
       x1="800"
       y1="154.48816"
       x2="800"
       y2="1554.4882"
       gradientUnits="userSpaceOnUse" />
    <radialGradient
       inkscape:collect="always"
       xlink:href="#linearGradient4596"
       id="radialGradient4602"
       cx="800"
       cy="1311.6071"
       fx="800"
       fy="1311.6071"
       r="128.69727"
       gradientTransform="matrix(0.77701732,-2.3184201e-7,6.0278932e-7,2.0202454,178.38535,-1315.2797)"
       gradientUnits="userSpaceOnUse" />
    <linearGradient
       inkscape:collect="always"
       xlink:href="#linearGradient4607"
       id="linearGradient4613"
       x1="585.54349"
       y1="1292.4305"
       x2="1008.9447"
       y2="1292.4305"
       gradientUnits="userSpaceOnUse" />
    <linearGradient
       gradientTransform="translate(0,-1.0236217e-6)"
       inkscape:collect="always"
       xlink:href="#linearGradient4639"
       id="linearGradient4645"
       x1="739.20312"
       y1="973.4693"
       x2="855.28516"
       y2="973.4693"
       gradientUnits="userSpaceOnUse" />
    <linearGradient
       inkscape:collect="always"
       id="linearGradient4639">
      <stop
         style="stop-color:#b900aa;stop-opacity:1"
         offset="0"
         id="stop4641" />
      <stop
         id="stop4647"
         offset="0.5"
         style="stop-color:#2f002b;stop-opacity:1" />
      <stop
         style="stop-color:#b900aa;stop-opacity:1"
         offset="1"
         id="stop4643" />
    </linearGradient>
    <linearGradient
       inkscape:collect="always"
       xlink:href="#linearGradient4639"
       id="linearGradient4726"
       x1="1013.1785"
       y1="1357.0206"
       x2="1555.7283"
       y2="1357.0206"
       gradientUnits="userSpaceOnUse" />
    <linearGradient
       inkscape:collect="always"
       xlink:href="#linearGradient4744"
       id="linearGradient4750"
       x1="1280"
       y1="1284.4882"
       x2="1280"
       y2="1424.4882"
       gradientUnits="userSpaceOnUse" />
    <linearGradient
       inkscape:collect="always"
       xlink:href="#linearGradient4639"
       id="linearGradient4762"
       gradientUnits="userSpaceOnUse"
       x1="1013.1785"
       y1="1357.0206"
       x2="1555.7283"
       y2="1357.0206" />
    <linearGradient
       inkscape:collect="always"
       xlink:href="#linearGradient4744"
       id="linearGradient4764"
       gradientUnits="userSpaceOnUse"
       x1="1280"
       y1="1284.4882"
       x2="1280"
       y2="1424.4882" />
    <linearGradient
       inkscape:collect="always"
       xlink:href="#linearGradient4797"
       id="linearGradient4795"
       x1="989.77722"
       y1="1319.6537"
       x2="1340.4792"
       y2="1319.6537"
       gradientUnits="userSpaceOnUse" />
    <linearGradient
       inkscape:collect="always"
       xlink:href="#linearGradient4797"
       id="linearGradient4807"
       gradientUnits="userSpaceOnUse"
       x1="989.77722"
       y1="1319.6537"
       x2="1340.4792"
       y2="1319.6537"
       gradientTransform="matrix(-1,0,0,1,1587.7272,1.415567e-5)" />
  </defs>
  <sodipodi:namedview
     id="base"
     pagecolor="#ffffff"
     bordercolor="#666666"
     borderopacity="1.0"
     inkscape:pageopacity="0.0"
     inkscape:pageshadow="2"
     inkscape:zoom="0.18721357"
     inkscape:cx="1478.8827"
     inkscape:cy="358.72643"
     inkscape:document-units="px"
     inkscape:current-layer="layer4"
     showgrid="true"
     height="450mm"
     inkscape:window-width="1360"
     inkscape:window-height="716"
     inkscape:window-x="-8"
     inkscape:window-y="-8"
     inkscape:window-maximized="1"
     showguides="true"
     inkscape:guide-bbox="true">
    <inkscape:grid
       type="xygrid"
       id="grid4133" />
    <sodipodi:guide
       position="960.00002,860.00002"
       orientation="0,1"
       id="guide4167" />
    <sodipodi:guide
       position="800.00002,1000"
       orientation="1,0"
       id="guide4169" />
  </sodipodi:namedview>
  <metadata
     id="metadata7">
    <rdf:RDF>
      <cc:Work
         rdf:about="">
        <dc:format>image/svg+xml</dc:format>
        <dc:type
           rdf:resource="http://purl.org/dc/dcmitype/StillImage" />
        <dc:title></dc:title>
      </cc:Work>
    </rdf:RDF>
  </metadata>
  <g
     inkscape:label="Capa 1"
     inkscape:groupmode="layer"
     id="layer1"
     transform="translate(0,542.12598)"
     sodipodi:insensitive="true">
    <g
       id="g4367"
       transform="translate(3.0189556,-4.910281)">
      <g
         transform="matrix(0.95102365,0,0,0.95102365,33.959125,-42.028622)"
         id="g4265">
        <g
           id="g4236"
           inkscape:transform-center-x="532.14258"
           inkscape:transform-center-y="3.2791037"
           transform="matrix(0,-1,1,0,549.28204,1051.6707)">
          <path
             sodipodi:nodetypes="ccccccc"
             inkscape:connector-curvature="0"
             id="path4149"
             transform="translate(0,-542.12598)"
             d="m 797.24414,213.74805 c -64.0214,0.20234 -127.57309,10.93957 -188.10742,31.78125 l 62.89453,62.89258 c 40.89615,-10.61245 82.96244,-16.05077 125.21289,-16.1875 42.19615,0.21283 84.19926,5.71338 125.02734,16.37304 l 62.98633,-62.98633 C 924.75849,224.75833 861.23917,213.99021 797.24414,213.74805 Z"
             style="opacity:1;fill:url(#linearGradient4181);fill-opacity:1;stroke:#000000;stroke-width:2;stroke-linecap:round;stroke-miterlimit:4;stroke-dasharray:none;stroke-dashoffset:0;stroke-opacity:1" />
          <rect
             inkscape:transform-center-y="-247.77069"
             inkscape:transform-center-x="-1.1940758"
             y="-317.63782"
             x="801.38873"
             height="50"
             width="5"
             id="rect4183"
             style="opacity:1;fill:#ff1500;fill-opacity:1;stroke:none;stroke-width:2;stroke-linecap:round;stroke-miterlimit:4;stroke-dasharray:none;stroke-dashoffset:0;stroke-opacity:1" />
          <rect
             transform="matrix(0.98480775,0.17364818,-0.17364818,0.98480775,0,0)"
             style="opacity:1;fill:#ff1500;fill-opacity:1;stroke:none;stroke-width:2;stroke-linecap:round;stroke-miterlimit:4;stroke-dasharray:none;stroke-dashoffset:0;stroke-opacity:1"
             id="rect4193"
             width="5"
             height="50"
             x="803.30676"
             y="-457.70737"
             inkscape:transform-center-x="-44.200874"
             inkscape:transform-center-y="-243.79914" />
          <rect
             inkscape:transform-center-y="-232.41989"
             inkscape:transform-center-x="-85.864665"
             y="-602.15027"
             x="780.86407"
             height="50"
             width="5"
             id="rect4195"
             style="opacity:1;fill:#ff1500;fill-opacity:1;stroke:none;stroke-width:2;stroke-linecap:round;stroke-miterlimit:4;stroke-dasharray:none;stroke-dashoffset:0;stroke-opacity:1"
             transform="matrix(0.93969262,0.34202015,-0.34202015,0.93969262,0,0)" />
          <rect
             transform="matrix(0.98480775,-0.17364818,0.17364818,0.98480775,0,0)"
             style="opacity:1;fill:#ff1500;fill-opacity:1;stroke:none;stroke-width:2;stroke-linecap:round;stroke-miterlimit:4;stroke-dasharray:none;stroke-dashoffset:0;stroke-opacity:1"
             id="rect4197"
             width="5"
             height="50"
             x="775.40167"
             y="-180.54295"
             inkscape:transform-center-x="41.849021"
             inkscape:transform-center-y="-244.21384" />
          <rect
             inkscape:transform-center-y="-233.23668"
             inkscape:transform-center-x="83.62054"
             y="-53.410679"
             x="725.37213"
             height="50"
             width="5"
             id="rect4199"
             style="opacity:1;fill:#ff1500;fill-opacity:1;stroke:none;stroke-width:2;stroke-linecap:round;stroke-miterlimit:4;stroke-dasharray:none;stroke-dashoffset:0;stroke-opacity:1"
             transform="matrix(0.93969262,-0.34202015,0.34202015,0.93969262,0,0)" />
          <path
             id="rect4201"
             transform="translate(0,-542.12598)"
             d="m 802.07227,280.92383 -10,2 0,9.36719 c 1.72371,-0.0232 3.44747,-0.0511 5.17187,-0.0566 1.60971,0.008 3.21903,0.039 4.82813,0.0625 l 0,-11.37305 z m -24.18555,2 -10,2 0,8.27148 c 3.33084,-0.2048 6.66448,-0.37295 10,-0.51172 l 0,-9.75976 z m 38.37109,0 0,9.77929 c 3.33564,0.14255 6.66912,0.31682 10,0.5254 l 0,-8.30469 -10,-2 z m 24.18555,0 0,11.39453 c 3.33687,0.30353 6.67032,0.63799 10,1.00781 l 0,-10.40234 -10,-2 z m -86.74219,2 -10,2 0,8.34179 c 3.32951,-0.36597 6.66339,-0.69444 10,-0.99414 l 0,-9.34765 z m 110.92774,0 0,12.18555 c 3.33766,0.46669 6.67203,0.95871 10,1.49218 l 0,-11.67773 -10,-2 z m -135.11524,2 -10,2 0,9.58984 c 3.32807,-0.52961 6.66232,-1.01763 10,-1.48047 l 0,-10.10937 z m 159.30078,0 0,14.16601 c 3.33906,0.63341 6.67329,1.2893 10,1.99024 l 0,-14.15625 -10,-2 z m -183.48633,2 -10,2 0,12.03906 c 3.32638,-0.69687 6.66139,-1.34719 10,-1.97656 l 0,-12.0625 z m -24.18554,4 -10,2 0,12.60937 0.88867,0.88868 c 3.03022,-0.78634 6.06866,-1.53616 9.11133,-2.26563 l 0,-13.23242 z m 231.85742,0 0,13.36719 c 3.09646,0.74614 6.18801,1.51135 9.27148,2.3164 L 923,307.87891 l 0,-12.95508 -10,-2 z"
             style="opacity:1;fill:url(#linearGradient4234);fill-opacity:1;stroke:none;stroke-width:2;stroke-linecap:round;stroke-miterlimit:4;stroke-dasharray:none;stroke-dashoffset:0;stroke-opacity:1"
             inkscape:connector-curvature="0" />
        </g>
        <g
           transform="matrix(0,-1,-1,0,1049.5552,1051.6707)"
           inkscape:transform-center-y="3.2791037"
           inkscape:transform-center-x="-532.14258"
           id="g4245">
          <path
             style="opacity:1;fill:url(#linearGradient4261);fill-opacity:1;stroke:#000000;stroke-width:2;stroke-linecap:round;stroke-miterlimit:4;stroke-dasharray:none;stroke-dashoffset:0;stroke-opacity:1"
             d="m 797.24414,213.74805 c -64.0214,0.20234 -127.57309,10.93957 -188.10742,31.78125 l 62.89453,62.89258 c 40.89615,-10.61245 82.96244,-16.05077 125.21289,-16.1875 42.19615,0.21283 84.19926,5.71338 125.02734,16.37304 l 62.98633,-62.98633 C 924.75849,224.75833 861.23917,213.99021 797.24414,213.74805 Z"
             transform="translate(0,-542.12598)"
             id="path4247"
             inkscape:connector-curvature="0"
             sodipodi:nodetypes="ccccccc" />
          <rect
             style="opacity:1;fill:#ff1500;fill-opacity:1;stroke:none;stroke-width:2;stroke-linecap:round;stroke-miterlimit:4;stroke-dasharray:none;stroke-dashoffset:0;stroke-opacity:1"
             id="rect4249"
             width="5"
             height="50"
             x="801.38873"
             y="-317.63782"
             inkscape:transform-center-x="-1.1940758"
             inkscape:transform-center-y="-247.77069" />
          <rect
             inkscape:transform-center-y="-243.79914"
             inkscape:transform-center-x="-44.200874"
             y="-457.70737"
             x="803.30676"
             height="50"
             width="5"
             id="rect4251"
             style="opacity:1;fill:#ff1500;fill-opacity:1;stroke:none;stroke-width:2;stroke-linecap:round;stroke-miterlimit:4;stroke-dasharray:none;stroke-dashoffset:0;stroke-opacity:1"
             transform="matrix(0.98480775,0.17364818,-0.17364818,0.98480775,0,0)" />
          <rect
             transform="matrix(0.93969262,0.34202015,-0.34202015,0.93969262,0,0)"
             style="opacity:1;fill:#ff1500;fill-opacity:1;stroke:none;stroke-width:2;stroke-linecap:round;stroke-miterlimit:4;stroke-dasharray:none;stroke-dashoffset:0;stroke-opacity:1"
             id="rect4253"
             width="5"
             height="50"
             x="780.86407"
             y="-602.15027"
             inkscape:transform-center-x="-85.864665"
             inkscape:transform-center-y="-232.41989" />
          <rect
             inkscape:transform-center-y="-244.21384"
             inkscape:transform-center-x="41.849021"
             y="-180.54295"
             x="775.40167"
             height="50"
             width="5"
             id="rect4255"
             style="opacity:1;fill:#ff1500;fill-opacity:1;stroke:none;stroke-width:2;stroke-linecap:round;stroke-miterlimit:4;stroke-dasharray:none;stroke-dashoffset:0;stroke-opacity:1"
             transform="matrix(0.98480775,-0.17364818,0.17364818,0.98480775,0,0)" />
          <rect
             transform="matrix(0.93969262,-0.34202015,0.34202015,0.93969262,0,0)"
             style="opacity:1;fill:#ff1500;fill-opacity:1;stroke:none;stroke-width:2;stroke-linecap:round;stroke-miterlimit:4;stroke-dasharray:none;stroke-dashoffset:0;stroke-opacity:1"
             id="rect4257"
             width="5"
             height="50"
             x="725.37213"
             y="-53.410679"
             inkscape:transform-center-x="83.62054"
             inkscape:transform-center-y="-233.23668" />
          <path
             inkscape:connector-curvature="0"
             style="opacity:1;fill:url(#linearGradient4263);fill-opacity:1;stroke:none;stroke-width:2;stroke-linecap:round;stroke-miterlimit:4;stroke-dasharray:none;stroke-dashoffset:0;stroke-opacity:1"
             d="m 802.07227,280.92383 -10,2 0,9.36719 c 1.72371,-0.0232 3.44747,-0.0511 5.17187,-0.0566 1.60971,0.008 3.21903,0.039 4.82813,0.0625 l 0,-11.37305 z m -24.18555,2 -10,2 0,8.27148 c 3.33084,-0.2048 6.66448,-0.37295 10,-0.51172 l 0,-9.75976 z m 38.37109,0 0,9.77929 c 3.33564,0.14255 6.66912,0.31682 10,0.5254 l 0,-8.30469 -10,-2 z m 24.18555,0 0,11.39453 c 3.33687,0.30353 6.67032,0.63799 10,1.00781 l 0,-10.40234 -10,-2 z m -86.74219,2 -10,2 0,8.34179 c 3.32951,-0.36597 6.66339,-0.69444 10,-0.99414 l 0,-9.34765 z m 110.92774,0 0,12.18555 c 3.33766,0.46669 6.67203,0.95871 10,1.49218 l 0,-11.67773 -10,-2 z m -135.11524,2 -10,2 0,9.58984 c 3.32807,-0.52961 6.66232,-1.01763 10,-1.48047 l 0,-10.10937 z m 159.30078,0 0,14.16601 c 3.33906,0.63341 6.67329,1.2893 10,1.99024 l 0,-14.15625 -10,-2 z m -183.48633,2 -10,2 0,12.03906 c 3.32638,-0.69687 6.66139,-1.34719 10,-1.97656 l 0,-12.0625 z m -24.18554,4 -10,2 0,12.60937 0.88867,0.88868 c 3.03022,-0.78634 6.06866,-1.53616 9.11133,-2.26563 l 0,-13.23242 z m 231.85742,0 0,13.36719 c 3.09646,0.74614 6.18801,1.51135 9.27148,2.3164 L 923,307.87891 l 0,-12.95508 -10,-2 z"
             transform="translate(0,-542.12598)"
             id="path4259" />
        </g>
      </g>
      <g
         transform="matrix(0.72852638,-0.61130623,0.61130623,0.72852638,56.260002,503.29888)"
         id="g4283">
        <g
           transform="matrix(0,-1,1,0,549.28204,1051.6707)"
           inkscape:transform-center-y="3.2791037"
           inkscape:transform-center-x="532.14258"
           id="g4285">
          <path
             style="opacity:1;fill:url(#linearGradient4317);fill-opacity:1;stroke:#000000;stroke-width:2;stroke-linecap:round;stroke-miterlimit:4;stroke-dasharray:none;stroke-dashoffset:0;stroke-opacity:1"
             d="m 797.24414,213.74805 c -64.0214,0.20234 -127.57309,10.93957 -188.10742,31.78125 l 62.89453,62.89258 c 40.89615,-10.61245 82.96244,-16.05077 125.21289,-16.1875 42.19615,0.21283 84.19926,5.71338 125.02734,16.37304 l 62.98633,-62.98633 C 924.75849,224.75833 861.23917,213.99021 797.24414,213.74805 Z"
             transform="translate(0,-542.12598)"
             id="path4287"
             inkscape:connector-curvature="0"
             sodipodi:nodetypes="ccccccc" />
          <rect
             style="opacity:1;fill:#ff1500;fill-opacity:1;stroke:none;stroke-width:2;stroke-linecap:round;stroke-miterlimit:4;stroke-dasharray:none;stroke-dashoffset:0;stroke-opacity:1"
             id="rect4289"
             width="5"
             height="50"
             x="801.38873"
             y="-317.63782"
             inkscape:transform-center-x="-1.1940758"
             inkscape:transform-center-y="-247.77069" />
          <rect
             inkscape:transform-center-y="-243.79914"
             inkscape:transform-center-x="-44.200874"
             y="-457.70737"
             x="803.30676"
             height="50"
             width="5"
             id="rect4291"
             style="opacity:1;fill:#ff1500;fill-opacity:1;stroke:none;stroke-width:2;stroke-linecap:round;stroke-miterlimit:4;stroke-dasharray:none;stroke-dashoffset:0;stroke-opacity:1"
             transform="matrix(0.98480775,0.17364818,-0.17364818,0.98480775,0,0)" />
          <rect
             transform="matrix(0.93969262,0.34202015,-0.34202015,0.93969262,0,0)"
             style="opacity:1;fill:#ff1500;fill-opacity:1;stroke:none;stroke-width:2;stroke-linecap:round;stroke-miterlimit:4;stroke-dasharray:none;stroke-dashoffset:0;stroke-opacity:1"
             id="rect4293"
             width="5"
             height="50"
             x="780.86407"
             y="-602.15027"
             inkscape:transform-center-x="-85.864665"
             inkscape:transform-center-y="-232.41989" />
          <rect
             inkscape:transform-center-y="-244.21384"
             inkscape:transform-center-x="41.849021"
             y="-180.54295"
             x="775.40167"
             height="50"
             width="5"
             id="rect4295"
             style="opacity:1;fill:#ff1500;fill-opacity:1;stroke:none;stroke-width:2;stroke-linecap:round;stroke-miterlimit:4;stroke-dasharray:none;stroke-dashoffset:0;stroke-opacity:1"
             transform="matrix(0.98480775,-0.17364818,0.17364818,0.98480775,0,0)" />
          <rect
             transform="matrix(0.93969262,-0.34202015,0.34202015,0.93969262,0,0)"
             style="opacity:1;fill:#ff1500;fill-opacity:1;stroke:none;stroke-width:2;stroke-linecap:round;stroke-miterlimit:4;stroke-dasharray:none;stroke-dashoffset:0;stroke-opacity:1"
             id="rect4297"
             width="5"
             height="50"
             x="725.37213"
             y="-53.410679"
             inkscape:transform-center-x="83.62054"
             inkscape:transform-center-y="-233.23668" />
          <path
             inkscape:connector-curvature="0"
             style="opacity:1;fill:url(#linearGradient4319);fill-opacity:1;stroke:none;stroke-width:2;stroke-linecap:round;stroke-miterlimit:4;stroke-dasharray:none;stroke-dashoffset:0;stroke-opacity:1"
             d="m 802.07227,280.92383 -10,2 0,9.36719 c 1.72371,-0.0232 3.44747,-0.0511 5.17187,-0.0566 1.60971,0.008 3.21903,0.039 4.82813,0.0625 l 0,-11.37305 z m -24.18555,2 -10,2 0,8.27148 c 3.33084,-0.2048 6.66448,-0.37295 10,-0.51172 l 0,-9.75976 z m 38.37109,0 0,9.77929 c 3.33564,0.14255 6.66912,0.31682 10,0.5254 l 0,-8.30469 -10,-2 z m 24.18555,0 0,11.39453 c 3.33687,0.30353 6.67032,0.63799 10,1.00781 l 0,-10.40234 -10,-2 z m -86.74219,2 -10,2 0,8.34179 c 3.32951,-0.36597 6.66339,-0.69444 10,-0.99414 l 0,-9.34765 z m 110.92774,0 0,12.18555 c 3.33766,0.46669 6.67203,0.95871 10,1.49218 l 0,-11.67773 -10,-2 z m -135.11524,2 -10,2 0,9.58984 c 3.32807,-0.52961 6.66232,-1.01763 10,-1.48047 l 0,-10.10937 z m 159.30078,0 0,14.16601 c 3.33906,0.63341 6.67329,1.2893 10,1.99024 l 0,-14.15625 -10,-2 z m -183.48633,2 -10,2 0,12.03906 c 3.32638,-0.69687 6.66139,-1.34719 10,-1.97656 l 0,-12.0625 z m -24.18554,4 -10,2 0,12.60937 0.88867,0.88868 c 3.03022,-0.78634 6.06866,-1.53616 9.11133,-2.26563 l 0,-13.23242 z m 231.85742,0 0,13.36719 c 3.09646,0.74614 6.18801,1.51135 9.27148,2.3164 L 923,307.87891 l 0,-12.95508 -10,-2 z"
             transform="translate(0,-542.12598)"
             id="path4299" />
        </g>
        <g
           id="g4301"
           inkscape:transform-center-x="-532.14258"
           inkscape:transform-center-y="3.2791037"
           transform="matrix(0,-1,-1,0,1049.5552,1051.6707)">
          <path
             sodipodi:nodetypes="ccccccc"
             inkscape:connector-curvature="0"
             id="path4303"
             transform="translate(0,-542.12598)"
             d="m 797.24414,213.74805 c -64.0214,0.20234 -127.57309,10.93957 -188.10742,31.78125 l 62.89453,62.89258 c 40.89615,-10.61245 82.96244,-16.05077 125.21289,-16.1875 42.19615,0.21283 84.19926,5.71338 125.02734,16.37304 l 62.98633,-62.98633 C 924.75849,224.75833 861.23917,213.99021 797.24414,213.74805 Z"
             style="opacity:1;fill:url(#linearGradient4321);fill-opacity:1;stroke:#000000;stroke-width:2;stroke-linecap:round;stroke-miterlimit:4;stroke-dasharray:none;stroke-dashoffset:0;stroke-opacity:1" />
          <rect
             inkscape:transform-center-y="-247.77069"
             inkscape:transform-center-x="-1.1940758"
             y="-317.63782"
             x="801.38873"
             height="50"
             width="5"
             id="rect4305"
             style="opacity:1;fill:#ff1500;fill-opacity:1;stroke:none;stroke-width:2;stroke-linecap:round;stroke-miterlimit:4;stroke-dasharray:none;stroke-dashoffset:0;stroke-opacity:1" />
          <rect
             transform="matrix(0.98480775,0.17364818,-0.17364818,0.98480775,0,0)"
             style="opacity:1;fill:#ff1500;fill-opacity:1;stroke:none;stroke-width:2;stroke-linecap:round;stroke-miterlimit:4;stroke-dasharray:none;stroke-dashoffset:0;stroke-opacity:1"
             id="rect4307"
             width="5"
             height="50"
             x="803.30676"
             y="-457.70737"
             inkscape:transform-center-x="-44.200874"
             inkscape:transform-center-y="-243.79914" />
          <rect
             inkscape:transform-center-y="-232.41989"
             inkscape:transform-center-x="-85.864665"
             y="-602.15027"
             x="780.86407"
             height="50"
             width="5"
             id="rect4309"
             style="opacity:1;fill:#ff1500;fill-opacity:1;stroke:none;stroke-width:2;stroke-linecap:round;stroke-miterlimit:4;stroke-dasharray:none;stroke-dashoffset:0;stroke-opacity:1"
             transform="matrix(0.93969262,0.34202015,-0.34202015,0.93969262,0,0)" />
          <rect
             transform="matrix(0.98480775,-0.17364818,0.17364818,0.98480775,0,0)"
             style="opacity:1;fill:#ff1500;fill-opacity:1;stroke:none;stroke-width:2;stroke-linecap:round;stroke-miterlimit:4;stroke-dasharray:none;stroke-dashoffset:0;stroke-opacity:1"
             id="rect4311"
             width="5"
             height="50"
             x="775.40167"
             y="-180.54295"
             inkscape:transform-center-x="41.849021"
             inkscape:transform-center-y="-244.21384" />
          <rect
             inkscape:transform-center-y="-233.23668"
             inkscape:transform-center-x="83.62054"
             y="-53.410679"
             x="725.37213"
             height="50"
             width="5"
             id="rect4313"
             style="opacity:1;fill:#ff1500;fill-opacity:1;stroke:none;stroke-width:2;stroke-linecap:round;stroke-miterlimit:4;stroke-dasharray:none;stroke-dashoffset:0;stroke-opacity:1"
             transform="matrix(0.93969262,-0.34202015,0.34202015,0.93969262,0,0)" />
          <path
             id="path4315"
             transform="translate(0,-542.12598)"
             d="m 802.07227,280.92383 -10,2 0,9.36719 c 1.72371,-0.0232 3.44747,-0.0511 5.17187,-0.0566 1.60971,0.008 3.21903,0.039 4.82813,0.0625 l 0,-11.37305 z m -24.18555,2 -10,2 0,8.27148 c 3.33084,-0.2048 6.66448,-0.37295 10,-0.51172 l 0,-9.75976 z m 38.37109,0 0,9.77929 c 3.33564,0.14255 6.66912,0.31682 10,0.5254 l 0,-8.30469 -10,-2 z m 24.18555,0 0,11.39453 c 3.33687,0.30353 6.67032,0.63799 10,1.00781 l 0,-10.40234 -10,-2 z m -86.74219,2 -10,2 0,8.34179 c 3.32951,-0.36597 6.66339,-0.69444 10,-0.99414 l 0,-9.34765 z m 110.92774,0 0,12.18555 c 3.33766,0.46669 6.67203,0.95871 10,1.49218 l 0,-11.67773 -10,-2 z m -135.11524,2 -10,2 0,9.58984 c 3.32807,-0.52961 6.66232,-1.01763 10,-1.48047 l 0,-10.10937 z m 159.30078,0 0,14.16601 c 3.33906,0.63341 6.67329,1.2893 10,1.99024 l 0,-14.15625 -10,-2 z m -183.48633,2 -10,2 0,12.03906 c 3.32638,-0.69687 6.66139,-1.34719 10,-1.97656 l 0,-12.0625 z m -24.18554,4 -10,2 0,12.60937 0.88867,0.88868 c 3.03022,-0.78634 6.06866,-1.53616 9.11133,-2.26563 l 0,-13.23242 z m 231.85742,0 0,13.36719 c 3.09646,0.74614 6.18801,1.51135 9.27148,2.3164 L 923,307.87891 l 0,-12.95508 -10,-2 z"
             style="opacity:1;fill:url(#linearGradient4323);fill-opacity:1;stroke:none;stroke-width:2;stroke-linecap:round;stroke-miterlimit:4;stroke-dasharray:none;stroke-dashoffset:0;stroke-opacity:1"
             inkscape:connector-curvature="0" />
        </g>
      </g>
      <g
         transform="matrix(0.72852638,0.61130623,-0.61130623,0.72852638,367.39516,-474.08026)"
         id="g4325">
        <g
           transform="matrix(0,-1,1,0,549.28204,1051.6707)"
           inkscape:transform-center-y="3.2791037"
           inkscape:transform-center-x="532.14258"
           id="g4327">
          <path
             style="opacity:1;fill:url(#linearGradient4359);fill-opacity:1;stroke:#000000;stroke-width:2;stroke-linecap:round;stroke-miterlimit:4;stroke-dasharray:none;stroke-dashoffset:0;stroke-opacity:1"
             d="m 797.24414,213.74805 c -64.0214,0.20234 -127.57309,10.93957 -188.10742,31.78125 l 62.89453,62.89258 c 40.89615,-10.61245 82.96244,-16.05077 125.21289,-16.1875 42.19615,0.21283 84.19926,5.71338 125.02734,16.37304 l 62.98633,-62.98633 C 924.75849,224.75833 861.23917,213.99021 797.24414,213.74805 Z"
             transform="translate(0,-542.12598)"
             id="path4329"
             inkscape:connector-curvature="0"
             sodipodi:nodetypes="ccccccc" />
          <rect
             style="opacity:1;fill:#ff1500;fill-opacity:1;stroke:none;stroke-width:2;stroke-linecap:round;stroke-miterlimit:4;stroke-dasharray:none;stroke-dashoffset:0;stroke-opacity:1"
             id="rect4331"
             width="5"
             height="50"
             x="801.38873"
             y="-317.63782"
             inkscape:transform-center-x="-1.1940758"
             inkscape:transform-center-y="-247.77069" />
          <rect
             inkscape:transform-center-y="-243.79914"
             inkscape:transform-center-x="-44.200874"
             y="-457.70737"
             x="803.30676"
             height="50"
             width="5"
             id="rect4333"
             style="opacity:1;fill:#ff1500;fill-opacity:1;stroke:none;stroke-width:2;stroke-linecap:round;stroke-miterlimit:4;stroke-dasharray:none;stroke-dashoffset:0;stroke-opacity:1"
             transform="matrix(0.98480775,0.17364818,-0.17364818,0.98480775,0,0)" />
          <rect
             transform="matrix(0.93969262,0.34202015,-0.34202015,0.93969262,0,0)"
             style="opacity:1;fill:#ff1500;fill-opacity:1;stroke:none;stroke-width:2;stroke-linecap:round;stroke-miterlimit:4;stroke-dasharray:none;stroke-dashoffset:0;stroke-opacity:1"
             id="rect4335"
             width="5"
             height="50"
             x="780.86407"
             y="-602.15027"
             inkscape:transform-center-x="-85.864665"
             inkscape:transform-center-y="-232.41989" />
          <rect
             inkscape:transform-center-y="-244.21384"
             inkscape:transform-center-x="41.849021"
             y="-180.54295"
             x="775.40167"
             height="50"
             width="5"
             id="rect4337"
             style="opacity:1;fill:#ff1500;fill-opacity:1;stroke:none;stroke-width:2;stroke-linecap:round;stroke-miterlimit:4;stroke-dasharray:none;stroke-dashoffset:0;stroke-opacity:1"
             transform="matrix(0.98480775,-0.17364818,0.17364818,0.98480775,0,0)" />
          <rect
             transform="matrix(0.93969262,-0.34202015,0.34202015,0.93969262,0,0)"
             style="opacity:1;fill:#ff1500;fill-opacity:1;stroke:none;stroke-width:2;stroke-linecap:round;stroke-miterlimit:4;stroke-dasharray:none;stroke-dashoffset:0;stroke-opacity:1"
             id="rect4339"
             width="5"
             height="50"
             x="725.37213"
             y="-53.410679"
             inkscape:transform-center-x="83.62054"
             inkscape:transform-center-y="-233.23668" />
          <path
             inkscape:connector-curvature="0"
             style="opacity:1;fill:url(#linearGradient4361);fill-opacity:1;stroke:none;stroke-width:2;stroke-linecap:round;stroke-miterlimit:4;stroke-dasharray:none;stroke-dashoffset:0;stroke-opacity:1"
             d="m 802.07227,280.92383 -10,2 0,9.36719 c 1.72371,-0.0232 3.44747,-0.0511 5.17187,-0.0566 1.60971,0.008 3.21903,0.039 4.82813,0.0625 l 0,-11.37305 z m -24.18555,2 -10,2 0,8.27148 c 3.33084,-0.2048 6.66448,-0.37295 10,-0.51172 l 0,-9.75976 z m 38.37109,0 0,9.77929 c 3.33564,0.14255 6.66912,0.31682 10,0.5254 l 0,-8.30469 -10,-2 z m 24.18555,0 0,11.39453 c 3.33687,0.30353 6.67032,0.63799 10,1.00781 l 0,-10.40234 -10,-2 z m -86.74219,2 -10,2 0,8.34179 c 3.32951,-0.36597 6.66339,-0.69444 10,-0.99414 l 0,-9.34765 z m 110.92774,0 0,12.18555 c 3.33766,0.46669 6.67203,0.95871 10,1.49218 l 0,-11.67773 -10,-2 z m -135.11524,2 -10,2 0,9.58984 c 3.32807,-0.52961 6.66232,-1.01763 10,-1.48047 l 0,-10.10937 z m 159.30078,0 0,14.16601 c 3.33906,0.63341 6.67329,1.2893 10,1.99024 l 0,-14.15625 -10,-2 z m -183.48633,2 -10,2 0,12.03906 c 3.32638,-0.69687 6.66139,-1.34719 10,-1.97656 l 0,-12.0625 z m -24.18554,4 -10,2 0,12.60937 0.88867,0.88868 c 3.03022,-0.78634 6.06866,-1.53616 9.11133,-2.26563 l 0,-13.23242 z m 231.85742,0 0,13.36719 c 3.09646,0.74614 6.18801,1.51135 9.27148,2.3164 L 923,307.87891 l 0,-12.95508 -10,-2 z"
             transform="translate(0,-542.12598)"
             id="path4341" />
        </g>
        <g
           id="g4343"
           inkscape:transform-center-x="-532.14258"
           inkscape:transform-center-y="3.2791037"
           transform="matrix(0,-1,-1,0,1049.5552,1051.6707)">
          <path
             sodipodi:nodetypes="ccccccc"
             inkscape:connector-curvature="0"
             id="path4345"
             transform="translate(0,-542.12598)"
             d="m 797.24414,213.74805 c -64.0214,0.20234 -127.57309,10.93957 -188.10742,31.78125 l 62.89453,62.89258 c 40.89615,-10.61245 82.96244,-16.05077 125.21289,-16.1875 42.19615,0.21283 84.19926,5.71338 125.02734,16.37304 l 62.98633,-62.98633 C 924.75849,224.75833 861.23917,213.99021 797.24414,213.74805 Z"
             style="opacity:1;fill:url(#linearGradient4363);fill-opacity:1;stroke:#000000;stroke-width:2;stroke-linecap:round;stroke-miterlimit:4;stroke-dasharray:none;stroke-dashoffset:0;stroke-opacity:1" />
          <rect
             inkscape:transform-center-y="-247.77069"
             inkscape:transform-center-x="-1.1940758"
             y="-317.63782"
             x="801.38873"
             height="50"
             width="5"
             id="rect4347"
             style="opacity:1;fill:#ff1500;fill-opacity:1;stroke:none;stroke-width:2;stroke-linecap:round;stroke-miterlimit:4;stroke-dasharray:none;stroke-dashoffset:0;stroke-opacity:1" />
          <rect
             transform="matrix(0.98480775,0.17364818,-0.17364818,0.98480775,0,0)"
             style="opacity:1;fill:#ff1500;fill-opacity:1;stroke:none;stroke-width:2;stroke-linecap:round;stroke-miterlimit:4;stroke-dasharray:none;stroke-dashoffset:0;stroke-opacity:1"
             id="rect4349"
             width="5"
             height="50"
             x="803.30676"
             y="-457.70737"
             inkscape:transform-center-x="-44.200874"
             inkscape:transform-center-y="-243.79914" />
          <rect
             inkscape:transform-center-y="-232.41989"
             inkscape:transform-center-x="-85.864665"
             y="-602.15027"
             x="780.86407"
             height="50"
             width="5"
             id="rect4351"
             style="opacity:1;fill:#ff1500;fill-opacity:1;stroke:none;stroke-width:2;stroke-linecap:round;stroke-miterlimit:4;stroke-dasharray:none;stroke-dashoffset:0;stroke-opacity:1"
             transform="matrix(0.93969262,0.34202015,-0.34202015,0.93969262,0,0)" />
          <rect
             transform="matrix(0.98480775,-0.17364818,0.17364818,0.98480775,0,0)"
             style="opacity:1;fill:#ff1500;fill-opacity:1;stroke:none;stroke-width:2;stroke-linecap:round;stroke-miterlimit:4;stroke-dasharray:none;stroke-dashoffset:0;stroke-opacity:1"
             id="rect4353"
             width="5"
             height="50"
             x="775.40167"
             y="-180.54295"
             inkscape:transform-center-x="41.849021"
             inkscape:transform-center-y="-244.21384" />
          <rect
             inkscape:transform-center-y="-233.23668"
             inkscape:transform-center-x="83.62054"
             y="-53.410679"
             x="725.37213"
             height="50"
             width="5"
             id="rect4355"
             style="opacity:1;fill:#ff1500;fill-opacity:1;stroke:none;stroke-width:2;stroke-linecap:round;stroke-miterlimit:4;stroke-dasharray:none;stroke-dashoffset:0;stroke-opacity:1"
             transform="matrix(0.93969262,-0.34202015,0.34202015,0.93969262,0,0)" />
          <path
             id="path4357"
             transform="translate(0,-542.12598)"
             d="m 802.07227,280.92383 -10,2 0,9.36719 c 1.72371,-0.0232 3.44747,-0.0511 5.17187,-0.0566 1.60971,0.008 3.21903,0.039 4.82813,0.0625 l 0,-11.37305 z m -24.18555,2 -10,2 0,8.27148 c 3.33084,-0.2048 6.66448,-0.37295 10,-0.51172 l 0,-9.75976 z m 38.37109,0 0,9.77929 c 3.33564,0.14255 6.66912,0.31682 10,0.5254 l 0,-8.30469 -10,-2 z m 24.18555,0 0,11.39453 c 3.33687,0.30353 6.67032,0.63799 10,1.00781 l 0,-10.40234 -10,-2 z m -86.74219,2 -10,2 0,8.34179 c 3.32951,-0.36597 6.66339,-0.69444 10,-0.99414 l 0,-9.34765 z m 110.92774,0 0,12.18555 c 3.33766,0.46669 6.67203,0.95871 10,1.49218 l 0,-11.67773 -10,-2 z m -135.11524,2 -10,2 0,9.58984 c 3.32807,-0.52961 6.66232,-1.01763 10,-1.48047 l 0,-10.10937 z m 159.30078,0 0,14.16601 c 3.33906,0.63341 6.67329,1.2893 10,1.99024 l 0,-14.15625 -10,-2 z m -183.48633,2 -10,2 0,12.03906 c 3.32638,-0.69687 6.66139,-1.34719 10,-1.97656 l 0,-12.0625 z m -24.18554,4 -10,2 0,12.60937 0.88867,0.88868 c 3.03022,-0.78634 6.06866,-1.53616 9.11133,-2.26563 l 0,-13.23242 z m 231.85742,0 0,13.36719 c 3.09646,0.74614 6.18801,1.51135 9.27148,2.3164 L 923,307.87891 l 0,-12.95508 -10,-2 z"
             style="opacity:1;fill:url(#linearGradient4365);fill-opacity:1;stroke:none;stroke-width:2;stroke-linecap:round;stroke-miterlimit:4;stroke-dasharray:none;stroke-dashoffset:0;stroke-opacity:1"
             inkscape:connector-curvature="0" />
        </g>
      </g>
    </g>
    <path
       style="opacity:1;fill:#d0c4c4;fill-opacity:1;stroke:none;stroke-width:0.30000001;stroke-linecap:round;stroke-miterlimit:4;stroke-dasharray:none;stroke-dashoffset:0;stroke-opacity:1"
       d="m 558.34961,159.48828 c 0,0 5,16.50163 5,25 0,16.99673 -0.54234,35.87762 -10,50 -6.68757,9.98603 -19.09143,14.95544 -30,20 -11.01296,5.09284 -23.16352,7.3317 -35,10 -9.88976,2.22945 -30,5 -30,5 l 0,0.98438 -17.95703,-17.95704 c -15.0218,11.09617 -29.52047,22.88359 -43.44922,35.32422 -5.56096,-8.33606 -14.91682,-13.3452 -24.9375,-13.35156 -16.56854,0 -30,13.43146 -30,30 0.0141,9.80394 4.81776,18.98243 12.86523,24.58203 -10.33651,11.34879 -20.23628,23.0878 -29.67773,35.19141 -5.43096,-5.41843 -12.73136,-8.55036 -20.40039,-8.75195 -2.00076,-0.0512 -4.00161,0.098 -5.97266,0.44531 -16.3174,2.87654 -27.21312,18.43662 -24.33593,34.7539 1.66807,9.38335 7.69538,17.41589 16.23828,21.64063 -8.2909,12.87381 -16.08886,26.05848 -23.37696,39.52539 -5.24954,-3.38489 -11.42472,-5.04681 -17.66406,-4.75391 -3.00198,0.14753 -5.96475,0.74536 -8.78906,1.77344 -15.5698,5.66618 -23.59813,22.88148 -17.93164,38.45117 3.12245,8.57434 9.9777,15.26139 18.62695,18.16992 -6.01612,14.02796 -11.49792,28.27909 -16.43359,42.72266 -3.4859,-1.25664 -7.17444,-1.85661 -10.87891,-1.76953 -5.02517,0.11871 -9.93997,1.49819 -14.29297,4.01172 -14.3485,8.28436 -19.26459,26.63183 -10.98047,40.98047 4.31065,7.4371 11.60446,12.66779 20.03125,14.36523 -3.43073,14.9073 -6.29347,29.93964 -8.58203,45.06445 -1.25189,-0.17388 -2.51352,-0.26846 -3.77734,-0.2832 -7.07251,-0.013 -13.9222,2.47315 -19.33985,7.01953 -12.69254,10.65024 -14.34787,29.57341 -3.69726,42.26563 5.25965,6.26189 12.84763,10.10526 21.00781,10.64062 -0.52943,9.28966 -0.84397,18.59032 -0.94336,27.89453 0.21759,6.00751 0.52491,12.01144 0.92188,18.00977 -8.15256,0.54108 -15.73174,4.38392 -20.98633,10.64062 -10.65061,12.69222 -8.99528,31.61539 3.69726,42.26563 6.15635,5.1614 14.12564,7.63795 22.12305,6.875 1.84622,15.24723 4.27377,30.41843 7.27735,45.48047 -7.47679,2.13126 -13.83419,7.0819 -17.73243,13.80859 -8.28545,14.34907 -3.3692,32.698 10.98047,40.98242 6.64078,3.81753 14.4903,4.95027 21.93946,3.16602 4.74224,14.66246 10.0443,29.13791 15.89453,43.39453 -6.89389,3.41549 -12.21209,9.349 -14.85547,16.57422 -5.6667,15.56914 2.36064,32.7842 17.92968,38.4512 7.16478,2.593 15.04777,2.3625 22.04883,-0.6446 7.23137,13.6167 14.98184,26.9514 23.23438,39.9746 -6.16224,4.5602 -10.34496,11.3064 -11.68945,18.8536 -2.87719,16.3173 8.01853,31.8774 24.33593,34.7539 7.50688,1.3094 15.23075,-0.2869 21.60352,-4.4649 9.42144,12.2129 19.30761,24.0602 29.63672,35.5157 -5.16765,5.5442 -8.04533,12.8388 -8.05469,20.4179 0,16.5685 13.43146,30 30,30 7.56295,-0.014 14.8416,-2.8837 20.37891,-8.0351 11.36188,10.4743 23.12185,20.5084 35.2539,30.08 -3.95809,6.2881 -5.4419,13.8213 -4.16406,21.1407 2.87659,16.3165 18.43536,27.2119 34.75195,24.3359 7.33028,-1.3056 13.91314,-5.2904 18.46875,-11.1797 37.61059,23.6891 77.723,43.1509 119.60742,58.0313 l -25.33203,35.6308 226.27344,226.2754 226.27346,-226.2754 -25.37893,-35.6972 c 43.79963,-15.6913 85.63803,-36.3946 124.68163,-61.6973 4.3928,7.8656 12.088,13.3406 20.959,14.9121 16.3166,2.876 31.8753,-8.0194 34.7519,-24.3359 1.5948,-9.0565 -1.0521,-18.3441 -7.1816,-25.1992 12.0766,-9.3598 23.7933,-19.1749 35.125,-29.4239 5.6792,7.2106 14.3468,11.4246 23.5254,11.4375 16.5685,0 30,-13.4315 30,-30 -0.01,-9.3611 -4.3887,-18.181 -11.8398,-23.8476 10.0923,-11.5187 19.7424,-23.4173 28.9296,-35.67 6.9024,6.7161 16.6094,9.7101 26.0957,8.0489 16.3165,-2.8765 27.212,-18.4354 24.336,-34.752 -1.7216,-9.6858 -8.0825,-17.9121 -17.0235,-22.0156 8.0081,-13.1368 15.511,-26.575 22.4922,-40.2852 8.089,6.0079 18.6538,7.5537 28.125,4.1153 15.5691,-5.667 23.5964,-22.88205 17.9297,-38.4512 -3.5148,-9.64749 -11.7195,-16.82725 -21.748,-19.03125 5.7552,-14.34959 10.957,-28.91502 15.5937,-43.66406 9.1349,4.89557 20.1497,4.72942 29.1328,-0.43946 14.3485,-8.28435 19.2646,-26.63182 10.9805,-40.98046 -5.2695,-9.11173 -14.9289,-14.79528 -25.4531,-14.97657 3.3194,-15.15591 6.0532,-30.43419 8.1953,-45.80078 9.9212,3.38007 20.8872,1.33719 28.9258,-5.38867 12.6925,-10.65026 14.3478,-29.57342 3.6972,-42.26563 -5.6875,-6.77839 -14.0773,-10.70026 -22.9257,-10.71679 -1.6649,0.008 -3.3263,0.1554 -4.9668,0.43945 0.1967,-6.12242 0.3002,-12.24748 0.3105,-18.37305 -0.2644,-9.49262 -0.7528,-18.97768 -1.4648,-28.44726 10.8005,2.23216 21.9549,-1.64173 29.0468,-10.08789 10.6506,-12.69221 8.9953,-31.61537 -3.6972,-42.26563 -5.1876,-4.35306 -11.6954,-6.82291 -18.4649,-7.00781 -4.2429,-0.10663 -8.4601,0.68821 -12.373,2.33203 -2.1815,-15.62365 -4.9746,-31.15576 -8.3731,-46.56055 11.2568,0.59325 21.896,-5.17375 27.543,-14.92968 8.2841,-14.34864 3.368,-32.69612 -10.9805,-40.98047 -4.9766,-2.87343 -10.6738,-4.25705 -16.414,-3.98633 -5.4245,0.26866 -10.6744,2.00488 -15.1895,5.02344 -4.8673,-15.08942 -10.3272,-29.98118 -16.3672,-44.64063 11.3727,-1.21407 21.0657,-8.78904 24.9922,-19.53125 5.6667,-15.56914 -2.3607,-32.7842 -17.9297,-38.45117 -3.4948,-1.27223 -7.1957,-1.88353 -10.914,-1.80273 -7.6998,0.18128 -15.035,3.31701 -20.4864,8.75781 -7.6191,-14.0714 -15.7949,-27.83423 -24.5078,-41.25586 11.5032,-2.85468 20.2475,-12.21426 22.3145,-23.88477 2.8773,-16.31665 -8.0174,-31.87643 -24.334,-34.7539 -1.6832,-0.29662 -3.3886,-0.44887 -5.0977,-0.45508 -10.1311,-0.0331 -19.5946,5.04938 -25.1621,13.51367 -9.9013,-12.71758 -20.3081,-25.03345 -31.1953,-36.91797 11.0749,-4.70599 18.2663,-15.57411 18.2676,-27.60742 0,-16.56854 -13.4315,-30 -30,-30 -12.0573,0.0131 -22.9351,7.2435 -27.6152,18.35547 -15.3932,-14.26511 -31.5199,-27.71763 -48.3145,-40.30273 l -16.1191,16.11914 c -6.6621,-0.97973 -17.6224,-2.6677 -24.295,-4.17188 -11.8363,-2.6683 -23.987,-4.90716 -35,-10 -10.9085,-5.04456 -23.3124,-10.01397 -30,-20 -9.4575,-14.12238 -10,-33.00327 -10,-50 0,-8.49837 5,-25 5,-25 0,0 -13.1574,18.97252 -15,30 -4.1561,24.87642 5.4928,50.18477 10,75 3.9738,21.87815 12.4839,42.90671 15,65 0.5659,4.96789 0.8009,10.06456 0,15 -0.8442,5.20241 -5.3735,9.7428 -5,15 0.2643,3.7174 5,10 5,10 0,0 5.4896,-24.12215 15,-30 21.2664,-13.14328 136.9139,42.75925 136.9139,42.75925 61.9138,42.75926 133.6896,195.24358 134.0041,356.1802 -0.2869,236.14016 -153.338,444.95277 -378.43748,516.31447 L 797.24414,1024.2129 633.08398,1255.1172 C 407.95863,1183.6189 255.00067,974.63405 254.91406,738.42773 c 0.30848,-164.34781 75.12616,-319.69009 139.28085,-359.31477 0,0 117.88843,-52.76796 139.1547,-39.62468 9.51057,5.87785 15,30 15,30 0,0 4.73581,-6.2826 5,-10 0.37362,-5.2572 -4.15577,-9.79759 -5,-15 -0.80091,-4.93544 -0.56578,-10.03211 0,-15 2.51616,-22.09329 11.02619,-43.12185 15,-65 4.50729,-24.81523 14.15628,-50.12358 10,-75 -1.84244,-11.02748 -15,-30 -15,-30 z M 1232,281.44531 c 11.4459,-1.2e-4 20.7247,9.27868 20.7246,20.72461 10e-5,11.44593 -9.2787,20.72473 -20.7246,20.72461 -11.4459,1.2e-4 -20.7247,-9.27868 -20.7246,-20.72461 -10e-5,-11.44593 9.2787,-20.72473 20.7246,-20.72461 z m -862.33203,0.62696 c 11.44594,-1.2e-4 20.72473,9.27867 20.72461,20.72461 1.2e-4,11.44593 -9.27868,20.72472 -20.72461,20.7246 -11.44593,1.2e-4 -20.72473,-9.27867 -20.72461,-20.7246 -1.2e-4,-11.44594 9.27867,-20.72473 20.72461,-20.72461 z m 930.78903,80.74414 c 1.1806,0.004 2.3588,0.10952 3.5215,0.31445 11.2725,1.9876 18.799,12.73743 16.8106,24.00976 -1.9877,11.2716 -12.7362,18.79785 -24.0079,16.81055 -11.2715,-1.98768 -18.7978,-12.7362 -16.8105,-24.00781 1.7509,-9.93374 10.3995,-17.16419 20.4863,-17.12695 z m -998.52341,0.73242 c 9.85515,0.25151 18.16909,7.41053 19.88086,17.11914 1.98845,11.27231 -5.53808,22.02213 -16.81054,24.00976 -11.27227,1.98718 -22.0211,-5.54014 -24.00782,-16.8125 -1.98725,-11.27163 5.53899,-22.02015 16.81055,-24.00781 1.36191,-0.2403 2.74445,-0.34368 4.12695,-0.30859 z m 1051.20701,91.2832 c 2.5684,-0.0562 5.1249,0.36573 7.5391,1.24414 10.7555,3.91456 16.3012,15.80698 12.3867,26.5625 -3.9146,10.75551 -15.807,16.30123 -26.5625,12.38672 -10.7555,-3.91456 -16.3012,-15.80698 -12.3867,-26.5625 2.9235,-8.03178 10.4781,-13.44486 19.0234,-13.63086 z m -1104.3613,0.80274 c 8.5453,0.18599 16.09988,5.59907 19.02343,13.63085 3.91451,10.75553 -1.6312,22.64794 -12.38671,26.5625 -10.75497,3.9147 -22.64715,-1.63002 -26.5625,-12.38476 -3.91451,-10.75553 1.6312,-22.64794 12.38671,-26.5625 1.95121,-0.71077 3.99816,-1.12424 6.07227,-1.22656 0.48855,-0.0238 0.97779,-0.0303 1.4668,-0.0195 z m 1141.7266,99.04882 c 3.4712,0.0822 6.8661,1.03518 9.873,2.77149 9.9127,5.72281 13.3091,18.39804 7.5859,28.31054 -5.7228,9.9127 -18.398,13.30909 -28.3105,7.58594 -9.9127,-5.72281 -13.3091,-18.39804 -7.5859,-28.31054 3.5278,-6.11091 9.9224,-10.00701 16.9707,-10.33985 0.4886,-0.0232 0.9778,-0.029 1.4668,-0.0176 z m -1178.94731,0.85743 c 7.57703,-0.17927 14.64758,3.79192 18.4375,10.35546 5.72318,9.91251 2.3268,22.58775 -7.58593,28.31055 -9.91251,5.72318 -22.58775,2.32679 -28.31055,-7.58594 -5.72317,-9.91251 -2.32679,-22.58774 7.58594,-28.31054 3.00706,-1.73563 6.40199,-2.68796 9.87304,-2.76953 z M 1409.1152,659.34766 c 4.6763,0.12736 9.172,1.83312 12.7559,4.83984 8.7681,7.35712 9.9119,20.42922 2.5547,29.19727 -7.3571,8.76812 -20.4293,9.91189 -29.1973,2.55468 -8.7681,-7.35712 -9.9119,-20.42921 -2.5547,-29.19726 4.0652,-4.84426 10.1198,-7.56731 16.4414,-7.39453 z m -1215.40817,0.875 c 6.11193,0.0116 11.90707,2.72048 15.83594,7.40234 7.35719,8.76805 6.21341,21.84015 -2.55469,29.19727 -8.76805,7.35718 -21.84014,6.21341 -29.19726,-2.55469 -7.35719,-8.76805 -6.21342,-21.84014 2.55468,-29.19727 3.74309,-3.14039 8.47536,-4.85732 13.36133,-4.84765 z m 1214.95707,105.40429 0,0 c 6.1123,0.0121 11.9075,2.72169 15.836,7.4043 7.3572,8.76805 6.2134,21.84015 -2.5547,29.19727 -8.7681,7.35721 -21.8402,6.21343 -29.1973,-2.55469 -7.3572,-8.76805 -6.2134,-21.84015 2.5547,-29.19727 3.7423,-3.14067 8.4738,-4.85828 13.3594,-4.84961 z m -1214.35355,0.89063 c 4.67657,0.12792 9.17228,1.83438 12.75586,4.8418 8.76809,7.35713 9.91186,20.42922 2.55468,29.19726 -7.35712,8.7681 -20.42921,9.91187 -29.19726,2.55469 -8.7681,-7.35712 -9.91188,-20.42922 -2.55469,-29.19727 4.06483,-4.84499 10.11946,-7.56878 16.44141,-7.39648 z M 1389.7578,870.32031 c 7.5764,-0.17857 14.646,3.79254 18.4356,10.35547 5.7232,9.91253 2.3268,22.58777 -7.586,28.31055 -9.9121,5.72185 -22.5859,2.32562 -28.3086,-7.58594 -5.7218,-9.91209 -2.3256,-22.58587 7.586,-28.30859 3.0069,-1.73631 6.4018,-2.68931 9.873,-2.77149 z m -1176.99022,0.85547 c 3.47122,0.0822 6.86616,1.03518 9.87304,2.77149 9.91202,5.72347 13.30749,18.39854 7.58399,28.31054 -5.72274,9.91155 -18.39652,13.30778 -28.30859,7.58594 -9.91273,-5.7228 -13.30912,-18.39804 -7.58594,-28.31055 3.52744,-6.11035 9.9212,-10.00636 16.96875,-10.33984 0.48922,-0.0232 0.97911,-0.0291 1.46875,-0.0176 z M 1354.416,970.22461 c 8.5453,0.18596 16.0999,5.59905 19.0235,13.63086 3.9147,10.75499 -1.63,22.64723 -12.3848,26.56253 -10.7555,3.9145 -22.648,-1.6312 -26.5625,-12.38675 -3.9147,-10.75498 1.63,-22.64717 12.3848,-26.5625 1.9513,-0.7101 3.9982,-1.12291 6.0722,-1.22461 0.4885,-0.0238 0.9778,-0.0303 1.4668,-0.0195 z m -1106.16405,0.80273 c 2.56854,-0.0555 5.12501,0.36703 7.53907,1.2461 10.75551,3.91456 16.30122,15.80697 12.38671,26.5625 -3.91535,10.75476 -15.80753,16.29946 -26.5625,12.38476 -10.75551,-3.9146 -16.30122,-15.80697 -12.38671,-26.5625 2.92355,-8.03179 10.47813,-13.44487 19.02343,-13.63086 z M 1301.416,1062.3125 c 9.8559,0.2506 18.1709,7.4098 19.8828,17.1191 1.9873,11.2716 -5.5389,22.0202 -16.8105,24.0079 -11.2723,1.9885 -22.0222,-5.5381 -24.0098,-16.8106 -1.9872,-11.2716 5.539,-22.0202 16.8106,-24.0078 1.3619,-0.2403 2.7444,-0.3437 4.1269,-0.3086 z m -999.42381,0.7207 c 1.18064,0 2.35875,0.1096 3.52148,0.3145 11.27155,1.9877 18.79779,12.7362 16.81055,24.0078 -1.98765,11.2724 -12.73747,18.799 -24.00977,16.8105 -11.27155,-1.9877 -18.79778,-12.7362 -16.81054,-24.0078 1.75183,-9.9337 10.40136,-17.1634 20.48828,-17.125 z m 930.63481,80.7441 c 11.446,-10e-5 20.7248,9.2787 20.7246,20.7247 10e-5,11.4459 -9.2787,20.7247 -20.7246,20.7246 -11.446,2e-4 -20.7248,-9.2786 -20.7247,-20.7246 -2e-4,-11.446 9.2787,-20.7249 20.7247,-20.7247 z m -862.33208,0.627 c 11.44517,10e-4 20.72278,9.2794 20.72266,20.7246 1.2e-4,11.4452 -9.27749,20.7236 -20.72266,20.7246 -11.44593,10e-5 -20.72473,-9.2787 -20.72461,-20.7246 -1.2e-4,-11.4459 9.27868,-20.7247 20.72461,-20.7246 z m 781.03708,67.7539 c 1.1806,0 2.3588,0.1095 3.5215,0.3145 11.2716,1.9876 18.7978,12.7362 16.8106,24.0078 -1.9877,11.2716 -12.7363,18.7978 -24.0079,16.8105 -11.2715,-1.9877 -18.7977,-12.7362 -16.8105,-24.0078 1.7517,-9.933 10.4001,-17.1624 20.4863,-17.125 z m -699.03903,0.5156 c 9.85528,0.2504 18.17007,7.4087 19.88281,17.1172 1.98839,11.273 -5.53923,22.0231 -16.8125,24.0098 -11.27165,1.9872 -22.02018,-5.539 -24.00781,-16.8106 -1.98841,-11.2723 5.53812,-22.0221 16.81055,-24.0097 1.36197,-0.2397 2.74451,-0.3424 4.12695,-0.3067 z"
       transform="translate(0,-542.12598)"
       id="path4135"
       inkscape:connector-curvature="0"
       sodipodi:nodetypes="csssscccccccccccccccccccccccccccccccccccccccccccccccccccccccccccccccccccccccccccccccccccccccccccccccccccccccccccccssssccscsccscccccccscssssscccccccccccccccccccccccccssccccccccccccccccccccccccssccccsscccccssccccssccccccccccccccccsccccccccccccscccccccccccccccccccccccccccccccc" />
    <path
       style="opacity:1;fill:none;fill-opacity:1;stroke:none;stroke-width:2;stroke-linecap:round;stroke-miterlimit:4;stroke-dasharray:none;stroke-dashoffset:0;stroke-opacity:1"
       d="m 372.00586,274.48828 a 30,30 0 0 0 -30,30 30,30 0 0 0 30,30 30,30 0 0 0 30,-30 30,30 0 0 0 -30,-30 z m 857.99414,0 a 30,30 0 0 0 -30,30 30,30 0 0 0 30,30 30,30 0 0 0 30,-30 30,30 0 0 0 -30,-30 z M 1298.0898,355.5 a 30,30 0 0 0 -29.6562,24.79102 30,30 0 0 0 24.334,34.7539 30,30 0 0 0 34.7539,-24.33594 30,30 0 0 0 -24.334,-34.7539 30,30 0 0 0 -5.0977,-0.45508 z m -993.29683,0.01 a 30,30 0 0 0 -5.97266,0.44531 30,30 0 0 0 -24.33593,34.7539 30,30 0 0 0 34.7539,24.33594 30,30 0 0 0 24.33594,-34.7539 A 30,30 0 0 0 304.79297,355.51 Z m 1045.40823,91.5818 a 30,30 0 0 0 -27.5371,19.73242 30,30 0 0 0 17.9297,38.45117 30,30 0 0 0 38.4511,-17.92969 30,30 0 0 0 -17.9297,-38.45117 30,30 0 0 0 -10.914,-1.80273 z m -1100.51956,0.0293 a 30,30 0 0 0 -8.78906,1.77344 30,30 0 0 0 -17.93164,38.45117 30,30 0 0 0 38.45117,17.92969 30,30 0 0 0 17.93164,-38.45117 30,30 0 0 0 -29.66211,-19.70313 z m -35.40625,99.34766 a 30,30 0 0 0 -14.29297,4.01172 30,30 0 0 0 -10.98047,40.98047 30,30 0 0 0 40.98047,10.98047 30,30 0 0 0 10.98047,-40.98047 30,30 0 0 0 -26.6875,-14.99219 z m 1171.33401,0.0254 a 30,30 0 0 0 -24.5664,14.9668 30,30 0 0 0 10.9804,40.98047 30,30 0 0 0 40.9805,-10.98047 30,30 0 0 0 -10.9805,-40.98047 30,30 0 0 0 -16.414,-3.98633 z M 196.67383,650.60742 a 30,30 0 0 0 -19.33985,7.01953 30,30 0 0 0 -3.69726,42.26563 30,30 0 0 0 42.26562,3.69726 30,30 0 0 0 3.69727,-42.26562 30,30 0 0 0 -22.92578,-10.7168 z m 1209.53317,0.0117 a 30,30 0 0 0 -23.8008,10.70508 30,30 0 0 0 3.6973,42.26562 30,30 0 0 0 42.2656,-3.69726 30,30 0 0 0 -3.6972,-42.26563 30,30 0 0 0 -18.4649,-7.00781 z m -0.7636,105.74219 a 30,30 0 0 0 -19.3399,7.01953 30,30 0 0 0 -3.6973,42.26562 30,30 0 0 0 42.2657,3.69727 30,30 0 0 0 3.6972,-42.26563 30,30 0 0 0 -22.9257,-10.71679 z m -1208.0059,0.0117 a 30,30 0 0 0 -23.80078,10.70507 30,30 0 0 0 3.69726,42.26563 30,30 0 0 0 42.26563,-3.69922 30,30 0 0 0 -3.69727,-42.26367 30,30 0 0 0 -18.46484,-7.00781 z m 1188.8789,104.14453 a 30,30 0 0 0 -14.293,4.00976 30,30 0 0 0 -10.9804,40.98243 30,30 0 0 0 40.9804,10.98046 30,30 0 0 0 10.9805,-40.98046 30,30 0 0 0 -26.6875,-14.99219 z m -1172.74999,0.0254 a 30,30 0 0 0 -24.56446,14.96484 30,30 0 0 0 10.98047,40.98242 30,30 0 0 0 40.98047,-10.98242 30,30 0 0 0 -10.98047,-40.98047 30,30 0 0 0 -16.41601,-3.98437 z M 250.5,959.89258 a 30,30 0 0 0 -27.53906,19.73242 30,30 0 0 0 17.92968,38.4512 30,30 0 0 0 38.45313,-17.9317 A 30,30 0 0 0 261.41211,961.69336 30,30 0 0 0 250.5,959.89258 Z m 1098.8828,0.0293 a 30,30 0 0 0 -8.789,1.77148 30,30 0 0 0 -17.9297,38.45114 30,30 0 0 0 38.4511,17.9317 30,30 0 0 0 17.9297,-38.4512 30,30 0 0 0 -29.6621,-19.70312 z M 304.14062,1051.4707 a 30,30 0 0 0 -29.65624,24.7891 30,30 0 0 0 24.33593,34.7539 30,30 0 0 0 34.75196,-24.334 30,30 0 0 0 -24.33399,-34.7539 30,30 0 0 0 -5.09766,-0.4551 z m 994.59958,0.01 a 30,30 0 0 0 -5.9726,0.4453 30,30 0 0 0 -24.334,34.7539 30,30 0 0 0 34.7519,24.334 30,30 0 0 0 24.336,-34.752 30,30 0 0 0 -28.7813,-24.7812 z m -926.73434,81.0019 a 30,30 0 0 0 -30,30 30,30 0 0 0 30,30 30,30 0 0 0 30,-30 30,30 0 0 0 -30,-30 z m 857.99414,0 a 30,30 0 0 0 -30,30 30,30 0 0 0 30,30 30,30 0 0 0 30,-30 30,30 0 0 0 -30,-30 z m -80.9004,67.9766 a 30,30 0 0 0 -29.6562,24.791 30,30 0 0 0 24.3359,34.7539 30,30 0 0 0 34.7519,-24.3359 30,30 0 0 0 -24.3339,-34.7539 30,30 0 0 0 -5.0977,-0.4551 z m -695.31835,0.01 a 30,30 0 0 0 -5.97266,0.4453 30,30 0 0 0 -24.33398,34.7539 30,30 0 0 0 34.75195,24.3359 30,30 0 0 0 24.33594,-34.7539 30,30 0 0 0 -28.78125,-24.7812 z"
       transform="translate(0,-542.12598)"
       id="circle4422"
       inkscape:connector-curvature="0" />
    <path
       sodipodi:nodetypes="csssscccccccccccccccccccccccccccccccccccccccccccccccccccccccccccccccccccccccccccccccccccccccccccccccccccccccccccccssssccscsccscccccccscssssscccccccccccccccccccccccccssccccccccccccccccccccccccssccccsscccccssccccssccccccccccccccccsccccccccccccscccccccccccccccccccccccccccccccc"
       inkscape:connector-curvature="0"
       id="path4544"
       transform="translate(0,-542.12598)"
       d="m 558.34961,159.48828 c 0,0 5,16.50163 5,25 0,16.99673 -0.54234,35.87762 -10,50 -6.68757,9.98603 -19.09143,14.95544 -30,20 -11.01296,5.09284 -23.16352,7.3317 -35,10 -9.88976,2.22945 -30,5 -30,5 l 0,0.98438 -17.95703,-17.95704 c -15.0218,11.09617 -29.52047,22.88359 -43.44922,35.32422 -5.56096,-8.33606 -14.91682,-13.3452 -24.9375,-13.35156 -16.56854,0 -30,13.43146 -30,30 0.0141,9.80394 4.81776,18.98243 12.86523,24.58203 -10.33651,11.34879 -20.23628,23.0878 -29.67773,35.19141 -5.43096,-5.41843 -12.73136,-8.55036 -20.40039,-8.75195 -2.00076,-0.0512 -4.00161,0.098 -5.97266,0.44531 -16.3174,2.87654 -27.21312,18.43662 -24.33593,34.7539 1.66807,9.38335 7.69538,17.41589 16.23828,21.64063 -8.2909,12.87381 -16.08886,26.05848 -23.37696,39.52539 -5.24954,-3.38489 -11.42472,-5.04681 -17.66406,-4.75391 -3.00198,0.14753 -5.96475,0.74536 -8.78906,1.77344 -15.5698,5.66618 -23.59813,22.88148 -17.93164,38.45117 3.12245,8.57434 9.9777,15.26139 18.62695,18.16992 -6.01612,14.02796 -11.49792,28.27909 -16.43359,42.72266 -3.4859,-1.25664 -7.17444,-1.85661 -10.87891,-1.76953 -5.02517,0.11871 -9.93997,1.49819 -14.29297,4.01172 -14.3485,8.28436 -19.26459,26.63183 -10.98047,40.98047 4.31065,7.4371 11.60446,12.66779 20.03125,14.36523 -3.43073,14.9073 -6.29347,29.93964 -8.58203,45.06445 -1.25189,-0.17388 -2.51352,-0.26846 -3.77734,-0.2832 -7.07251,-0.013 -13.9222,2.47315 -19.33985,7.01953 -12.69254,10.65024 -14.34787,29.57341 -3.69726,42.26563 5.25965,6.26189 12.84763,10.10526 21.00781,10.64062 -0.52943,9.28966 -0.84397,18.59032 -0.94336,27.89453 0.21759,6.00751 0.52491,12.01144 0.92188,18.00977 -8.15256,0.54108 -15.73174,4.38392 -20.98633,10.64062 -10.65061,12.69222 -8.99528,31.61539 3.69726,42.26563 6.15635,5.1614 14.12564,7.63795 22.12305,6.875 1.84622,15.24723 4.27377,30.41843 7.27735,45.48047 -7.47679,2.13126 -13.83419,7.0819 -17.73243,13.80859 -8.28545,14.34907 -3.3692,32.698 10.98047,40.98242 6.64078,3.81753 14.4903,4.95027 21.93946,3.16602 4.74224,14.66246 10.0443,29.13791 15.89453,43.39453 -6.89389,3.41549 -12.21209,9.349 -14.85547,16.57422 -5.6667,15.56914 2.36064,32.7842 17.92968,38.4512 7.16478,2.593 15.04777,2.3625 22.04883,-0.6446 7.23137,13.6167 14.98184,26.9514 23.23438,39.9746 -6.16224,4.5602 -10.34496,11.3064 -11.68945,18.8536 -2.87719,16.3173 8.01853,31.8774 24.33593,34.7539 7.50688,1.3094 15.23075,-0.2869 21.60352,-4.4649 9.42144,12.2129 19.30761,24.0602 29.63672,35.5157 -5.16765,5.5442 -8.04533,12.8388 -8.05469,20.4179 0,16.5685 13.43146,30 30,30 7.56295,-0.014 14.8416,-2.8837 20.37891,-8.0351 11.36188,10.4743 23.12185,20.5084 35.2539,30.08 -3.95809,6.2881 -5.4419,13.8213 -4.16406,21.1407 2.87659,16.3165 18.43536,27.2119 34.75195,24.3359 7.33028,-1.3056 13.91314,-5.2904 18.46875,-11.1797 37.61059,23.6891 77.723,43.1509 119.60742,58.0313 l -25.33203,35.6308 226.27344,226.2754 226.27346,-226.2754 -25.37893,-35.6972 c 43.79963,-15.6913 85.63803,-36.3946 124.68163,-61.6973 4.3928,7.8656 12.088,13.3406 20.959,14.9121 16.3166,2.876 31.8753,-8.0194 34.7519,-24.3359 1.5948,-9.0565 -1.0521,-18.3441 -7.1816,-25.1992 12.0766,-9.3598 23.7933,-19.1749 35.125,-29.4239 5.6792,7.2106 14.3468,11.4246 23.5254,11.4375 16.5685,0 30,-13.4315 30,-30 -0.01,-9.3611 -4.3887,-18.181 -11.8398,-23.8476 10.0923,-11.5187 19.7424,-23.4173 28.9296,-35.67 6.9024,6.7161 16.6094,9.7101 26.0957,8.0489 16.3165,-2.8765 27.212,-18.4354 24.336,-34.752 -1.7216,-9.6858 -8.0825,-17.9121 -17.0235,-22.0156 8.0081,-13.1368 15.511,-26.575 22.4922,-40.2852 8.089,6.0079 18.6538,7.5537 28.125,4.1153 15.5691,-5.667 23.5964,-22.88205 17.9297,-38.4512 -3.5148,-9.64749 -11.7195,-16.82725 -21.748,-19.03125 5.7552,-14.34959 10.957,-28.91502 15.5937,-43.66406 9.1349,4.89557 20.1497,4.72942 29.1328,-0.43946 14.3485,-8.28435 19.2646,-26.63182 10.9805,-40.98046 -5.2695,-9.11173 -14.9289,-14.79528 -25.4531,-14.97657 3.3194,-15.15591 6.0532,-30.43419 8.1953,-45.80078 9.9212,3.38007 20.8872,1.33719 28.9258,-5.38867 12.6925,-10.65026 14.3478,-29.57342 3.6972,-42.26563 -5.6875,-6.77839 -14.0773,-10.70026 -22.9257,-10.71679 -1.6649,0.008 -3.3263,0.1554 -4.9668,0.43945 0.1967,-6.12242 0.3002,-12.24748 0.3105,-18.37305 -0.2644,-9.49262 -0.7528,-18.97768 -1.4648,-28.44726 10.8005,2.23216 21.9549,-1.64173 29.0468,-10.08789 10.6506,-12.69221 8.9953,-31.61537 -3.6972,-42.26563 -5.1876,-4.35306 -11.6954,-6.82291 -18.4649,-7.00781 -4.2429,-0.10663 -8.4601,0.68821 -12.373,2.33203 -2.1815,-15.62365 -4.9746,-31.15576 -8.3731,-46.56055 11.2568,0.59325 21.896,-5.17375 27.543,-14.92968 8.2841,-14.34864 3.368,-32.69612 -10.9805,-40.98047 -4.9766,-2.87343 -10.6738,-4.25705 -16.414,-3.98633 -5.4245,0.26866 -10.6744,2.00488 -15.1895,5.02344 -4.8673,-15.08942 -10.3272,-29.98118 -16.3672,-44.64063 11.3727,-1.21407 21.0657,-8.78904 24.9922,-19.53125 5.6667,-15.56914 -2.3607,-32.7842 -17.9297,-38.45117 -3.4948,-1.27223 -7.1957,-1.88353 -10.914,-1.80273 -7.6998,0.18128 -15.035,3.31701 -20.4864,8.75781 -7.6191,-14.0714 -15.7949,-27.83423 -24.5078,-41.25586 11.5032,-2.85468 20.2475,-12.21426 22.3145,-23.88477 2.8773,-16.31665 -8.0174,-31.87643 -24.334,-34.7539 -1.6832,-0.29662 -3.3886,-0.44887 -5.0977,-0.45508 -10.1311,-0.0331 -19.5946,5.04938 -25.1621,13.51367 -9.9013,-12.71758 -20.3081,-25.03345 -31.1953,-36.91797 11.0749,-4.70599 18.2663,-15.57411 18.2676,-27.60742 0,-16.56854 -13.4315,-30 -30,-30 -12.0573,0.0131 -22.9351,7.2435 -27.6152,18.35547 -15.3932,-14.26511 -31.5199,-27.71763 -48.3145,-40.30273 l -16.1191,16.11914 c -6.6621,-0.97973 -17.6224,-2.6677 -24.295,-4.17188 -11.8363,-2.6683 -23.987,-4.90716 -35,-10 -10.9085,-5.04456 -23.3124,-10.01397 -30,-20 -9.4575,-14.12238 -10,-33.00327 -10,-50 0,-8.49837 5,-25 5,-25 0,0 -13.1574,18.97252 -15,30 -4.1561,24.87642 5.4928,50.18477 10,75 3.9738,21.87815 12.4839,42.90671 15,65 0.5659,4.96789 0.8009,10.06456 0,15 -0.8442,5.20241 -5.3735,9.7428 -5,15 0.2643,3.7174 5,10 5,10 0,0 5.4896,-24.12215 15,-30 21.2664,-13.14328 136.9139,42.75925 136.9139,42.75925 61.9138,42.75926 133.6896,195.24358 134.0041,356.1802 -0.2869,236.14016 -153.338,444.95277 -378.43748,516.31447 L 797.24414,1024.2129 633.08398,1255.1172 C 407.95863,1183.6189 255.00067,974.63405 254.91406,738.42773 c 0.30848,-164.34781 75.12616,-319.69009 139.28085,-359.31477 0,0 117.88843,-52.76796 139.1547,-39.62468 9.51057,5.87785 15,30 15,30 0,0 4.73581,-6.2826 5,-10 0.37362,-5.2572 -4.15577,-9.79759 -5,-15 -0.80091,-4.93544 -0.56578,-10.03211 0,-15 2.51616,-22.09329 11.02619,-43.12185 15,-65 4.50729,-24.81523 14.15628,-50.12358 10,-75 -1.84244,-11.02748 -15,-30 -15,-30 z M 1232,281.44531 c 11.4459,-1.2e-4 20.7247,9.27868 20.7246,20.72461 10e-5,11.44593 -9.2787,20.72473 -20.7246,20.72461 -11.4459,1.2e-4 -20.7247,-9.27868 -20.7246,-20.72461 -10e-5,-11.44593 9.2787,-20.72473 20.7246,-20.72461 z m -862.33203,0.62696 c 11.44594,-1.2e-4 20.72473,9.27867 20.72461,20.72461 1.2e-4,11.44593 -9.27868,20.72472 -20.72461,20.7246 -11.44593,1.2e-4 -20.72473,-9.27867 -20.72461,-20.7246 -1.2e-4,-11.44594 9.27867,-20.72473 20.72461,-20.72461 z m 930.78903,80.74414 c 1.1806,0.004 2.3588,0.10952 3.5215,0.31445 11.2725,1.9876 18.799,12.73743 16.8106,24.00976 -1.9877,11.2716 -12.7362,18.79785 -24.0079,16.81055 -11.2715,-1.98768 -18.7978,-12.7362 -16.8105,-24.00781 1.7509,-9.93374 10.3995,-17.16419 20.4863,-17.12695 z m -998.52341,0.73242 c 9.85515,0.25151 18.16909,7.41053 19.88086,17.11914 1.98845,11.27231 -5.53808,22.02213 -16.81054,24.00976 -11.27227,1.98718 -22.0211,-5.54014 -24.00782,-16.8125 -1.98725,-11.27163 5.53899,-22.02015 16.81055,-24.00781 1.36191,-0.2403 2.74445,-0.34368 4.12695,-0.30859 z m 1051.20701,91.2832 c 2.5684,-0.0562 5.1249,0.36573 7.5391,1.24414 10.7555,3.91456 16.3012,15.80698 12.3867,26.5625 -3.9146,10.75551 -15.807,16.30123 -26.5625,12.38672 -10.7555,-3.91456 -16.3012,-15.80698 -12.3867,-26.5625 2.9235,-8.03178 10.4781,-13.44486 19.0234,-13.63086 z m -1104.3613,0.80274 c 8.5453,0.18599 16.09988,5.59907 19.02343,13.63085 3.91451,10.75553 -1.6312,22.64794 -12.38671,26.5625 -10.75497,3.9147 -22.64715,-1.63002 -26.5625,-12.38476 -3.91451,-10.75553 1.6312,-22.64794 12.38671,-26.5625 1.95121,-0.71077 3.99816,-1.12424 6.07227,-1.22656 0.48855,-0.0238 0.97779,-0.0303 1.4668,-0.0195 z m 1141.7266,99.04882 c 3.4712,0.0822 6.8661,1.03518 9.873,2.77149 9.9127,5.72281 13.3091,18.39804 7.5859,28.31054 -5.7228,9.9127 -18.398,13.30909 -28.3105,7.58594 -9.9127,-5.72281 -13.3091,-18.39804 -7.5859,-28.31054 3.5278,-6.11091 9.9224,-10.00701 16.9707,-10.33985 0.4886,-0.0232 0.9778,-0.029 1.4668,-0.0176 z m -1178.94731,0.85743 c 7.57703,-0.17927 14.64758,3.79192 18.4375,10.35546 5.72318,9.91251 2.3268,22.58775 -7.58593,28.31055 -9.91251,5.72318 -22.58775,2.32679 -28.31055,-7.58594 -5.72317,-9.91251 -2.32679,-22.58774 7.58594,-28.31054 3.00706,-1.73563 6.40199,-2.68796 9.87304,-2.76953 z M 1409.1152,659.34766 c 4.6763,0.12736 9.172,1.83312 12.7559,4.83984 8.7681,7.35712 9.9119,20.42922 2.5547,29.19727 -7.3571,8.76812 -20.4293,9.91189 -29.1973,2.55468 -8.7681,-7.35712 -9.9119,-20.42921 -2.5547,-29.19726 4.0652,-4.84426 10.1198,-7.56731 16.4414,-7.39453 z m -1215.40817,0.875 c 6.11193,0.0116 11.90707,2.72048 15.83594,7.40234 7.35719,8.76805 6.21341,21.84015 -2.55469,29.19727 -8.76805,7.35718 -21.84014,6.21341 -29.19726,-2.55469 -7.35719,-8.76805 -6.21342,-21.84014 2.55468,-29.19727 3.74309,-3.14039 8.47536,-4.85732 13.36133,-4.84765 z m 1214.95707,105.40429 0,0 c 6.1123,0.0121 11.9075,2.72169 15.836,7.4043 7.3572,8.76805 6.2134,21.84015 -2.5547,29.19727 -8.7681,7.35721 -21.8402,6.21343 -29.1973,-2.55469 -7.3572,-8.76805 -6.2134,-21.84015 2.5547,-29.19727 3.7423,-3.14067 8.4738,-4.85828 13.3594,-4.84961 z m -1214.35355,0.89063 c 4.67657,0.12792 9.17228,1.83438 12.75586,4.8418 8.76809,7.35713 9.91186,20.42922 2.55468,29.19726 -7.35712,8.7681 -20.42921,9.91187 -29.19726,2.55469 -8.7681,-7.35712 -9.91188,-20.42922 -2.55469,-29.19727 4.06483,-4.84499 10.11946,-7.56878 16.44141,-7.39648 z M 1389.7578,870.32031 c 7.5764,-0.17857 14.646,3.79254 18.4356,10.35547 5.7232,9.91253 2.3268,22.58777 -7.586,28.31055 -9.9121,5.72185 -22.5859,2.32562 -28.3086,-7.58594 -5.7218,-9.91209 -2.3256,-22.58587 7.586,-28.30859 3.0069,-1.73631 6.4018,-2.68931 9.873,-2.77149 z m -1176.99022,0.85547 c 3.47122,0.0822 6.86616,1.03518 9.87304,2.77149 9.91202,5.72347 13.30749,18.39854 7.58399,28.31054 -5.72274,9.91155 -18.39652,13.30778 -28.30859,7.58594 -9.91273,-5.7228 -13.30912,-18.39804 -7.58594,-28.31055 3.52744,-6.11035 9.9212,-10.00636 16.96875,-10.33984 0.48922,-0.0232 0.97911,-0.0291 1.46875,-0.0176 z M 1354.416,970.22461 c 8.5453,0.18596 16.0999,5.59905 19.0235,13.63086 3.9147,10.75499 -1.63,22.64723 -12.3848,26.56253 -10.7555,3.9145 -22.648,-1.6312 -26.5625,-12.38675 -3.9147,-10.75498 1.63,-22.64717 12.3848,-26.5625 1.9513,-0.7101 3.9982,-1.12291 6.0722,-1.22461 0.4885,-0.0238 0.9778,-0.0303 1.4668,-0.0195 z m -1106.16405,0.80273 c 2.56854,-0.0555 5.12501,0.36703 7.53907,1.2461 10.75551,3.91456 16.30122,15.80697 12.38671,26.5625 -3.91535,10.75476 -15.80753,16.29946 -26.5625,12.38476 -10.75551,-3.9146 -16.30122,-15.80697 -12.38671,-26.5625 2.92355,-8.03179 10.47813,-13.44487 19.02343,-13.63086 z M 1301.416,1062.3125 c 9.8559,0.2506 18.1709,7.4098 19.8828,17.1191 1.9873,11.2716 -5.5389,22.0202 -16.8105,24.0079 -11.2723,1.9885 -22.0222,-5.5381 -24.0098,-16.8106 -1.9872,-11.2716 5.539,-22.0202 16.8106,-24.0078 1.3619,-0.2403 2.7444,-0.3437 4.1269,-0.3086 z m -999.42381,0.7207 c 1.18064,0 2.35875,0.1096 3.52148,0.3145 11.27155,1.9877 18.79779,12.7362 16.81055,24.0078 -1.98765,11.2724 -12.73747,18.799 -24.00977,16.8105 -11.27155,-1.9877 -18.79778,-12.7362 -16.81054,-24.0078 1.75183,-9.9337 10.40136,-17.1634 20.48828,-17.125 z m 930.63481,80.7441 c 11.446,-10e-5 20.7248,9.2787 20.7246,20.7247 10e-5,11.4459 -9.2787,20.7247 -20.7246,20.7246 -11.446,2e-4 -20.7248,-9.2786 -20.7247,-20.7246 -2e-4,-11.446 9.2787,-20.7249 20.7247,-20.7247 z m -862.33208,0.627 c 11.44517,10e-4 20.72278,9.2794 20.72266,20.7246 1.2e-4,11.4452 -9.27749,20.7236 -20.72266,20.7246 -11.44593,10e-5 -20.72473,-9.2787 -20.72461,-20.7246 -1.2e-4,-11.4459 9.27868,-20.7247 20.72461,-20.7246 z m 781.03708,67.7539 c 1.1806,0 2.3588,0.1095 3.5215,0.3145 11.2716,1.9876 18.7978,12.7362 16.8106,24.0078 -1.9877,11.2716 -12.7363,18.7978 -24.0079,16.8105 -11.2715,-1.9877 -18.7977,-12.7362 -16.8105,-24.0078 1.7517,-9.933 10.4001,-17.1624 20.4863,-17.125 z m -699.03903,0.5156 c 9.85528,0.2504 18.17007,7.4087 19.88281,17.1172 1.98839,11.273 -5.53923,22.0231 -16.8125,24.0098 -11.27165,1.9872 -22.02018,-5.539 -24.00781,-16.8106 -1.98841,-11.2723 5.53812,-22.0221 16.81055,-24.0097 1.36197,-0.2397 2.74451,-0.3424 4.12695,-0.3067 z"
       style="opacity:1;fill:url(#radialGradient4552);fill-opacity:1;stroke:none;stroke-width:0.30000001;stroke-linecap:round;stroke-miterlimit:4;stroke-dasharray:none;stroke-dashoffset:0;stroke-opacity:1" />
  </g>
  <g
     inkscape:groupmode="layer"
     id="layer3"
     inkscape:label="arma">
    <path
       inkscape:connector-curvature="0"
       style="opacity:1;fill:url(#linearGradient4645);fill-opacity:1;stroke:#000000;stroke-width:2;stroke-linecap:round;stroke-miterlimit:4;stroke-dasharray:none;stroke-dashoffset:0;stroke-opacity:1"
       d="m 797.24414,859.48828 a 52.5,52.5 0 0 0 -52.5,52.5 52.5,52.5 0 0 0 7.19531,26.40039 l -11.73633,14.95117 0,20 19.41797,-24.73828 a 52.5,52.5 0 0 0 8.25586,6.88672 l -27.67383,35.25781 0,20.00001 5.0586,-6.4453 0,17.4043 -5.0586,6.4453 0,20 14.55665,-18.5449 0.50195,0 0,-0.6407 7.44531,-9.4843 0,17.4043 -22.50391,28.6718 0,20 7.82227,-9.9668 0,16.4727 10,0 0,-29.2129 18.375,-23.4101 0,-20 -8.69336,11.0761 0,-17.4062 8.69336,-11.0742 0,-20.00004 -21.13867,26.92964 0,-14.35933 -2.39063,0 23.5293,-29.97656 0,-4.47852 a 52.5,52.5 0 0 0 20.84375,4.33789 52.5,52.5 0 0 0 20.84375,-4.38281 l 0,4.52344 23.5293,29.97656 -2.39063,0 0,14.35933 -21.13867,-26.92964 0,20.00004 8.69531,11.0781 0,17.4043 -8.69531,-11.0781 0,20 18.375,23.4101 0,29.2129 10,0 0,-16.4727 7.82227,9.9668 0,-20 -22.50196,-28.6679 0,-17.4063 7.44336,9.4824 0,0.6407 0.50196,0 14.55664,18.5449 0,-20 -5.0586,-6.4453 0,-17.4043 5.0586,6.4453 0,-20.00001 -27.69336,-35.2832 a 52.5,52.5 0 0 0 8.24218,-6.90234 l 19.45118,24.77929 0,-20 -11.72852,-14.9414 a 52.5,52.5 0 0 0 7.1875,-26.41016 52.5,52.5 0 0 0 -52.5,-52.5 z m 0,12.82617 a 40.310051,40.310051 0 0 1 40.31055,40.31055 40.310051,40.310051 0 0 1 -40.31055,40.31055 40.310051,40.310051 0 0 1 -40.31055,-40.31055 40.310051,40.310051 0 0 1 40.31055,-40.31055 z"
       id="rect4620" />
  </g>
  <g
     inkscape:groupmode="layer"
     id="layer2"
     inkscape:label="cabina"
     sodipodi:insensitive="true">
    <path
       sodipodi:nodetypes="csssscccccccccccccccccccccccccccccccccccccccccccccccccccccccccccccccccccccccccccccccccccccccccccccccccccccccccccccssssccscsccscccccccscssssscccccccccccccccccccccccccssccccccccccccccccccccccccssccccsscccccssccccssccccccccccccccccsccccccccccccscccccccccccccccccccccccccccccccc"
       inkscape:connector-curvature="0"
       id="path4544-6"
       d="m 558.34961,159.48829 c 0,0 5,16.50163 5,25 0,16.99673 -0.54234,35.87762 -10,50 -6.68757,9.98603 -19.09143,14.95544 -30,20 -11.01296,5.09284 -23.16352,7.3317 -35,10 -9.88976,2.22945 -30,5 -30,5 l 0,0.98438 -17.95703,-17.95704 c -15.0218,11.09617 -29.52047,22.88359 -43.44922,35.32422 -5.56096,-8.33606 -14.91682,-13.3452 -24.9375,-13.35156 -16.56854,0 -30,13.43146 -30,30 0.0141,9.80394 4.81776,18.98243 12.86523,24.58203 -10.33651,11.34879 -20.23628,23.0878 -29.67773,35.19141 -5.43096,-5.41843 -12.73136,-8.55036 -20.40039,-8.75195 -2.00076,-0.0512 -4.00161,0.098 -5.97266,0.44531 -16.3174,2.87654 -27.21312,18.43662 -24.33593,34.7539 1.66807,9.38335 7.69538,17.41589 16.23828,21.64063 -8.2909,12.87381 -16.08886,26.05848 -23.37696,39.52539 -5.24954,-3.38489 -11.42472,-5.04681 -17.66406,-4.75391 -3.00198,0.14753 -5.96475,0.74536 -8.78906,1.77344 -15.5698,5.66618 -23.59813,22.88148 -17.93164,38.45117 3.12245,8.57434 9.9777,15.26139 18.62695,18.16992 -6.01612,14.02796 -11.49792,28.27909 -16.43359,42.72266 -3.4859,-1.25664 -7.17444,-1.85661 -10.87891,-1.76953 -5.02517,0.11871 -9.93997,1.49819 -14.29297,4.01172 -14.3485,8.28436 -19.26459,26.63183 -10.98047,40.98047 4.31065,7.4371 11.60446,12.66779 20.03125,14.36523 -3.43073,14.9073 -6.29347,29.93964 -8.58203,45.06445 -1.25189,-0.17388 -2.51352,-0.26846 -3.77734,-0.2832 -7.07251,-0.013 -13.9222,2.47315 -19.33985,7.01953 -12.69254,10.65024 -14.34787,29.57341 -3.69726,42.26563 5.25965,6.26189 12.84763,10.10526 21.00781,10.64062 -0.52943,9.28966 -0.84397,18.59032 -0.94336,27.89453 0.21759,6.00751 0.52491,12.01144 0.92188,18.00977 -8.15256,0.54108 -15.73174,4.38392 -20.98633,10.64062 -10.65061,12.69222 -8.99528,31.61539 3.69726,42.26563 6.15635,5.1614 14.12564,7.63795 22.12305,6.875 1.84622,15.24723 4.27377,30.41843 7.27735,45.48047 -7.47679,2.13126 -13.83419,7.0819 -17.73243,13.80859 -8.28545,14.34907 -3.3692,32.698 10.98047,40.98242 6.64078,3.81753 14.4903,4.95027 21.93946,3.16602 4.74224,14.66246 10.0443,29.13791 15.89453,43.39453 -6.89389,3.41549 -12.21209,9.349 -14.85547,16.57422 -5.6667,15.56914 2.36064,32.78419 17.92968,38.45119 7.16478,2.593 15.04777,2.3625 22.04883,-0.6446 7.23137,13.6167 14.98184,26.9514 23.23438,39.9746 -6.16224,4.5602 -10.34496,11.3064 -11.68945,18.8536 -2.87719,16.3173 8.01853,31.8774 24.33593,34.7539 7.50688,1.3094 15.23075,-0.2869 21.60352,-4.4649 9.42144,12.2129 19.30761,24.0602 29.63672,35.5157 -5.16765,5.5442 -8.04533,12.8388 -8.05469,20.4179 0,16.5685 13.43146,30 30,30 7.56295,-0.014 14.8416,-2.8837 20.37891,-8.0351 11.36188,10.4743 23.12185,20.5084 35.2539,30.08 -3.95809,6.2881 -5.4419,13.8213 -4.16406,21.1407 2.87659,16.3165 18.43536,27.2119 34.75195,24.3359 7.33028,-1.3056 13.91314,-5.2904 18.46875,-11.1797 37.61059,23.6891 77.723,43.1509 119.60742,58.0313 l -25.33203,35.6308 226.27344,226.2754 226.27346,-226.2754 -25.37893,-35.6972 c 43.79963,-15.6913 85.63803,-36.3946 124.68163,-61.6973 4.3928,7.8656 12.088,13.3406 20.959,14.9121 16.3166,2.876 31.8753,-8.0194 34.7519,-24.3359 1.5948,-9.0565 -1.0521,-18.3441 -7.1816,-25.1992 12.0766,-9.3598 23.7933,-19.1749 35.125,-29.4239 5.6792,7.2106 14.3468,11.4246 23.5254,11.4375 16.5685,0 30,-13.4315 30,-30 -0.01,-9.3611 -4.3887,-18.181 -11.8398,-23.8476 10.0923,-11.5187 19.7424,-23.4173 28.9296,-35.67 6.9024,6.7161 16.6094,9.7101 26.0957,8.0489 16.3165,-2.8765 27.212,-18.4354 24.336,-34.752 -1.7216,-9.6858 -8.0825,-17.9121 -17.0235,-22.0156 8.0081,-13.1368 15.511,-26.575 22.4922,-40.2852 8.089,6.0079 18.6538,7.5537 28.125,4.1153 15.5691,-5.667 23.5964,-22.88204 17.9297,-38.45119 -3.5148,-9.64749 -11.7195,-16.82725 -21.748,-19.03125 5.7552,-14.34959 10.957,-28.91502 15.5937,-43.66406 9.1349,4.89557 20.1497,4.72942 29.1328,-0.43946 14.3485,-8.28435 19.2646,-26.63182 10.9805,-40.98046 -5.2695,-9.11173 -14.9289,-14.79528 -25.4531,-14.97657 3.3194,-15.15591 6.0532,-30.43419 8.1953,-45.80078 9.9212,3.38007 20.8872,1.33719 28.9258,-5.38867 12.6925,-10.65026 14.3478,-29.57342 3.6972,-42.26563 -5.6875,-6.77839 -14.0773,-10.70026 -22.9257,-10.71679 -1.6649,0.008 -3.3263,0.1554 -4.9668,0.43945 0.1967,-6.12242 0.3002,-12.24748 0.3105,-18.37305 -0.2644,-9.49262 -0.7528,-18.97768 -1.4648,-28.44726 10.8005,2.23216 21.9549,-1.64173 29.0468,-10.08789 10.6506,-12.69221 8.9953,-31.61537 -3.6972,-42.26563 -5.1876,-4.35306 -11.6954,-6.82291 -18.4649,-7.00781 -4.2429,-0.10663 -8.4601,0.68821 -12.373,2.33203 -2.1815,-15.62365 -4.9746,-31.15576 -8.3731,-46.56055 11.2568,0.59325 21.896,-5.17375 27.543,-14.92968 8.2841,-14.34864 3.368,-32.69612 -10.9805,-40.98047 -4.9766,-2.87343 -10.6738,-4.25705 -16.414,-3.98633 -5.4245,0.26866 -10.6744,2.00488 -15.1895,5.02344 -4.8673,-15.08942 -10.3272,-29.98118 -16.3672,-44.64063 11.3727,-1.21407 21.0657,-8.78904 24.9922,-19.53125 5.6667,-15.56914 -2.3607,-32.7842 -17.9297,-38.45117 -3.4948,-1.27223 -7.1957,-1.88353 -10.914,-1.80273 -7.6998,0.18128 -15.035,3.31701 -20.4864,8.75781 -7.6191,-14.0714 -15.7949,-27.83423 -24.5078,-41.25586 11.5032,-2.85468 20.2475,-12.21426 22.3145,-23.88477 2.8773,-16.31665 -8.0174,-31.87643 -24.334,-34.7539 -1.6832,-0.29662 -3.3886,-0.44887 -5.0977,-0.45508 -10.1311,-0.0331 -19.5946,5.04938 -25.1621,13.51367 -9.9013,-12.71758 -20.3081,-25.03345 -31.1953,-36.91797 11.0749,-4.70599 18.2663,-15.57411 18.2676,-27.60742 0,-16.56854 -13.4315,-30 -30,-30 -12.0573,0.0131 -22.9351,7.2435 -27.6152,18.35547 -15.3932,-14.26511 -31.5199,-27.71763 -48.3145,-40.30273 l -16.1191,16.11914 c -6.6621,-0.97973 -17.6224,-2.6677 -24.295,-4.17188 -11.8363,-2.6683 -23.987,-4.90716 -35,-10 -10.9085,-5.04456 -23.3124,-10.01397 -30,-20 -9.4575,-14.12238 -10,-33.00327 -10,-50 0,-8.49837 5,-25 5,-25 0,0 -13.1574,18.97252 -15,30 -4.1561,24.87642 5.4928,50.18477 10,75 3.9738,21.87815 12.4839,42.90671 15,65 0.5659,4.96789 0.8009,10.06456 0,15 -0.8442,5.20241 -5.3735,9.7428 -5,15 0.2643,3.7174 5,10 5,10 0,0 5.4896,-24.12215 15,-30 21.2664,-13.14328 136.9139,42.75925 136.9139,42.75925 61.9138,42.75926 133.6896,195.24358 134.0041,356.1802 -0.2869,236.14016 -153.338,444.95276 -378.43748,516.31446 L 797.24414,1024.2129 633.08398,1255.1172 C 407.95863,1183.6189 255.00067,974.63406 254.91406,738.42774 c 0.30848,-164.34781 75.12616,-319.69009 139.28085,-359.31477 0,0 117.88843,-52.76796 139.1547,-39.62468 9.51057,5.87785 15,30 15,30 0,0 4.73581,-6.2826 5,-10 0.37362,-5.2572 -4.15577,-9.79759 -5,-15 -0.80091,-4.93544 -0.56578,-10.03211 0,-15 2.51616,-22.09329 11.02619,-43.12185 15,-65 4.50729,-24.81523 14.15628,-50.12358 10,-75 -1.84244,-11.02748 -15,-30 -15,-30 z M 1232,281.44532 c 11.4459,-1.2e-4 20.7247,9.27868 20.7246,20.72461 10e-5,11.44593 -9.2787,20.72473 -20.7246,20.72461 -11.4459,1.2e-4 -20.7247,-9.27868 -20.7246,-20.72461 -10e-5,-11.44593 9.2787,-20.72473 20.7246,-20.72461 z m -862.33203,0.62696 c 11.44594,-1.2e-4 20.72473,9.27867 20.72461,20.72461 1.2e-4,11.44593 -9.27868,20.72472 -20.72461,20.7246 -11.44593,1.2e-4 -20.72473,-9.27867 -20.72461,-20.7246 -1.2e-4,-11.44594 9.27867,-20.72473 20.72461,-20.72461 z m 930.78903,80.74414 c 1.1806,0.004 2.3588,0.10952 3.5215,0.31445 11.2725,1.9876 18.799,12.73743 16.8106,24.00976 -1.9877,11.2716 -12.7362,18.79785 -24.0079,16.81055 -11.2715,-1.98768 -18.7978,-12.7362 -16.8105,-24.00781 1.7509,-9.93374 10.3995,-17.16419 20.4863,-17.12695 z m -998.52341,0.73242 c 9.85515,0.25151 18.16909,7.41053 19.88086,17.11914 1.98845,11.27231 -5.53808,22.02213 -16.81054,24.00976 -11.27227,1.98718 -22.0211,-5.54014 -24.00782,-16.8125 -1.98725,-11.27163 5.53899,-22.02015 16.81055,-24.00781 1.36191,-0.2403 2.74445,-0.34368 4.12695,-0.30859 z m 1051.20701,91.2832 c 2.5684,-0.0562 5.1249,0.36573 7.5391,1.24414 10.7555,3.91456 16.3012,15.80698 12.3867,26.5625 -3.9146,10.75551 -15.807,16.30123 -26.5625,12.38672 -10.7555,-3.91456 -16.3012,-15.80698 -12.3867,-26.5625 2.9235,-8.03178 10.4781,-13.44486 19.0234,-13.63086 z m -1104.3613,0.80274 c 8.5453,0.18599 16.09988,5.59907 19.02343,13.63085 3.91451,10.75553 -1.6312,22.64794 -12.38671,26.5625 -10.75497,3.9147 -22.64715,-1.63002 -26.5625,-12.38476 -3.91451,-10.75553 1.6312,-22.64794 12.38671,-26.5625 1.95121,-0.71077 3.99816,-1.12424 6.07227,-1.22656 0.48855,-0.0238 0.97779,-0.0303 1.4668,-0.0195 z m 1141.7266,99.04882 c 3.4712,0.0822 6.8661,1.03518 9.873,2.77149 9.9127,5.72281 13.3091,18.39804 7.5859,28.31054 -5.7228,9.9127 -18.398,13.30909 -28.3105,7.58594 -9.9127,-5.72281 -13.3091,-18.39804 -7.5859,-28.31054 3.5278,-6.11091 9.9224,-10.00701 16.9707,-10.33985 0.4886,-0.0232 0.9778,-0.029 1.4668,-0.0176 z m -1178.94731,0.85743 c 7.57703,-0.17927 14.64758,3.79192 18.4375,10.35546 5.72318,9.91251 2.3268,22.58775 -7.58593,28.31055 -9.91251,5.72318 -22.58775,2.32679 -28.31055,-7.58594 -5.72317,-9.91251 -2.32679,-22.58774 7.58594,-28.31054 3.00706,-1.73563 6.40199,-2.68796 9.87304,-2.76953 z M 1409.1152,659.34767 c 4.6763,0.12736 9.172,1.83312 12.7559,4.83984 8.7681,7.35712 9.9119,20.42922 2.5547,29.19727 -7.3571,8.76812 -20.4293,9.91189 -29.1973,2.55468 -8.7681,-7.35712 -9.9119,-20.42921 -2.5547,-29.19726 4.0652,-4.84426 10.1198,-7.56731 16.4414,-7.39453 z m -1215.40817,0.875 c 6.11193,0.0116 11.90707,2.72048 15.83594,7.40234 7.35719,8.76805 6.21341,21.84015 -2.55469,29.19727 -8.76805,7.35718 -21.84014,6.21341 -29.19726,-2.55469 -7.35719,-8.76805 -6.21342,-21.84014 2.55468,-29.19727 3.74309,-3.14039 8.47536,-4.85732 13.36133,-4.84765 z m 1214.95707,105.40429 0,0 c 6.1123,0.0121 11.9075,2.72169 15.836,7.4043 7.3572,8.76805 6.2134,21.84015 -2.5547,29.19727 -8.7681,7.35721 -21.8402,6.21343 -29.1973,-2.55469 -7.3572,-8.76805 -6.2134,-21.84015 2.5547,-29.19727 3.7423,-3.14067 8.4738,-4.85828 13.3594,-4.84961 z m -1214.35355,0.89063 c 4.67657,0.12792 9.17228,1.83438 12.75586,4.8418 8.76809,7.35713 9.91186,20.42922 2.55468,29.19726 -7.35712,8.7681 -20.42921,9.91187 -29.19726,2.55469 -8.7681,-7.35712 -9.91188,-20.42922 -2.55469,-29.19727 4.06483,-4.84499 10.11946,-7.56878 16.44141,-7.39648 z M 1389.7578,870.32032 c 7.5764,-0.17857 14.646,3.79254 18.4356,10.35547 5.7232,9.91253 2.3268,22.58777 -7.586,28.31055 -9.9121,5.72185 -22.5859,2.32562 -28.3086,-7.58594 -5.7218,-9.91209 -2.3256,-22.58587 7.586,-28.30859 3.0069,-1.73631 6.4018,-2.68931 9.873,-2.77149 z m -1176.99022,0.85547 c 3.47122,0.0822 6.86616,1.03518 9.87304,2.77149 9.91202,5.72347 13.30749,18.39854 7.58399,28.31054 -5.72274,9.91155 -18.39652,13.30778 -28.30859,7.58594 -9.91273,-5.7228 -13.30912,-18.39804 -7.58594,-28.31055 3.52744,-6.11035 9.9212,-10.00636 16.96875,-10.33984 0.48922,-0.0232 0.97911,-0.0291 1.46875,-0.0176 z M 1354.416,970.22462 c 8.5453,0.18596 16.0999,5.59905 19.0235,13.63086 3.9147,10.75499 -1.63,22.64722 -12.3848,26.56252 -10.7555,3.9145 -22.648,-1.6312 -26.5625,-12.38674 -3.9147,-10.75498 1.63,-22.64717 12.3848,-26.5625 1.9513,-0.7101 3.9982,-1.12291 6.0722,-1.22461 0.4885,-0.0238 0.9778,-0.0303 1.4668,-0.0195 z m -1106.16405,0.80273 c 2.56854,-0.0555 5.12501,0.36703 7.53907,1.2461 10.75551,3.91456 16.30122,15.80697 12.38671,26.5625 -3.91535,10.75475 -15.80753,16.29945 -26.5625,12.38475 -10.75551,-3.9146 -16.30122,-15.80696 -12.38671,-26.56249 2.92355,-8.03179 10.47813,-13.44487 19.02343,-13.63086 z M 1301.416,1062.3125 c 9.8559,0.2506 18.1709,7.4098 19.8828,17.1191 1.9873,11.2716 -5.5389,22.0202 -16.8105,24.0079 -11.2723,1.9885 -22.0222,-5.5381 -24.0098,-16.8106 -1.9872,-11.2716 5.539,-22.0202 16.8106,-24.0078 1.3619,-0.2403 2.7444,-0.3437 4.1269,-0.3086 z m -999.42381,0.7207 c 1.18064,0 2.35875,0.1096 3.52148,0.3145 11.27155,1.9877 18.79779,12.7362 16.81055,24.0078 -1.98765,11.2724 -12.73747,18.799 -24.00977,16.8105 -11.27155,-1.9877 -18.79778,-12.7362 -16.81054,-24.0078 1.75183,-9.9337 10.40136,-17.1634 20.48828,-17.125 z m 930.63481,80.7441 c 11.446,-10e-5 20.7248,9.2787 20.7246,20.7247 10e-5,11.4459 -9.2787,20.7247 -20.7246,20.7246 -11.446,2e-4 -20.7248,-9.2786 -20.7247,-20.7246 -2e-4,-11.446 9.2787,-20.7249 20.7247,-20.7247 z m -862.33208,0.627 c 11.44517,10e-4 20.72278,9.2794 20.72266,20.7246 1.2e-4,11.4452 -9.27749,20.7236 -20.72266,20.7246 -11.44593,10e-5 -20.72473,-9.2787 -20.72461,-20.7246 -1.2e-4,-11.4459 9.27868,-20.7247 20.72461,-20.7246 z m 781.03708,67.7539 c 1.1806,0 2.3588,0.1095 3.5215,0.3145 11.2716,1.9876 18.7978,12.7362 16.8106,24.0078 -1.9877,11.2716 -12.7363,18.7978 -24.0079,16.8105 -11.2715,-1.9877 -18.7977,-12.7362 -16.8105,-24.0078 1.7517,-9.933 10.4001,-17.1624 20.4863,-17.125 z m -699.03903,0.5156 c 9.85528,0.2504 18.17007,7.4087 19.88281,17.1172 1.98839,11.273 -5.53923,22.0231 -16.8125,24.0098 -11.27165,1.9872 -22.02018,-5.539 -24.00781,-16.8106 -1.98841,-11.2723 5.53812,-22.0221 16.81055,-24.0097 1.36197,-0.2397 2.74451,-0.3424 4.12695,-0.3067 z"
       style="opacity:0.52100004;fill:url(#linearGradient4589);fill-opacity:1;stroke:none;stroke-width:0.30000001;stroke-linecap:round;stroke-miterlimit:4;stroke-dasharray:none;stroke-dashoffset:0;stroke-opacity:1" />
    <path
       style="opacity:1;fill:url(#linearGradient4613);fill-opacity:1;stroke:none;stroke-width:2;stroke-linecap:round;stroke-miterlimit:4;stroke-dasharray:none;stroke-dashoffset:0;stroke-opacity:1"
       d="m 798.24414,1036.7305 -212.70117,294.6992 120.78711,123.0586 182.96484,0 119.65038,-123.0586 -210.70116,-294.6992 z"
       id="rect4604"
       inkscape:connector-curvature="0" />
    <path
       style="fill:url(#radialGradient4602);fill-opacity:1;fill-rule:evenodd;stroke:#000000;stroke-width:1px;stroke-linecap:butt;stroke-linejoin:miter;stroke-opacity:1"
       d="m 789.04683,1074.4883 -120,220 0,100 60,40 60,0 0,-360 z m 16.39453,0 0,360 60,0 60,-40 0,-100 -120,-220 z"
       id="path4591"
       inkscape:connector-curvature="0" />
  </g>
  <g
     inkscape:groupmode="layer"
     id="layer4"
     inkscape:label="aleta">
    <g
       id="g4766">
      <g
         transform="matrix(-1.8611947e-8,-1,1,-1.8611947e-8,-744.47078,2584.7948)"
         id="g4752">
        <path
           inkscape:connector-curvature="0"
           style="opacity:1;fill:url(#linearGradient4726);fill-opacity:1;stroke:#000000;stroke-width:2;stroke-linecap:round;stroke-miterlimit:4;stroke-dasharray:none;stroke-dashoffset:0;stroke-opacity:1"
           d="m 1284.4551,1277.8438 -31.3164,31.3144 c -14.0969,1.2649 -27.9973,3.3102 -41.6211,6.1016 l -28.7207,-13.3926 -11.1582,23.9297 c -19.8759,6.485 -38.9138,14.6295 -56.8399,24.2871 l -25.6582,-6.875 -7.2988,27.2363 c -26.3853,18.5979 -49.404,40.9063 -67.8535,66.3731 65.6525,-50.3907 167.0368,-79.949 274.5586,-80.0469 102.9203,0.074 200.486,27.1533 266.3886,73.9355 -18.7939,-24.4478 -41.858,-45.803 -68.0644,-63.5625 l -7.1035,-26.5078 -25.8496,6.9238 c -17.7291,-9.1852 -36.4963,-16.9017 -56.0371,-23.0273 l -11.7696,-25.2402 -31.2656,14.58 c -12.9552,-2.391 -26.1421,-4.1112 -39.4922,-5.1308 l -30.8984,-30.8984 z"
           id="path4699" />
        <path
           id="path4718"
           d="m 1284.1127,1282.508 -28.5243,28.5224 c -12.84,1.1521 -33.0286,3.6994 -45.4378,6.2419 l -26.1599,-12.1985 -10.1634,21.7961 c -18.1038,5.9068 -44.3405,16.7469 -60.6683,25.5434 l -23.3705,-6.262 -3.2265,20.7019 c -24.0328,16.9397 -42.2618,33.1532 -59.0664,56.3494 59.799,-45.8979 161.7245,-86.5074 259.6598,-86.5966 93.744,0.067 192.1914,34.9973 252.2182,77.6084 -17.1183,-22.268 -31.2828,-34.8759 -55.1526,-51.052 l -5.7859,-19.3541 -23.5449,6.3065 c -16.1484,-8.3663 -38.7169,-17.4478 -56.5154,-23.0272 l -10.7203,-22.9898 -28.478,13.28 c -11.8001,-2.1778 -34.7605,-5.7976 -46.9203,-6.7263 z"
           style="opacity:0.25;fill:url(#linearGradient4750);fill-opacity:1;stroke:none;stroke-width:1.82168162;stroke-linecap:round;stroke-miterlimit:4;stroke-dasharray:none;stroke-dashoffset:0;stroke-opacity:1"
           inkscape:connector-curvature="0"
           sodipodi:nodetypes="ccccccccccccccccccc" />
      </g>
      <g
         id="g4756"
         transform="matrix(1.8611947e-8,-1,-1,-1.8611947e-8,2335.3928,2584.7948)">
        <path
           id="path4758"
           d="m 1284.4551,1277.8438 -31.3164,31.3144 c -14.0969,1.2649 -27.9973,3.3102 -41.6211,6.1016 l -28.7207,-13.3926 -11.1582,23.9297 c -19.8759,6.485 -38.9138,14.6295 -56.8399,24.2871 l -25.6582,-6.875 -7.2988,27.2363 c -26.3853,18.5979 -49.404,40.9063 -67.8535,66.3731 65.6525,-50.3907 167.0368,-79.949 274.5586,-80.0469 102.9203,0.074 200.486,27.1533 266.3886,73.9355 -18.7939,-24.4478 -41.858,-45.803 -68.0644,-63.5625 l -7.1035,-26.5078 -25.8496,6.9238 c -17.7291,-9.1852 -36.4963,-16.9017 -56.0371,-23.0273 l -11.7696,-25.2402 -31.2656,14.58 c -12.9552,-2.391 -26.1421,-4.1112 -39.4922,-5.1308 l -30.8984,-30.8984 z"
           style="opacity:1;fill:url(#linearGradient4762);fill-opacity:1;stroke:#000000;stroke-width:2;stroke-linecap:round;stroke-miterlimit:4;stroke-dasharray:none;stroke-dashoffset:0;stroke-opacity:1"
           inkscape:connector-curvature="0" />
        <path
           sodipodi:nodetypes="ccccccccccccccccccc"
           inkscape:connector-curvature="0"
           style="opacity:0.25;fill:url(#linearGradient4764);fill-opacity:1;stroke:none;stroke-width:1.82168162;stroke-linecap:round;stroke-miterlimit:4;stroke-dasharray:none;stroke-dashoffset:0;stroke-opacity:1"
           d="m 1284.1127,1282.508 -28.5243,28.5224 c -12.84,1.1521 -33.0286,3.6994 -45.4378,6.2419 l -26.1599,-12.1985 -10.1634,21.7961 c -18.1038,5.9068 -44.3405,16.7469 -60.6683,25.5434 l -23.3705,-6.262 -3.2265,20.7019 c -24.0328,16.9397 -42.2618,33.1532 -59.0664,56.3494 59.799,-45.8979 161.7245,-86.5074 259.6598,-86.5966 93.744,0.067 192.1914,34.9973 252.2182,77.6084 -17.1183,-22.268 -31.2828,-34.8759 -55.1526,-51.052 l -5.7859,-19.3541 -23.5449,6.3065 c -16.1484,-8.3663 -38.7169,-17.4478 -56.5154,-23.0272 l -10.7203,-22.9898 -28.478,13.28 c -11.8001,-2.1778 -34.7605,-5.7976 -46.9203,-6.7263 z"
           id="path4760" />
      </g>
    </g>
    <path
       style="opacity:1;fill:#000000;fill-opacity:0.28806585;stroke:none;stroke-width:2;stroke-linecap:round;stroke-miterlimit:4;stroke-dasharray:none;stroke-dashoffset:0;stroke-opacity:1"
       d="M 797.24414 612.24414 A 185 185 0 0 0 612.24414 797.24414 A 185 185 0 0 0 797.24414 982.24414 A 185 185 0 0 0 982.24414 797.24414 A 185 185 0 0 0 797.24414 612.24414 z M 797.24414 628.21484 A 169.02924 169.02924 0 0 1 966.27344 797.24414 A 169.02924 169.02924 0 0 1 797.24414 966.27344 A 169.02924 169.02924 0 0 1 628.21484 797.24414 A 169.02924 169.02924 0 0 1 797.24414 628.21484 z "
       id="path4774" />
    <g
       id="g4809"
       transform="translate(1.5974599,0)">
      <path
         id="path4779"
         d="m 1340,1134.4883 c 0,0 -43.1181,103.2201 -79.3965,144.5058 C 1225.005,1319.5062 1130,1374.4883 1130,1374.4883 l -50,0 -5.9941,-25.9785 c 0,0 -3.3803,-21.08 -10.334,-28.3457 -3.4119,-3.5648 -13.6719,-5.6758 -13.6719,-5.6758 l -20,20 c 0,0 0.7754,13.3786 0,20 -0.7843,6.6972 -4.6738,19.6816 -4.6738,19.6816 l 15.6601,28.9824 -25.6601,12.9903 c 0,0 -8.4959,22.5098 -13.6719,33.3535 -3.38468,7.091 -11.33594,20.668 -11.33594,20.668 l 8.33008,27.9961 41.35156,6.3281 90,-60 c 0,0 110.7452,-98.3274 150,-160 28.9162,-45.4297 60,-150 60,-150 z m -287.832,207.1679 a 15,15 0 0 1 15,15 15,15 0 0 1 -15,15 15,15 0 0 1 -15,-15 15,15 0 0 1 15,-15 z m 33.9922,47.211 a 15,15 0 0 1 15,15 15,15 0 0 1 -15,15 15,15 0 0 1 -15,-15 15,15 0 0 1 15,-15 z m -58.543,47.2129 a 15,15 0 0 1 15,15 15,15 0 0 1 -15,15 15,15 0 0 1 -15,-15 15,15 0 0 1 15,-15 z"
         style="fill:url(#linearGradient4795);fill-opacity:1;fill-rule:evenodd;stroke:#000000;stroke-width:2;stroke-linecap:butt;stroke-linejoin:miter;stroke-miterlimit:4;stroke-dasharray:none;stroke-opacity:1"
         inkscape:connector-curvature="0" />
      <path
         inkscape:connector-curvature="0"
         style="fill:url(#linearGradient4807);fill-opacity:1;fill-rule:evenodd;stroke:#000000;stroke-width:2;stroke-linecap:butt;stroke-linejoin:miter;stroke-miterlimit:4;stroke-dasharray:none;stroke-opacity:1"
         d="m 247.7271,1134.4883 c 0,0 43.11815,103.2201 79.39655,144.5058 35.5985,40.5121 130.6035,95.4942 130.6035,95.4942 l 50,0 5.9941,-25.9785 c 0,0 3.3803,-21.08 10.334,-28.3457 3.4119,-3.5648 13.6719,-5.6758 13.6719,-5.6758 l 20,20 c 0,0 -0.7754,13.3786 0,20 0.7843,6.6972 4.6738,19.6816 4.6738,19.6816 l -15.6601,28.9824 25.6601,12.9903 c 0,0 8.4959,22.5098 13.6719,33.3535 3.3846,7.091 11.3359,20.668 11.3359,20.668 l -8.3301,27.9961 -41.3515,6.3281 -90,-60 c 0,0 -110.7452,-98.3274 -150,-160 -28.9162,-45.4297 -60.00005,-150 -60.00005,-150 z m 287.83205,207.1679 a 15,15 0 0 0 -15,15 15,15 0 0 0 15,15 15,15 0 0 0 15,-15 15,15 0 0 0 -15,-15 z m -33.9922,47.211 a 15,15 0 0 0 -15,15 15,15 0 0 0 15,15 15,15 0 0 0 15,-15 15,15 0 0 0 -15,-15 z m 58.543,47.2129 a 15,15 0 0 0 -15,15 15,15 0 0 0 15,15 15,15 0 0 0 15,-15 15,15 0 0 0 -15,-15 z"
         id="path4805" />
    </g>
  </g>
</svg>
