<?xml version="1.0" encoding="UTF-8" standalone="no"?>
<!-- Created with Inkscape (http://www.inkscape.org/) -->

<svg
   xmlns:dc="http://purl.org/dc/elements/1.1/"
   xmlns:cc="http://creativecommons.org/ns#"
   xmlns:rdf="http://www.w3.org/1999/02/22-rdf-syntax-ns#"
   xmlns:svg="http://www.w3.org/2000/svg"
   xmlns="http://www.w3.org/2000/svg"
   xmlns:xlink="http://www.w3.org/1999/xlink"
   xmlns:sodipodi="http://sodipodi.sourceforge.net/DTD/sodipodi-0.dtd"
   xmlns:inkscape="http://www.inkscape.org/namespaces/inkscape"
   width="450mm"
   height="450mm"
   viewBox="0 0 1594.4882 1594.4882"
   id="svg2"
   version="1.1"
   inkscape:version="0.91 r13725"
   sodipodi:docname="enemigo5.svg"
   inkscape:export-filename="C:\Users\pc\Desktop\enemigo5.png"
   inkscape:export-xdpi="28.899555"
   inkscape:export-ydpi="28.899555">
  <defs
     id="defs4">
    <inkscape:path-effect
       effect="spiro"
       id="path-effect4828"
       is_visible="true" />
    <inkscape:path-effect
       effect="spiro"
       id="path-effect4805"
       is_visible="true" />
    <inkscape:path-effect
       is_visible="true"
       id="path-effect4801"
       effect="spiro" />
    <inkscape:path-effect
       effect="spiro"
       id="path-effect4797"
       is_visible="true" />
    <inkscape:path-effect
       is_visible="true"
       id="path-effect4793"
       effect="spiro" />
    <inkscape:path-effect
       effect="spiro"
       id="path-effect4789"
       is_visible="true" />
    <inkscape:path-effect
       is_visible="true"
       id="path-effect4785"
       effect="spiro" />
    <inkscape:path-effect
       effect="spiro"
       id="path-effect4781"
       is_visible="true" />
    <inkscape:path-effect
       is_visible="true"
       id="path-effect4777"
       effect="spiro" />
    <inkscape:path-effect
       effect="spiro"
       id="path-effect4773"
       is_visible="true" />
    <linearGradient
       inkscape:collect="always"
       id="linearGradient4736">
      <stop
         style="stop-color:#7f0d00;stop-opacity:1"
         offset="0"
         id="stop4738" />
      <stop
         id="stop4744"
         offset="0.5"
         style="stop-color:#f36757;stop-opacity:1" />
      <stop
         style="stop-color:#7f0d00;stop-opacity:1"
         offset="1"
         id="stop4740" />
    </linearGradient>
    <linearGradient
       inkscape:collect="always"
       id="linearGradient4665">
      <stop
         style="stop-color:#033900;stop-opacity:1"
         offset="0"
         id="stop4667" />
      <stop
         id="stop4673"
         offset="0.5"
         style="stop-color:#088c00;stop-opacity:1" />
      <stop
         style="stop-color:#033900;stop-opacity:1"
         offset="1"
         id="stop4669" />
    </linearGradient>
    <inkscape:path-effect
       is_visible="true"
       id="path-effect4578"
       effect="spiro" />
    <inkscape:path-effect
       effect="spiro"
       id="path-effect4574"
       is_visible="true" />
    <linearGradient
       inkscape:collect="always"
       id="linearGradient4564">
      <stop
         style="stop-color:#00ffff;stop-opacity:1;"
         offset="0"
         id="stop4566" />
      <stop
         style="stop-color:#0088ff;stop-opacity:1"
         offset="1"
         id="stop4568" />
    </linearGradient>
    <inkscape:path-effect
       effect="spiro"
       id="path-effect4528"
       is_visible="true" />
    <inkscape:path-effect
       is_visible="true"
       id="path-effect4524"
       effect="spiro" />
    <inkscape:path-effect
       effect="spiro"
       id="path-effect4520"
       is_visible="true" />
    <linearGradient
       inkscape:collect="always"
       id="linearGradient4468">
      <stop
         style="stop-color:#000000;stop-opacity:1"
         offset="0"
         id="stop4470" />
      <stop
         id="stop4476"
         offset="0.5"
         style="stop-color:#808080;stop-opacity:1" />
      <stop
         style="stop-color:#000000;stop-opacity:1"
         offset="1"
         id="stop4472" />
    </linearGradient>
    <linearGradient
       inkscape:collect="always"
       id="linearGradient4407">
      <stop
         style="stop-color:#253126;stop-opacity:1"
         offset="0"
         id="stop4409" />
      <stop
         id="stop4415"
         offset="0.15000001"
         style="stop-color:#26882f;stop-opacity:1" />
      <stop
         style="stop-color:#74b712;stop-opacity:1"
         offset="0.5"
         id="stop4417" />
      <stop
         id="stop4419"
         offset="0.875"
         style="stop-color:#26882f;stop-opacity:1" />
      <stop
         style="stop-color:#253126;stop-opacity:1"
         offset="1"
         id="stop4411" />
    </linearGradient>
    <linearGradient
       inkscape:collect="always"
       id="linearGradient4332">
      <stop
         style="stop-color:#000000;stop-opacity:1"
         offset="0"
         id="stop4334" />
      <stop
         id="stop4340"
         offset="0.88365942"
         style="stop-color:#000000;stop-opacity:1" />
      <stop
         style="stop-color:#ffffff;stop-opacity:1"
         offset="1"
         id="stop4336" />
    </linearGradient>
    <linearGradient
       inkscape:collect="always"
       id="linearGradient4260">
      <stop
         style="stop-color:#004a00;stop-opacity:1"
         offset="0"
         id="stop4262" />
      <stop
         id="stop4268"
         offset="0.79683506"
         style="stop-color:#278f27;stop-opacity:1" />
      <stop
         style="stop-color:#000000;stop-opacity:1"
         offset="1"
         id="stop4264" />
    </linearGradient>
    <linearGradient
       inkscape:collect="always"
       id="linearGradient4247">
      <stop
         style="stop-color:#000000;stop-opacity:1;"
         offset="0"
         id="stop4249" />
      <stop
         id="stop4255"
         offset="0.5"
         style="stop-color:#bbbbbb;stop-opacity:1" />
      <stop
         style="stop-color:#000000;stop-opacity:1"
         offset="1"
         id="stop4251" />
    </linearGradient>
    <linearGradient
       inkscape:collect="always"
       id="linearGradient4235">
      <stop
         style="stop-color:#838383;stop-opacity:1"
         offset="0"
         id="stop4237" />
      <stop
         id="stop4243"
         offset="0.5"
         style="stop-color:#ffffff;stop-opacity:1" />
      <stop
         style="stop-color:#838383;stop-opacity:1"
         offset="1"
         id="stop4239" />
    </linearGradient>
    <linearGradient
       inkscape:collect="always"
       xlink:href="#linearGradient4235"
       id="linearGradient4241"
       x1="855"
       y1="37.362179"
       x2="740"
       y2="37.362179"
       gradientUnits="userSpaceOnUse"
       gradientTransform="matrix(1.0049773,0,0,1,-3.9390497,0)" />
    <linearGradient
       inkscape:collect="always"
       xlink:href="#linearGradient4247"
       id="linearGradient4253"
       x1="739.82322"
       y1="39.86218"
       x2="855.17678"
       y2="39.86218"
       gradientUnits="userSpaceOnUse" />
    <radialGradient
       inkscape:collect="always"
       xlink:href="#linearGradient4260"
       id="radialGradient4266"
       cx="795"
       cy="439.57462"
       fx="795"
       fy="439.57462"
       r="128.7713"
       gradientTransform="matrix(1,0,0,1.0095417,0,-4.2807607)"
       gradientUnits="userSpaceOnUse" />
    <radialGradient
       inkscape:collect="always"
       xlink:href="#linearGradient4332"
       id="radialGradient4338"
       cx="797.24414"
       cy="440.49805"
       fx="797.24414"
       fy="440.49805"
       r="114.30859"
       gradientTransform="translate(0,-1.92671e-5)"
       gradientUnits="userSpaceOnUse" />
    <linearGradient
       inkscape:collect="always"
       xlink:href="#linearGradient4235"
       id="linearGradient4358"
       gradientUnits="userSpaceOnUse"
       gradientTransform="matrix(1.0049773,0,0,1,-3.9390497,0)"
       x1="855"
       y1="37.362179"
       x2="740"
       y2="37.362179" />
    <radialGradient
       inkscape:collect="always"
       xlink:href="#linearGradient4260"
       id="radialGradient4360"
       gradientUnits="userSpaceOnUse"
       gradientTransform="matrix(1,0,0,1.0095417,0,-4.2807607)"
       cx="795"
       cy="439.57462"
       fx="795"
       fy="439.57462"
       r="128.7713" />
    <linearGradient
       inkscape:collect="always"
       xlink:href="#linearGradient4247"
       id="linearGradient4362"
       gradientUnits="userSpaceOnUse"
       x1="739.82322"
       y1="39.86218"
       x2="855.17678"
       y2="39.86218" />
    <radialGradient
       inkscape:collect="always"
       xlink:href="#linearGradient4332"
       id="radialGradient4364"
       gradientUnits="userSpaceOnUse"
       gradientTransform="translate(0,-1.92671e-5)"
       cx="797.24414"
       cy="440.49805"
       fx="797.24414"
       fy="440.49805"
       r="114.30859" />
    <linearGradient
       inkscape:collect="always"
       xlink:href="#linearGradient4235"
       id="linearGradient4376"
       gradientUnits="userSpaceOnUse"
       gradientTransform="matrix(1.0049773,0,0,1,-3.9390497,0)"
       x1="855"
       y1="37.362179"
       x2="740"
       y2="37.362179" />
    <radialGradient
       inkscape:collect="always"
       xlink:href="#linearGradient4260"
       id="radialGradient4378"
       gradientUnits="userSpaceOnUse"
       gradientTransform="matrix(1,0,0,1.0095417,0,-4.2807607)"
       cx="795"
       cy="439.57462"
       fx="795"
       fy="439.57462"
       r="128.7713" />
    <linearGradient
       inkscape:collect="always"
       xlink:href="#linearGradient4247"
       id="linearGradient4380"
       gradientUnits="userSpaceOnUse"
       x1="739.82322"
       y1="39.86218"
       x2="855.17678"
       y2="39.86218" />
    <radialGradient
       inkscape:collect="always"
       xlink:href="#linearGradient4332"
       id="radialGradient4382"
       gradientUnits="userSpaceOnUse"
       gradientTransform="translate(0,-1.92671e-5)"
       cx="797.24414"
       cy="440.49805"
       fx="797.24414"
       fy="440.49805"
       r="114.30859" />
    <linearGradient
       inkscape:collect="always"
       xlink:href="#linearGradient4407"
       id="linearGradient4413"
       x1="780"
       y1="452.36218"
       x2="780"
       y2="52.362179"
       gradientUnits="userSpaceOnUse" />
    <linearGradient
       inkscape:collect="always"
       xlink:href="#linearGradient4247"
       id="linearGradient4432"
       x1="740"
       y1="914.48816"
       x2="740"
       y2="694.48816"
       gradientUnits="userSpaceOnUse"
       gradientTransform="matrix(0.99808707,0,0,1,2.3511684,-542.12598)" />
    <linearGradient
       inkscape:collect="always"
       xlink:href="#linearGradient4247"
       id="linearGradient4460"
       x1="780"
       y1="604.48816"
       x2="800"
       y2="784.48816"
       gradientUnits="userSpaceOnUse" />
    <linearGradient
       inkscape:collect="always"
       xlink:href="#linearGradient4247"
       id="linearGradient4464"
       gradientUnits="userSpaceOnUse"
       x1="780"
       y1="604.48816"
       x2="800"
       y2="784.48816"
       gradientTransform="matrix(1,0,0,-1,-1.948e-5,1052.2545)" />
    <linearGradient
       inkscape:collect="always"
       xlink:href="#linearGradient4468"
       id="linearGradient4474"
       x1="460"
       y1="352.36218"
       x2="460"
       y2="157.36218"
       gradientUnits="userSpaceOnUse"
       gradientTransform="translate(0,542.12598)" />
    <linearGradient
       inkscape:collect="always"
       xlink:href="#linearGradient4468"
       id="linearGradient4504"
       gradientUnits="userSpaceOnUse"
       gradientTransform="matrix(-1,0,0,1,1161.4223,542.38184)"
       x1="460"
       y1="352.36218"
       x2="460"
       y2="157.36218" />
    <radialGradient
       inkscape:collect="always"
       xlink:href="#linearGradient4564"
       id="radialGradient4570"
       cx="910"
       cy="786.32178"
       fx="910"
       fy="786.32178"
       r="222.4162"
       gradientTransform="matrix(1.4387441,0,0,0.42609748,-399.25715,456.13118)"
       gradientUnits="userSpaceOnUse" />
    <linearGradient
       inkscape:collect="always"
       xlink:href="#linearGradient4665"
       id="linearGradient4671"
       x1="550"
       y1="864.48816"
       x2="550"
       y2="734.48816"
       gradientUnits="userSpaceOnUse" />
    <linearGradient
       inkscape:collect="always"
       xlink:href="#linearGradient4736"
       id="linearGradient4742"
       x1="715"
       y1="814.48816"
       x2="715"
       y2="779.48816"
       gradientUnits="userSpaceOnUse"
       gradientTransform="matrix(1.0721643,0,0,1.1773957,-42.576925,-141.12631)" />
    <linearGradient
       inkscape:collect="always"
       xlink:href="#linearGradient4665"
       id="linearGradient4754"
       x1="1025"
       y1="824.48816"
       x2="1025"
       y2="764.48816"
       gradientUnits="userSpaceOnUse" />
  </defs>
  <sodipodi:namedview
     id="base"
     pagecolor="#ffffff"
     bordercolor="#666666"
     borderopacity="1.0"
     inkscape:pageopacity="0.0"
     inkscape:pageshadow="2"
     inkscape:zoom="0.14443226"
     inkscape:cx="-226.98317"
     inkscape:cy="1212.0631"
     inkscape:document-units="px"
     inkscape:current-layer="layer4"
     showgrid="true"
     height="450mm"
     inkscape:window-width="1360"
     inkscape:window-height="716"
     inkscape:window-x="-8"
     inkscape:window-y="-8"
     inkscape:window-maximized="1"
     showguides="true"
     inkscape:guide-bbox="true">
    <inkscape:grid
       type="xygrid"
       id="grid4133" />
    <sodipodi:guide
       position="1040,800.00002"
       orientation="0,1"
       id="guide4510" />
  </sodipodi:namedview>
  <metadata
     id="metadata7">
    <rdf:RDF>
      <cc:Work
         rdf:about="">
        <dc:format>image/svg+xml</dc:format>
        <dc:type
           rdf:resource="http://purl.org/dc/dcmitype/StillImage" />
        <dc:title />
      </cc:Work>
    </rdf:RDF>
  </metadata>
  <g
     inkscape:groupmode="layer"
     id="layer5"
     inkscape:label="fondon"
     sodipodi:insensitive="true"
     style="display:none">
    <rect
       style="opacity:1;fill:#000000;fill-opacity:1;fill-rule:evenodd;stroke:none;stroke-width:2;stroke-linecap:round;stroke-linejoin:round;stroke-miterlimit:4;stroke-dasharray:2, 2;stroke-dashoffset:0;stroke-opacity:1"
       id="rect4287"
       width="1600"
       height="1600"
       x="0"
       y="-5.5118113" />
  </g>
  <g
     inkscape:groupmode="layer"
     id="layer4"
     inkscape:label="turbs"
     style="opacity:0.329"
     sodipodi:insensitive="true">
    <g
       id="g4319"
       style="">
      <path
         sodipodi:nodetypes="ccccc"
         inkscape:connector-curvature="0"
         id="path4289"
         d="M 1076.0508,211.4707 961.20508,326.31641 1076.127,441.23828 c 38.9789,-25.22843 62.5174,-68.49099 62.5273,-114.92187 -0.052,-46.41856 -23.6182,-89.64982 -62.6035,-114.84571 z"
         style="opacity:1;fill:#00ff00;fill-opacity:1;fill-rule:evenodd;stroke:none;stroke-width:2;stroke-linecap:round;stroke-linejoin:round;stroke-miterlimit:4;stroke-dasharray:2, 2;stroke-dashoffset:0;stroke-opacity:1" />
      <path
         style="opacity:1;fill:#00ff00;fill-opacity:0.89777778;fill-rule:evenodd;stroke:none;stroke-width:2;stroke-linecap:round;stroke-linejoin:round;stroke-miterlimit:4;stroke-dasharray:2, 2;stroke-dashoffset:0;stroke-opacity:1"
         d="m 1021.1336,209.73978 -114.8458,114.84571 114.922,114.92187 c 38.9789,-25.22843 62.5174,-68.49099 62.5273,-114.92187 -0.052,-46.41856 -23.6182,-89.64982 -62.6035,-114.84571 z"
         id="path4297"
         inkscape:connector-curvature="0"
         sodipodi:nodetypes="ccccc" />
      <path
         sodipodi:nodetypes="ccccc"
         inkscape:connector-curvature="0"
         id="path4299"
         d="M 966.21633,208.87432 851.37056,323.72003 966.29253,438.6419 c 38.97897,-25.22843 62.51747,-68.49099 62.52737,-114.92187 -0.052,-46.41856 -23.6182,-89.64982 -62.60357,-114.84571 z"
         style="opacity:1;fill:#00ff00;fill-opacity:0.79111113;fill-rule:evenodd;stroke:none;stroke-width:2;stroke-linecap:round;stroke-linejoin:round;stroke-miterlimit:4;stroke-dasharray:2, 2;stroke-dashoffset:0;stroke-opacity:1" />
      <path
         style="opacity:1;fill:#00ff00;fill-opacity:0.71555553;fill-rule:evenodd;stroke:none;stroke-width:2;stroke-linecap:round;stroke-linejoin:round;stroke-miterlimit:4;stroke-dasharray:2, 2;stroke-dashoffset:0;stroke-opacity:1"
         d="M 911.29907,202.81612 796.4533,317.66183 911.37527,432.5837 c 38.97894,-25.22843 62.51744,-68.49099 62.52734,-114.92187 -0.052,-46.41856 -23.6182,-89.64982 -62.60354,-114.84571 z"
         id="path4301"
         inkscape:connector-curvature="0"
         sodipodi:nodetypes="ccccc" />
      <path
         sodipodi:nodetypes="ccccc"
         inkscape:connector-curvature="0"
         id="path4303"
         d="M 856.38193,201.0852 741.53616,315.93091 856.45813,430.85278 c 38.97894,-25.22843 62.51744,-68.49099 62.52734,-114.92187 -0.052,-46.41856 -23.6182,-89.64982 -62.60354,-114.84571 z"
         style="opacity:1;fill:#00ff00;fill-opacity:0.63999999;fill-rule:evenodd;stroke:none;stroke-width:2;stroke-linecap:round;stroke-linejoin:round;stroke-miterlimit:4;stroke-dasharray:2, 2;stroke-dashoffset:0;stroke-opacity:1" />
      <path
         style="opacity:1;fill:#00ff00;fill-opacity:0.58666663;fill-rule:evenodd;stroke:none;stroke-width:2;stroke-linecap:round;stroke-linejoin:round;stroke-miterlimit:4;stroke-dasharray:2, 2;stroke-dashoffset:0;stroke-opacity:1"
         d="M 801.46474,204.54703 686.61896,319.39274 801.54093,434.31461 c 38.97894,-25.22843 62.51744,-68.49099 62.52734,-114.92187 -0.052,-46.41856 -23.6182,-89.64982 -62.60353,-114.84571 z"
         id="path4305"
         inkscape:connector-curvature="0"
         sodipodi:nodetypes="ccccc" />
      <path
         sodipodi:nodetypes="ccccc"
         inkscape:connector-curvature="0"
         id="path4307"
         d="M 746.54752,207.1434 631.70175,321.98911 746.62372,436.91098 c 38.97894,-25.22843 62.51744,-68.49099 62.52734,-114.92187 -0.052,-46.41856 -23.6182,-89.64982 -62.60354,-114.84571 z"
         style="opacity:1;fill:#00ff00;fill-opacity:0.50222222;fill-rule:evenodd;stroke:none;stroke-width:2;stroke-linecap:round;stroke-linejoin:round;stroke-miterlimit:4;stroke-dasharray:2, 2;stroke-dashoffset:0;stroke-opacity:1" />
      <path
         style="opacity:1;fill:#00ff00;fill-opacity:0.43555555;fill-rule:evenodd;stroke:none;stroke-width:2;stroke-linecap:round;stroke-linejoin:round;stroke-miterlimit:4;stroke-dasharray:2, 2;stroke-dashoffset:0;stroke-opacity:1"
         d="M 691.63024,208.87432 576.78447,323.72003 691.70644,438.6419 c 38.97894,-25.22843 62.51744,-68.49099 62.52734,-114.92187 -0.052,-46.41856 -23.6182,-89.64982 -62.60354,-114.84571 z"
         id="path4309"
         inkscape:connector-curvature="0"
         sodipodi:nodetypes="ccccc" />
      <path
         sodipodi:nodetypes="ccccc"
         inkscape:connector-curvature="0"
         id="path4311"
         d="M 636.71305,207.1434 521.86728,321.98911 636.78925,436.91098 c 38.97894,-25.22843 62.51744,-68.49099 62.52734,-114.92187 -0.052,-46.41856 -23.6182,-89.64982 -62.60354,-114.84571 z"
         style="opacity:1;fill:#00ff00;fill-opacity:0.38222225;fill-rule:evenodd;stroke:none;stroke-width:2;stroke-linecap:round;stroke-linejoin:round;stroke-miterlimit:4;stroke-dasharray:2, 2;stroke-dashoffset:0;stroke-opacity:1" />
      <path
         style="opacity:1;fill:#00ff00;fill-opacity:0.28888891;fill-rule:evenodd;stroke:none;stroke-width:2;stroke-linecap:round;stroke-linejoin:round;stroke-miterlimit:4;stroke-dasharray:2, 2;stroke-dashoffset:0;stroke-opacity:1"
         d="M 581.79587,206.27794 466.9501,321.12365 581.87207,436.04552 c 38.97894,-25.22843 62.51744,-68.49099 62.52734,-114.92187 -0.052,-46.41856 -23.6182,-89.64982 -62.60354,-114.84571 z"
         id="path4313"
         inkscape:connector-curvature="0"
         sodipodi:nodetypes="ccccc" />
      <path
         sodipodi:nodetypes="ccccc"
         inkscape:connector-curvature="0"
         id="path4315"
         d="M 526.87863,207.1434 412.03286,321.98911 526.95483,436.91098 c 38.97894,-25.22843 62.51744,-68.49099 62.52734,-114.92187 -0.052,-46.41856 -23.6182,-89.64982 -62.60354,-114.84571 z"
         style="opacity:1;fill:#00ff00;fill-opacity:0.20444444;fill-rule:evenodd;stroke:none;stroke-width:2;stroke-linecap:round;stroke-linejoin:round;stroke-miterlimit:4;stroke-dasharray:2, 2;stroke-dashoffset:0;stroke-opacity:1" />
      <path
         style="opacity:1;fill:#00ff00;fill-opacity:0.10666665;fill-rule:evenodd;stroke:none;stroke-width:2;stroke-linecap:round;stroke-linejoin:round;stroke-miterlimit:4;stroke-dasharray:2, 2;stroke-dashoffset:0;stroke-opacity:1"
         d="M 471.96142,210.60523 357.11565,325.45094 472.03762,440.37281 c 38.97894,-25.22843 62.51744,-68.49099 62.52734,-114.92187 -0.052,-46.41856 -23.6182,-89.64982 -62.60354,-114.84571 z"
         id="path4317"
         inkscape:connector-curvature="0"
         sodipodi:nodetypes="ccccc" />
    </g>
    <g
       id="g4333"
       transform="translate(-2.4478839,944.88317)"
       style="">
      <path
         style="opacity:1;fill:#00ff00;fill-opacity:1;fill-rule:evenodd;stroke:none;stroke-width:2;stroke-linecap:round;stroke-linejoin:round;stroke-miterlimit:4;stroke-dasharray:2, 2;stroke-dashoffset:0;stroke-opacity:1"
         d="M 1076.0508,211.4707 961.20508,326.31641 1076.127,441.23828 c 38.9789,-25.22843 62.5174,-68.49099 62.5273,-114.92187 -0.052,-46.41856 -23.6182,-89.64982 -62.6035,-114.84571 z"
         id="path4335"
         inkscape:connector-curvature="0"
         sodipodi:nodetypes="ccccc" />
      <path
         sodipodi:nodetypes="ccccc"
         inkscape:connector-curvature="0"
         id="path4337"
         d="m 1021.1336,209.73978 -114.8458,114.84571 114.922,114.92187 c 38.9789,-25.22843 62.5174,-68.49099 62.5273,-114.92187 -0.052,-46.41856 -23.6182,-89.64982 -62.6035,-114.84571 z"
         style="opacity:1;fill:#00ff00;fill-opacity:0.89777778;fill-rule:evenodd;stroke:none;stroke-width:2;stroke-linecap:round;stroke-linejoin:round;stroke-miterlimit:4;stroke-dasharray:2, 2;stroke-dashoffset:0;stroke-opacity:1" />
      <path
         style="opacity:1;fill:#00ff00;fill-opacity:0.79111113;fill-rule:evenodd;stroke:none;stroke-width:2;stroke-linecap:round;stroke-linejoin:round;stroke-miterlimit:4;stroke-dasharray:2, 2;stroke-dashoffset:0;stroke-opacity:1"
         d="M 966.21633,208.87432 851.37056,323.72003 966.29253,438.6419 c 38.97897,-25.22843 62.51747,-68.49099 62.52737,-114.92187 -0.052,-46.41856 -23.6182,-89.64982 -62.60357,-114.84571 z"
         id="path4339"
         inkscape:connector-curvature="0"
         sodipodi:nodetypes="ccccc" />
      <path
         sodipodi:nodetypes="ccccc"
         inkscape:connector-curvature="0"
         id="path4341"
         d="M 911.29907,202.81612 796.4533,317.66183 911.37527,432.5837 c 38.97894,-25.22843 62.51744,-68.49099 62.52734,-114.92187 -0.052,-46.41856 -23.6182,-89.64982 -62.60354,-114.84571 z"
         style="opacity:1;fill:#00ff00;fill-opacity:0.71555553;fill-rule:evenodd;stroke:none;stroke-width:2;stroke-linecap:round;stroke-linejoin:round;stroke-miterlimit:4;stroke-dasharray:2, 2;stroke-dashoffset:0;stroke-opacity:1" />
      <path
         style="opacity:1;fill:#00ff00;fill-opacity:0.63999999;fill-rule:evenodd;stroke:none;stroke-width:2;stroke-linecap:round;stroke-linejoin:round;stroke-miterlimit:4;stroke-dasharray:2, 2;stroke-dashoffset:0;stroke-opacity:1"
         d="M 856.38193,201.0852 741.53616,315.93091 856.45813,430.85278 c 38.97894,-25.22843 62.51744,-68.49099 62.52734,-114.92187 -0.052,-46.41856 -23.6182,-89.64982 -62.60354,-114.84571 z"
         id="path4343"
         inkscape:connector-curvature="0"
         sodipodi:nodetypes="ccccc" />
      <path
         sodipodi:nodetypes="ccccc"
         inkscape:connector-curvature="0"
         id="path4345"
         d="M 801.46474,204.54703 686.61896,319.39274 801.54093,434.31461 c 38.97894,-25.22843 62.51744,-68.49099 62.52734,-114.92187 -0.052,-46.41856 -23.6182,-89.64982 -62.60353,-114.84571 z"
         style="opacity:1;fill:#00ff00;fill-opacity:0.58666663;fill-rule:evenodd;stroke:none;stroke-width:2;stroke-linecap:round;stroke-linejoin:round;stroke-miterlimit:4;stroke-dasharray:2, 2;stroke-dashoffset:0;stroke-opacity:1" />
      <path
         style="opacity:1;fill:#00ff00;fill-opacity:0.50222222;fill-rule:evenodd;stroke:none;stroke-width:2;stroke-linecap:round;stroke-linejoin:round;stroke-miterlimit:4;stroke-dasharray:2, 2;stroke-dashoffset:0;stroke-opacity:1"
         d="M 746.54752,207.1434 631.70175,321.98911 746.62372,436.91098 c 38.97894,-25.22843 62.51744,-68.49099 62.52734,-114.92187 -0.052,-46.41856 -23.6182,-89.64982 -62.60354,-114.84571 z"
         id="path4347"
         inkscape:connector-curvature="0"
         sodipodi:nodetypes="ccccc" />
      <path
         sodipodi:nodetypes="ccccc"
         inkscape:connector-curvature="0"
         id="path4349"
         d="M 691.63024,208.87432 576.78447,323.72003 691.70644,438.6419 c 38.97894,-25.22843 62.51744,-68.49099 62.52734,-114.92187 -0.052,-46.41856 -23.6182,-89.64982 -62.60354,-114.84571 z"
         style="opacity:1;fill:#00ff00;fill-opacity:0.43555555;fill-rule:evenodd;stroke:none;stroke-width:2;stroke-linecap:round;stroke-linejoin:round;stroke-miterlimit:4;stroke-dasharray:2, 2;stroke-dashoffset:0;stroke-opacity:1" />
      <path
         style="opacity:1;fill:#00ff00;fill-opacity:0.38222225;fill-rule:evenodd;stroke:none;stroke-width:2;stroke-linecap:round;stroke-linejoin:round;stroke-miterlimit:4;stroke-dasharray:2, 2;stroke-dashoffset:0;stroke-opacity:1"
         d="M 636.71305,207.1434 521.86728,321.98911 636.78925,436.91098 c 38.97894,-25.22843 62.51744,-68.49099 62.52734,-114.92187 -0.052,-46.41856 -23.6182,-89.64982 -62.60354,-114.84571 z"
         id="path4351"
         inkscape:connector-curvature="0"
         sodipodi:nodetypes="ccccc" />
      <path
         sodipodi:nodetypes="ccccc"
         inkscape:connector-curvature="0"
         id="path4353"
         d="M 581.79587,206.27794 466.9501,321.12365 581.87207,436.04552 c 38.97894,-25.22843 62.51744,-68.49099 62.52734,-114.92187 -0.052,-46.41856 -23.6182,-89.64982 -62.60354,-114.84571 z"
         style="opacity:1;fill:#00ff00;fill-opacity:0.28888891;fill-rule:evenodd;stroke:none;stroke-width:2;stroke-linecap:round;stroke-linejoin:round;stroke-miterlimit:4;stroke-dasharray:2, 2;stroke-dashoffset:0;stroke-opacity:1" />
      <path
         style="opacity:1;fill:#00ff00;fill-opacity:0.20444444;fill-rule:evenodd;stroke:none;stroke-width:2;stroke-linecap:round;stroke-linejoin:round;stroke-miterlimit:4;stroke-dasharray:2, 2;stroke-dashoffset:0;stroke-opacity:1"
         d="M 526.87863,207.1434 412.03286,321.98911 526.95483,436.91098 c 38.97894,-25.22843 62.51744,-68.49099 62.52734,-114.92187 -0.052,-46.41856 -23.6182,-89.64982 -62.60354,-114.84571 z"
         id="path4355"
         inkscape:connector-curvature="0"
         sodipodi:nodetypes="ccccc" />
      <path
         sodipodi:nodetypes="ccccc"
         inkscape:connector-curvature="0"
         id="path4357"
         d="M 471.96142,210.60523 357.11565,325.45094 472.03762,440.37281 c 38.97894,-25.22843 62.51744,-68.49099 62.52734,-114.92187 -0.052,-46.41856 -23.6182,-89.64982 -62.60354,-114.84571 z"
         style="opacity:1;fill:#00ff00;fill-opacity:0.10666665;fill-rule:evenodd;stroke:none;stroke-width:2;stroke-linecap:round;stroke-linejoin:round;stroke-miterlimit:4;stroke-dasharray:2, 2;stroke-dashoffset:0;stroke-opacity:1" />
    </g>
  </g>
  <g
     inkscape:groupmode="layer"
     id="layer2"
     inkscape:label="CABINA"
     sodipodi:insensitive="true" />
  <g
     inkscape:label="Capa 1"
     inkscape:groupmode="layer"
     id="layer1"
     transform="translate(0,542.12598)"
     sodipodi:insensitive="true">
    <g
       id="g4603"
       transform="matrix(1.3191148,0,0,1.3191148,-49.708986,-81.411966)">
      <path
         transform="translate(0,-542.12598)"
         inkscape:connector-curvature="0"
         id="path4512"
         d="m 790,792.24409 80,-80 150,0 190,60 0,50 -190,60 -150,0 z"
         style="fill:#ff0000;fill-rule:evenodd;stroke:#000000;stroke-width:1px;stroke-linecap:butt;stroke-linejoin:miter;stroke-opacity:1" />
      <path
         transform="translate(0,-542.12598)"
         style="fill:#ff0000;fill-rule:evenodd;stroke:#000000;stroke-width:0.65911329px;stroke-linecap:butt;stroke-linejoin:miter;stroke-opacity:1"
         d="m 861.55436,793.94853 52.72906,-52.72907 98.86698,0 125.2315,39.5468 0,32.95567 -125.2315,39.54679 -98.86698,0 z"
         id="path4514"
         inkscape:connector-curvature="0" />
      <path
         transform="translate(0,-542.12598)"
         sodipodi:nodetypes="ccccc"
         inkscape:connector-curvature="0"
         inkscape:original-d="m 1031.5085,752.24402 80,31 0,15 0,15 -75,29"
         inkscape:path-effect="#path-effect4520"
         id="path4518"
         d="m 1031.5085,752.24402 80,31 0,15 0,15 -75,29"
         style="fill:none;fill-rule:evenodd;stroke:#000000;stroke-width:1px;stroke-linecap:butt;stroke-linejoin:miter;stroke-opacity:1" />
      <path
         transform="translate(0,-542.12598)"
         style="fill:none;fill-rule:evenodd;stroke:#000000;stroke-width:1px;stroke-linecap:butt;stroke-linejoin:miter;stroke-opacity:1"
         d="m 997.5085,752.24402 80,31 0,15 0,15 -75,29"
         id="path4522"
         inkscape:path-effect="#path-effect4524"
         inkscape:original-d="m 997.5085,752.24402 80,31 0,15 0,15 -75,29"
         inkscape:connector-curvature="0"
         sodipodi:nodetypes="ccccc" />
      <path
         transform="translate(0,-542.12598)"
         inkscape:connector-curvature="0"
         inkscape:original-d="m 1078,783.48816 33,0 0,30 -34,0 0,-30 z"
         inkscape:path-effect="#path-effect4528"
         id="path4526"
         d="m 1078,783.48816 33,0 0,30 -34,0 0,-30 1,0 z"
         style="fill:#00fff9;fill-opacity:0.61777775;fill-rule:evenodd;stroke:none;stroke-width:1px;stroke-linecap:butt;stroke-linejoin:miter;stroke-opacity:1" />
      <rect
         transform="translate(0,-542.12598)"
         ry="7.5"
         y="759.48816"
         x="930"
         height="75"
         width="15"
         id="rect4530"
         style="opacity:1;fill:#000000;fill-opacity:0.61777775;fill-rule:evenodd;stroke:none;stroke-width:0.5;stroke-linecap:round;stroke-linejoin:round;stroke-miterlimit:4;stroke-dasharray:none;stroke-dashoffset:0;stroke-opacity:1" />
      <rect
         transform="translate(0,-542.12598)"
         style="opacity:1;fill:#000000;fill-opacity:0.61777775;fill-rule:evenodd;stroke:none;stroke-width:0.5;stroke-linecap:round;stroke-linejoin:round;stroke-miterlimit:4;stroke-dasharray:none;stroke-dashoffset:0;stroke-opacity:1"
         id="rect4532"
         width="58.471897"
         height="75"
         x="943.95886"
         y="759.48816"
         ry="7.5" />
      <circle
         transform="translate(0,-542.12598)"
         r="5"
         cy="769.48816"
         cx="1015"
         id="path4534"
         style="opacity:1;fill:#000000;fill-opacity:1;fill-rule:evenodd;stroke:none;stroke-width:0.5;stroke-linecap:round;stroke-linejoin:round;stroke-miterlimit:4;stroke-dasharray:none;stroke-dashoffset:0;stroke-opacity:1" />
      <circle
         transform="translate(0,-542.12598)"
         style="opacity:1;fill:#000000;fill-opacity:1;fill-rule:evenodd;stroke:none;stroke-width:0.5;stroke-linecap:round;stroke-linejoin:round;stroke-miterlimit:4;stroke-dasharray:none;stroke-dashoffset:0;stroke-opacity:1"
         id="circle4536"
         cx="1027.3635"
         cy="772.67877"
         r="5" />
      <circle
         transform="translate(0,-542.12598)"
         r="5"
         cy="778.66113"
         cx="1042.9177"
         id="circle4538"
         style="opacity:1;fill:#000000;fill-opacity:1;fill-rule:evenodd;stroke:none;stroke-width:0.5;stroke-linecap:round;stroke-linejoin:round;stroke-miterlimit:4;stroke-dasharray:none;stroke-dashoffset:0;stroke-opacity:1" />
      <circle
         transform="translate(0,-542.12598)"
         style="opacity:1;fill:#000000;fill-opacity:1;fill-rule:evenodd;stroke:none;stroke-width:0.5;stroke-linecap:round;stroke-linejoin:round;stroke-miterlimit:4;stroke-dasharray:none;stroke-dashoffset:0;stroke-opacity:1"
         id="circle4540"
         cx="1058.8707"
         cy="784.64349"
         r="5" />
      <circle
         transform="translate(0,-542.12598)"
         r="5"
         cy="813.75769"
         cx="1058.4719"
         id="circle4542"
         style="opacity:1;fill:#000000;fill-opacity:1;fill-rule:evenodd;stroke:none;stroke-width:0.5;stroke-linecap:round;stroke-linejoin:round;stroke-miterlimit:4;stroke-dasharray:none;stroke-dashoffset:0;stroke-opacity:1" />
      <circle
         transform="translate(0,-542.12598)"
         style="opacity:1;fill:#000000;fill-opacity:1;fill-rule:evenodd;stroke:none;stroke-width:0.5;stroke-linecap:round;stroke-linejoin:round;stroke-miterlimit:4;stroke-dasharray:none;stroke-dashoffset:0;stroke-opacity:1"
         id="circle4544"
         cx="1036.5366"
         cy="822.133"
         r="5" />
      <circle
         transform="translate(0,-542.12598)"
         r="5"
         cy="826.91888"
         cx="1016.9942"
         id="circle4546"
         style="opacity:1;fill:#000000;fill-opacity:1;fill-rule:evenodd;stroke:none;stroke-width:0.5;stroke-linecap:round;stroke-linejoin:round;stroke-miterlimit:4;stroke-dasharray:none;stroke-dashoffset:0;stroke-opacity:1" />
      <path
         transform="translate(0,-542.12598)"
         inkscape:connector-curvature="0"
         id="rect4548"
         d="m 1151.041,772.19331 c -1.385,0 -2.5,1.115 -2.5,2.5 0,1.385 1.115,2.5 2.5,2.5 l 50,0 c 1.385,0 2.5,-1.11501 2.5,-2.5 0,-1.38501 -1.115,-2.5 -2.5,-2.5 l -50,0 z m 0,9.01953 c -1.385,0 -2.5,1.115 -2.5,2.5 0,1.385 1.115,2.5 2.5,2.5 l 50,0 c 1.385,0 2.5,-1.115 2.5,-2.5 0,-1.385 -1.115,-2.5 -2.5,-2.5 l -50,0 z m 0,9.02148 c -1.385,0 -2.5,1.115 -2.5,2.5 0,1.385 1.115,2.5 2.5,2.5 l 50,0 c 1.385,0 2.5,-1.115 2.5,-2.5 0,-1.385 -1.115,-2.5 -2.5,-2.5 l -50,0 z m 0,9.01953 c -1.385,0 -2.5,1.115 -2.5,2.5 0,1.385 1.115,2.5 2.5,2.5 l 50,0 c 1.385,0 2.5,-1.115 2.5,-2.5 0,-1.385 -1.115,-2.5 -2.5,-2.5 l -50,0 z m 0,9.02149 c -1.385,0 -2.5,1.115 -2.5,2.5 0,1.385 1.115,2.5 2.5,2.5 l 50,0 c 1.385,0 2.5,-1.115 2.5,-2.5 0,-1.385 -1.115,-2.5 -2.5,-2.5 l -50,0 z m 0,9.01953 c -1.385,0 -2.5,1.115 -2.5,2.5 0,1.385 1.115,2.5 2.5,2.5 l 50,0 c 1.385,0 2.5,-1.115 2.5,-2.5 0,-1.385 -1.115,-2.5 -2.5,-2.5 l -50,0 z"
         style="opacity:1;fill:#000000;fill-opacity:1;fill-rule:evenodd;stroke:none;stroke-width:0.5;stroke-linecap:round;stroke-linejoin:round;stroke-miterlimit:4;stroke-dasharray:none;stroke-dashoffset:0;stroke-opacity:1" />
      <path
         transform="translate(0,-542.12598)"
         sodipodi:nodetypes="sssss"
         inkscape:connector-curvature="0"
         id="path4561"
         d="m 1228.2179,797.24409 c 0,47.92229 -158.0563,94.77098 -286.4162,94.77098 -128.35991,0 -158.41619,-46.84869 -158.41619,-94.77098 0,-47.92229 30.05628,-94.77098 158.41619,-94.77098 128.3599,0 286.4162,46.84869 286.4162,94.77098 z"
         style="opacity:0.86000001;fill:url(#radialGradient4570);fill-opacity:1;fill-rule:evenodd;stroke:none;stroke-width:0.5;stroke-linecap:round;stroke-linejoin:round;stroke-miterlimit:4;stroke-dasharray:none;stroke-dashoffset:0;stroke-opacity:1" />
      <g
         style="stroke:#ffffff;stroke-opacity:0.22222224"
         transform="translate(0,-542.17754)"
         id="g4580">
        <path
           style="fill:none;fill-rule:evenodd;stroke:#ffffff;stroke-width:6;stroke-linecap:round;stroke-linejoin:round;stroke-miterlimit:4;stroke-dasharray:none;stroke-opacity:0.22222224"
           d="m 841.33916,724.17523 c -6.65867,1.38725 -12.73797,5.38245 -16.65323,10.9442 -3.91526,5.56175 -5.62587,12.63234 -4.68593,19.36873 0.95111,6.81642 4.6706,13.28125 10.32371,17.20688 2.82655,1.96281 6.10089,3.28723 9.5054,3.78855 3.40452,0.50131 6.93441,0.17386 10.17089,-0.99543 4.0382,-1.45894 7.52062,-4.16934 10.51576,-7.24582 2.99514,-3.07648 5.55993,-6.5383 8.2789,-9.86137 2.71896,-3.32307 5.6342,-6.54636 9.16463,-8.99006 3.53042,-2.4437 7.75047,-4.07434 12.04071,-3.90275 4.28477,0.17137 8.34946,2.12462 11.71092,4.78719 3.36145,2.66257 6.10297,6.01427 8.75152,9.38678 2.64855,3.37251 5.25045,6.81388 8.40129,9.72263 3.15085,2.90874 6.92615,5.28885 11.13627,6.1034 4.9366,0.95511 10.11339,-0.32866 14.53463,-2.72343 4.42123,-2.39477 8.18,-5.83917 11.69723,-9.43241 3.51723,-3.59324 6.85318,-7.38076 10.67316,-10.65032 3.81997,-3.26957 8.20142,-6.03825 13.09498,-7.19384 4.95216,-1.16943 10.21891,-0.61693 15.02315,1.05959 4.80425,1.67651 9.17445,4.43724 13.12215,7.6477 7.8955,6.42092 14.1695,14.62156 21.8547,21.29271 5.7588,4.99894 12.3178,9.12145 19.4557,11.80523 7.1379,2.68379 14.8629,3.90638 22.4558,3.19888 7.593,-0.7075 15.0406,-3.38034 21.1446,-7.95131 6.104,-4.57098 10.8125,-11.065 12.9264,-18.39196 1.7332,-6.00761 1.7048,-12.51217 -0.081,-18.50438 -0.607,5.4353 -3.7035,10.54244 -8.242,13.59405 -4.5386,3.0516 -10.4366,3.99205 -15.6992,2.50328 -5.2625,-1.48878 -9.7937,-5.37967 -12.061,-10.35665 -2.2673,-4.97699 -2.2294,-10.94937 0.101,-15.89714 1.6851,-3.5777 4.5235,-6.60108 7.9879,-8.50828 3.4644,-1.90721 7.5372,-2.68857 11.4614,-2.19888"
           id="path4572"
           inkscape:path-effect="#path-effect4574"
           inkscape:original-d="m 841.33916,724.17523 c 0,0 -23.6086,18.16623 -21.33916,30.31293 2.2073,11.81407 17.98612,20.33346 30,20 16.66025,-0.46243 23.33333,-30 40,-30 16.66667,0 23.35547,29.14137 40,30 19.4107,1.00133 30.56349,-30 50,-30 19.43651,0 30.9362,26.21213 50,30 25.117,4.99059 66.8764,12.89195 75.9825,-11.33916 9.1061,-24.23112 -0.081,-18.50438 -0.081,-18.50438 0,0 -34.4893,2.19986 -35.9012,-10.15646 -0.8402,-7.35275 19.4493,-10.70716 19.4493,-10.70716"
           inkscape:connector-curvature="0"
           sodipodi:nodetypes="caaaaaazcac" />
        <path
           sodipodi:nodetypes="caaaaaazcac"
           inkscape:connector-curvature="0"
           inkscape:original-d="m 838.50437,870.41607 c 0,0 -23.6086,-18.16623 -21.33916,-30.31293 2.2073,-11.81407 17.98612,-20.33346 30,-20 16.66025,0.46243 23.33333,30 40,30 16.66667,0 23.35547,-29.14137 40,-30 19.4107,-1.00133 30.56349,30 50,30 19.43651,0 30.93619,-26.21213 49.99999,-30 25.117,-4.99059 66.8764,-12.89195 75.9825,11.33916 9.1061,24.23112 -0.081,18.50438 -0.081,18.50438 0,0 -34.4893,-2.19986 -35.9012,10.15646 -0.8402,7.35275 19.4493,10.70716 19.4493,10.70716"
           inkscape:path-effect="#path-effect4578"
           id="path4576"
           d="m 838.50437,870.41607 c -6.65867,-1.38725 -12.73797,-5.38245 -16.65323,-10.9442 -3.91526,-5.56175 -5.62587,-12.63234 -4.68593,-19.36873 0.95111,-6.81642 4.6706,-13.28125 10.32371,-17.20688 2.82655,-1.96281 6.10089,-3.28723 9.5054,-3.78855 3.40452,-0.50131 6.93441,-0.17386 10.17089,0.99543 4.0382,1.45894 7.52062,4.16934 10.51576,7.24582 2.99514,3.07648 5.55993,6.5383 8.2789,9.86137 2.71896,3.32307 5.6342,6.54636 9.16463,8.99006 3.53042,2.4437 7.75047,4.07434 12.04071,3.90275 4.28477,-0.17137 8.34946,-2.12462 11.71092,-4.78719 3.36145,-2.66257 6.10297,-6.01427 8.75152,-9.38678 2.64855,-3.37251 5.25045,-6.81388 8.40129,-9.72263 3.15084,-2.90874 6.92615,-5.28885 11.13627,-6.1034 4.9366,-0.95511 10.11339,0.32866 14.53463,2.72343 4.42123,2.39477 8.18,5.83917 11.69723,9.43241 3.51723,3.59324 6.85318,7.38076 10.67316,10.65033 3.81997,3.26956 8.20142,6.03824 13.09498,7.19383 4.95216,1.16943 10.2189,0.61693 15.02315,-1.05959 4.80425,-1.67651 9.17444,-4.43724 13.12214,-7.6477 7.8955,-6.42092 14.1695,-14.62156 21.8547,-21.29271 5.7588,-4.99894 12.3178,-9.12145 19.4557,-11.80523 7.1379,-2.68379 14.8629,-3.90638 22.4558,-3.19888 7.593,0.7075 15.0406,3.38034 21.1446,7.95131 6.104,4.57098 10.8125,11.065 12.9264,18.39196 1.7332,6.00761 1.7048,12.51217 -0.081,18.50438 -0.607,-5.4353 -3.7035,-10.54244 -8.242,-13.59405 -4.5386,-3.0516 -10.4366,-3.99205 -15.6992,-2.50328 -5.2625,1.48878 -9.7937,5.37967 -12.061,10.35665 -2.2673,4.97699 -2.2294,10.94937 0.101,15.89714 1.6851,3.5777 4.5235,6.60108 7.9879,8.50828 3.4644,1.90721 7.5372,2.68857 11.4614,2.19888"
           style="fill:none;fill-rule:evenodd;stroke:#ffffff;stroke-width:6;stroke-linecap:round;stroke-linejoin:round;stroke-miterlimit:4;stroke-dasharray:none;stroke-opacity:0.22222224" />
      </g>
      <g
         transform="translate(0,-0.03437551)"
         id="g4393">
        <g
           id="g4342">
          <rect
             y="32.362179"
             x="739.74414"
             height="15"
             width="115.57239"
             id="rect4233"
             style="opacity:1;fill:url(#linearGradient4241);fill-opacity:1;fill-rule:evenodd;stroke:none;stroke-width:1.95000005;stroke-linecap:round;stroke-linejoin:round;stroke-miterlimit:4;stroke-dasharray:none;stroke-dashoffset:0;stroke-opacity:1" />
          <path
             inkscape:connector-curvature="0"
             id="circle4228"
             transform="translate(0,-542.12598)"
             d="m 797.24414,312.08203 c -70.80523,3.9e-4 -128.20381,57.39985 -128.20312,128.20508 0.0581,45.37277 24.09447,87.33538 63.20312,110.33984 l 0,23.86133 130,0 0,-23.87305 c 39.10505,-23.00233 63.14087,-64.95953 63.20313,-110.32812 6.9e-4,-70.80523 -57.3979,-128.20469 -128.20313,-128.20508 z m 0,23.10352 A 105.1005,105.1005 0 0 1 902.34375,440.28711 105.1005,105.1005 0 0 1 797.24414,545.38672 105.1005,105.1005 0 0 1 692.14453,440.28711 105.1005,105.1005 0 0 1 797.24414,335.18555 Z"
             style="opacity:1;fill:url(#radialGradient4266);fill-opacity:1;fill-rule:evenodd;stroke:#000000;stroke-width:1.13635206;stroke-linecap:round;stroke-linejoin:round;stroke-miterlimit:4;stroke-dasharray:none;stroke-dashoffset:0;stroke-opacity:1" />
          <path
             inkscape:connector-curvature="0"
             id="path4245"
             d="m 740,37.36218 5,5 5,-5 5,5 5,-5 5,5 5,-5 5,5 5,-5 5,5 5,-5 5,5 5,-5 5,5 5,-5 5,5 5,-5 5,5 5,-5 5,5 5,-5 5,5 5,-5 5,5"
             style="fill:none;fill-rule:evenodd;stroke:url(#linearGradient4253);stroke-width:0.5;stroke-linecap:butt;stroke-linejoin:miter;stroke-miterlimit:4;stroke-dasharray:none;stroke-opacity:1" />
          <path
             inkscape:connector-curvature="0"
             id="path4270"
             transform="translate(0,-542.12598)"
             d="m 797.25977,326.18945 c 0.0955,1.7e-4 -7.77385,5.69436 -7.74415,5.60352 0.0118,-0.0363 0.63548,1.86841 1.20704,3.62305 a 105.1005,105.1005 0 0 1 6.52148,-0.23047 105.1005,105.1005 0 0 1 6.49414,0.32422 c 0.59233,-1.79838 1.23022,-3.7265 1.24219,-3.68946 0.0293,0.0909 -7.81628,-5.63102 -7.7207,-5.63086 z m -29.58789,3.89063 c 0.0924,-0.0245 -6.03059,7.5134 -6.0254,7.41797 0.002,-0.0393 1.11976,1.67357 2.16602,3.2832 a 105.1005,105.1005 0 0 1 12.5332,-3.38477 c 0.10654,-1.88417 0.22305,-3.9076 0.24414,-3.875 0.0518,0.0803 -9.01034,-3.41682 -8.91796,-3.4414 z m 59.17187,0.008 c 0.0923,0.025 -8.9819,3.49023 -8.92969,3.41016 0.0208,-0.0318 0.12756,1.95976 0.22461,3.78711 a 105.1005,105.1005 0 0 1 12.5586,3.4707 c 1.03263,-1.57618 2.14452,-3.2692 2.14648,-3.23047 0.004,0.0954 -6.09228,-7.46241 -6,-7.4375 z m -86.74219,11.4082 c 0.0829,-0.0476 -3.88264,8.81813 -3.90234,8.72461 -0.008,-0.0381 1.50461,1.31993 2.91406,2.58789 a 105.1005,105.1005 0 0 1 11.25,-6.54297 c -0.37749,-1.81358 -0.78622,-3.77958 -0.75781,-3.7539 0.071,0.0641 -9.58677,-0.968 -9.50391,-1.01563 z m 114.3086,0.0156 c 0.0827,0.0479 -9.57699,1.0443 -9.50586,0.98047 0.0293,-0.0263 -0.3937,1.97759 -0.79297,3.85937 a 105.1005,105.1005 0 0 1 11.27344,6.45313 c 1.39803,-1.24866 2.90653,-2.59247 2.89843,-2.55469 -0.02,0.0934 -3.95572,-8.78619 -3.87304,-8.73828 z m 14.23632,16.65625 c 0.0352,-0.0179 -0.89268,1.8112 -1.76757,3.5293 A 105.1005,105.1005 0 0 1 876,370.88867 c 1.73801,-0.87749 3.58062,-1.80297 3.5625,-1.76758 -0.0435,0.0851 -1.54794,-9.5091 -1.48047,-9.4414 0.0675,0.0677 -9.52079,-1.46848 -9.43555,-1.51172 z m -142.77734,0.0137 c 0.0851,0.0435 -9.51106,1.54599 -9.44336,1.47852 0.0677,-0.0675 -1.46849,9.52273 -1.51172,9.4375 -0.0179,-0.0353 1.81465,0.89366 3.53906,1.77148 a 105.1005,105.1005 0 0 1 9.17383,-9.14453 c -0.87143,-1.72658 -1.79303,-3.56099 -1.75781,-3.54297 z m 161.65234,21.27148 c 0.0386,-0.008 -1.33059,1.51904 -2.62109,2.95313 a 105.1005,105.1005 0 0 1 6.46875,11.23047 c 1.8817,-0.39268 3.88577,-0.80656 3.85938,-0.77734 -0.0641,0.071 0.96993,-9.58482 1.01757,-9.50196 0.0476,0.0829 -8.81812,-3.88459 -8.72461,-3.9043 z m -180.52734,0.006 c 0.0934,0.02 -8.7862,3.95378 -8.73828,3.8711 0.0479,-0.0827 1.04819,9.57894 0.98437,9.50781 -0.027,-0.0301 2.01324,0.39944 3.95704,0.8125 a 105.1005,105.1005 0 0 1 6.40234,-11.23437 c -1.28202,-1.4348 -2.644,-2.96529 -2.60547,-2.95704 z m -12.72266,25.4375 c 0.0954,-0.004 -7.46241,6.09424 -7.4375,6.00196 0.025,-0.0924 3.48826,8.97993 3.40821,8.92773 -0.0333,-0.0218 2.0261,-0.13403 3.9707,-0.23633 a 105.1005,105.1005 0 0 1 3.39649,-12.47461 c -1.64579,-1.07718 -3.37793,-2.21672 -3.3379,-2.21875 z m 205.97266,0.002 c 0.0407,0.002 -1.71674,1.14964 -3.40234,2.24414 a 105.1005,105.1005 0 0 1 3.33593,12.44531 c 1.99073,0.11132 4.07698,0.23386 4.04297,0.25586 -0.0802,0.0518 3.41682,-9.00838 3.44141,-8.91602 0.0245,0.0924 -7.51342,-6.03446 -7.41797,-6.02929 z m -211.67773,27.86328 c 0.091,-0.0293 -5.63103,7.81824 -5.63086,7.72266 1.7e-4,-0.0955 5.69437,7.77188 5.60351,7.74218 -0.0385,-0.0126 1.9473,-0.66348 3.8418,-1.27929 a 105.1005,105.1005 0 0 1 -0.23633,-6.66016 105.1005,105.1005 0 0 1 0.31055,-6.2168 c -1.92509,-0.63275 -3.92772,-1.29598 -3.88867,-1.30859 z m 217.38281,0.01 c 0.0383,0.0125 -1.94169,0.65883 -3.82617,1.27149 a 105.1005,105.1005 0 0 1 0.2207,6.24414 105.1005,105.1005 0 0 1 -0.33203,6.63281 c 1.93819,0.63695 3.94941,1.30373 3.91016,1.31641 -0.091,0.0294 5.63101,-7.81824 5.63085,-7.72266 -1.8e-4,0.0955 -5.69433,-7.77189 -5.60351,-7.74219 z M 690.26758,461.1543 c 0.0803,-0.0519 -3.41685,9.00838 -3.44141,8.91601 -0.0245,-0.0924 7.51341,6.03447 7.41797,6.0293 -0.0421,-0.002 1.76058,-1.18034 3.51758,-2.32031 a 105.1005,105.1005 0 0 1 -3.35547,-12.36328 c -2.04961,-0.11413 -4.17349,-0.2392 -4.13867,-0.26172 z m 213.97656,0.0156 c 0.034,0.0222 -2.05779,0.1374 -4.05859,0.24219 a 105.1005,105.1005 0 0 1 -3.43164,12.38672 c 1.72392,1.12737 3.50441,2.30063 3.46289,2.30273 -0.0954,0.005 7.46239,-6.09618 7.4375,-6.0039 -0.025,0.0923 -3.49022,-8.97993 -3.41016,-8.92774 z m -13.14062,26.13867 a 105.1005,105.1005 0 0 1 -6.36719,11.09961 c 1.37888,1.54133 2.7986,3.13765 2.75781,3.12891 -0.0934,-0.02 8.78426,-3.95182 8.73633,-3.86914 -0.0479,0.0827 -1.04625,-9.57895 -0.98242,-9.50781 0.0282,0.0315 -2.08596,-0.41305 -4.14453,-0.85157 z m -187.8086,0.0156 c -1.99156,0.41658 -4.06276,0.845 -4.03515,0.81445 0.0641,-0.0709 -0.96993,9.58482 -1.01758,9.50195 -0.0476,-0.0829 8.81814,3.88459 8.72461,3.9043 -0.0411,0.009 1.39233,-1.5925 2.78906,-3.14258 a 105.1005,105.1005 0 0 1 -6.46094,-11.07812 z m 15.45313,22.6543 c -1.8966,0.95934 -3.8417,1.93445 -3.82227,1.89648 0.0435,-0.0851 1.54794,9.51106 1.48047,9.44336 -0.0675,-0.0677 9.52079,1.46848 9.43555,1.51172 -0.0381,0.0193 0.94515,-1.92343 1.91211,-3.81836 a 105.1005,105.1005 0 0 1 -9.00586,-9.0332 z m 157.01757,0.0156 a 105.1005,105.1005 0 0 1 -9.05078,8.98438 c 0.96439,1.90667 1.94246,3.85741 1.9043,3.83789 -0.0851,-0.0435 9.51107,-1.54598 9.44336,-1.47852 -0.0677,0.0675 1.46848,-9.52274 1.51172,-9.4375 0.0193,0.038 -1.91925,-0.9426 -3.8086,-1.90625 z m -136.37695,17.94727 c -1.57352,1.40817 -3.19248,2.84813 -3.18359,2.80664 0.0201,-0.0935 3.95572,8.78621 3.87304,8.73828 -0.0827,-0.0479 9.577,-1.0443 9.50586,-0.98047 -0.0322,0.029 0.41922,-2.12905 0.8711,-4.24805 a 105.1005,105.1005 0 0 1 -11.06641,-6.3164 z m 115.72071,0.0117 a 105.1005,105.1005 0 0 1 -11.0625,6.38868 c 0.43047,2.0573 0.8673,4.17287 0.83593,4.14453 -0.071,-0.0641 9.58675,0.96603 9.50391,1.01367 -0.0829,0.0476 3.88266,-8.81618 3.90234,-8.72266 0.009,0.0416 -1.60746,-1.40716 -3.17968,-2.82422 z m -24.66407,11.91211 a 105.1005,105.1005 0 0 1 -12.27539,3.30469 c -0.1192,2.15102 -0.24805,4.34287 -0.27148,4.30664 -0.0518,-0.0802 9.01033,3.41488 8.91797,3.43946 -0.0924,0.0246 6.03057,-7.51341 6.02539,-7.41797 -0.002,0.0435 -1.21251,-1.807 -2.39649,-3.63282 z m -66.42773,0.0352 c -1.16943,1.78912 -2.37088,3.61313 -2.37305,3.57031 -0.004,-0.0954 6.09228,7.4624 6,7.4375 -0.0924,-0.0249 8.98189,-3.49022 8.92969,-3.41015 -0.0231,0.0354 -0.141,-2.11935 -0.25,-4.2168 a 105.1005,105.1005 0 0 1 -12.30664,-3.38086 z m 26.87304,5.16797 c -0.67492,2.05706 -1.3695,4.14866 -1.38281,4.10742 -0.0294,-0.091 7.81628,5.63102 7.72071,5.63086 -0.0955,-1.7e-4 7.77383,-5.69435 7.74414,-5.60352 -0.0132,0.0405 -0.69096,-2.02457 -1.34571,-4.04296 a 105.1005,105.1005 0 0 1 -6.38281,0.22656 105.1005,105.1005 0 0 1 -6.35352,-0.31836 z"
             style="opacity:1;fill:url(#radialGradient4338);fill-opacity:1;fill-rule:evenodd;stroke:none;stroke-width:0.5;stroke-linecap:round;stroke-linejoin:round;stroke-miterlimit:4;stroke-dasharray:none;stroke-dashoffset:0;stroke-opacity:1" />
        </g>
        <g
           id="g4348"
           transform="matrix(1,0,0,-1,0,510.30498)">
          <rect
             style="opacity:1;fill:url(#linearGradient4358);fill-opacity:1;fill-rule:evenodd;stroke:none;stroke-width:1.95000005;stroke-linecap:round;stroke-linejoin:round;stroke-miterlimit:4;stroke-dasharray:none;stroke-dashoffset:0;stroke-opacity:1"
             id="rect4350"
             width="115.57239"
             height="15"
             x="739.74414"
             y="32.362179" />
          <path
             style="opacity:1;fill:url(#radialGradient4360);fill-opacity:1;fill-rule:evenodd;stroke:#000000;stroke-width:1.13635206;stroke-linecap:round;stroke-linejoin:round;stroke-miterlimit:4;stroke-dasharray:none;stroke-dashoffset:0;stroke-opacity:1"
             d="m 797.24414,312.08203 c -70.80523,3.9e-4 -128.20381,57.39985 -128.20312,128.20508 0.0581,45.37277 24.09447,87.33538 63.20312,110.33984 l 0,23.86133 130,0 0,-23.87305 c 39.10505,-23.00233 63.14087,-64.95953 63.20313,-110.32812 6.9e-4,-70.80523 -57.3979,-128.20469 -128.20313,-128.20508 z m 0,23.10352 A 105.1005,105.1005 0 0 1 902.34375,440.28711 105.1005,105.1005 0 0 1 797.24414,545.38672 105.1005,105.1005 0 0 1 692.14453,440.28711 105.1005,105.1005 0 0 1 797.24414,335.18555 Z"
             transform="translate(0,-542.12598)"
             id="path4352"
             inkscape:connector-curvature="0" />
          <path
             style="fill:none;fill-rule:evenodd;stroke:url(#linearGradient4362);stroke-width:0.5;stroke-linecap:butt;stroke-linejoin:miter;stroke-miterlimit:4;stroke-dasharray:none;stroke-opacity:1"
             d="m 740,37.36218 5,5 5,-5 5,5 5,-5 5,5 5,-5 5,5 5,-5 5,5 5,-5 5,5 5,-5 5,5 5,-5 5,5 5,-5 5,5 5,-5 5,5 5,-5 5,5 5,-5 5,5"
             id="path4354"
             inkscape:connector-curvature="0" />
          <path
             style="opacity:1;fill:url(#radialGradient4364);fill-opacity:1;fill-rule:evenodd;stroke:none;stroke-width:0.5;stroke-linecap:round;stroke-linejoin:round;stroke-miterlimit:4;stroke-dasharray:none;stroke-dashoffset:0;stroke-opacity:1"
             d="m 797.25977,326.18945 c 0.0955,1.7e-4 -7.77385,5.69436 -7.74415,5.60352 0.0118,-0.0363 0.63548,1.86841 1.20704,3.62305 a 105.1005,105.1005 0 0 1 6.52148,-0.23047 105.1005,105.1005 0 0 1 6.49414,0.32422 c 0.59233,-1.79838 1.23022,-3.7265 1.24219,-3.68946 0.0293,0.0909 -7.81628,-5.63102 -7.7207,-5.63086 z m -29.58789,3.89063 c 0.0924,-0.0245 -6.03059,7.5134 -6.0254,7.41797 0.002,-0.0393 1.11976,1.67357 2.16602,3.2832 a 105.1005,105.1005 0 0 1 12.5332,-3.38477 c 0.10654,-1.88417 0.22305,-3.9076 0.24414,-3.875 0.0518,0.0803 -9.01034,-3.41682 -8.91796,-3.4414 z m 59.17187,0.008 c 0.0923,0.025 -8.9819,3.49023 -8.92969,3.41016 0.0208,-0.0318 0.12756,1.95976 0.22461,3.78711 a 105.1005,105.1005 0 0 1 12.5586,3.4707 c 1.03263,-1.57618 2.14452,-3.2692 2.14648,-3.23047 0.004,0.0954 -6.09228,-7.46241 -6,-7.4375 z m -86.74219,11.4082 c 0.0829,-0.0476 -3.88264,8.81813 -3.90234,8.72461 -0.008,-0.0381 1.50461,1.31993 2.91406,2.58789 a 105.1005,105.1005 0 0 1 11.25,-6.54297 c -0.37749,-1.81358 -0.78622,-3.77958 -0.75781,-3.7539 0.071,0.0641 -9.58677,-0.968 -9.50391,-1.01563 z m 114.3086,0.0156 c 0.0827,0.0479 -9.57699,1.0443 -9.50586,0.98047 0.0293,-0.0263 -0.3937,1.97759 -0.79297,3.85937 a 105.1005,105.1005 0 0 1 11.27344,6.45313 c 1.39803,-1.24866 2.90653,-2.59247 2.89843,-2.55469 -0.02,0.0934 -3.95572,-8.78619 -3.87304,-8.73828 z m 14.23632,16.65625 c 0.0352,-0.0179 -0.89268,1.8112 -1.76757,3.5293 A 105.1005,105.1005 0 0 1 876,370.88867 c 1.73801,-0.87749 3.58062,-1.80297 3.5625,-1.76758 -0.0435,0.0851 -1.54794,-9.5091 -1.48047,-9.4414 0.0675,0.0677 -9.52079,-1.46848 -9.43555,-1.51172 z m -142.77734,0.0137 c 0.0851,0.0435 -9.51106,1.54599 -9.44336,1.47852 0.0677,-0.0675 -1.46849,9.52273 -1.51172,9.4375 -0.0179,-0.0353 1.81465,0.89366 3.53906,1.77148 a 105.1005,105.1005 0 0 1 9.17383,-9.14453 c -0.87143,-1.72658 -1.79303,-3.56099 -1.75781,-3.54297 z m 161.65234,21.27148 c 0.0386,-0.008 -1.33059,1.51904 -2.62109,2.95313 a 105.1005,105.1005 0 0 1 6.46875,11.23047 c 1.8817,-0.39268 3.88577,-0.80656 3.85938,-0.77734 -0.0641,0.071 0.96993,-9.58482 1.01757,-9.50196 0.0476,0.0829 -8.81812,-3.88459 -8.72461,-3.9043 z m -180.52734,0.006 c 0.0934,0.02 -8.7862,3.95378 -8.73828,3.8711 0.0479,-0.0827 1.04819,9.57894 0.98437,9.50781 -0.027,-0.0301 2.01324,0.39944 3.95704,0.8125 a 105.1005,105.1005 0 0 1 6.40234,-11.23437 c -1.28202,-1.4348 -2.644,-2.96529 -2.60547,-2.95704 z m -12.72266,25.4375 c 0.0954,-0.004 -7.46241,6.09424 -7.4375,6.00196 0.025,-0.0924 3.48826,8.97993 3.40821,8.92773 -0.0333,-0.0218 2.0261,-0.13403 3.9707,-0.23633 a 105.1005,105.1005 0 0 1 3.39649,-12.47461 c -1.64579,-1.07718 -3.37793,-2.21672 -3.3379,-2.21875 z m 205.97266,0.002 c 0.0407,0.002 -1.71674,1.14964 -3.40234,2.24414 a 105.1005,105.1005 0 0 1 3.33593,12.44531 c 1.99073,0.11132 4.07698,0.23386 4.04297,0.25586 -0.0802,0.0518 3.41682,-9.00838 3.44141,-8.91602 0.0245,0.0924 -7.51342,-6.03446 -7.41797,-6.02929 z m -211.67773,27.86328 c 0.091,-0.0293 -5.63103,7.81824 -5.63086,7.72266 1.7e-4,-0.0955 5.69437,7.77188 5.60351,7.74218 -0.0385,-0.0126 1.9473,-0.66348 3.8418,-1.27929 a 105.1005,105.1005 0 0 1 -0.23633,-6.66016 105.1005,105.1005 0 0 1 0.31055,-6.2168 c -1.92509,-0.63275 -3.92772,-1.29598 -3.88867,-1.30859 z m 217.38281,0.01 c 0.0383,0.0125 -1.94169,0.65883 -3.82617,1.27149 a 105.1005,105.1005 0 0 1 0.2207,6.24414 105.1005,105.1005 0 0 1 -0.33203,6.63281 c 1.93819,0.63695 3.94941,1.30373 3.91016,1.31641 -0.091,0.0294 5.63101,-7.81824 5.63085,-7.72266 -1.8e-4,0.0955 -5.69433,-7.77189 -5.60351,-7.74219 z M 690.26758,461.1543 c 0.0803,-0.0519 -3.41685,9.00838 -3.44141,8.91601 -0.0245,-0.0924 7.51341,6.03447 7.41797,6.0293 -0.0421,-0.002 1.76058,-1.18034 3.51758,-2.32031 a 105.1005,105.1005 0 0 1 -3.35547,-12.36328 c -2.04961,-0.11413 -4.17349,-0.2392 -4.13867,-0.26172 z m 213.97656,0.0156 c 0.034,0.0222 -2.05779,0.1374 -4.05859,0.24219 a 105.1005,105.1005 0 0 1 -3.43164,12.38672 c 1.72392,1.12737 3.50441,2.30063 3.46289,2.30273 -0.0954,0.005 7.46239,-6.09618 7.4375,-6.0039 -0.025,0.0923 -3.49022,-8.97993 -3.41016,-8.92774 z m -13.14062,26.13867 a 105.1005,105.1005 0 0 1 -6.36719,11.09961 c 1.37888,1.54133 2.7986,3.13765 2.75781,3.12891 -0.0934,-0.02 8.78426,-3.95182 8.73633,-3.86914 -0.0479,0.0827 -1.04625,-9.57895 -0.98242,-9.50781 0.0282,0.0315 -2.08596,-0.41305 -4.14453,-0.85157 z m -187.8086,0.0156 c -1.99156,0.41658 -4.06276,0.845 -4.03515,0.81445 0.0641,-0.0709 -0.96993,9.58482 -1.01758,9.50195 -0.0476,-0.0829 8.81814,3.88459 8.72461,3.9043 -0.0411,0.009 1.39233,-1.5925 2.78906,-3.14258 a 105.1005,105.1005 0 0 1 -6.46094,-11.07812 z m 15.45313,22.6543 c -1.8966,0.95934 -3.8417,1.93445 -3.82227,1.89648 0.0435,-0.0851 1.54794,9.51106 1.48047,9.44336 -0.0675,-0.0677 9.52079,1.46848 9.43555,1.51172 -0.0381,0.0193 0.94515,-1.92343 1.91211,-3.81836 a 105.1005,105.1005 0 0 1 -9.00586,-9.0332 z m 157.01757,0.0156 a 105.1005,105.1005 0 0 1 -9.05078,8.98438 c 0.96439,1.90667 1.94246,3.85741 1.9043,3.83789 -0.0851,-0.0435 9.51107,-1.54598 9.44336,-1.47852 -0.0677,0.0675 1.46848,-9.52274 1.51172,-9.4375 0.0193,0.038 -1.91925,-0.9426 -3.8086,-1.90625 z m -136.37695,17.94727 c -1.57352,1.40817 -3.19248,2.84813 -3.18359,2.80664 0.0201,-0.0935 3.95572,8.78621 3.87304,8.73828 -0.0827,-0.0479 9.577,-1.0443 9.50586,-0.98047 -0.0322,0.029 0.41922,-2.12905 0.8711,-4.24805 a 105.1005,105.1005 0 0 1 -11.06641,-6.3164 z m 115.72071,0.0117 a 105.1005,105.1005 0 0 1 -11.0625,6.38868 c 0.43047,2.0573 0.8673,4.17287 0.83593,4.14453 -0.071,-0.0641 9.58675,0.96603 9.50391,1.01367 -0.0829,0.0476 3.88266,-8.81618 3.90234,-8.72266 0.009,0.0416 -1.60746,-1.40716 -3.17968,-2.82422 z m -24.66407,11.91211 a 105.1005,105.1005 0 0 1 -12.27539,3.30469 c -0.1192,2.15102 -0.24805,4.34287 -0.27148,4.30664 -0.0518,-0.0802 9.01033,3.41488 8.91797,3.43946 -0.0924,0.0246 6.03057,-7.51341 6.02539,-7.41797 -0.002,0.0435 -1.21251,-1.807 -2.39649,-3.63282 z m -66.42773,0.0352 c -1.16943,1.78912 -2.37088,3.61313 -2.37305,3.57031 -0.004,-0.0954 6.09228,7.4624 6,7.4375 -0.0924,-0.0249 8.98189,-3.49022 8.92969,-3.41015 -0.0231,0.0354 -0.141,-2.11935 -0.25,-4.2168 a 105.1005,105.1005 0 0 1 -12.30664,-3.38086 z m 26.87304,5.16797 c -0.67492,2.05706 -1.3695,4.14866 -1.38281,4.10742 -0.0294,-0.091 7.81628,5.63102 7.72071,5.63086 -0.0955,-1.7e-4 7.77383,-5.69435 7.74414,-5.60352 -0.0132,0.0405 -0.69096,-2.02457 -1.34571,-4.04296 a 105.1005,105.1005 0 0 1 -6.38281,0.22656 105.1005,105.1005 0 0 1 -6.35352,-0.31836 z"
             transform="translate(0,-542.12598)"
             id="path4356"
             inkscape:connector-curvature="0" />
        </g>
      </g>
      <g
         id="g4366"
         transform="matrix(0,1,1,0,285.64171,-542.12603)">
        <rect
           style="opacity:1;fill:url(#linearGradient4376);fill-opacity:1;fill-rule:evenodd;stroke:none;stroke-width:1.95000005;stroke-linecap:round;stroke-linejoin:round;stroke-miterlimit:4;stroke-dasharray:none;stroke-dashoffset:0;stroke-opacity:1"
           id="rect4368"
           width="115.57239"
           height="15"
           x="739.74414"
           y="32.362179" />
        <path
           style="opacity:1;fill:url(#radialGradient4378);fill-opacity:1;fill-rule:evenodd;stroke:#000000;stroke-width:1.13635206;stroke-linecap:round;stroke-linejoin:round;stroke-miterlimit:4;stroke-dasharray:none;stroke-dashoffset:0;stroke-opacity:1"
           d="m 797.24414,312.08203 c -70.80523,3.9e-4 -128.20381,57.39985 -128.20312,128.20508 0.0581,45.37277 24.09447,87.33538 63.20312,110.33984 l 0,23.86133 130,0 0,-23.87305 c 39.10505,-23.00233 63.14087,-64.95953 63.20313,-110.32812 6.9e-4,-70.80523 -57.3979,-128.20469 -128.20313,-128.20508 z m 0,23.10352 A 105.1005,105.1005 0 0 1 902.34375,440.28711 105.1005,105.1005 0 0 1 797.24414,545.38672 105.1005,105.1005 0 0 1 692.14453,440.28711 105.1005,105.1005 0 0 1 797.24414,335.18555 Z"
           transform="translate(0,-542.12598)"
           id="path4370"
           inkscape:connector-curvature="0" />
        <path
           style="fill:none;fill-rule:evenodd;stroke:url(#linearGradient4380);stroke-width:0.5;stroke-linecap:butt;stroke-linejoin:miter;stroke-miterlimit:4;stroke-dasharray:none;stroke-opacity:1"
           d="m 740,37.36218 5,5 5,-5 5,5 5,-5 5,5 5,-5 5,5 5,-5 5,5 5,-5 5,5 5,-5 5,5 5,-5 5,5 5,-5 5,5 5,-5 5,5 5,-5 5,5 5,-5 5,5"
           id="path4372"
           inkscape:connector-curvature="0" />
        <path
           style="opacity:1;fill:url(#radialGradient4382);fill-opacity:1;fill-rule:evenodd;stroke:none;stroke-width:0.5;stroke-linecap:round;stroke-linejoin:round;stroke-miterlimit:4;stroke-dasharray:none;stroke-dashoffset:0;stroke-opacity:1"
           d="m 797.25977,326.18945 c 0.0955,1.7e-4 -7.77385,5.69436 -7.74415,5.60352 0.0118,-0.0363 0.63548,1.86841 1.20704,3.62305 a 105.1005,105.1005 0 0 1 6.52148,-0.23047 105.1005,105.1005 0 0 1 6.49414,0.32422 c 0.59233,-1.79838 1.23022,-3.7265 1.24219,-3.68946 0.0293,0.0909 -7.81628,-5.63102 -7.7207,-5.63086 z m -29.58789,3.89063 c 0.0924,-0.0245 -6.03059,7.5134 -6.0254,7.41797 0.002,-0.0393 1.11976,1.67357 2.16602,3.2832 a 105.1005,105.1005 0 0 1 12.5332,-3.38477 c 0.10654,-1.88417 0.22305,-3.9076 0.24414,-3.875 0.0518,0.0803 -9.01034,-3.41682 -8.91796,-3.4414 z m 59.17187,0.008 c 0.0923,0.025 -8.9819,3.49023 -8.92969,3.41016 0.0208,-0.0318 0.12756,1.95976 0.22461,3.78711 a 105.1005,105.1005 0 0 1 12.5586,3.4707 c 1.03263,-1.57618 2.14452,-3.2692 2.14648,-3.23047 0.004,0.0954 -6.09228,-7.46241 -6,-7.4375 z m -86.74219,11.4082 c 0.0829,-0.0476 -3.88264,8.81813 -3.90234,8.72461 -0.008,-0.0381 1.50461,1.31993 2.91406,2.58789 a 105.1005,105.1005 0 0 1 11.25,-6.54297 c -0.37749,-1.81358 -0.78622,-3.77958 -0.75781,-3.7539 0.071,0.0641 -9.58677,-0.968 -9.50391,-1.01563 z m 114.3086,0.0156 c 0.0827,0.0479 -9.57699,1.0443 -9.50586,0.98047 0.0293,-0.0263 -0.3937,1.97759 -0.79297,3.85937 a 105.1005,105.1005 0 0 1 11.27344,6.45313 c 1.39803,-1.24866 2.90653,-2.59247 2.89843,-2.55469 -0.02,0.0934 -3.95572,-8.78619 -3.87304,-8.73828 z m 14.23632,16.65625 c 0.0352,-0.0179 -0.89268,1.8112 -1.76757,3.5293 A 105.1005,105.1005 0 0 1 876,370.88867 c 1.73801,-0.87749 3.58062,-1.80297 3.5625,-1.76758 -0.0435,0.0851 -1.54794,-9.5091 -1.48047,-9.4414 0.0675,0.0677 -9.52079,-1.46848 -9.43555,-1.51172 z m -142.77734,0.0137 c 0.0851,0.0435 -9.51106,1.54599 -9.44336,1.47852 0.0677,-0.0675 -1.46849,9.52273 -1.51172,9.4375 -0.0179,-0.0353 1.81465,0.89366 3.53906,1.77148 a 105.1005,105.1005 0 0 1 9.17383,-9.14453 c -0.87143,-1.72658 -1.79303,-3.56099 -1.75781,-3.54297 z m 161.65234,21.27148 c 0.0386,-0.008 -1.33059,1.51904 -2.62109,2.95313 a 105.1005,105.1005 0 0 1 6.46875,11.23047 c 1.8817,-0.39268 3.88577,-0.80656 3.85938,-0.77734 -0.0641,0.071 0.96993,-9.58482 1.01757,-9.50196 0.0476,0.0829 -8.81812,-3.88459 -8.72461,-3.9043 z m -180.52734,0.006 c 0.0934,0.02 -8.7862,3.95378 -8.73828,3.8711 0.0479,-0.0827 1.04819,9.57894 0.98437,9.50781 -0.027,-0.0301 2.01324,0.39944 3.95704,0.8125 a 105.1005,105.1005 0 0 1 6.40234,-11.23437 c -1.28202,-1.4348 -2.644,-2.96529 -2.60547,-2.95704 z m -12.72266,25.4375 c 0.0954,-0.004 -7.46241,6.09424 -7.4375,6.00196 0.025,-0.0924 3.48826,8.97993 3.40821,8.92773 -0.0333,-0.0218 2.0261,-0.13403 3.9707,-0.23633 a 105.1005,105.1005 0 0 1 3.39649,-12.47461 c -1.64579,-1.07718 -3.37793,-2.21672 -3.3379,-2.21875 z m 205.97266,0.002 c 0.0407,0.002 -1.71674,1.14964 -3.40234,2.24414 a 105.1005,105.1005 0 0 1 3.33593,12.44531 c 1.99073,0.11132 4.07698,0.23386 4.04297,0.25586 -0.0802,0.0518 3.41682,-9.00838 3.44141,-8.91602 0.0245,0.0924 -7.51342,-6.03446 -7.41797,-6.02929 z m -211.67773,27.86328 c 0.091,-0.0293 -5.63103,7.81824 -5.63086,7.72266 1.7e-4,-0.0955 5.69437,7.77188 5.60351,7.74218 -0.0385,-0.0126 1.9473,-0.66348 3.8418,-1.27929 a 105.1005,105.1005 0 0 1 -0.23633,-6.66016 105.1005,105.1005 0 0 1 0.31055,-6.2168 c -1.92509,-0.63275 -3.92772,-1.29598 -3.88867,-1.30859 z m 217.38281,0.01 c 0.0383,0.0125 -1.94169,0.65883 -3.82617,1.27149 a 105.1005,105.1005 0 0 1 0.2207,6.24414 105.1005,105.1005 0 0 1 -0.33203,6.63281 c 1.93819,0.63695 3.94941,1.30373 3.91016,1.31641 -0.091,0.0294 5.63101,-7.81824 5.63085,-7.72266 -1.8e-4,0.0955 -5.69433,-7.77189 -5.60351,-7.74219 z M 690.26758,461.1543 c 0.0803,-0.0519 -3.41685,9.00838 -3.44141,8.91601 -0.0245,-0.0924 7.51341,6.03447 7.41797,6.0293 -0.0421,-0.002 1.76058,-1.18034 3.51758,-2.32031 a 105.1005,105.1005 0 0 1 -3.35547,-12.36328 c -2.04961,-0.11413 -4.17349,-0.2392 -4.13867,-0.26172 z m 213.97656,0.0156 c 0.034,0.0222 -2.05779,0.1374 -4.05859,0.24219 a 105.1005,105.1005 0 0 1 -3.43164,12.38672 c 1.72392,1.12737 3.50441,2.30063 3.46289,2.30273 -0.0954,0.005 7.46239,-6.09618 7.4375,-6.0039 -0.025,0.0923 -3.49022,-8.97993 -3.41016,-8.92774 z m -13.14062,26.13867 a 105.1005,105.1005 0 0 1 -6.36719,11.09961 c 1.37888,1.54133 2.7986,3.13765 2.75781,3.12891 -0.0934,-0.02 8.78426,-3.95182 8.73633,-3.86914 -0.0479,0.0827 -1.04625,-9.57895 -0.98242,-9.50781 0.0282,0.0315 -2.08596,-0.41305 -4.14453,-0.85157 z m -187.8086,0.0156 c -1.99156,0.41658 -4.06276,0.845 -4.03515,0.81445 0.0641,-0.0709 -0.96993,9.58482 -1.01758,9.50195 -0.0476,-0.0829 8.81814,3.88459 8.72461,3.9043 -0.0411,0.009 1.39233,-1.5925 2.78906,-3.14258 a 105.1005,105.1005 0 0 1 -6.46094,-11.07812 z m 15.45313,22.6543 c -1.8966,0.95934 -3.8417,1.93445 -3.82227,1.89648 0.0435,-0.0851 1.54794,9.51106 1.48047,9.44336 -0.0675,-0.0677 9.52079,1.46848 9.43555,1.51172 -0.0381,0.0193 0.94515,-1.92343 1.91211,-3.81836 a 105.1005,105.1005 0 0 1 -9.00586,-9.0332 z m 157.01757,0.0156 a 105.1005,105.1005 0 0 1 -9.05078,8.98438 c 0.96439,1.90667 1.94246,3.85741 1.9043,3.83789 -0.0851,-0.0435 9.51107,-1.54598 9.44336,-1.47852 -0.0677,0.0675 1.46848,-9.52274 1.51172,-9.4375 0.0193,0.038 -1.91925,-0.9426 -3.8086,-1.90625 z m -136.37695,17.94727 c -1.57352,1.40817 -3.19248,2.84813 -3.18359,2.80664 0.0201,-0.0935 3.95572,8.78621 3.87304,8.73828 -0.0827,-0.0479 9.577,-1.0443 9.50586,-0.98047 -0.0322,0.029 0.41922,-2.12905 0.8711,-4.24805 a 105.1005,105.1005 0 0 1 -11.06641,-6.3164 z m 115.72071,0.0117 a 105.1005,105.1005 0 0 1 -11.0625,6.38868 c 0.43047,2.0573 0.8673,4.17287 0.83593,4.14453 -0.071,-0.0641 9.58675,0.96603 9.50391,1.01367 -0.0829,0.0476 3.88266,-8.81618 3.90234,-8.72266 0.009,0.0416 -1.60746,-1.40716 -3.17968,-2.82422 z m -24.66407,11.91211 a 105.1005,105.1005 0 0 1 -12.27539,3.30469 c -0.1192,2.15102 -0.24805,4.34287 -0.27148,4.30664 -0.0518,-0.0802 9.01033,3.41488 8.91797,3.43946 -0.0924,0.0246 6.03057,-7.51341 6.02539,-7.41797 -0.002,0.0435 -1.21251,-1.807 -2.39649,-3.63282 z m -66.42773,0.0352 c -1.16943,1.78912 -2.37088,3.61313 -2.37305,3.57031 -0.004,-0.0954 6.09228,7.4624 6,7.4375 -0.0924,-0.0249 8.98189,-3.49022 8.92969,-3.41015 -0.0231,0.0354 -0.141,-2.11935 -0.25,-4.2168 a 105.1005,105.1005 0 0 1 -12.30664,-3.38086 z m 26.87304,5.16797 c -0.67492,2.05706 -1.3695,4.14866 -1.38281,4.10742 -0.0294,-0.091 7.81628,5.63102 7.72071,5.63086 -0.0955,-1.7e-4 7.77383,-5.69435 7.74414,-5.60352 -0.0132,0.0405 -0.69096,-2.02457 -1.34571,-4.04296 a 105.1005,105.1005 0 0 1 -6.38281,0.22656 105.1005,105.1005 0 0 1 -6.35352,-0.31836 z"
           transform="translate(0,-542.12598)"
           id="path4374"
           inkscape:connector-curvature="0" />
      </g>
      <path
         sodipodi:nodetypes="cccccccccccccccccccc"
         inkscape:connector-curvature="0"
         id="path4388"
         d="m 704.57224,48.353234 -123.75437,106.055316 -247.50472,42.42374 0,52.93803 0,10.69558 0,52.93802 247.50472,42.42172 123.75437,106.05735 185.62754,0 329.25902,-190.9008 -61.1266,0 -144.3781,63.6336 -144.37804,0 -77.30216,-79.49768 77.30216,-79.49769 144.37804,0 144.3781,63.6336 61.1266,0 L 890.19978,48.353234 Z"
         style="fill:#000000;fill-rule:evenodd;stroke:#000000;stroke-width:1.04581392px;stroke-linecap:butt;stroke-linejoin:miter;stroke-opacity:1" />
      <path
         sodipodi:nodetypes="cccccccccccccccccccc"
         style="fill:url(#linearGradient4413);fill-opacity:1;fill-rule:evenodd;stroke:#000000;stroke-width:1.04581392px;stroke-linecap:butt;stroke-linejoin:miter;stroke-opacity:1"
         d="m 704.57224,48.353234 -123.75437,106.055316 -247.50472,42.42374 0,52.93803 0,10.69558 0,52.93802 247.50472,42.42172 123.75437,106.05735 185.62754,0 331.25902,-190.9008 -63.1266,0 -144.3781,63.6336 -144.37804,0 -77.30216,-79.49768 77.30216,-79.49769 144.37804,0 144.3781,63.6336 63.1266,0 L 890.19978,48.353234 Z"
         id="path4405"
         inkscape:connector-curvature="0" />
      <path
         sodipodi:nodetypes="cccccccccccccc"
         inkscape:connector-curvature="0"
         id="path4421"
         d="m 774.66978,145.11816 c -72.16018,0.003 -194.75467,9.87695 -194.75467,9.87695 l 0,199.88086 c 0,0 121.75672,10.20542 194.75467,10.24219 228.04712,-0.0681 421.40842,-40.13544 454.29522,-94.13672 l -70.4976,0 -144.1028,63.63477 -144.1007,0 -77.15485,-79.49805 77.15485,-79.49805 144.1007,0 144.1028,63.63477 70.6264,0 C 1196.1997,185.24204 1002.7658,145.171 774.66978,145.11816 Z"
         style="opacity:1;fill:url(#linearGradient4432);fill-opacity:1;fill-rule:evenodd;stroke:none;stroke-width:0.5;stroke-linecap:round;stroke-linejoin:round;stroke-miterlimit:4;stroke-dasharray:none;stroke-dashoffset:0;stroke-opacity:1" />
      <path
         inkscape:connector-curvature="0"
         id="path4434"
         transform="translate(0,-542.12598)"
         d="m 704.45898,599.47461 -7.92968,7.13672 214.41015,0 -12.32617,-7.13672 -194.1543,0 z m -10.57226,9.51562 -7.92774,7.13477 241.41407,0 -12.32422,-7.13477 -221.16211,0 z m -10.57031,9.51368 -7.92774,7.13476 268.41602,0 -12.32227,-7.13476 -248.16601,0 z m -10.57032,9.51367 -7.92968,7.13672 295.42578,0 -12.32813,-7.13672 -275.16797,0 z m -10.57421,9.51562 -7.92774,7.13477 322.42969,0 -12.32422,-7.13477 -302.17773,0 z m -10.57032,9.51368 -7.92968,7.13671 349.4375,0 -12.32618,-7.13671 -329.18164,0 z m -10.57226,9.51562 -7.92774,7.13477 376.44144,0 -12.32425,-7.13477 -356.18945,0 z m -10.57227,9.51367 -7.92578,7.13477 47.6875,0 57.07813,-7.13477 -96.83985,0 z m 257.48242,0 35.67383,7.13477 102.36132,0 -12.3223,-7.13477 -125.71285,0 z"
         style="fill:url(#linearGradient4460);fill-opacity:1;fill-rule:evenodd;stroke:none;stroke-width:1px;stroke-linecap:butt;stroke-linejoin:miter;stroke-opacity:1" />
      <path
         inkscape:connector-curvature="0"
         style="fill:url(#linearGradient4464);fill-opacity:1;fill-rule:evenodd;stroke:none;stroke-width:1px;stroke-linecap:butt;stroke-linejoin:miter;stroke-opacity:1"
         d="m 704.45896,452.77993 -7.92968,-7.13672 214.41015,0 -12.32617,7.13672 -194.1543,0 z m -10.57226,-9.51562 -7.92774,-7.13477 241.41407,0 -12.32422,7.13477 -221.16211,0 z m -10.57031,-9.51368 -7.92774,-7.13476 268.41602,0 -12.32227,7.13476 -248.16601,0 z m -10.57032,-9.51367 -7.92968,-7.13672 295.42578,0 -12.32813,7.13672 -275.16797,0 z m -10.57421,-9.51562 -7.92774,-7.13477 322.42969,0 -12.32422,7.13477 -302.17773,0 z m -10.57032,-9.51368 -7.92968,-7.13671 349.43753,0 -12.32621,7.13671 -329.18164,0 z m -10.57226,-9.51562 -7.92774,-7.13477 376.44146,0 -12.32431,7.13477 -356.18941,0 z m -10.57227,-9.51367 -7.92578,-7.13477 47.6875,0 57.07813,7.13477 -96.83985,0 z m 257.48242,0 35.67383,-7.13477 102.36134,0 -12.3223,7.13477 -125.71287,0 z"
         id="path4462" />
      <path
         inkscape:connector-curvature="0"
         id="path4466"
         transform="translate(0,-542.12598)"
         d="m 580,699.48828 -28.36328,4.63086 28.36328,0 0,-4.63086 z m -58.98828,9.63086 -79.625,13 138.61328,0 0,-13 -58.98828,0 z m -110.25,18 L 335,739.48828 l 0,0.63086 245,0 0,-13 -169.23828,0 z m -75.76172,18 0,13 245,0 0,-13 -245,0 z m 0,18 0,13 245,0 0,-13 -245,0 z m 0,18 0,12.99805 245,0 0,-12.99805 -245,0 z m 0,17.99805 0,13 245,0 0,-13 -245,0 z m 0,18 0,13 245,0 0,-13 -245,0 z m 0,18 0,13 245,0 0,-13 -245,0 z m 0,18 0,1.37109 71.21484,11.62695 173.78516,0 0,-12.99804 -245,0 z m 101.83984,17.99804 79.625,13 63.53516,0 0,-13 -143.16016,0 z m 110.25,18 32.91016,5.37305 0,-5.37305 -32.91016,0 z"
         style="fill:url(#linearGradient4474);fill-opacity:1;fill-rule:evenodd;stroke:none;stroke-width:1px;stroke-linecap:butt;stroke-linejoin:miter;stroke-opacity:1" />
      <path
         inkscape:connector-curvature="0"
         id="path4502"
         transform="translate(0,-542.12598)"
         d="m 581.42188,699.74414 0,4.63086 28.36328,0 -28.36328,-4.63086 z m 0,9.63086 0,13 138.61328,0 -79.625,-13 -58.98828,0 z m 0,18 0,13 245,0 0,-0.63086 -75.76172,-12.36914 -169.23828,0 z m 0,18 0,13 245,0 0,-13 -245,0 z m 0,18 0,13 231.9414,0 12.61719,-13 -244.55859,0 z m 0,18 0,12.99805 214.4746,0 12.61329,-12.99805 -227.08789,0 z m 0,17.99805 0,13 226.37109,0 -12.61719,-13 -213.7539,0 z m 0,18 0,13 243.83984,0 -12.61719,-13 -231.22265,0 z m 0,18 0,13 245,0 0,-13 -245,0 z m 0,18 0,12.99804 173.78515,0 71.21485,-11.62695 0,-1.37109 -245,0 z m 0,17.99804 0,13 63.53515,0 79.625,-13 -143.16015,0 z m 0,18 0,5.37305 32.91015,-5.37305 -32.91015,0 z"
         style="fill:url(#linearGradient4504);fill-opacity:1;fill-rule:evenodd;stroke:none;stroke-width:1px;stroke-linecap:butt;stroke-linejoin:miter;stroke-opacity:1" />
    </g>
  </g>
  <g
     inkscape:groupmode="layer"
     id="layer3"
     inkscape:label="canon"
     sodipodi:insensitive="true"
     style="display:none">
    <g
       id="g4756"
       inkscape:transform-center-x="-239.54077"
       inkscape:transform-center-y="2.9796691e-005">
      <rect
         ry="0"
         y="776.63971"
         x="590"
         height="41.208851"
         width="407.42242"
         id="rect4734"
         style="opacity:1;fill:url(#linearGradient4742);fill-opacity:1;fill-rule:evenodd;stroke:none;stroke-width:2;stroke-linecap:round;stroke-linejoin:round;stroke-miterlimit:4;stroke-dasharray:none;stroke-dashoffset:0;stroke-opacity:1" />
      <path
         id="path4648"
         d="M 570.04297,731.16406 C 486.64693,740.71888 460,766.69364 460,797.24414 c 0,30.5505 26.64693,56.52526 110.04297,66.08008 1.21284,-19.36524 17.19938,-34.5957 36.88086,-34.5957 l 339.05664,0 C 973.27945,819.26366 990,808.56907 990,797.24414 c 0,-11.32493 -16.72055,-22.01952 -44.01953,-31.48437 l -339.05664,0 c -19.68148,0 -35.66802,-15.23047 -36.88086,-34.59571 z M 607.5,772.8418 a 12.5,5 0 0 1 12.5,5 12.5,5 0 0 1 -12.5,5 12.5,5 0 0 1 -12.5,-5 12.5,5 0 0 1 12.5,-5 z m 28.80273,0 a 12.5,5 0 0 1 12.5,5 12.5,5 0 0 1 -12.5,5 12.5,5 0 0 1 -12.5,-5 12.5,5 0 0 1 12.5,-5 z m 28.80079,0 a 12.5,5 0 0 1 12.5,5 12.5,5 0 0 1 -12.5,5 12.5,5 0 0 1 -12.5,-5 12.5,5 0 0 1 12.5,-5 z m 28.80273,0 a 12.5,5 0 0 1 12.5,5 12.5,5 0 0 1 -12.5,5 12.5,5 0 0 1 -12.5,-5 12.5,5 0 0 1 12.5,-5 z m 28.80273,0 a 12.5,5 0 0 1 12.5,5 12.5,5 0 0 1 -12.5,5 12.5,5 0 0 1 -12.5,-5 12.5,5 0 0 1 12.5,-5 z m 28.80274,0 a 12.5,5 0 0 1 12.5,5 12.5,5 0 0 1 -12.5,5 12.5,5 0 0 1 -12.5,-5 12.5,5 0 0 1 12.5,-5 z m 28.80078,0 a 12.5,5 0 0 1 12.5,5 12.5,5 0 0 1 -12.5,5 12.5,5 0 0 1 -12.5,-5 12.5,5 0 0 1 12.5,-5 z m 28.80273,0 a 12.5,5 0 0 1 12.5,5 12.5,5 0 0 1 -12.5,5 12.5,5 0 0 1 -12.5,-5 12.5,5 0 0 1 12.5,-5 z m 28.80274,0 a 12.5,5 0 0 1 12.5,5 12.5,5 0 0 1 -12.5,5 12.5,5 0 0 1 -12.5,-5 12.5,5 0 0 1 12.5,-5 z m 28.80078,0 a 12.5,5 0 0 1 12.5,5 12.5,5 0 0 1 -12.5,5 12.5,5 0 0 1 -12.5,-5 12.5,5 0 0 1 12.5,-5 z m 28.80273,0 a 12.5,5 0 0 1 12.5,5 12.5,5 0 0 1 -12.5,5 12.5,5 0 0 1 -12.5,-5 12.5,5 0 0 1 12.5,-5 z m 28.80274,0 a 12.5,5 0 0 1 12.5,5 12.5,5 0 0 1 -12.5,5 12.5,5 0 0 1 -12.5,-5 12.5,5 0 0 1 12.5,-5 z m 28.80273,0 a 12.5,5 0 0 1 12.5,5 12.5,5 0 0 1 -12.5,5 12.5,5 0 0 1 -12.5,-5 12.5,5 0 0 1 12.5,-5 z M 622.5,789.74414 a 7.5,7.5 0 0 1 7.5,7.5 7.5,7.5 0 0 1 -7.5,7.5 7.5,7.5 0 0 1 -7.5,-7.5 7.5,7.5 0 0 1 7.5,-7.5 z m 32.26758,0 a 7.5,7.5 0 0 1 7.5,7.5 7.5,7.5 0 0 1 -7.5,7.5 7.5,7.5 0 0 1 -7.5,-7.5 7.5,7.5 0 0 1 7.5,-7.5 z m 32.26758,0 a 7.5,7.5 0 0 1 7.5,7.5 7.5,7.5 0 0 1 -7.5,7.5 7.5,7.5 0 0 1 -7.5,-7.5 7.5,7.5 0 0 1 7.5,-7.5 z m 32.26562,0 a 7.5,7.5 0 0 1 7.5,7.5 7.5,7.5 0 0 1 -7.5,7.5 7.5,7.5 0 0 1 -7.5,-7.5 7.5,7.5 0 0 1 7.5,-7.5 z m 32.26758,0 a 7.5,7.5 0 0 1 7.5,7.5 7.5,7.5 0 0 1 -7.5,7.5 7.5,7.5 0 0 1 -7.5,-7.5 7.5,7.5 0 0 1 7.5,-7.5 z m 32.26758,0 a 7.5,7.5 0 0 1 7.5,7.5 7.5,7.5 0 0 1 -7.5,7.5 7.5,7.5 0 0 1 -7.5,-7.5 7.5,7.5 0 0 1 7.5,-7.5 z m 32.26758,0 a 7.5,7.5 0 0 1 7.5,7.5 7.5,7.5 0 0 1 -7.5,7.5 7.5,7.5 0 0 1 -7.5,-7.5 7.5,7.5 0 0 1 7.5,-7.5 z m 32.26757,0 a 7.5,7.5 0 0 1 7.5,7.5 7.5,7.5 0 0 1 -7.5,7.5 7.5,7.5 0 0 1 -7.5,-7.5 7.5,7.5 0 0 1 7.5,-7.5 z m 32.26563,0 a 7.5,7.5 0 0 1 7.5,7.5 7.5,7.5 0 0 1 -7.5,7.5 7.5,7.5 0 0 1 -7.5,-7.5 7.5,7.5 0 0 1 7.5,-7.5 z m 32.26758,0 a 7.5,7.5 0 0 1 7.5,7.5 7.5,7.5 0 0 1 -7.5,7.5 7.5,7.5 0 0 1 -7.5,-7.5 7.5,7.5 0 0 1 7.5,-7.5 z m 32.26758,0 a 7.5,7.5 0 0 1 7.5,7.5 7.5,7.5 0 0 1 -7.5,7.5 7.5,7.5 0 0 1 -7.5,-7.5 7.5,7.5 0 0 1 7.5,-7.5 z m 32.26757,0 a 7.5,7.5 0 0 1 7.5,7.5 7.5,7.5 0 0 1 -7.5,7.5 7.5,7.5 0 0 1 -7.5,-7.5 7.5,7.5 0 0 1 7.5,-7.5 z M 607.5,811.64648 a 12.5,5 0 0 1 12.5,5 12.5,5 0 0 1 -12.5,5 12.5,5 0 0 1 -12.5,-5 12.5,5 0 0 1 12.5,-5 z m 28.80273,0 a 12.5,5 0 0 1 12.5,5 12.5,5 0 0 1 -12.5,5 12.5,5 0 0 1 -12.5,-5 12.5,5 0 0 1 12.5,-5 z m 28.80079,0 a 12.5,5 0 0 1 12.5,5 12.5,5 0 0 1 -12.5,5 12.5,5 0 0 1 -12.5,-5 12.5,5 0 0 1 12.5,-5 z m 28.80273,0 a 12.5,5 0 0 1 12.5,5 12.5,5 0 0 1 -12.5,5 12.5,5 0 0 1 -12.5,-5 12.5,5 0 0 1 12.5,-5 z m 28.80273,0 a 12.5,5 0 0 1 12.5,5 12.5,5 0 0 1 -12.5,5 12.5,5 0 0 1 -12.5,-5 12.5,5 0 0 1 12.5,-5 z m 28.80274,0 a 12.5,5 0 0 1 12.5,5 12.5,5 0 0 1 -12.5,5 12.5,5 0 0 1 -12.5,-5 12.5,5 0 0 1 12.5,-5 z m 28.80078,0 a 12.5,5 0 0 1 12.5,5 12.5,5 0 0 1 -12.5,5 12.5,5 0 0 1 -12.5,-5 12.5,5 0 0 1 12.5,-5 z m 28.80273,0 a 12.5,5 0 0 1 12.5,5 12.5,5 0 0 1 -12.5,5 12.5,5 0 0 1 -12.5,-5 12.5,5 0 0 1 12.5,-5 z m 28.80274,0 a 12.5,5 0 0 1 12.5,5 12.5,5 0 0 1 -12.5,5 12.5,5 0 0 1 -12.5,-5 12.5,5 0 0 1 12.5,-5 z m 28.80078,0 a 12.5,5 0 0 1 12.5,5 12.5,5 0 0 1 -12.5,5 12.5,5 0 0 1 -12.5,-5 12.5,5 0 0 1 12.5,-5 z m 28.80273,0 a 12.5,5 0 0 1 12.5,5 12.5,5 0 0 1 -12.5,5 12.5,5 0 0 1 -12.5,-5 12.5,5 0 0 1 12.5,-5 z m 28.80274,0 a 12.5,5 0 0 1 12.5,5 12.5,5 0 0 1 -12.5,5 12.5,5 0 0 1 -12.5,-5 12.5,5 0 0 1 12.5,-5 z m 28.80273,0 a 12.5,5 0 0 1 12.5,5 12.5,5 0 0 1 -12.5,5 12.5,5 0 0 1 -12.5,-5 12.5,5 0 0 1 12.5,-5 z"
         style="opacity:1;fill:url(#linearGradient4671);fill-opacity:1;fill-rule:evenodd;stroke:#000000;stroke-width:2;stroke-linecap:round;stroke-linejoin:round;stroke-miterlimit:4;stroke-dasharray:none;stroke-dashoffset:0;stroke-opacity:1"
         inkscape:connector-curvature="0" />
      <rect
         y="767.24414"
         x="994.30853"
         height="60"
         width="85"
         id="rect4746"
         style="opacity:1;fill:url(#linearGradient4754);fill-opacity:1;fill-rule:evenodd;stroke:none;stroke-width:2;stroke-linecap:round;stroke-linejoin:round;stroke-miterlimit:4;stroke-dasharray:none;stroke-dashoffset:0;stroke-opacity:1" />
    </g>
  </g>
</svg>
