<?xml version="1.0" encoding="UTF-8" standalone="no"?>
<!-- Created with Inkscape (http://www.inkscape.org/) -->

<svg
   xmlns:dc="http://purl.org/dc/elements/1.1/"
   xmlns:cc="http://creativecommons.org/ns#"
   xmlns:rdf="http://www.w3.org/1999/02/22-rdf-syntax-ns#"
   xmlns:svg="http://www.w3.org/2000/svg"
   xmlns="http://www.w3.org/2000/svg"
   xmlns:xlink="http://www.w3.org/1999/xlink"
   xmlns:sodipodi="http://sodipodi.sourceforge.net/DTD/sodipodi-0.dtd"
   xmlns:inkscape="http://www.inkscape.org/namespaces/inkscape"
   width="450mm"
   height="450mm"
   viewBox="0 0 1594.4882 1594.4882"
   id="svg2"
   version="1.1"
   inkscape:version="0.91 r13725"
   sodipodi:docname="enemigo1.svg"
   inkscape:export-filename="C:\Users\pc\Desktop\naves.png"
   inkscape:export-xdpi="14.449778"
   inkscape:export-ydpi="14.449778">
  <defs
     id="defs4">
    <linearGradient
       inkscape:collect="always"
       id="linearGradient4360">
      <stop
         style="stop-color:#0e0e00;stop-opacity:1"
         offset="0"
         id="stop4362" />
      <stop
         id="stop4368"
         offset="0.5"
         style="stop-color:#b7b7b7;stop-opacity:1" />
      <stop
         style="stop-color:#000000;stop-opacity:1"
         offset="1"
         id="stop4364" />
    </linearGradient>
    <linearGradient
       inkscape:collect="always"
       id="linearGradient4273">
      <stop
         style="stop-color:#710303;stop-opacity:1"
         offset="0"
         id="stop4275" />
      <stop
         id="stop4281"
         offset="0.5"
         style="stop-color:#ff0000;stop-opacity:1" />
      <stop
         style="stop-color:#710303;stop-opacity:1"
         offset="1"
         id="stop4277" />
    </linearGradient>
    <linearGradient
       inkscape:collect="always"
       id="linearGradient4235">
      <stop
         style="stop-color:#23fff0;stop-opacity:1"
         offset="0"
         id="stop4237" />
      <stop
         style="stop-color:#5f908e;stop-opacity:1"
         offset="1"
         id="stop4239" />
    </linearGradient>
    <linearGradient
       inkscape:collect="always"
       id="linearGradient4186">
      <stop
         style="stop-color:#b1b1b1;stop-opacity:1"
         offset="0"
         id="stop4188" />
      <stop
         style="stop-color:#4c4c4c;stop-opacity:1"
         offset="1"
         id="stop4190" />
    </linearGradient>
    <radialGradient
       inkscape:collect="always"
       xlink:href="#linearGradient4186"
       id="radialGradient4192"
       cx="838.45416"
       cy="74.194862"
       fx="838.45416"
       fy="74.194862"
       r="66.292873"
       gradientUnits="userSpaceOnUse" />
    <radialGradient
       inkscape:collect="always"
       xlink:href="#linearGradient4186"
       id="radialGradient4221"
       gradientUnits="userSpaceOnUse"
       cx="838.45416"
       cy="74.194862"
       fx="838.45416"
       fy="74.194862"
       r="66.292873" />
    <radialGradient
       inkscape:collect="always"
       xlink:href="#linearGradient4235"
       id="radialGradient4241"
       cx="707.0625"
       cy="423.83701"
       fx="707.0625"
       fy="423.83701"
       r="108.26184"
       gradientTransform="matrix(0,0.61087598,-2.9747908,4.1356916e-8,2282.9794,-177.12878)"
       gradientUnits="userSpaceOnUse" />
    <linearGradient
       inkscape:collect="always"
       xlink:href="#linearGradient4273"
       id="linearGradient4279"
       x1="600"
       y1="629.33984"
       x2="840"
       y2="629.33984"
       gradientUnits="userSpaceOnUse"
       gradientTransform="matrix(0,1.1022425,-1.1022425,0,1523.1091,-538.81586)" />
    <linearGradient
       inkscape:collect="always"
       xlink:href="#linearGradient4360"
       id="linearGradient4463"
       gradientUnits="userSpaceOnUse"
       x1="1340"
       y1="409.48816"
       x2="1340"
       y2="564.48816" />
    <linearGradient
       inkscape:collect="always"
       xlink:href="#linearGradient4273"
       id="linearGradient4465"
       gradientUnits="userSpaceOnUse"
       x1="1320"
       y1="482.55957"
       x2="1385"
       y2="482.55957" />
    <linearGradient
       inkscape:collect="always"
       xlink:href="#linearGradient4360"
       id="linearGradient4467"
       gradientUnits="userSpaceOnUse"
       x1="1330"
       y1="544.48816"
       x2="1330"
       y2="404.48816" />
    <linearGradient
       inkscape:collect="always"
       xlink:href="#linearGradient4273"
       id="linearGradient4469"
       gradientUnits="userSpaceOnUse"
       gradientTransform="matrix(0.79725339,0,0,1,277.5049,-1.8840976)"
       x1="1320"
       y1="539.48816"
       x2="1320"
       y2="409.48816" />
    <linearGradient
       inkscape:collect="always"
       xlink:href="#linearGradient4360"
       id="linearGradient4491"
       gradientUnits="userSpaceOnUse"
       x1="1340"
       y1="409.48816"
       x2="1340"
       y2="564.48816" />
    <linearGradient
       inkscape:collect="always"
       xlink:href="#linearGradient4273"
       id="linearGradient4493"
       gradientUnits="userSpaceOnUse"
       x1="1320"
       y1="482.55957"
       x2="1385"
       y2="482.55957" />
    <linearGradient
       inkscape:collect="always"
       xlink:href="#linearGradient4360"
       id="linearGradient4495"
       gradientUnits="userSpaceOnUse"
       x1="1330"
       y1="544.48816"
       x2="1330"
       y2="404.48816" />
    <linearGradient
       inkscape:collect="always"
       xlink:href="#linearGradient4273"
       id="linearGradient4497"
       gradientUnits="userSpaceOnUse"
       gradientTransform="matrix(0.79725339,0,0,1,277.5049,-1.8840976)"
       x1="1320"
       y1="539.48816"
       x2="1320"
       y2="409.48816" />
    <linearGradient
       inkscape:collect="always"
       xlink:href="#linearGradient4360"
       id="linearGradient4519"
       gradientUnits="userSpaceOnUse"
       x1="1340"
       y1="409.48816"
       x2="1340"
       y2="564.48816" />
    <linearGradient
       inkscape:collect="always"
       xlink:href="#linearGradient4273"
       id="linearGradient4521"
       gradientUnits="userSpaceOnUse"
       x1="1320"
       y1="482.55957"
       x2="1385"
       y2="482.55957" />
    <linearGradient
       inkscape:collect="always"
       xlink:href="#linearGradient4360"
       id="linearGradient4523"
       gradientUnits="userSpaceOnUse"
       x1="1330"
       y1="544.48816"
       x2="1330"
       y2="404.48816" />
    <linearGradient
       inkscape:collect="always"
       xlink:href="#linearGradient4273"
       id="linearGradient4525"
       gradientUnits="userSpaceOnUse"
       gradientTransform="matrix(0.79725339,0,0,1,277.5049,-1.8840976)"
       x1="1320"
       y1="539.48816"
       x2="1320"
       y2="409.48816" />
    <linearGradient
       inkscape:collect="always"
       xlink:href="#linearGradient4360"
       id="linearGradient4653"
       x1="680.63867"
       y1="874.10229"
       x2="762.99023"
       y2="874.10229"
       gradientUnits="userSpaceOnUse"
       gradientTransform="matrix(0,1.1022425,-1.1022425,0,1523.1091,-538.81586)" />
    <linearGradient
       inkscape:collect="always"
       xlink:href="#linearGradient4360"
       id="linearGradient4589"
       gradientUnits="userSpaceOnUse"
       x1="1340"
       y1="409.48816"
       x2="1340"
       y2="564.48816" />
    <linearGradient
       inkscape:collect="always"
       xlink:href="#linearGradient4273"
       id="linearGradient4591"
       gradientUnits="userSpaceOnUse"
       x1="1320"
       y1="482.55957"
       x2="1385"
       y2="482.55957" />
    <linearGradient
       inkscape:collect="always"
       xlink:href="#linearGradient4360"
       id="linearGradient4593"
       gradientUnits="userSpaceOnUse"
       x1="1330"
       y1="544.48816"
       x2="1330"
       y2="404.48816" />
    <linearGradient
       inkscape:collect="always"
       xlink:href="#linearGradient4273"
       id="linearGradient4595"
       gradientUnits="userSpaceOnUse"
       gradientTransform="matrix(0.79725339,0,0,1,277.5049,-1.8840976)"
       x1="1320"
       y1="539.48816"
       x2="1320"
       y2="409.48816" />
    <linearGradient
       inkscape:collect="always"
       xlink:href="#linearGradient4360"
       id="linearGradient4617"
       gradientUnits="userSpaceOnUse"
       x1="1340"
       y1="409.48816"
       x2="1340"
       y2="564.48816" />
    <linearGradient
       inkscape:collect="always"
       xlink:href="#linearGradient4273"
       id="linearGradient4619"
       gradientUnits="userSpaceOnUse"
       x1="1320"
       y1="482.55957"
       x2="1385"
       y2="482.55957" />
    <linearGradient
       inkscape:collect="always"
       xlink:href="#linearGradient4360"
       id="linearGradient4621"
       gradientUnits="userSpaceOnUse"
       x1="1330"
       y1="544.48816"
       x2="1330"
       y2="404.48816" />
    <linearGradient
       inkscape:collect="always"
       xlink:href="#linearGradient4273"
       id="linearGradient4623"
       gradientUnits="userSpaceOnUse"
       gradientTransform="matrix(0.79725339,0,0,1,277.5049,-1.8840976)"
       x1="1320"
       y1="539.48816"
       x2="1320"
       y2="409.48816" />
    <linearGradient
       inkscape:collect="always"
       xlink:href="#linearGradient4273"
       id="linearGradient4895"
       x1="694.26367"
       y1="-389.48297"
       x2="754.26367"
       y2="-389.48297"
       gradientUnits="userSpaceOnUse"
       gradientTransform="matrix(1,0,0,0.62118014,0,410.93003)" />
    <linearGradient
       inkscape:collect="always"
       xlink:href="#linearGradient4360"
       id="linearGradient4923"
       x1="699.26367"
       y1="-399.19458"
       x2="749.26367"
       y2="-399.19458"
       gradientUnits="userSpaceOnUse" />
    <linearGradient
       inkscape:collect="always"
       xlink:href="#linearGradient4273"
       id="linearGradient4933"
       x1="689.26367"
       y1="-465.13782"
       x2="759.26367"
       y2="-465.13782"
       gradientUnits="userSpaceOnUse"
       gradientTransform="matrix(1,0,0,1.059013,0,28.186823)" />
  </defs>
  <sodipodi:namedview
     id="base"
     pagecolor="#ffffff"
     bordercolor="#666666"
     borderopacity="1.0"
     inkscape:pageopacity="0.0"
     inkscape:pageshadow="2"
     inkscape:zoom="0.38525574"
     inkscape:cx="752.70161"
     inkscape:cy="802.0262"
     inkscape:document-units="px"
     inkscape:current-layer="layer4"
     showgrid="true"
     height="450mm"
     inkscape:window-width="1360"
     inkscape:window-height="716"
     inkscape:window-x="-8"
     inkscape:window-y="-8"
     inkscape:window-maximized="1">
    <inkscape:grid
       type="xygrid"
       id="grid4133" />
  </sodipodi:namedview>
  <metadata
     id="metadata7">
    <rdf:RDF>
      <cc:Work
         rdf:about="">
        <dc:format>image/svg+xml</dc:format>
        <dc:type
           rdf:resource="http://purl.org/dc/dcmitype/StillImage" />
        <dc:title />
      </cc:Work>
    </rdf:RDF>
  </metadata>
  <g
     inkscape:groupmode="layer"
     id="layer2"
     inkscape:label="turbinas"
     sodipodi:insensitive="true"
     style="display:inline" />
  <g
     inkscape:label="Capa 1"
     inkscape:groupmode="layer"
     id="layer1"
     transform="translate(0,542.12598)"
     sodipodi:insensitive="true"
     style="display:inline">
    <g
       transform="matrix(-0.63470222,0,0,-0.63470222,966.77722,503.53384)"
       id="g4443">
      <g
         id="g4445"
         transform="translate(-108.57904,-86.596783)">
        <g
           transform="translate(30.060441,-11.71186)"
           id="g4447">
          <path
             style="opacity:1;fill:url(#linearGradient4463);fill-opacity:1;stroke:none;stroke-width:4.22732687;stroke-miterlimit:4;stroke-dasharray:none;stroke-dashoffset:0;stroke-opacity:1"
             d="m 1315.6016,413.75839 0,142.36201 46.9336,18.7546 c 7.5772,3.02785 14.7285,-6.57061 14.7285,-14.73047 l 0,-147.28906 c 0,-8.15986 -6.5687,-14.72852 -14.7285,-14.72852 z"
             id="path4449"
             inkscape:connector-curvature="0"
             sodipodi:nodetypes="ccssssc" />
          <path
             inkscape:connector-curvature="0"
             style="opacity:1;fill:url(#linearGradient4465);fill-opacity:1;stroke:none;stroke-width:5;stroke-miterlimit:4;stroke-dasharray:none;stroke-dashoffset:0;stroke-opacity:1"
             d="m 1374.7148,410.05859 -20.5546,5.85547 0,15 20.5546,-5.85547 0,-15 z m 0,24.82813 -20.5546,5.85742 0,15 20.5546,-5.85742 0,-15 z m 0,24.83008 -20.5546,5.85547 0,15 20.5546,-5.85547 0,-15 z m 0,24.82812 -20.5546,5.85742 0,15 20.5546,-5.85742 0,-15 z m 0,24.83008 -20.5546,5.85547 0,15 20.5546,-5.85547 0,-15 z m 0,24.82812 -20.5546,5.85743 0,15 20.5546,-5.85743 0,-15 z"
             id="path4451" />
        </g>
        <rect
           y="401.7554"
           x="1306.5615"
           height="143.12317"
           width="40"
           id="rect4453"
           style="opacity:1;fill:url(#linearGradient4467);fill-opacity:1;stroke:none;stroke-width:5;stroke-miterlimit:4;stroke-dasharray:none;stroke-dashoffset:0;stroke-opacity:1" />
        <path
           inkscape:connector-curvature="0"
           id="path4455"
           d="m 1314.7564,407.2741 c -0.8833,0 -1.5945,0.892 -1.5945,2 l 0,1 c 0,1.108 0.7112,2 1.5945,2 l 29.2244,0 c 0.8833,0 1.5945,-0.892 1.5945,-2 l 0,-1 c 0,-1.108 -0.7112,-2 -1.5945,-2 l -29.2244,0 z m 0,20.80469 c -0.8833,0 -1.5945,0.892 -1.5945,2 l 0,1 c 0,1.108 0.7112,2 1.5945,2 l 29.2244,0 c 0.8833,0 1.5945,-0.892 1.5945,-2 l 0,-1 c 0,-1.108 -0.7112,-2 -1.5945,-2 l -29.2244,0 z m 0,20.80273 c -0.8833,0 -1.5945,0.892 -1.5945,2 l 0,1 c 0,1.10801 0.7112,2 1.5945,2 l 29.2244,0 c 0.8833,10e-6 1.5945,-0.89199 1.5945,-2 l 0,-1 c 0,-1.108 -0.7112,-2 -1.5945,-2 l -29.2244,0 z m 0,20.80469 c -0.8833,0 -1.5945,0.892 -1.5945,2 l 0,1 c 0,1.108 0.7112,2 1.5945,2 l 29.2244,0 c 0.8833,0 1.5945,-0.892 1.5945,-2 l 0,-1 c 0,-1.108 -0.7112,-2 -1.5945,-2 l -29.2244,0 z m 0,20.80274 c -0.8833,0 -1.5945,0.892 -1.5945,2 l 0,1 c 0,1.108 0.7112,2 1.5945,2 l 29.2244,0 c 0.8833,0 1.5945,-0.892 1.5945,-2 l 0,-1 c 0,-1.108 -0.7112,-2 -1.5945,-2 l -29.2244,0 z m 0,20.80468 c -0.8833,0 -1.5945,0.892 -1.5945,2 l 0,1 c 0,1.108 0.7112,2 1.5945,2 l 29.2244,0 c 0.8833,0 1.5945,-0.892 1.5945,-2 l 0,-1 c 0,-1.108 -0.7112,-2 -1.5945,-2 l -29.2244,0 z m 0,20.80274 c -0.8833,0 -1.5945,0.892 -1.5945,2 l 0,1 c 0,1.108 0.7112,2 1.5945,2 l 29.2244,0 c 0.8833,0 1.5945,-0.892 1.5945,-2 l 0,-1 c 0,-1.108 -0.7112,-2 -1.5945,-2 l -29.2244,0 z"
           style="opacity:0.53800001;fill:url(#linearGradient4469);fill-opacity:1;stroke:none;stroke-width:5;stroke-miterlimit:4;stroke-dasharray:none;stroke-dashoffset:0;stroke-opacity:1" />
      </g>
      <circle
         style="opacity:1;fill:#808080;fill-opacity:1;stroke:#000000;stroke-width:3;stroke-miterlimit:4;stroke-dasharray:none;stroke-dashoffset:0;stroke-opacity:0.45685281"
         id="circle4457"
         cx="1130"
         cy="384.48816"
         r="110" />
      <circle
         r="75.337097"
         cy="384.48816"
         cx="1130"
         id="circle4459"
         style="opacity:1;fill:none;fill-opacity:1;stroke:#f1ff00;stroke-width:5;stroke-miterlimit:4;stroke-dasharray:5, 10;stroke-dashoffset:0;stroke-opacity:1" />
      <circle
         style="opacity:1;fill:#000000;fill-opacity:1;stroke:#fd0000;stroke-width:5;stroke-miterlimit:4;stroke-dasharray:none;stroke-dashoffset:0;stroke-opacity:1"
         id="circle4461"
         cx="1130"
         cy="384.48816"
         r="40" />
    </g>
    <g
       transform="matrix(-0.51012763,0,0,-0.51012763,1346.8526,587.06456)"
       id="g4471"
       inkscape:transform-center-x="-1.3322582"
       inkscape:transform-center-y="12.33746">
      <g
         id="g4473"
         transform="translate(-108.57904,-86.596783)">
        <g
           transform="translate(30.060441,-11.71186)"
           id="g4475">
          <path
             style="opacity:1;fill:url(#linearGradient4491);fill-opacity:1;stroke:none;stroke-width:4.22732687;stroke-miterlimit:4;stroke-dasharray:none;stroke-dashoffset:0;stroke-opacity:1"
             d="m 1315.6016,413.75839 0,142.36201 46.9336,18.7546 c 7.5772,3.02785 14.7285,-6.57061 14.7285,-14.73047 l 0,-147.28906 c 0,-8.15986 -6.5687,-14.72852 -14.7285,-14.72852 z"
             id="path4477"
             inkscape:connector-curvature="0"
             sodipodi:nodetypes="ccssssc" />
          <path
             inkscape:connector-curvature="0"
             style="opacity:1;fill:url(#linearGradient4493);fill-opacity:1;stroke:none;stroke-width:5;stroke-miterlimit:4;stroke-dasharray:none;stroke-dashoffset:0;stroke-opacity:1"
             d="m 1374.7148,410.05859 -20.5546,5.85547 0,15 20.5546,-5.85547 0,-15 z m 0,24.82813 -20.5546,5.85742 0,15 20.5546,-5.85742 0,-15 z m 0,24.83008 -20.5546,5.85547 0,15 20.5546,-5.85547 0,-15 z m 0,24.82812 -20.5546,5.85742 0,15 20.5546,-5.85742 0,-15 z m 0,24.83008 -20.5546,5.85547 0,15 20.5546,-5.85547 0,-15 z m 0,24.82812 -20.5546,5.85743 0,15 20.5546,-5.85743 0,-15 z"
             id="path4479" />
        </g>
        <rect
           y="401.7554"
           x="1306.5615"
           height="143.12317"
           width="40"
           id="rect4481"
           style="opacity:1;fill:url(#linearGradient4495);fill-opacity:1;stroke:none;stroke-width:5;stroke-miterlimit:4;stroke-dasharray:none;stroke-dashoffset:0;stroke-opacity:1" />
        <path
           inkscape:connector-curvature="0"
           id="path4483"
           d="m 1314.7564,407.2741 c -0.8833,0 -1.5945,0.892 -1.5945,2 l 0,1 c 0,1.108 0.7112,2 1.5945,2 l 29.2244,0 c 0.8833,0 1.5945,-0.892 1.5945,-2 l 0,-1 c 0,-1.108 -0.7112,-2 -1.5945,-2 l -29.2244,0 z m 0,20.80469 c -0.8833,0 -1.5945,0.892 -1.5945,2 l 0,1 c 0,1.108 0.7112,2 1.5945,2 l 29.2244,0 c 0.8833,0 1.5945,-0.892 1.5945,-2 l 0,-1 c 0,-1.108 -0.7112,-2 -1.5945,-2 l -29.2244,0 z m 0,20.80273 c -0.8833,0 -1.5945,0.892 -1.5945,2 l 0,1 c 0,1.10801 0.7112,2 1.5945,2 l 29.2244,0 c 0.8833,10e-6 1.5945,-0.89199 1.5945,-2 l 0,-1 c 0,-1.108 -0.7112,-2 -1.5945,-2 l -29.2244,0 z m 0,20.80469 c -0.8833,0 -1.5945,0.892 -1.5945,2 l 0,1 c 0,1.108 0.7112,2 1.5945,2 l 29.2244,0 c 0.8833,0 1.5945,-0.892 1.5945,-2 l 0,-1 c 0,-1.108 -0.7112,-2 -1.5945,-2 l -29.2244,0 z m 0,20.80274 c -0.8833,0 -1.5945,0.892 -1.5945,2 l 0,1 c 0,1.108 0.7112,2 1.5945,2 l 29.2244,0 c 0.8833,0 1.5945,-0.892 1.5945,-2 l 0,-1 c 0,-1.108 -0.7112,-2 -1.5945,-2 l -29.2244,0 z m 0,20.80468 c -0.8833,0 -1.5945,0.892 -1.5945,2 l 0,1 c 0,1.108 0.7112,2 1.5945,2 l 29.2244,0 c 0.8833,0 1.5945,-0.892 1.5945,-2 l 0,-1 c 0,-1.108 -0.7112,-2 -1.5945,-2 l -29.2244,0 z m 0,20.80274 c -0.8833,0 -1.5945,0.892 -1.5945,2 l 0,1 c 0,1.108 0.7112,2 1.5945,2 l 29.2244,0 c 0.8833,0 1.5945,-0.892 1.5945,-2 l 0,-1 c 0,-1.108 -0.7112,-2 -1.5945,-2 l -29.2244,0 z"
           style="opacity:0.53800001;fill:url(#linearGradient4497);fill-opacity:1;stroke:none;stroke-width:5;stroke-miterlimit:4;stroke-dasharray:none;stroke-dashoffset:0;stroke-opacity:1" />
      </g>
      <circle
         style="opacity:1;fill:#808080;fill-opacity:1;stroke:#000000;stroke-width:3;stroke-miterlimit:4;stroke-dasharray:none;stroke-dashoffset:0;stroke-opacity:0.45685281"
         id="circle4485"
         cx="1130"
         cy="384.48816"
         r="110" />
      <circle
         r="75.337097"
         cy="384.48816"
         cx="1130"
         id="circle4487"
         style="opacity:1;fill:none;fill-opacity:1;stroke:#f1ff00;stroke-width:5;stroke-miterlimit:4;stroke-dasharray:5, 10;stroke-dashoffset:0;stroke-opacity:1" />
      <circle
         style="opacity:1;fill:#000000;fill-opacity:1;stroke:#fd0000;stroke-width:5;stroke-miterlimit:4;stroke-dasharray:none;stroke-dashoffset:0;stroke-opacity:1"
         id="circle4489"
         cx="1130"
         cy="384.48816"
         r="40" />
    </g>
    <g
       inkscape:transform-center-y="12.33746"
       inkscape:transform-center-x="-1.3322582"
       id="g4499"
       transform="matrix(-0.51012763,0,0,-0.51012763,1346.8526,318.33428)">
      <g
         transform="translate(-108.57904,-86.596783)"
         id="g4501">
        <g
           id="g4503"
           transform="translate(30.060441,-11.71186)">
          <path
             sodipodi:nodetypes="ccssssc"
             inkscape:connector-curvature="0"
             id="path4505"
             d="m 1315.6016,413.75839 0,142.36201 46.9336,18.7546 c 7.5772,3.02785 14.7285,-6.57061 14.7285,-14.73047 l 0,-147.28906 c 0,-8.15986 -6.5687,-14.72852 -14.7285,-14.72852 z"
             style="opacity:1;fill:url(#linearGradient4519);fill-opacity:1;stroke:none;stroke-width:4.22732687;stroke-miterlimit:4;stroke-dasharray:none;stroke-dashoffset:0;stroke-opacity:1" />
          <path
             id="path4507"
             d="m 1374.7148,410.05859 -20.5546,5.85547 0,15 20.5546,-5.85547 0,-15 z m 0,24.82813 -20.5546,5.85742 0,15 20.5546,-5.85742 0,-15 z m 0,24.83008 -20.5546,5.85547 0,15 20.5546,-5.85547 0,-15 z m 0,24.82812 -20.5546,5.85742 0,15 20.5546,-5.85742 0,-15 z m 0,24.83008 -20.5546,5.85547 0,15 20.5546,-5.85547 0,-15 z m 0,24.82812 -20.5546,5.85743 0,15 20.5546,-5.85743 0,-15 z"
             style="opacity:1;fill:url(#linearGradient4521);fill-opacity:1;stroke:none;stroke-width:5;stroke-miterlimit:4;stroke-dasharray:none;stroke-dashoffset:0;stroke-opacity:1"
             inkscape:connector-curvature="0" />
        </g>
        <rect
           style="opacity:1;fill:url(#linearGradient4523);fill-opacity:1;stroke:none;stroke-width:5;stroke-miterlimit:4;stroke-dasharray:none;stroke-dashoffset:0;stroke-opacity:1"
           id="rect4509"
           width="40"
           height="143.12317"
           x="1306.5615"
           y="401.7554" />
        <path
           style="opacity:0.53800001;fill:url(#linearGradient4525);fill-opacity:1;stroke:none;stroke-width:5;stroke-miterlimit:4;stroke-dasharray:none;stroke-dashoffset:0;stroke-opacity:1"
           d="m 1314.7564,407.2741 c -0.8833,0 -1.5945,0.892 -1.5945,2 l 0,1 c 0,1.108 0.7112,2 1.5945,2 l 29.2244,0 c 0.8833,0 1.5945,-0.892 1.5945,-2 l 0,-1 c 0,-1.108 -0.7112,-2 -1.5945,-2 l -29.2244,0 z m 0,20.80469 c -0.8833,0 -1.5945,0.892 -1.5945,2 l 0,1 c 0,1.108 0.7112,2 1.5945,2 l 29.2244,0 c 0.8833,0 1.5945,-0.892 1.5945,-2 l 0,-1 c 0,-1.108 -0.7112,-2 -1.5945,-2 l -29.2244,0 z m 0,20.80273 c -0.8833,0 -1.5945,0.892 -1.5945,2 l 0,1 c 0,1.10801 0.7112,2 1.5945,2 l 29.2244,0 c 0.8833,10e-6 1.5945,-0.89199 1.5945,-2 l 0,-1 c 0,-1.108 -0.7112,-2 -1.5945,-2 l -29.2244,0 z m 0,20.80469 c -0.8833,0 -1.5945,0.892 -1.5945,2 l 0,1 c 0,1.108 0.7112,2 1.5945,2 l 29.2244,0 c 0.8833,0 1.5945,-0.892 1.5945,-2 l 0,-1 c 0,-1.108 -0.7112,-2 -1.5945,-2 l -29.2244,0 z m 0,20.80274 c -0.8833,0 -1.5945,0.892 -1.5945,2 l 0,1 c 0,1.108 0.7112,2 1.5945,2 l 29.2244,0 c 0.8833,0 1.5945,-0.892 1.5945,-2 l 0,-1 c 0,-1.108 -0.7112,-2 -1.5945,-2 l -29.2244,0 z m 0,20.80468 c -0.8833,0 -1.5945,0.892 -1.5945,2 l 0,1 c 0,1.108 0.7112,2 1.5945,2 l 29.2244,0 c 0.8833,0 1.5945,-0.892 1.5945,-2 l 0,-1 c 0,-1.108 -0.7112,-2 -1.5945,-2 l -29.2244,0 z m 0,20.80274 c -0.8833,0 -1.5945,0.892 -1.5945,2 l 0,1 c 0,1.108 0.7112,2 1.5945,2 l 29.2244,0 c 0.8833,0 1.5945,-0.892 1.5945,-2 l 0,-1 c 0,-1.108 -0.7112,-2 -1.5945,-2 l -29.2244,0 z"
           id="path4511"
           inkscape:connector-curvature="0" />
      </g>
      <circle
         r="110"
         cy="384.48816"
         cx="1130"
         id="circle4513"
         style="opacity:1;fill:#808080;fill-opacity:1;stroke:#000000;stroke-width:3;stroke-miterlimit:4;stroke-dasharray:none;stroke-dashoffset:0;stroke-opacity:0.45685281" />
      <circle
         style="opacity:1;fill:none;fill-opacity:1;stroke:#f1ff00;stroke-width:5;stroke-miterlimit:4;stroke-dasharray:5, 10;stroke-dashoffset:0;stroke-opacity:1"
         id="circle4515"
         cx="1130"
         cy="384.48816"
         r="75.337097" />
      <circle
         r="40"
         cy="384.48816"
         cx="1130"
         id="circle4517"
         style="opacity:1;fill:#000000;fill-opacity:1;stroke:#fd0000;stroke-width:5;stroke-miterlimit:4;stroke-dasharray:none;stroke-dashoffset:0;stroke-opacity:1" />
    </g>
    <g
       id="g4943"
       transform="matrix(0,1.1022425,-1.1022425,0,925.55479,-538.81586)">
      <rect
         y="-452.25443"
         x="699.26367"
         height="106.11967"
         width="50"
         id="rect4915"
         style="opacity:1;fill:url(#linearGradient4923);fill-opacity:1;stroke:none;stroke-width:5;stroke-miterlimit:4;stroke-dasharray:none;stroke-dashoffset:0;stroke-opacity:1" />
      <path
         inkscape:connector-curvature="0"
         id="rect4887"
         transform="translate(0,-542.12598)"
         d="m 694.26367,142.18359 0,53.61524 60,0 0,-53.61524 -4.25781,0 a 5,7.5 0 0 1 0.0898,1.39453 5,7.5 0 0 1 -5,7.5 5,7.5 0 0 1 -5,-7.5 5,7.5 0 0 1 0.0899,-1.39453 l -10.21289,0 a 7.5,7.5 0 0 1 -7.30664,5.85352 7.5,7.5 0 0 1 -7.31055,-5.85352 l -8.59375,0 a 5,7.5 0 0 1 0.0898,1.39453 5,7.5 0 0 1 -5,7.5 5,7.5 0 0 1 -5,-7.5 5,7.5 0 0 1 0.0899,-1.39453 l -2.67774,0 z m 28.40235,12.39258 a 7.5,7.5 0 0 1 7.5,7.5 7.5,7.5 0 0 1 -7.5,7.5 7.5,7.5 0 0 1 -7.5,-7.5 7.5,7.5 0 0 1 7.5,-7.5 z m -20.81446,1.4668 a 5,7.5 0 0 1 5,7.5 5,7.5 0 0 1 -5,7.5 5,7.5 0 0 1 -5,-7.5 5,7.5 0 0 1 5,-7.5 z m 43.24414,0 a 5,7.5 0 0 1 5,7.5 5,7.5 0 0 1 -5,7.5 5,7.5 0 0 1 -5,-7.5 5,7.5 0 0 1 5,-7.5 z m -43.24414,19.96484 a 5,7.5 0 0 1 5,7.5 5,7.5 0 0 1 -5,7.5 5,7.5 0 0 1 -5,-7.5 5,7.5 0 0 1 5,-7.5 z m 43.24414,0 a 5,7.5 0 0 1 5,7.5 5,7.5 0 0 1 -5,7.5 5,7.5 0 0 1 -5,-7.5 5,7.5 0 0 1 5,-7.5 z m -22.42968,0.10742 a 7.5,7.5 0 0 1 7.5,7.5 7.5,7.5 0 0 1 -7.5,7.5 7.5,7.5 0 0 1 -7.5,-7.5 7.5,7.5 0 0 1 7.5,-7.5 z"
         style="opacity:1;fill:url(#linearGradient4895);fill-opacity:1;stroke:none;stroke-width:5;stroke-miterlimit:4;stroke-dasharray:none;stroke-dashoffset:0;stroke-opacity:1" />
      <path
         inkscape:connector-curvature="0"
         id="rect4925"
         d="m 689.26367,-477.6377 0,26.47533 70,0 0,-26.47533 -4.14453,0 0.17969,0.19029 -7.07227,7.48756 -7.07031,-7.48756 0.17969,-0.19029 -9.23242,0 0.17968,0.19029 -7.07031,7.48756 -7.07227,-7.48756 0.17969,-0.19029 -9.23242,0 0.17969,0.19029 -7.07031,7.48756 -7.07227,-7.48756 0.17969,-0.19029 -6.04102,0 z"
         style="opacity:1;fill:url(#linearGradient4933);fill-opacity:1;stroke:none;stroke-width:5;stroke-miterlimit:4;stroke-dasharray:none;stroke-dashoffset:0;stroke-opacity:1" />
    </g>
    <path
       inkscape:connector-curvature="0"
       style="opacity:1;fill:url(#linearGradient4279);fill-opacity:1;stroke:none;stroke-width:10;stroke-miterlimit:4;stroke-dasharray:none;stroke-opacity:1"
       d="M 1308.7359,216.80797 870.63105,81.062076 A 396.8073,264.5382 0 0 1 536.72047,202.67688 396.8073,264.5382 0 0 1 260.06408,127.76744 l -47.54281,47.54283 a 132.2691,132.2691 0 0 1 30.38696,84.18807 132.2691,132.2691 0 0 1 -30.30308,84.15578 l 47.6785,47.67845 a 396.8073,264.5382 0 0 1 276.43682,-75.13117 396.8073,264.5382 0 0 1 333.536,121.73321 l 438.47943,-135.86216 0,-85.26448 z"
       id="rect4146" />
    <g
       id="g4202"
       inkscape:transform-center-x="-308.17531"
       inkscape:transform-center-y="19.111677"
       transform="matrix(0,1.1022425,-1.1022425,0,925.55479,-538.81586)">
      <path
         inkscape:transform-center-y="217.32581"
         inkscape:transform-center-x="-194.61469"
         inkscape:connector-curvature="0"
         id="path4177"
         d="M 793.25252,9.8317111 A 80,80 0 0 0 774.14369,121.34338 80,80 0 0 0 885.65536,140.45221 L 1024.2596,336.38299 1297.4762,584.07773 904.76416,28.940569 A 80,80 0 0 0 793.25252,9.8317111 Z"
         style="opacity:1;fill:#782121;fill-opacity:1;stroke:none;stroke-width:10;stroke-miterlimit:4;stroke-dasharray:none;stroke-opacity:1" />
      <circle
         r="63.792873"
         cy="74.194862"
         cx="838.45416"
         id="path4184"
         style="opacity:1;fill:url(#radialGradient4192);fill-opacity:1;stroke:#000000;stroke-width:5;stroke-miterlimit:4;stroke-dasharray:5, 10;stroke-dashoffset:0;stroke-opacity:1" />
      <path
         inkscape:connector-curvature="0"
         id="path4194"
         d="m 925,77.36218 20,30 0,80 -10,-80 z"
         style="fill:#787878;fill-opacity:1;fill-rule:evenodd;stroke:none;stroke-width:1px;stroke-linecap:butt;stroke-linejoin:miter;stroke-opacity:1" />
      <path
         style="fill:#787878;fill-opacity:1;fill-rule:evenodd;stroke:none;stroke-width:1px;stroke-linecap:butt;stroke-linejoin:miter;stroke-opacity:1"
         d="m 961.43156,138.28055 20,30 0,80 -10,-80 z"
         id="path4196"
         inkscape:connector-curvature="0" />
      <path
         inkscape:connector-curvature="0"
         id="path4198"
         d="m 997.86316,199.19893 20.00004,30 0,80 -10,-80 z"
         style="fill:#787878;fill-opacity:1;fill-rule:evenodd;stroke:none;stroke-width:1px;stroke-linecap:butt;stroke-linejoin:miter;stroke-opacity:1" />
    </g>
    <g
       inkscape:transform-center-y="19.111677"
       inkscape:transform-center-x="308.17534"
       id="g4209"
       transform="matrix(0,-1.1022425,-1.1022425,0,925.55479,1049.0521)">
      <path
         style="opacity:1;fill:#782121;fill-opacity:1;stroke:none;stroke-width:10;stroke-miterlimit:4;stroke-dasharray:none;stroke-opacity:1"
         d="M 793.25252,9.8317111 A 80,80 0 0 0 774.14369,121.34338 80,80 0 0 0 885.65536,140.45221 L 1024.2596,336.38299 1297.4762,584.07773 904.76416,28.940569 A 80,80 0 0 0 793.25252,9.8317111 Z"
         id="path4211"
         inkscape:connector-curvature="0"
         inkscape:transform-center-x="-194.61469"
         inkscape:transform-center-y="217.32581" />
      <circle
         style="opacity:1;fill:url(#radialGradient4221);fill-opacity:1;stroke:#000000;stroke-width:5;stroke-miterlimit:4;stroke-dasharray:5, 10;stroke-dashoffset:0;stroke-opacity:1"
         id="circle4213"
         cx="838.45416"
         cy="74.194862"
         r="63.792873" />
      <path
         style="fill:#787878;fill-opacity:1;fill-rule:evenodd;stroke:none;stroke-width:1px;stroke-linecap:butt;stroke-linejoin:miter;stroke-opacity:1"
         d="m 925,77.36218 20,30 0,80 -10,-80 z"
         id="path4215"
         inkscape:connector-curvature="0" />
      <path
         inkscape:connector-curvature="0"
         id="path4217"
         d="m 961.43156,138.28055 20,30 0,80 -10,-80 z"
         style="fill:#787878;fill-opacity:1;fill-rule:evenodd;stroke:none;stroke-width:1px;stroke-linecap:butt;stroke-linejoin:miter;stroke-opacity:1" />
      <path
         style="fill:#787878;fill-opacity:1;fill-rule:evenodd;stroke:none;stroke-width:1px;stroke-linecap:butt;stroke-linejoin:miter;stroke-opacity:1"
         d="m 997.86316,199.19893 20.00004,30 0,80 -10,-80 z"
         id="path4219"
         inkscape:connector-curvature="0" />
    </g>
    <path
       style="opacity:1;fill:url(#radialGradient4241);fill-opacity:1;stroke:#1d2426;stroke-width:5.51121235;stroke-miterlimit:4;stroke-dasharray:none;stroke-opacity:1"
       d="m 1276.336,231.51172 -308.73774,-87.47974 -61.65239,50.30704 -32.35254,17.08691 c -0.0392,0.0136 -0.0791,0.0252 -0.1184,0.0388 l 0,87.695 33.4354,15.74786 61.17016,61.64163 308.20381,-89.27734 z"
       id="path4223"
       inkscape:connector-curvature="0"
       sodipodi:nodetypes="cccccccccc" />
    <path
       style="opacity:0.57099998;fill:url(#linearGradient4653);fill-opacity:1;stroke:none;stroke-width:5;stroke-miterlimit:4;stroke-dasharray:5, 10;stroke-dashoffset:0;stroke-opacity:1"
       d="m 873.47493,211.41301 -337.54569,5.73916 -290.13138,42.51611 291.85262,42.51612 335.23888,-3.35193 0.58557,0.27556 z m -16.6585,26.90161 0,44.0897 -22.04485,11.02242 11.02242,-11.02242 0,-44.0897 -11.02242,-11.02243 z m -55.29512,0 0,44.0897 -22.04485,11.02242 11.02242,-11.02242 0,-44.0897 -11.02242,-11.02243 z m -55.29511,0 0,44.0897 -22.04485,11.02242 11.02242,-11.02242 0,-44.0897 -11.02242,-11.02243 z m -55.29512,0 0,44.0897 -22.04485,11.02242 11.02243,-11.02242 0,-44.0897 -11.02243,-11.02243 z m -55.29511,0 0,44.0897 -22.04485,11.02242 11.02243,-11.02242 0,-44.0897 -11.02243,-11.02243 z"
       id="rect4225"
       inkscape:connector-curvature="0"
       sodipodi:nodetypes="cccccccccccccccccccccccccccccccccccccccccc" />
    <path
       style="fill:none;fill-rule:evenodd;stroke:#000000;stroke-width:3.30672741;stroke-linecap:butt;stroke-linejoin:miter;stroke-miterlimit:4;stroke-dasharray:none;stroke-dashoffset:0;stroke-opacity:0.43654827"
       d="m 900.90624,210.70904 0,88.1794 33.06728,22.04485 44.0897,33.06727 77.15698,-11.02242 187.3812,-55.11213 0,-55.11212 -187.3812,-55.11213 -77.15698,-11.02242 z"
       id="path4283"
       inkscape:connector-curvature="0" />
    <path
       style="fill:none;fill-rule:evenodd;stroke:#000000;stroke-width:1.10224247px;stroke-linecap:butt;stroke-linejoin:miter;stroke-opacity:0.45685281"
       d="m 1055.2202,342.97814 c 0,0 10.392,-33.69766 0,-44.0897 -15.5881,-15.58807 -50.5465,15.58807 -66.13456,0 -18.18607,-18.18608 -18.18607,-58.9709 0,-77.15698 15.58806,-15.58806 50.54646,15.58807 66.13456,0 10.392,-10.39204 0,-44.0897 0,-44.0897"
       id="path4287"
       inkscape:connector-curvature="0"
       sodipodi:nodetypes="caaaac" />
    <path
       style="fill:none;fill-rule:evenodd;stroke:#000000;stroke-width:1.10224247px;stroke-linecap:butt;stroke-linejoin:miter;stroke-opacity:0.45685281"
       d="m 1242.6014,232.75389 c 0,0 -122.0473,22.49653 -176.3588,0 -4.8005,-1.98843 -11.0224,-11.02243 -11.0224,-11.02243"
       id="path4289"
       inkscape:connector-curvature="0"
       sodipodi:nodetypes="cac" />
    <path
       style="fill:none;fill-rule:evenodd;stroke:#000000;stroke-width:1.10224247px;stroke-linecap:butt;stroke-linejoin:miter;stroke-opacity:0.45685281"
       d="m 1242.6014,286.30721 c 0,0 -122.1452,-21.17841 -176.3588,1.5588 -4.7916,2.00964 -11.0224,11.02243 -11.0224,11.02243"
       id="path4291"
       inkscape:connector-curvature="0"
       sodipodi:nodetypes="cac" />
    <path
       style="fill:#808080;fill-rule:evenodd;stroke:#000000;stroke-width:1.10224247px;stroke-linecap:butt;stroke-linejoin:miter;stroke-opacity:1"
       d="m 516.10925,298.53796 -187.68537,-27.50142 -76.11861,73.80271 33.06727,22.04485 66.13455,-33.06727 z m -0.98801,-78.07923 -165.3364,-35.27887 -66.13455,-33.06728 -33.06727,22.04485 77.15697,74.84109 z"
       id="path4305"
       inkscape:connector-curvature="0"
       sodipodi:nodetypes="cccccccccccc" />
    <g
       id="g4862"
       transform="matrix(0,1.1022425,-1.1022425,0,938.78186,-532.71762)">
      <g
         transform="matrix(0.3272553,-0.3272553,-0.3272553,-0.3272553,566.1377,1099.2251)"
         id="g4569"
         inkscape:transform-center-x="-14.656191"
         inkscape:transform-center-y="-14.139024">
        <g
           id="g4571"
           transform="translate(-108.57904,-86.596783)">
          <g
             transform="translate(30.060441,-11.71186)"
             id="g4573">
            <path
               style="opacity:1;fill:url(#linearGradient4589);fill-opacity:1;stroke:none;stroke-width:4.22732687;stroke-miterlimit:4;stroke-dasharray:none;stroke-dashoffset:0;stroke-opacity:1"
               d="m 1315.6016,413.75839 0,142.36201 46.9336,18.7546 c 7.5772,3.02785 14.7285,-6.57061 14.7285,-14.73047 l 0,-147.28906 c 0,-8.15986 -6.5687,-14.72852 -14.7285,-14.72852 z"
               id="path4575"
               inkscape:connector-curvature="0"
               sodipodi:nodetypes="ccssssc" />
            <path
               inkscape:connector-curvature="0"
               style="opacity:1;fill:url(#linearGradient4591);fill-opacity:1;stroke:none;stroke-width:5;stroke-miterlimit:4;stroke-dasharray:none;stroke-dashoffset:0;stroke-opacity:1"
               d="m 1374.7148,410.05859 -20.5546,5.85547 0,15 20.5546,-5.85547 0,-15 z m 0,24.82813 -20.5546,5.85742 0,15 20.5546,-5.85742 0,-15 z m 0,24.83008 -20.5546,5.85547 0,15 20.5546,-5.85547 0,-15 z m 0,24.82812 -20.5546,5.85742 0,15 20.5546,-5.85742 0,-15 z m 0,24.83008 -20.5546,5.85547 0,15 20.5546,-5.85547 0,-15 z m 0,24.82812 -20.5546,5.85743 0,15 20.5546,-5.85743 0,-15 z"
               id="path4577" />
          </g>
          <rect
             y="401.7554"
             x="1306.5615"
             height="143.12317"
             width="40"
             id="rect4579"
             style="opacity:1;fill:url(#linearGradient4593);fill-opacity:1;stroke:none;stroke-width:5;stroke-miterlimit:4;stroke-dasharray:none;stroke-dashoffset:0;stroke-opacity:1" />
          <path
             inkscape:connector-curvature="0"
             id="path4581"
             d="m 1314.7564,407.2741 c -0.8833,0 -1.5945,0.892 -1.5945,2 l 0,1 c 0,1.108 0.7112,2 1.5945,2 l 29.2244,0 c 0.8833,0 1.5945,-0.892 1.5945,-2 l 0,-1 c 0,-1.108 -0.7112,-2 -1.5945,-2 l -29.2244,0 z m 0,20.80469 c -0.8833,0 -1.5945,0.892 -1.5945,2 l 0,1 c 0,1.108 0.7112,2 1.5945,2 l 29.2244,0 c 0.8833,0 1.5945,-0.892 1.5945,-2 l 0,-1 c 0,-1.108 -0.7112,-2 -1.5945,-2 l -29.2244,0 z m 0,20.80273 c -0.8833,0 -1.5945,0.892 -1.5945,2 l 0,1 c 0,1.10801 0.7112,2 1.5945,2 l 29.2244,0 c 0.8833,10e-6 1.5945,-0.89199 1.5945,-2 l 0,-1 c 0,-1.108 -0.7112,-2 -1.5945,-2 l -29.2244,0 z m 0,20.80469 c -0.8833,0 -1.5945,0.892 -1.5945,2 l 0,1 c 0,1.108 0.7112,2 1.5945,2 l 29.2244,0 c 0.8833,0 1.5945,-0.892 1.5945,-2 l 0,-1 c 0,-1.108 -0.7112,-2 -1.5945,-2 l -29.2244,0 z m 0,20.80274 c -0.8833,0 -1.5945,0.892 -1.5945,2 l 0,1 c 0,1.108 0.7112,2 1.5945,2 l 29.2244,0 c 0.8833,0 1.5945,-0.892 1.5945,-2 l 0,-1 c 0,-1.108 -0.7112,-2 -1.5945,-2 l -29.2244,0 z m 0,20.80468 c -0.8833,0 -1.5945,0.892 -1.5945,2 l 0,1 c 0,1.108 0.7112,2 1.5945,2 l 29.2244,0 c 0.8833,0 1.5945,-0.892 1.5945,-2 l 0,-1 c 0,-1.108 -0.7112,-2 -1.5945,-2 l -29.2244,0 z m 0,20.80274 c -0.8833,0 -1.5945,0.892 -1.5945,2 l 0,1 c 0,1.108 0.7112,2 1.5945,2 l 29.2244,0 c 0.8833,0 1.5945,-0.892 1.5945,-2 l 0,-1 c 0,-1.108 -0.7112,-2 -1.5945,-2 l -29.2244,0 z"
             style="opacity:0.53800001;fill:url(#linearGradient4595);fill-opacity:1;stroke:none;stroke-width:5;stroke-miterlimit:4;stroke-dasharray:none;stroke-dashoffset:0;stroke-opacity:1" />
        </g>
        <circle
           style="opacity:1;fill:#808080;fill-opacity:1;stroke:#000000;stroke-width:3;stroke-miterlimit:4;stroke-dasharray:none;stroke-dashoffset:0;stroke-opacity:0.45685281"
           id="circle4583"
           cx="1130"
           cy="384.48816"
           r="110" />
        <circle
           r="75.337097"
           cy="384.48816"
           cx="1130"
           id="circle4585"
           style="opacity:1;fill:none;fill-opacity:1;stroke:#f1ff00;stroke-width:5;stroke-miterlimit:4;stroke-dasharray:5, 10;stroke-dashoffset:0;stroke-opacity:1" />
        <circle
           style="opacity:1;fill:#000000;fill-opacity:1;stroke:#fd0000;stroke-width:5;stroke-miterlimit:4;stroke-dasharray:none;stroke-dashoffset:0;stroke-opacity:1"
           id="circle4587"
           cx="1130"
           cy="384.48816"
           r="40" />
      </g>
      <g
         inkscape:transform-center-y="-14.139024"
         inkscape:transform-center-x="14.656203"
         id="g4597"
         transform="matrix(-0.3272553,-0.3272553,0.3272553,-0.3272553,871.3245,1099.2251)">
        <g
           transform="translate(-108.57904,-86.596783)"
           id="g4599">
          <g
             id="g4601"
             transform="translate(30.060441,-11.71186)">
            <path
               sodipodi:nodetypes="ccssssc"
               inkscape:connector-curvature="0"
               id="path4603"
               d="m 1315.6016,413.75839 0,142.36201 46.9336,18.7546 c 7.5772,3.02785 14.7285,-6.57061 14.7285,-14.73047 l 0,-147.28906 c 0,-8.15986 -6.5687,-14.72852 -14.7285,-14.72852 z"
               style="opacity:1;fill:url(#linearGradient4617);fill-opacity:1;stroke:none;stroke-width:4.22732687;stroke-miterlimit:4;stroke-dasharray:none;stroke-dashoffset:0;stroke-opacity:1" />
            <path
               id="path4605"
               d="m 1374.7148,410.05859 -20.5546,5.85547 0,15 20.5546,-5.85547 0,-15 z m 0,24.82813 -20.5546,5.85742 0,15 20.5546,-5.85742 0,-15 z m 0,24.83008 -20.5546,5.85547 0,15 20.5546,-5.85547 0,-15 z m 0,24.82812 -20.5546,5.85742 0,15 20.5546,-5.85742 0,-15 z m 0,24.83008 -20.5546,5.85547 0,15 20.5546,-5.85547 0,-15 z m 0,24.82812 -20.5546,5.85743 0,15 20.5546,-5.85743 0,-15 z"
               style="opacity:1;fill:url(#linearGradient4619);fill-opacity:1;stroke:none;stroke-width:5;stroke-miterlimit:4;stroke-dasharray:none;stroke-dashoffset:0;stroke-opacity:1"
               inkscape:connector-curvature="0" />
          </g>
          <rect
             style="opacity:1;fill:url(#linearGradient4621);fill-opacity:1;stroke:none;stroke-width:5;stroke-miterlimit:4;stroke-dasharray:none;stroke-dashoffset:0;stroke-opacity:1"
             id="rect4607"
             width="40"
             height="143.12317"
             x="1306.5615"
             y="401.7554" />
          <path
             style="opacity:0.53800001;fill:url(#linearGradient4623);fill-opacity:1;stroke:none;stroke-width:5;stroke-miterlimit:4;stroke-dasharray:none;stroke-dashoffset:0;stroke-opacity:1"
             d="m 1314.7564,407.2741 c -0.8833,0 -1.5945,0.892 -1.5945,2 l 0,1 c 0,1.108 0.7112,2 1.5945,2 l 29.2244,0 c 0.8833,0 1.5945,-0.892 1.5945,-2 l 0,-1 c 0,-1.108 -0.7112,-2 -1.5945,-2 l -29.2244,0 z m 0,20.80469 c -0.8833,0 -1.5945,0.892 -1.5945,2 l 0,1 c 0,1.108 0.7112,2 1.5945,2 l 29.2244,0 c 0.8833,0 1.5945,-0.892 1.5945,-2 l 0,-1 c 0,-1.108 -0.7112,-2 -1.5945,-2 l -29.2244,0 z m 0,20.80273 c -0.8833,0 -1.5945,0.892 -1.5945,2 l 0,1 c 0,1.10801 0.7112,2 1.5945,2 l 29.2244,0 c 0.8833,10e-6 1.5945,-0.89199 1.5945,-2 l 0,-1 c 0,-1.108 -0.7112,-2 -1.5945,-2 l -29.2244,0 z m 0,20.80469 c -0.8833,0 -1.5945,0.892 -1.5945,2 l 0,1 c 0,1.108 0.7112,2 1.5945,2 l 29.2244,0 c 0.8833,0 1.5945,-0.892 1.5945,-2 l 0,-1 c 0,-1.108 -0.7112,-2 -1.5945,-2 l -29.2244,0 z m 0,20.80274 c -0.8833,0 -1.5945,0.892 -1.5945,2 l 0,1 c 0,1.108 0.7112,2 1.5945,2 l 29.2244,0 c 0.8833,0 1.5945,-0.892 1.5945,-2 l 0,-1 c 0,-1.108 -0.7112,-2 -1.5945,-2 l -29.2244,0 z m 0,20.80468 c -0.8833,0 -1.5945,0.892 -1.5945,2 l 0,1 c 0,1.108 0.7112,2 1.5945,2 l 29.2244,0 c 0.8833,0 1.5945,-0.892 1.5945,-2 l 0,-1 c 0,-1.108 -0.7112,-2 -1.5945,-2 l -29.2244,0 z m 0,20.80274 c -0.8833,0 -1.5945,0.892 -1.5945,2 l 0,1 c 0,1.108 0.7112,2 1.5945,2 l 29.2244,0 c 0.8833,0 1.5945,-0.892 1.5945,-2 l 0,-1 c 0,-1.108 -0.7112,-2 -1.5945,-2 l -29.2244,0 z"
             id="path4609"
             inkscape:connector-curvature="0" />
        </g>
        <circle
           r="110"
           cy="384.48816"
           cx="1130"
           id="circle4611"
           style="opacity:1;fill:#808080;fill-opacity:1;stroke:#000000;stroke-width:3;stroke-miterlimit:4;stroke-dasharray:none;stroke-dashoffset:0;stroke-opacity:0.45685281" />
        <circle
           style="opacity:1;fill:none;fill-opacity:1;stroke:#f1ff00;stroke-width:5;stroke-miterlimit:4;stroke-dasharray:5, 10;stroke-dashoffset:0;stroke-opacity:1"
           id="circle4613"
           cx="1130"
           cy="384.48816"
           r="75.337097" />
        <circle
           r="40"
           cy="384.48816"
           cx="1130"
           id="circle4615"
           style="opacity:1;fill:#000000;fill-opacity:1;stroke:#fd0000;stroke-width:5;stroke-miterlimit:4;stroke-dasharray:none;stroke-dashoffset:0;stroke-opacity:1" />
      </g>
    </g>
  </g>
  <g
     inkscape:groupmode="layer"
     id="layer4"
     inkscape:label="logo 1"
     style="display:inline"
     sodipodi:insensitive="true" />
</svg>
