<?xml version="1.0" encoding="UTF-8" standalone="no"?>
<!-- Created with Inkscape (http://www.inkscape.org/) -->

<svg
   xmlns:dc="http://purl.org/dc/elements/1.1/"
   xmlns:cc="http://creativecommons.org/ns#"
   xmlns:rdf="http://www.w3.org/1999/02/22-rdf-syntax-ns#"
   xmlns:svg="http://www.w3.org/2000/svg"
   xmlns="http://www.w3.org/2000/svg"
   xmlns:xlink="http://www.w3.org/1999/xlink"
   xmlns:sodipodi="http://sodipodi.sourceforge.net/DTD/sodipodi-0.dtd"
   xmlns:inkscape="http://www.inkscape.org/namespaces/inkscape"
   width="450mm"
   height="450mm"
   viewBox="0 0 1594.4882 1594.4882"
   id="svg2"
   version="1.1"
   inkscape:version="0.91 r13725"
   sodipodi:docname="escudos.svg"
   inkscape:export-filename="C:\xampp\htdocs\tc2000\HD\escudo1.png"
   inkscape:export-xdpi="7.2248888"
   inkscape:export-ydpi="7.2248888">
  <sodipodi:namedview
     id="base"
     pagecolor="#ffffff"
     bordercolor="#666666"
     borderopacity="1.0"
     inkscape:pageopacity="0.0"
     inkscape:pageshadow="2"
     inkscape:zoom="0.23029902"
     inkscape:cx="-30.489168"
     inkscape:cy="885.48742"
     inkscape:document-units="px"
     inkscape:current-layer="layer1"
     showgrid="true"
     height="450mm"
     inkscape:window-width="1360"
     inkscape:window-height="716"
     inkscape:window-x="-8"
     inkscape:window-y="-8"
     inkscape:window-maximized="1">
    <inkscape:grid
       id="grid4133"
       type="xygrid" />
  </sodipodi:namedview>
  <defs
     id="defs4">
    <linearGradient
       inkscape:collect="always"
       id="linearGradient12127">
      <stop
         style="stop-color:#ffffff;stop-opacity:0.35555556"
         offset="0"
         id="stop12129" />
      <stop
         id="stop12131"
         offset="0.81070703"
         style="stop-color:#ffffff;stop-opacity:0.49803922" />
      <stop
         style="stop-color:#ffffff;stop-opacity:1"
         offset="1"
         id="stop12133" />
    </linearGradient>
    <linearGradient
       inkscape:collect="always"
       id="linearGradient12073">
      <stop
         style="stop-color:#ff0000;stop-opacity:0"
         offset="0"
         id="stop12075" />
      <stop
         id="stop12083"
         offset="0.4551585"
         style="stop-color:#ec002e;stop-opacity:0.20392157;" />
      <stop
         id="stop12081"
         offset="0.90685904"
         style="stop-color:#d9005c;stop-opacity:0.41333333" />
      <stop
         style="stop-color:#b400b8;stop-opacity:0.70666665"
         offset="1"
         id="stop12077" />
    </linearGradient>
    <radialGradient
       inkscape:collect="always"
       xlink:href="#linearGradient12073"
       id="radialGradient12079"
       cx="797.24408"
       cy="255.11812"
       fx="797.24408"
       fy="255.11812"
       r="796.98814"
       gradientUnits="userSpaceOnUse" />
    <radialGradient
       inkscape:collect="always"
       xlink:href="#linearGradient12127"
       id="radialGradient12141"
       cx="797.24408"
       cy="255.11812"
       fx="797.24408"
       fy="255.11812"
       r="797.88275"
       gradientUnits="userSpaceOnUse" />
    <radialGradient
       inkscape:collect="always"
       xlink:href="#linearGradient12127"
       id="radialGradient12157"
       cx="797.26312"
       cy="797.64417"
       fx="797.26312"
       fy="797.64417"
       r="798.06677"
       gradientTransform="matrix(1,0,0,0.99567404,0,3.4505802)"
       gradientUnits="userSpaceOnUse" />
  </defs>
  <metadata
     id="metadata7">
    <rdf:RDF>
      <cc:Work
         rdf:about="">
        <dc:format>image/svg+xml</dc:format>
        <dc:type
           rdf:resource="http://purl.org/dc/dcmitype/StillImage" />
        <dc:title></dc:title>
      </cc:Work>
    </rdf:RDF>
  </metadata>
  <g
     transform="translate(0,542.12598)"
     id="layer1"
     inkscape:groupmode="layer"
     inkscape:label="Capa 1">
    <circle
       r="795.88275"
       cy="255.11812"
       cx="797.24408"
       id="circle12060"
       style="fill:url(#radialGradient12079);fill-opacity:1;stroke:url(#radialGradient12141);stroke-width:4;stroke-miterlimit:4;stroke-dasharray:none;stroke-opacity:0.30379745" />
    <path
       style="fill:url(#radialGradient12157);fill-opacity:1;stroke:none;stroke-opacity:1;stroke-width:5;stroke-miterlimit:4;stroke-dasharray:none"
       d="M 882.53711 6.2207031 C 884.41409 9.7039272 887.0311 14.307351 890.78516 20.802734 C 898.44354 34.053504 904.46899 45.353723 904.17383 45.914062 C 903.87868 46.474402 891.8209 67.533158 877.37891 92.710938 L 851.12109 138.48828 L 798.17773 138.48828 L 745.23438 138.48828 L 719.00977 92.710938 C 704.58559 67.533158 692.55191 46.482341 692.26953 45.931641 C 691.98713 45.380951 697.71049 34.580951 704.98828 21.931641 C 708.32136 16.138536 711.29373 10.875155 713.62695 6.671875 A 795.88275 795.88275 0 0 0 706.01367 7.5957031 C 703.94576 10.9004 701.5482 14.934641 698.66602 19.990234 C 691.33268 32.853504 685.33398 44.310932 685.33398 45.451172 C 685.33398 46.591422 697.73311 69.168657 712.88867 95.623047 L 740.44531 143.7207 L 798.2832 143.77148 L 856.12305 143.82227 L 883.07617 97.154297 C 897.90031 71.487627 910.5275 49.166894 911.13672 47.552734 C 911.83717 45.696934 907.20508 35.810983 898.53711 20.664062 C 895.33433 15.067331 892.83443 10.82714 890.74609 7.4609375 A 795.88275 795.88275 0 0 0 882.53711 6.2207031 z M 688.41211 9.7324219 A 795.88275 795.88275 0 0 0 679.71289 10.787109 C 678.92802 12.089125 678.11705 13.452198 677.23633 14.958984 L 666.31055 33.650391 L 613.02539 33.179688 L 576.83398 32.861328 A 795.88275 795.88275 0 0 0 557.47461 39.292969 C 558.29174 39.92094 558.96706 40.121864 559.51367 39.912109 C 560.91895 39.372859 586.73721 38.931641 616.88672 38.931641 L 671.70312 38.931641 L 683.40625 18.548828 C 685.21455 15.399498 686.87934 12.461978 688.41211 9.7324219 z M 907.70312 10.023438 C 909.08747 12.487886 910.65481 15.24 912.64844 18.695312 L 925.33398 40.681641 L 983.35547 40.695312 L 1041.377 40.710938 L 1041.6328 40.261719 A 795.88275 795.88275 0 0 0 1026.3125 35.34375 L 982.68555 34.958984 L 929.20117 34.488281 L 918.42383 15.599609 C 917.51935 14.014572 916.70313 12.612616 915.91406 11.265625 A 795.88275 795.88275 0 0 0 907.70312 10.023438 z M 613.22852 35.603516 C 623.21741 35.603717 633.12964 35.677662 640.55469 35.826172 C 655.40477 36.123202 642.75643 36.365984 612.44531 36.365234 C 582.1342 36.364474 569.98233 36.120489 585.44336 35.824219 C 593.17387 35.675904 603.23963 35.603314 613.22852 35.603516 z M 983.11133 37.378906 C 992.9391 37.378906 1002.7671 37.454836 1010.2227 37.603516 C 1025.1338 37.900856 1012.9335 38.142578 983.11133 38.142578 C 953.28911 38.142578 941.08889 37.900856 956 37.603516 C 963.45556 37.454836 973.28355 37.378906 983.11133 37.378906 z M 542.73438 44.191406 A 795.88275 795.88275 0 0 0 535.77539 46.503906 C 536.04516 47.131361 536.22174 47.60044 536.17383 47.691406 C 535.87868 48.251746 523.8209 69.310501 509.37891 94.488281 L 483.12109 140.26562 L 430.19141 140.26562 L 377.26367 140.26562 L 369.30078 126.3418 A 795.88275 795.88275 0 0 0 363.65625 130.08398 L 372.44531 145.48047 L 430.63086 145.54102 L 488.81641 145.59961 L 492.27148 138.93164 C 494.17146 135.26498 506.58783 113.49956 519.86328 90.5625 C 533.13873 67.62545 543.98038 48.024359 543.95508 47.005859 C 543.94852 46.741042 543.50171 45.732387 542.73438 44.191406 z M 1055.4844 45.318359 C 1055.238 49.541213 1060.0774 58.166912 1082.0117 96.382812 L 1110.2227 145.5332 L 1168 145.56055 L 1225.7773 145.58789 L 1233.4453 132.28906 A 795.88275 795.88275 0 0 0 1227.3945 128.57812 L 1220.6523 140.26562 L 1167.8281 140.26562 L 1115.0039 140.26562 L 1107.0215 126.48828 C 1074.8106 70.89922 1062.8698 50.150013 1061.5918 47.546875 A 795.88275 795.88275 0 0 0 1055.4844 45.318359 z M 672.95703 53.154297 L 615.14453 53.201172 L 557.33398 53.248047 L 530.66602 99.658203 C 515.99935 125.1842 503.35425 147.39379 502.56445 149.01172 C 501.52441 151.14228 508.32562 164.42211 527.23047 197.17773 C 541.58654 222.05188 554.16092 244.22225 555.17383 246.44531 L 557.01562 250.48828 L 614.95117 250.46289 L 672.88867 250.43555 L 701.0625 201.53125 C 719.31656 169.84494 728.84342 151.60111 728.12109 149.71875 C 727.50792 148.12085 714.84622 125.74077 699.98242 99.984375 L 672.95703 53.154297 z M 615.11133 55.158203 C 624.93911 55.158203 634.7671 55.232184 642.22266 55.380859 C 657.13377 55.678209 644.93355 55.921875 615.11133 55.921875 C 585.28911 55.921875 573.08889 55.678209 588 55.380859 C 595.45556 55.232184 605.28355 55.158203 615.11133 55.158203 z M 1040.957 56.710938 L 983.14453 56.724609 L 925.33398 56.740234 L 921.63672 63.392578 C 919.60383 67.051178 907.00383 89.001748 893.63672 112.17383 C 880.26959 135.3459 869.33398 154.66703 869.33398 155.10938 C 869.33398 155.55172 880.94874 175.9923 895.14648 200.53125 C 909.34272 225.06758 921.8712 247.14514 922.98828 249.5957 L 925.01562 254.04297 L 982.95117 254.0293 L 1040.8887 254.01367 L 1044.5586 247.36328 C 1046.5774 243.70469 1059.2406 221.6526 1072.6992 198.35938 C 1088.0047 171.86948 1096.7645 154.9526 1096.0879 153.18945 C 1095.493 151.63906 1082.8462 129.2974 1067.9824 103.54102 L 1040.957 56.710938 z M 668.09375 58.4375 L 694.95117 104.90234 L 721.80859 151.36914 L 703.7168 182.70508 C 693.76636 199.94084 681.89551 220.4434 677.33594 228.26562 L 669.04492 242.48828 L 615.38281 242.95898 L 561.72266 243.42969 L 557.2207 235.84766 C 554.74523 231.67774 542.74387 210.96832 530.55078 189.82617 L 508.38086 151.38477 L 514.38477 140.9375 C 517.68705 135.19077 529.59888 114.4872 540.85547 94.931641 L 561.32227 59.376953 L 614.70898 58.90625 L 668.09375 58.4375 z M 983.11133 58.712891 C 992.9391 58.712891 1002.7671 58.786872 1010.2227 58.935547 C 1025.1338 59.232897 1012.9335 59.476562 983.11133 59.476562 C 953.28911 59.476562 941.08889 59.232897 956 58.935547 C 963.45556 58.786872 973.28355 58.712891 983.11133 58.712891 z M 930.20703 61.992188 L 983.46289 62.462891 L 1036.7168 62.931641 L 1063.2012 108.83398 L 1089.6836 154.73633 L 1063.3301 200.39062 L 1036.9785 246.04297 L 983.61719 246.51367 C 942.26823 246.87799 929.85702 246.47823 928.48242 244.73633 C 927.50678 243.49997 915.36295 222.72799 901.49609 198.57617 L 876.2832 154.66406 L 895.91992 120.69141 C 906.71985 102.00651 915.55469 86.412542 915.55469 86.039062 C 915.55469 85.665583 918.85165 80.101961 922.88086 73.675781 L 930.20703 61.992188 z M 534.34766 99.376953 C 534.83655 99.376953 534.38056 100.97609 533.33398 102.93164 C 532.28741 104.8872 531.02991 106.48828 530.54102 106.48828 C 530.05214 106.48828 530.50811 104.8872 531.55469 102.93164 C 532.60126 100.97609 533.85878 99.376953 534.34766 99.376953 z M 350.83008 139.25586 A 795.88275 795.88275 0 0 0 345.48047 143.08398 L 352.15234 154.61328 L 325.79297 200.32812 L 299.43555 246.04297 L 245.77539 246.51367 L 223.74805 246.70703 A 795.88275 795.88275 0 0 0 216.92188 254.03516 L 245.92188 254.02734 L 303.11133 254.00977 L 309.46094 242.91602 C 312.95381 236.81396 325.71638 214.68126 337.82227 193.73242 L 359.83398 155.64453 L 353.95312 144.84375 C 353.32932 143.69827 352.08745 141.49098 350.83008 139.25586 z M 798.22266 140.49023 C 808.05043 140.49023 817.87843 140.56617 825.33398 140.71484 C 840.24509 141.01219 828.04488 141.25391 798.22266 141.25391 C 768.40044 141.25391 756.20022 141.01219 771.11133 140.71484 C 778.56688 140.56617 788.39488 140.49023 798.22266 140.49023 z M 1246.9316 140.59961 C 1242.812 147.87514 1240.0384 152.85825 1239.8184 153.43164 C 1239.3501 154.65181 1249.557 173.98832 1262.5 196.40234 C 1275.4431 218.81637 1288.0759 240.95663 1290.5723 245.60352 L 1295.1113 254.05273 L 1352.8809 253.60352 L 1377.543 253.41211 A 795.88275 795.88275 0 0 0 1371.8242 246.90039 L 1352.3652 246.88281 L 1298.666 246.83398 L 1281.2754 216.2168 C 1271.71 199.37709 1259.837 178.65178 1254.8906 170.16016 L 1245.8965 154.7207 L 1251.832 144.32422 A 795.88275 795.88275 0 0 0 1246.9316 140.59961 z M 430.22266 142.26953 C 440.05043 142.26953 449.87843 142.34351 457.33398 142.49219 C 472.24509 142.78954 460.04488 143.0332 430.22266 143.0332 C 400.40044 143.0332 388.20022 142.78954 403.11133 142.49219 C 410.56688 142.34351 420.39488 142.26953 430.22266 142.26953 z M 1168 142.26953 C 1177.8278 142.26953 1187.6558 142.34351 1195.1113 142.49219 C 1210.0224 142.78954 1197.8222 143.0332 1168 143.0332 C 1138.1778 143.0332 1125.9776 142.78954 1140.8887 142.49219 C 1148.3442 142.34351 1158.1722 142.26953 1168 142.26953 z M 739.27539 160.71094 L 710.68945 210.2793 C 684.54316 255.62035 682.30841 260.16997 684.47852 263.61328 C 685.78337 265.68368 695.1928 281.77695 705.38867 299.37695 C 715.58455 316.97695 727.54677 337.62375 731.9707 345.25781 C 737.58035 354.93804 740.79419 358.83779 742.5957 358.14648 C 744.01641 357.60131 769.84135 357.1543 799.98242 357.1543 L 854.7832 357.1543 L 882.50195 309.26953 C 897.74756 282.93211 910.16219 260.33168 910.08789 259.04688 C 910.01362 257.76209 897.38433 235.11094 882.02344 208.71094 L 854.09375 160.71094 L 796.68359 160.71094 L 739.27539 160.71094 z M 371.27539 162.48828 L 342.87695 211.73438 L 314.47852 260.98047 L 342.92969 310.40039 L 371.38086 359.82227 L 428.78516 359.30469 C 460.35736 359.02039 486.7036 358.22082 487.33203 357.52734 C 490.61087 353.90914 542.20851 262.90781 542.13281 260.87695 C 542.08379 259.56343 529.48024 236.88828 514.125 210.48828 L 486.20703 162.48828 L 428.74023 162.48828 L 371.27539 162.48828 z M 1108.9043 162.48828 L 1093.5137 189.1543 C 1048.6529 266.87483 1051.5955 261.16887 1054.2188 265.33008 C 1055.5451 267.43378 1068.1676 289.15517 1082.2676 313.59961 C 1096.3675 338.04406 1108.547 358.44276 1109.334 358.93164 C 1110.1211 359.4205 1136.3654 359.6008 1167.6543 359.33008 L 1224.543 358.83789 L 1233.418 343.33008 C 1238.2998 334.8008 1250.7775 313.11993 1261.1465 295.15234 C 1271.5154 277.18474 1280 261.85206 1280 261.07812 C 1280 260.3042 1267.3248 237.80524 1251.834 211.08008 L 1223.6699 162.48828 L 1166.2871 162.48828 L 1108.9043 162.48828 z M 849.50781 166.88086 L 858.25586 181.57422 C 863.06725 189.65511 875.15557 210.40387 885.11914 227.68359 L 903.23438 259.10156 L 876.67773 305.01758 L 850.12305 350.93164 L 796.83594 351.40234 L 743.55078 351.87305 L 736.45508 339.84766 C 732.55247 333.2335 720.43814 312.32808 709.53516 293.39258 L 689.71094 258.96484 L 706.36133 230.28125 C 715.51878 214.50564 725.02209 197.99961 727.48047 193.59961 C 729.93886 189.19961 734.31831 181.59983 737.21094 176.71094 L 742.46875 167.82227 L 795.98828 167.35156 L 849.50781 166.88086 z M 375.44727 168.6582 L 428.98633 169.12891 L 482.52539 169.59961 L 508.89258 215.23438 L 535.25977 260.86719 L 508.75 306.78906 L 482.24023 352.71094 L 428.85938 353.17969 L 375.47852 353.65039 L 367.48047 339.84766 C 363.08123 332.25569 350.99987 311.38664 340.63281 293.47266 L 321.7832 260.90234 L 338.38281 232.13867 C 347.51287 216.31931 356.99049 199.77695 359.44336 195.37695 C 361.89624 190.97695 366.50106 183.16512 369.67578 178.01758 L 375.44727 168.6582 z M 1112.9336 168.71094 L 1166.1152 168.71094 L 1219.2988 168.71094 L 1225.459 178.93164 C 1228.8471 184.55387 1240.8926 205.31556 1252.2285 225.06641 L 1272.8398 260.97656 L 1254.0117 293.50977 C 1243.6565 311.40337 1231.5921 332.2445 1227.2012 339.82227 L 1219.2168 353.59961 L 1166.1328 353.59961 L 1113.0469 353.59961 L 1106.0215 341.59961 C 1102.1571 334.99961 1090.0938 314.15753 1079.2129 295.2832 L 1059.4277 260.96484 L 1082.0098 221.50391 C 1094.4299 199.80046 1106.47 179.04362 1108.7637 175.37695 L 1112.9336 168.71094 z M 347.67969 209.59961 C 348.16858 209.59961 347.71259 211.19874 346.66602 213.1543 C 345.61944 215.10985 344.36389 216.71094 343.875 216.71094 C 343.38611 216.71094 343.84209 215.10985 344.88867 213.1543 C 345.93525 211.19874 347.1908 209.59961 347.67969 209.59961 z M 1080.125 218.48828 C 1080.6139 218.48828 1080.1579 220.08741 1079.1113 222.04297 C 1078.0647 223.99852 1076.8073 225.59961 1076.3184 225.59961 C 1075.8296 225.59961 1076.2875 223.99852 1077.334 222.04297 C 1078.3806 220.08741 1079.6361 218.48828 1080.125 218.48828 z M 671.11133 266.48242 L 613.44727 266.92969 L 555.78125 267.37695 L 527.58594 316.25586 L 499.39062 365.13672 L 503.32422 372.25586 C 505.48785 376.17216 514.18866 391.3763 522.66016 406.04297 C 531.13166 420.70963 541.99814 439.68862 546.80859 448.2168 L 555.55469 463.72266 L 613.52344 463.77148 L 671.49219 463.82227 L 699.51172 414.98242 C 714.92214 388.12096 727.09315 365.00441 726.55859 363.61133 C 726.02401 362.21826 719.85594 351.19599 712.85352 339.11719 C 705.85109 327.03839 693.59532 305.75311 685.61719 291.81836 L 671.11133 266.48242 z M 613.33398 268.49023 C 622.83954 268.49023 632.34357 268.56544 639.55469 268.71484 C 653.97691 269.01366 642.17843 269.25781 613.33398 269.25781 C 584.48954 269.25781 572.68911 269.01366 587.11133 268.71484 C 594.32244 268.56544 603.82843 268.49023 613.33398 268.49023 z M 202.00586 270.04688 A 795.88275 795.88275 0 0 0 197.03516 275.38086 L 243.91211 275.79492 L 297.10547 276.26562 L 323.7207 322.41797 L 350.33789 368.57227 L 323.75977 414.86328 L 297.18359 461.1543 L 244.08789 461.625 L 190.99023 462.09375 L 184.56836 450.95898 C 181.03643 444.83385 169.13149 424.24206 158.11133 405.20117 C 147.09116 386.16028 138.08772 369.76137 138.10352 368.75781 C 138.11942 367.75426 149.96458 346.32084 164.42578 321.12891 L 175.94336 301.06445 A 795.88275 795.88275 0 0 0 145.99023 340.46484 C 138.38842 353.57641 131.85392 364.81858 131.10938 366.04297 C 129.92025 367.99843 136.46111 380.78989 155.63281 414.00195 C 170.01229 438.91222 182.60428 461.11288 183.61719 463.33594 L 185.45898 467.37695 L 243.61523 467.37695 L 301.77148 467.37695 L 329.10742 419.87109 C 344.14262 393.74307 356.70842 371.31376 357.03125 370.0293 C 357.52029 368.08345 347.53713 350.13314 304.14844 274.94336 L 301.33398 270.06445 L 244.10352 270.05469 L 202.00586 270.04688 z M 923.55469 270.07422 L 919.01562 278.50391 C 916.51919 283.14014 903.87253 305.29857 890.91016 327.74609 C 873.82776 357.32845 867.73734 369.37263 868.78125 371.51172 C 869.5734 373.13489 882.222 395.34704 896.88867 420.87305 L 923.55469 467.28516 L 981.36719 467.33008 L 1039.1797 467.37695 L 1066.2031 420.54883 C 1081.0669 394.79244 1093.7317 372.40873 1094.3457 370.80859 C 1095.0591 368.94953 1089.4146 357.4571 1078.7109 338.97266 C 1069.4979 323.06252 1056.8187 301.05948 1050.5352 290.07617 L 1039.1113 270.10547 L 981.33398 270.08984 L 923.55469 270.07422 z M 1293.334 270.1582 L 1270.2227 310.45117 C 1257.5116 332.6123 1244.8364 354.90629 1242.0566 359.99414 L 1237.0039 369.24609 L 1265.168 418.25977 L 1293.334 467.27344 L 1351.1113 467.31445 L 1408.8887 467.35742 L 1437.043 418.5 C 1452.5283 391.62798 1464.9293 368.87526 1464.5996 367.9375 C 1464.4192 367.42434 1460.3584 360.17441 1454.4023 349.67188 A 795.88275 795.88275 0 0 0 1417.2344 298.59375 L 1427.5801 316.64453 C 1440.6053 339.36948 1452.6993 360.39721 1454.4551 363.37305 L 1457.6465 368.7832 L 1442.1406 395.41406 C 1433.6121 410.06073 1421.476 431.04297 1415.1699 442.04297 L 1403.7031 462.04297 L 1350.8457 462.04297 C 1321.7739 462.04297 1297.6353 461.44427 1297.2051 460.71094 C 1296.7748 459.9776 1285.4083 440.17761 1271.9453 416.71094 C 1258.4823 393.24428 1246.7334 372.84362 1245.8379 371.37695 C 1244.6418 369.41796 1251.2777 356.44401 1270.8398 322.48828 L 1297.4688 276.26562 L 1350.6836 275.79492 L 1396.8496 275.38867 A 795.88275 795.88275 0 0 0 1392.2676 270.17383 L 1351.1113 270.16797 L 1293.334 270.1582 z M 666.23242 271.82227 L 692.52344 317.50195 C 706.98387 342.62613 718.81445 364.08907 718.81445 365.19727 C 718.81445 366.30546 707.00416 387.74867 692.56836 412.84961 L 666.32031 458.48828 L 613.26367 458.48828 L 560.20703 458.48828 L 547.84375 436.71094 C 541.04391 424.73317 529.01469 403.78106 521.11133 390.15039 L 506.74023 365.36719 L 510.8125 358.15039 C 532.35755 319.959 559.24208 274.23284 560.76953 273.18164 C 561.81337 272.46327 585.9689 271.86381 614.44922 271.84961 L 666.23242 271.82227 z M 245.22656 272.04688 C 254.89323 272.04708 264.48512 272.1203 271.66602 272.26953 L 271.66602 272.27148 C 286.0278 272.56995 273.77865 272.8133 244.44531 272.8125 C 215.11198 272.8117 203.36047 272.56722 218.33203 272.26953 C 225.8178 272.12047 235.5599 272.04667 245.22656 272.04688 z M 983.00586 272.04688 C 992.67252 272.04708 1002.2625 272.1203 1009.4434 272.26953 L 1009.4434 272.27148 C 1023.8052 272.56995 1011.556 272.8133 982.22266 272.8125 C 952.88933 272.8117 941.13783 272.56722 956.10938 272.26953 C 963.59514 272.12047 973.33919 272.04667 983.00586 272.04688 z M 1351.1113 272.04688 C 1360.9391 272.04688 1370.7671 272.12086 1378.2227 272.26953 C 1393.1338 272.56688 1380.9335 272.81055 1351.1113 272.81055 C 1321.2891 272.81055 1309.0889 272.56688 1324 272.26953 C 1331.4556 272.12086 1341.2836 272.04688 1351.1113 272.04688 z M 1034.1875 275.32617 L 1056.9766 314.90625 C 1069.5106 336.67594 1081.6 357.73184 1083.8418 361.69727 L 1087.918 368.9082 L 1081.2266 380.36523 C 1077.5466 386.66648 1065.4667 407.62053 1054.3828 426.93164 L 1034.2305 462.04297 L 981.3418 462.04297 L 928.45312 462.04297 L 909.23438 428.71094 C 898.66352 410.37761 886.5408 389.29447 882.29688 381.85938 L 874.58203 368.33984 L 886.89062 347.19141 C 893.66046 335.55983 905.62975 314.84319 913.49023 301.1543 L 927.7832 276.26562 L 980.98438 275.79492 L 1034.1875 275.32617 z M 1270.3477 316.26562 C 1270.8366 316.26562 1270.3806 317.86672 1269.334 319.82227 C 1268.2875 321.77783 1267.0299 323.37695 1266.541 323.37695 C 1266.0521 323.37695 1266.5081 321.77783 1267.5547 319.82227 C 1268.6012 317.86672 1269.8588 316.26562 1270.3477 316.26562 z M 796.44531 353.82422 C 806.27309 353.82422 816.09913 353.8982 823.55469 354.04688 C 838.4658 354.34423 826.26754 354.58789 796.44531 354.58789 C 766.62309 354.58789 754.42287 354.34422 769.33398 354.04688 C 776.78954 353.8982 786.61753 353.82422 796.44531 353.82422 z M 1166.2227 355.60156 C 1176.0504 355.60156 1185.8784 355.67554 1193.334 355.82422 C 1208.2451 356.12158 1196.0449 356.36523 1166.2227 356.36523 C 1136.4005 356.36523 1124.2002 356.12158 1139.1113 355.82422 C 1146.5669 355.67554 1156.3949 355.60156 1166.2227 355.60156 z M 428.33984 355.60352 C 438.32873 355.60372 448.24097 355.67767 455.66602 355.82617 C 470.5161 356.1232 457.8658 356.36597 427.55469 356.36523 C 397.24357 356.36446 385.09365 356.12049 400.55469 355.82422 C 408.28519 355.6759 418.35095 355.60331 428.33984 355.60352 z M 856.06836 373.1543 L 798.25586 373.20117 L 740.44531 373.24805 L 713.77734 419.6582 C 699.11067 445.18421 686.46558 467.39378 685.67578 469.01172 C 684.63575 471.14228 691.43695 484.42213 710.3418 517.17773 C 724.69788 542.05189 737.27225 564.22225 738.28516 566.44531 L 740.12695 570.48828 L 798.0625 570.46289 L 856 570.43555 L 884.17383 521.53125 C 902.4279 489.84494 911.95475 471.60111 911.23242 469.71875 C 910.61925 468.12085 897.95755 445.74077 883.09375 419.98438 L 856.06836 373.1543 z M 488.14062 374.93359 L 430.29297 374.97852 L 372.44531 375.02539 L 345.77734 421.43555 C 331.11067 446.96155 318.44445 469.21894 317.62891 470.89453 C 316.54797 473.11546 319.22751 479.19446 327.51562 493.32617 C 333.76868 503.98793 345.54906 524.3105 353.69531 538.48828 C 361.84157 552.66606 369.61106 566.06563 370.96094 568.26562 L 373.41602 572.26562 L 430.70703 572.24023 L 488 572.21484 L 515.11133 525.27148 C 530.02306 499.45271 542.71591 477.04733 543.31641 475.48242 C 544.28371 472.96167 535.59646 457.04573 493.5332 384.26562 L 488.14062 374.93359 z M 1110.2227 374.98438 L 1082.2227 423.58984 C 1066.8227 450.32227 1054.2227 472.62811 1054.2227 473.1582 C 1054.2227 473.68832 1064.7801 492.40469 1077.6836 514.75 C 1090.5872 537.09532 1103.1872 559.17041 1105.6836 563.80664 L 1110.2227 572.23633 L 1168 572.20508 L 1225.7773 572.17188 L 1252.4453 525.83398 C 1267.112 500.3478 1279.8148 478.00844 1280.6758 476.19141 C 1281.9011 473.60533 1276.1095 462.25423 1254.0098 423.93555 L 1225.7773 374.98438 L 1168 374.98438 L 1110.2227 374.98438 z M 798.22266 375.1582 C 808.05043 375.1582 817.87843 375.23218 825.33398 375.38086 C 840.24509 375.67821 828.04488 375.92188 798.22266 375.92188 C 768.40044 375.92188 756.20022 375.67821 771.11133 375.38086 C 778.56688 375.23218 788.39488 375.1582 798.22266 375.1582 z M 430.22266 376.93555 C 440.05043 376.93555 449.87843 377.00953 457.33398 377.1582 C 472.24509 377.45555 460.04488 377.69922 430.22266 377.69922 C 400.40044 377.69922 388.20022 377.45555 403.11133 377.1582 C 410.56688 377.00953 420.39488 376.93555 430.22266 376.93555 z M 1168 376.93555 C 1177.8278 376.93555 1187.6558 377.00953 1195.1113 377.1582 C 1210.0224 377.45555 1197.8222 377.69922 1168 377.69922 C 1138.1778 377.69922 1125.9776 377.45555 1140.8887 377.1582 C 1148.3442 377.00953 1158.1722 376.93555 1168 376.93555 z M 851.20508 378.4375 L 878.0625 424.90234 L 904.91992 471.36914 L 886.82812 502.70508 C 876.87769 519.94085 865.00684 540.4434 860.44727 548.26562 L 852.15625 562.48828 L 798.49414 562.95898 L 744.83203 563.42969 L 740.33203 555.84766 C 737.85656 551.67774 725.8552 530.96832 713.66211 509.82617 L 691.49219 471.38477 L 697.45312 460.9375 C 700.73095 455.19076 712.64103 434.4872 723.92188 414.93164 L 744.43359 379.37695 L 797.82031 378.90625 L 851.20508 378.4375 z M 1115.0645 380.26562 L 1168.0645 380.26562 L 1221.0664 380.26562 L 1233.9902 402.93164 C 1241.0981 415.39831 1253.1573 436.23039 1260.7891 449.22461 L 1274.666 472.85156 L 1248.2168 518.55859 L 1221.7656 564.26562 L 1167.7715 564.66406 L 1113.7773 565.06445 L 1087.4785 518.9668 L 1061.1797 472.87109 L 1080.8125 438.90625 C 1091.6101 420.22545 1100.4453 404.63521 1100.4453 404.26172 C 1100.4453 403.88824 1103.7336 398.33587 1107.7539 391.92383 L 1115.0645 380.26562 z M 376.58594 381.1543 L 430.31055 381.1543 L 484.03711 381.1543 L 510.45898 427.13477 L 536.88086 473.11523 L 510.60156 518.69141 L 484.32422 564.26562 L 430.66406 564.73633 L 377.00586 565.20703 L 374.49219 561.18164 C 372.13121 557.40027 345.43006 511.1546 330.4043 484.82227 L 323.62109 472.93555 L 329.54492 462.60156 C 332.80325 456.91742 344.72062 436.2665 356.02734 416.71094 L 376.58594 381.1543 z M 117.90234 384.50586 A 795.88275 795.88275 0 0 0 113.89258 391.04688 L 135.65234 428.78711 L 162.0918 474.64258 L 139.36719 514.12109 C 126.86957 535.83443 114.99901 556.59336 112.98828 560.25195 L 109.33398 566.9043 L 55.554688 566.91797 C 47.739201 566.9201 41.366072 566.92938 35.65625 566.94531 A 795.88275 795.88275 0 0 0 33.853516 574.00977 C 40.491246 574.03311 48.022791 574.04297 57.742188 574.04297 L 113.70508 574.04297 L 117.16016 567.37695 C 119.06014 563.71029 131.4765 541.94291 144.75195 519.00586 C 158.0274 496.06881 168.88867 476.24635 168.88867 474.95508 C 168.88867 473.66379 156.40232 451.02987 141.14062 424.6582 L 117.90234 384.50586 z M 1476.9961 384.72852 L 1468.5547 399.37695 C 1432.0397 462.75043 1425.5062 474.5541 1426.0625 476.13672 C 1426.3949 477.08273 1439.0672 499.47827 1454.2227 525.9043 L 1481.7773 573.95117 L 1539.5566 573.55273 L 1560.4883 573.4082 A 795.88275 795.88275 0 0 0 1558.334 566.92383 L 1539.0547 566.91797 L 1485.334 566.90234 L 1481.6621 560.25195 C 1479.6428 556.59336 1467.7469 535.82677 1455.2266 514.10547 L 1432.4629 474.61328 L 1444.4648 453.66211 C 1460.9978 424.80042 1469.6157 409.95665 1478.3066 395.37695 L 1480.752 391.27539 A 795.88275 795.88275 0 0 0 1476.9961 384.72852 z M 717.45898 419.37695 C 717.94786 419.37695 717.49189 420.97609 716.44531 422.93164 C 715.39874 424.8872 714.14122 426.48828 713.65234 426.48828 C 713.16345 426.48828 713.61944 424.8872 714.66602 422.93164 C 715.71259 420.97609 716.97009 419.37695 717.45898 419.37695 z M 1453.459 431.82227 C 1453.9479 431.82227 1453.4919 433.42139 1452.4453 435.37695 C 1451.3988 437.3325 1450.1412 438.93164 1449.6523 438.93164 C 1449.1634 438.93164 1449.6194 437.3325 1450.666 435.37695 C 1451.7125 433.42139 1452.9701 431.82227 1453.459 431.82227 z M 613.33398 460.49023 C 623.16176 460.49023 632.98976 460.56617 640.44531 460.71484 C 655.35643 461.01219 643.15621 461.25391 613.33398 461.25391 C 583.51176 461.25391 571.31155 461.01219 586.22266 460.71484 C 593.67821 460.56617 603.50621 460.49023 613.33398 460.49023 z M 245.22656 464.04688 C 254.89323 464.04714 264.48512 464.1203 271.66602 464.26953 C 286.0278 464.568 273.77865 464.8133 244.44531 464.8125 C 215.11198 464.8117 203.36047 464.56722 218.33203 464.26953 C 225.8178 464.12072 235.5599 464.04661 245.22656 464.04688 z M 981.33398 464.04688 C 991.16176 464.04688 1000.9898 464.12086 1008.4453 464.26953 C 1023.3565 464.56688 1011.1563 464.81055 981.33398 464.81055 C 951.51176 464.81055 939.31155 464.56688 954.22266 464.26953 C 961.67821 464.12086 971.50621 464.04688 981.33398 464.04688 z M 1351.1113 464.04688 C 1360.9391 464.04688 1370.7671 464.12086 1378.2227 464.26953 C 1393.1338 464.56688 1380.9335 464.81055 1351.1113 464.81055 C 1321.2891 464.81055 1309.0889 464.56688 1324 464.26953 C 1331.4555 464.12086 1341.2836 464.04688 1351.1113 464.04688 z M 557.95117 478.93164 L 531.22852 525.1543 C 516.53079 550.57652 503.7545 572.97837 502.83594 574.93555 C 501.47329 577.83896 505.1556 585.36594 522.84375 615.82422 C 534.76721 636.35593 547.52376 658.35539 551.19141 664.71094 L 557.85938 676.26562 L 615.375 675.96875 L 672.88867 675.66992 L 700.79883 627.96875 C 716.14982 601.7325 728.74973 579.33294 728.79883 578.19141 C 728.84786 577.0499 716.21542 554.24859 700.72461 527.52344 L 672.55859 478.93164 L 615.25586 478.93164 L 557.95117 478.93164 z M 1409.6113 481.55078 L 1352.5703 482.01953 L 1295.5293 482.48828 L 1283.0781 503.82227 C 1255.2545 551.48897 1239.1113 579.91224 1239.1113 581.23633 C 1239.1113 582.00616 1244.1759 591.30184 1250.3672 601.89453 C 1256.5585 612.48721 1269.148 634.15408 1278.3438 650.04297 L 1295.0645 678.93164 L 1353.0566 678.93164 L 1411.0469 678.93164 L 1439.1074 630.02344 L 1467.166 581.11523 L 1447.0215 546.02344 C 1435.9426 526.72349 1422.9927 504.32233 1418.2441 496.24219 L 1409.6113 481.55078 z M 188.16406 482.48828 L 159.76758 531.73047 L 131.37109 580.97461 L 159.46289 629.93945 L 187.55469 678.9043 L 245.87305 678.47461 L 304.18945 678.04297 L 331.58203 630.93164 C 346.64747 605.02053 358.96382 582.62096 358.95312 581.1543 C 358.94202 579.68763 346.36891 556.88828 331.01367 530.48828 L 303.0957 482.48828 L 245.62891 482.48828 L 188.16406 482.48828 z M 925.79492 482.48828 L 910.40234 509.1543 C 865.55729 586.8474 868.4872 581.17024 871.09961 585.33008 C 872.42073 587.43378 882.26833 604.35386 892.98438 622.93164 C 903.70044 641.50942 915.63255 662.16987 919.5 668.8418 C 924.47655 677.42708 927.30883 680.67481 929.18945 679.95312 C 930.65095 679.39232 956.49035 678.93164 986.61133 678.93164 L 1041.377 678.93164 L 1050.2812 663.37695 C 1055.178 654.82139 1067.6682 633.11993 1078.0371 615.15234 C 1088.4061 597.18475 1096.8887 581.85206 1096.8887 581.07812 C 1096.8887 580.30421 1084.2154 557.80523 1068.7246 531.08008 L 1040.5586 482.48828 L 983.17578 482.48828 L 925.79492 482.48828 z M 668.15625 485.10352 L 674.32617 495.35156 C 677.71998 500.98801 689.75141 521.7463 701.0625 541.48047 L 721.62891 577.35938 L 695.23242 623.25781 L 668.83789 669.1543 L 615.40234 669.625 L 561.9668 670.0957 L 554.92578 658.07031 C 551.05297 651.45605 538.96557 630.57331 528.06445 611.66406 L 508.24414 577.2832 L 526.36328 545.88477 C 536.3289 528.61623 548.2459 508.08785 552.8457 500.26562 L 561.20898 486.04297 L 614.68164 485.57422 L 668.15625 485.10352 z M 192.33594 488.6582 L 245.875 489.12891 L 299.41406 489.59961 L 325.7832 535.23633 L 352.15039 580.87109 L 325.60352 626.79102 L 299.05664 672.71094 L 245.71289 673.17969 L 192.36719 673.65039 L 184.36914 659.84766 C 179.9699 652.25569 167.87016 631.35525 157.48047 613.40234 L 138.58984 580.75977 L 155.24609 552.06836 C 164.40634 536.28793 173.9004 519.77695 176.3457 515.37695 C 178.79101 510.97695 183.38973 503.16512 186.56445 498.01758 L 192.33594 488.6582 z M 929.82227 488.71094 L 983.00391 488.71094 L 1036.1875 488.71094 L 1042.3418 498.93164 C 1045.727 504.55386 1057.766 525.32721 1069.0957 545.09375 L 1089.6953 581.0332 L 1070.8848 613.53906 C 1060.5387 631.41696 1048.4807 652.2445 1044.0898 659.82227 L 1036.1074 673.59961 L 983.02148 673.59961 L 929.9375 673.59961 L 922.91016 661.59961 C 919.04582 654.99961 906.98245 634.15753 896.10156 615.2832 L 876.31836 580.96484 L 898.90039 541.50391 C 911.32052 519.80046 923.35862 499.04362 925.65234 495.37695 L 929.82227 488.71094 z M 1299.5996 488.71094 L 1352.8066 488.71094 L 1406.0156 488.71094 L 1415.584 505.1543 C 1420.8467 514.19874 1432.6071 534.39852 1441.7188 550.04297 C 1450.8305 565.68741 1458.3051 579.35165 1458.3281 580.40625 C 1458.3515 581.46086 1446.5588 602.85999 1432.123 627.96094 L 1405.877 673.59961 L 1352.7578 673.59961 L 1299.6367 673.59961 L 1297.1387 669.59961 C 1295.7643 667.39961 1283.7111 646.54638 1270.3535 623.25977 L 1246.0664 580.91992 L 1268.4219 541.80469 C 1280.7168 520.29116 1292.7607 499.54352 1295.1875 495.69922 L 1299.5996 488.71094 z M 164.57031 529.59961 C 165.0592 529.59961 164.60127 531.19874 163.55469 533.1543 C 162.5081 535.10985 161.25256 536.71094 160.76367 536.71094 C 160.27478 536.71094 160.73076 535.10985 161.77734 533.1543 C 162.82392 531.19874 164.08142 529.59961 164.57031 529.59961 z M 1268.5703 534.93164 C 1269.0592 534.93164 1268.6012 536.53273 1267.5547 538.48828 C 1266.5081 540.44384 1265.2526 542.04297 1264.7637 542.04297 C 1264.2748 542.04297 1264.7307 540.44384 1265.7773 538.48828 C 1266.8239 536.53273 1268.0815 534.93164 1268.5703 534.93164 z M 897.01367 538.48828 C 897.50256 538.48828 897.04658 540.08741 896 542.04297 C 894.95342 543.99852 893.69787 545.59961 893.20898 545.59961 C 892.72009 545.59961 893.17608 543.99852 894.22266 542.04297 C 895.26924 540.08741 896.52478 538.48828 897.01367 538.48828 z M 854.22266 586.48242 L 796.54102 586.92969 L 738.86133 587.37695 L 711.56836 634.48828 C 696.55723 660.39939 683.84965 682.54046 683.33008 683.69141 C 682.81049 684.84236 691.11026 700.84344 701.77344 719.24805 C 712.4366 737.65265 725.09996 759.68862 729.91406 768.2168 L 738.66602 783.72266 L 796.63477 783.77148 L 854.60352 783.82227 L 882.62109 734.98242 C 898.03151 708.12096 910.20448 685.00441 909.66992 683.61133 C 909.13534 682.21826 902.96726 671.19599 895.96484 659.11719 C 888.96241 647.03839 876.70665 625.75311 868.72852 611.81836 L 854.22266 586.48242 z M 486.22266 588.2793 L 428.54297 588.7168 L 370.86328 589.1543 L 343.58398 636.26562 C 328.58084 662.17674 315.9053 684.23692 315.41602 685.28711 C 314.92674 686.33731 324.66019 704.73709 337.04688 726.17578 C 349.43358 747.61448 362.06528 769.7417 365.11719 775.34766 L 370.66602 785.54102 L 428.65039 785.57031 L 486.63477 785.59961 L 514.64453 736.77734 C 532.57893 705.51638 542.25735 686.91947 541.55078 685.07812 C 540.94382 683.49648 528.24571 661.06944 513.33398 635.24023 L 486.22266 588.2793 z M 1148.4395 588.32812 C 1112.2509 588.37881 1107.6995 588.88476 1106.8105 591.20117 C 1106.191 592.81552 1094.7908 613.0153 1081.4766 636.08984 C 1068.1623 659.16438 1056.083 680.12014 1054.6348 682.6582 C 1052.0778 687.13972 1052.8157 688.69066 1080.2227 736.38477 L 1108.4453 785.49414 L 1166.2891 785.54688 L 1224.1348 785.59961 L 1252.2227 736.73242 C 1267.6711 709.8555 1280.0408 687.09651 1279.7109 686.1582 C 1279.3809 685.21989 1266.7102 662.83942 1251.5547 636.42383 L 1224 588.39648 L 1165.9688 588.33203 C 1159.4262 588.32468 1153.6092 588.32088 1148.4395 588.32812 z M 796.44531 588.49023 C 805.95087 588.49023 815.4549 588.56544 822.66602 588.71484 C 837.08824 589.01367 825.28976 589.25781 796.44531 589.25781 C 767.60087 589.25781 755.80044 589.01367 770.22266 588.71484 C 777.43377 588.56544 786.93976 588.49023 796.44531 588.49023 z M 111.36523 590.04297 L 56.126953 590.44922 L 29.605469 590.64258 A 795.88275 795.88275 0 0 0 29.419922 591.37109 L 54.222656 591.82227 L 107.55469 592.79102 L 54.222656 593.59961 L 28.751953 593.98633 A 795.88275 795.88275 0 0 0 28.521484 594.89062 L 54.037109 595.33789 L 107.1875 596.26562 L 133.72461 642.39258 L 160.26172 688.52148 L 156.24414 695.72656 C 154.03441 699.68973 142.03924 720.53185 129.58789 742.04297 L 106.94922 781.1543 L 53.917969 782.08398 L 2.0742188 782.99023 A 795.88275 795.88275 0 0 0 2.0722656 783.0293 L 54.222656 783.82227 L 107.55469 784.63086 L 54.222656 785.59961 L 1.8964844 786.55078 A 795.88275 795.88275 0 0 0 1.8945312 786.57617 L 56.28125 786.97266 L 111.67188 787.37695 L 139.55469 739.20898 C 158.08842 707.19118 167.13534 689.88723 166.53711 687.59961 C 166.04212 685.70675 153.42671 662.9808 138.50195 637.09961 L 111.36523 590.04297 z M 1559.1094 590.04297 C 1553.0603 590.04213 1546.0812 590.05659 1538.0312 590.05859 L 1480 590.07227 L 1476.3301 596.72461 C 1474.3119 600.3832 1461.7119 622.35259 1448.3301 645.54492 C 1434.9483 668.73726 1424 688.25319 1424 688.91406 C 1424 689.57493 1436.6 711.98827 1452 738.7207 L 1480 787.32422 L 1538.0312 787.35156 C 1570.9629 787.36638 1585.9438 787.5887 1592.7305 786.07031 A 795.88275 795.88275 0 0 0 1592.4629 778.50586 L 1590.3828 782.0957 L 1537.2773 781.625 L 1484.1719 781.1543 L 1457.6406 735.17188 C 1443.0489 709.8813 1431.1113 688.90985 1431.1113 688.56836 C 1431.1113 688.22687 1435.3857 680.51849 1440.6113 671.43945 C 1445.8369 662.36041 1452.1448 651.33359 1454.6289 646.93359 C 1457.1131 642.53359 1464.761 629.33294 1471.623 617.59961 L 1484.0996 596.26562 L 1537.2402 595.79688 L 1566.6348 595.53711 A 795.88275 795.88275 0 0 0 1565.9902 592.66211 C 1560.8391 592.75347 1550.9772 592.81288 1536.8887 592.8125 C 1507.5554 592.8117 1495.8057 592.56722 1510.7773 592.26953 C 1525.7488 591.9719 1549.7476 591.97106 1564.1094 592.26953 C 1564.8877 592.28571 1565.2886 592.30058 1565.9121 592.31641 A 795.88275 795.88275 0 0 0 1565.4043 590.05469 C 1563.3901 590.04844 1561.3774 590.04328 1559.1094 590.04297 z M 430.11719 590.26758 C 439.78385 590.26785 449.37379 590.34295 456.55469 590.49219 C 470.91647 590.79066 458.66732 591.034 429.33398 591.0332 C 400.00065 591.0324 388.24914 590.78792 403.2207 590.49023 C 410.70647 590.34142 420.45052 590.26731 430.11719 590.26758 z M 1166.2227 590.26758 C 1175.7282 590.26758 1185.2342 590.34278 1192.4453 590.49219 C 1206.8676 590.79101 1195.0672 591.03516 1166.2227 591.03516 C 1137.3783 591.03516 1125.5778 590.79101 1140 590.49219 C 1147.2111 590.34278 1156.7171 590.26758 1166.2227 590.26758 z M 743.56055 591.82227 L 796.45117 591.82227 L 849.3418 591.82227 L 875.63477 637.50195 C 890.0952 662.62613 901.92578 684.10583 901.92578 685.23438 C 901.92578 686.3629 890.08938 707.8061 875.62305 732.88672 L 849.32031 778.48828 L 796.32031 778.48828 L 743.31836 778.48828 L 730.95508 756.71094 C 724.15524 744.73316 712.12602 723.78106 704.22266 710.15039 L 689.85156 685.36719 L 693.93164 678.15039 C 696.17561 674.18106 708.26121 653.1325 720.78711 631.37695 L 743.56055 591.82227 z M 1219.0586 593.54883 L 1245.3672 639.35156 C 1259.8371 664.54347 1271.6769 685.95387 1271.6777 686.93164 C 1271.6786 687.90942 1259.7986 709.3105 1245.2773 734.48828 L 1218.875 780.26562 L 1166.0547 780.26562 L 1113.2344 780.26562 L 1087.0098 734.48828 C 1072.5857 709.3105 1060.5086 688.19008 1060.1738 687.55469 C 1059.8391 686.91931 1065.0826 676.91887 1071.8262 665.33203 C 1078.5698 653.7452 1090.5184 633.06584 1098.3789 619.37695 L 1112.6719 594.48828 L 1165.8652 594.01758 L 1219.0586 593.54883 z M 375.54297 593.59961 L 428.50781 593.59961 L 481.47461 593.59961 L 485.7793 601.1543 C 488.14698 605.30985 499.94725 625.84872 512.00391 646.79492 C 524.06057 667.74114 533.92578 685.82762 533.92578 686.98828 C 533.92578 688.14896 522.11564 709.61074 507.68164 734.68164 L 481.43945 780.26562 L 428.5293 780.26562 L 375.62109 780.26562 L 352.8418 740.71094 C 340.3133 718.95539 328.24322 697.95408 326.01953 694.04297 L 321.97656 686.93164 L 348.75977 640.26562 L 375.54297 593.59961 z M 356.57031 620.26562 C 357.0592 620.26563 356.60126 621.86671 355.55469 623.82227 C 354.50811 625.77782 353.25256 627.37695 352.76367 627.37695 C 352.27478 627.37695 352.73076 625.77782 353.77734 623.82227 C 354.82392 621.86671 356.08142 620.26562 356.57031 620.26562 z M 712.125 639.82227 C 712.61389 639.82227 712.15791 641.4214 711.11133 643.37695 C 710.06475 645.3325 708.8092 646.93164 708.32031 646.93164 C 707.83142 646.93164 708.28741 645.3325 709.33398 643.37695 C 710.38056 641.4214 711.63611 639.82227 712.125 639.82227 z M 615.11133 672.04492 C 624.61688 672.04492 634.12287 672.12013 641.33398 672.26953 C 655.75621 672.56836 643.95578 672.8125 615.11133 672.8125 C 586.26689 672.8125 574.46645 672.56836 588.88867 672.26953 C 596.09978 672.12013 605.60577 672.04492 615.11133 672.04492 z M 245.33398 675.60156 C 255.16176 675.60156 264.98976 675.67554 272.44531 675.82422 C 287.35643 676.12158 275.15621 676.36523 245.33398 676.36523 C 215.51176 676.36523 203.31155 676.12158 218.22266 675.82422 C 225.67821 675.67554 235.50621 675.60156 245.33398 675.60156 z M 1352.8887 675.60156 C 1362.7164 675.60156 1372.5444 675.67554 1380 675.82422 C 1394.9111 676.12158 1382.7109 676.36523 1352.8887 676.36523 C 1323.0665 676.36523 1310.8662 676.12158 1325.7773 675.82422 C 1333.2329 675.67554 1343.0609 675.60156 1352.8887 675.60156 z M 983.00586 675.60352 C 992.99475 675.60372 1002.9089 675.67767 1010.334 675.82617 C 1025.1841 676.1232 1012.5337 676.36597 982.22266 676.36523 C 951.91155 676.36446 939.76163 676.12049 955.22266 675.82422 C 962.95317 675.6759 973.01697 675.60331 983.00586 675.60352 z M 671.17969 693.1543 L 613.36719 693.19531 L 555.55469 693.23633 L 532.44531 733.55273 C 519.7342 755.7263 507.09559 777.96168 504.35938 782.96484 L 499.38281 792.06055 L 525.2832 836.82617 C 539.52827 861.44691 552.09618 883.59243 553.21094 886.03906 L 555.23828 890.48828 L 613.17383 890.46289 L 671.11133 890.4375 L 698.62305 842.90625 C 713.7542 816.76471 726.13953 793.77782 726.14453 791.82227 C 726.15059 789.86671 713.78659 766.86649 698.66797 740.71094 L 671.17969 693.1543 z M 613.33398 695.1582 C 623.16176 695.1582 632.98976 695.23218 640.44531 695.38086 C 655.35643 695.67821 643.15621 695.92188 613.33398 695.92188 C 583.51176 695.92188 571.31155 695.67821 586.22266 695.38086 C 593.67821 695.23218 603.50621 695.1582 613.33398 695.1582 z M 185.45898 696.71094 L 183.52148 700.96289 C 182.45576 703.30191 171.66033 722.30235 159.53125 743.18555 C 147.40216 764.06875 135.70947 784.35831 133.54688 788.27344 L 129.61523 795.39258 L 151.29102 832.7168 C 163.21308 853.24612 176.08411 875.44297 179.89453 882.04297 L 186.82422 894.04297 L 244.07812 894.03125 L 301.33398 894.02148 L 304.14844 889.14453 C 347.59068 813.86197 357.52042 795.98171 357.03125 793.92773 C 356.70842 792.57229 344.10493 770.14295 329.02344 744.08594 L 301.60352 696.71094 L 243.53125 696.71094 L 185.45898 696.71094 z M 1039.2539 696.71094 L 981.4043 696.72461 L 923.55469 696.74023 L 919.86914 703.39258 C 917.84187 707.05117 905.24187 729.04419 891.86914 752.26758 C 878.49641 775.49098 867.55469 794.8121 867.55469 795.20312 C 867.55469 795.59415 879.17139 815.9923 893.36914 840.53125 C 907.56688 865.0702 920.09618 887.14907 921.21094 889.5957 L 923.23828 894.04297 L 981.17383 894.00977 L 1039.1113 893.97656 L 1067.2676 845.03516 C 1085.0839 814.06726 1095.0241 795.05015 1094.334 793.25195 C 1093.7342 791.68891 1081.0953 769.32764 1066.248 743.56055 L 1039.2539 696.71094 z M 1408.8887 696.73438 L 1351.1113 696.74805 L 1293.334 696.76172 L 1265.334 745.36719 C 1249.934 772.09962 1237.334 794.40545 1237.334 794.93555 C 1237.334 795.46567 1247.8914 814.18202 1260.7949 836.52734 C 1273.6985 858.87265 1286.2985 880.95663 1288.7949 885.60352 L 1293.334 894.05273 L 1351.0918 893.60352 L 1408.8496 893.1543 L 1434.1504 849.59961 C 1448.0657 825.64406 1460.8035 803.54172 1462.457 800.48438 L 1465.4648 794.92188 L 1439.9805 750.70703 C 1425.9648 726.38788 1413.236 704.29405 1411.6934 701.61133 L 1408.8887 696.73438 z M 981.33398 698.71289 C 991.16176 698.71289 1000.9898 698.78687 1008.4453 698.93555 C 1023.3565 699.2329 1011.1563 699.47656 981.33398 699.47656 C 951.51176 699.47656 939.31155 699.2329 954.22266 698.93555 C 961.67821 698.78687 971.50621 698.71289 981.33398 698.71289 z M 1351.1113 698.71289 C 1360.9391 698.71289 1370.7671 698.78687 1378.2227 698.93555 C 1393.1338 699.2329 1380.9335 699.47656 1351.1113 699.47656 C 1321.2891 699.47656 1309.0889 699.2329 1324 698.93555 C 1331.4555 698.78687 1341.2836 698.71289 1351.1113 698.71289 z M 222.55469 698.83203 C 229.09129 698.81947 236.23219 698.84321 243.67188 698.9082 L 297.77734 699.38086 L 242.30859 700.26758 C 211.80087 700.75556 187.45414 700.54287 188.20312 699.79492 C 188.76486 699.23403 202.94488 698.86973 222.55469 698.83203 z M 559.75391 699.37695 L 613.40625 699.37695 L 667.05664 699.37695 L 693.51367 745.37695 L 719.96875 791.37695 L 693.70117 836.93359 L 667.43555 882.48828 L 613.95703 882.95898 C 572.50999 883.32337 560.08123 882.9219 558.71289 881.17969 C 557.74185 879.94334 548.93404 864.93338 539.14062 847.82227 C 529.34719 830.71116 518.02136 811.00938 513.97266 804.04102 L 506.61133 791.37109 L 512.60352 780.92969 C 515.89932 775.18693 527.8577 754.4872 539.17578 734.93164 L 559.75391 699.37695 z M 928.18945 701.99219 L 981.625 702.46289 L 1035.0586 702.93164 L 1061.4551 748.83203 L 1087.8516 794.73047 L 1061.5898 840.38672 L 1035.3281 886.04297 L 981.72266 886.51367 L 928.11523 886.98438 L 925.58984 882.95898 C 924.20045 880.7447 912.11976 859.97619 898.74414 836.80664 L 874.42578 794.67969 L 894.27148 760.36133 C 905.18702 741.48643 917.28458 720.63183 921.1543 714.01758 L 928.18945 701.99219 z M 1298.082 702.04297 L 1351.1309 702.04297 L 1404.1777 702.04297 L 1417.1016 724.71094 C 1424.2095 737.17761 1436.2674 758.00439 1443.8965 770.99414 L 1457.7676 794.61328 L 1431.2637 840.32812 L 1404.7598 886.04297 L 1351.5078 886.51367 C 1310.2515 886.87792 1297.8537 886.47789 1296.4707 884.73633 C 1295.4889 883.49997 1283.3301 862.71317 1269.4512 838.54492 L 1244.2168 794.60352 L 1256.7754 773.10156 C 1263.6824 761.27587 1269.334 751.17412 1269.334 750.65234 C 1269.334 750.13056 1270.8109 747.57975 1272.6172 744.98438 C 1274.4235 742.389 1278.2967 735.86606 1281.2246 730.48828 C 1284.1525 725.1105 1289.1446 716.51028 1292.3164 711.37695 L 1298.082 702.04297 z M 189.97461 702.93164 L 243.64844 702.93164 L 297.32031 702.93164 L 323.87109 748.8125 L 350.41992 794.69141 L 324.02734 840.36719 L 297.63477 886.04297 L 244.02344 886.51367 L 190.41211 886.98438 L 183.37695 874.95898 C 172.61016 856.55171 151.35309 819.87457 143.75781 806.60156 L 136.95508 794.71289 L 142.88672 784.37891 C 146.14939 778.69477 158.0784 758.04384 169.39648 738.48828 L 189.97461 702.93164 z M 900.57031 742.93164 C 901.0592 742.93164 900.60126 744.53272 899.55469 746.48828 C 898.50811 748.44384 897.25256 750.04297 896.76367 750.04297 C 896.27478 750.04297 896.73076 748.44384 897.77734 746.48828 C 898.82392 744.53272 900.08142 742.93164 900.57031 742.93164 z M 796.44531 780.49023 C 806.27309 780.49023 816.09913 780.56617 823.55469 780.71484 C 838.4658 781.01219 826.26754 781.25391 796.44531 781.25391 C 766.62309 781.25391 754.42287 781.01219 769.33398 780.71484 C 776.78954 780.56617 786.61753 780.49023 796.44531 780.49023 z M 428.44531 782.26953 C 438.27309 782.26953 448.09913 782.34351 455.55469 782.49219 C 470.4658 782.78954 458.26754 783.0332 428.44531 783.0332 C 398.62309 783.0332 386.42287 782.78954 401.33398 782.49219 C 408.78954 782.34351 418.61753 782.26953 428.44531 782.26953 z M 1166.2227 782.26953 C 1176.0504 782.26953 1185.8784 782.34351 1193.334 782.49219 C 1208.2451 782.78954 1196.0449 783.0332 1166.2227 783.0332 C 1136.4005 783.0332 1124.2002 782.78954 1139.1113 782.49219 C 1146.5669 782.34351 1156.3949 782.26953 1166.2227 782.26953 z M 1537.6719 784.04688 C 1547.3385 784.04708 1556.9285 784.1203 1564.1094 784.26953 L 1564.1094 784.27148 C 1578.4712 784.56995 1566.222 784.8133 1536.8887 784.8125 C 1507.5554 784.8117 1495.8057 784.56722 1510.7773 784.26953 C 1518.2631 784.12047 1528.0052 784.04667 1537.6719 784.04688 z M 739.27539 800.71094 L 710.68945 850.2793 C 684.54316 895.62035 682.30841 900.16997 684.47852 903.61328 C 685.78337 905.68368 695.1928 921.77695 705.38867 939.37695 C 715.58455 956.97695 727.54677 977.62375 731.9707 985.25781 C 737.58035 994.93804 740.79419 998.83779 742.5957 998.14648 C 744.01641 997.60131 769.84135 997.1543 799.98242 997.1543 L 854.7832 997.1543 L 882.50195 949.26953 C 897.74756 922.93211 910.16219 900.33168 910.08789 899.04688 C 910.01362 897.76208 897.38433 875.11094 882.02344 848.71094 L 854.09375 800.71094 L 796.68359 800.71094 L 739.27539 800.71094 z M 371.27539 802.48828 L 342.87695 851.73438 L 314.47852 900.98047 L 342.92969 950.40039 L 371.38086 999.82227 L 428.78516 999.30469 C 460.35736 999.02039 486.7036 998.22082 487.33203 997.52734 C 490.61087 993.90914 542.20851 902.90781 542.13281 900.87695 C 542.08379 899.56343 529.48024 876.88828 514.125 850.48828 L 486.20703 802.48828 L 428.74023 802.48828 L 371.27539 802.48828 z M 1108.9043 802.48828 L 1093.5137 829.1543 C 1048.6529 906.87483 1051.5955 901.16887 1054.2188 905.33008 C 1055.5451 907.43378 1068.1676 929.15517 1082.2676 953.59961 C 1096.3675 978.04406 1108.547 998.44276 1109.334 998.93164 C 1110.1211 999.4205 1136.3654 999.6008 1167.6543 999.33008 L 1224.543 998.83789 L 1233.418 983.33008 C 1238.2998 974.8008 1250.7775 953.11993 1261.1465 935.15234 C 1271.5154 917.18474 1280 901.85206 1280 901.07812 C 1280 900.3042 1267.3248 877.80524 1251.834 851.08008 L 1223.6699 802.48828 L 1166.2871 802.48828 L 1108.9043 802.48828 z M 56.445312 803.38672 C 2.9605211 803.37699 1.7773438 803.45296 1.7773438 806.93164 C 1.7773438 810.40717 2.9671996 810.48765 54.666016 810.50195 L 107.55469 810.51758 L 111.26172 817.16992 C 113.29986 820.82852 125.17242 841.54358 137.64453 863.20312 L 160.32031 902.58398 L 133.86328 948.53516 L 107.4043 994.48828 L 54.146484 995.41602 L 27.166016 995.88672 A 795.88275 795.88275 0 0 0 27.359375 996.74609 L 54.222656 997.1543 L 107.55469 997.96484 L 54.222656 998.94531 L 27.960938 999.42969 A 795.88275 795.88275 0 0 0 28.066406 999.90234 L 56.679688 999.875 L 112.4707 999.82227 L 139.77734 952.71094 C 154.79507 926.79983 167.0877 904.4694 167.0957 903.08789 C 167.10384 901.70636 154.51133 878.71047 139.11133 851.98633 L 111.11133 803.39844 L 56.445312 803.38672 z M 1566.584 803.57617 C 1558.8856 803.59383 1549.2881 803.69877 1537.3242 803.79688 L 1480.1328 804.26562 L 1467.8223 825.59961 C 1461.0514 837.33294 1448.3926 859.28559 1439.6914 874.38477 C 1430.9903 889.48396 1424.101 902.77323 1424.3809 903.91602 C 1424.6609 905.05881 1437.2639 927.30464 1452.3887 953.35156 L 1479.8887 1000.709 L 1538.0469 1000.709 C 1549.2687 1000.709 1558.2685 1000.7389 1565.6797 1000.7227 A 795.88275 795.88275 0 0 0 1566.375 998.00195 C 1561.0561 998.08717 1551.557 998.14258 1537.7773 998.14258 C 1507.9551 998.14258 1495.7549 997.90087 1510.666 997.60352 C 1525.5771 997.30617 1549.9776 997.30617 1564.8887 997.60352 C 1565.5664 997.61703 1565.9002 997.6293 1566.4668 997.64258 A 795.88275 795.88275 0 0 0 1567.0859 995.21875 L 1537.3535 994.95703 L 1483.707 994.48633 L 1457.2773 948.58398 L 1430.8477 902.67969 L 1453.4668 863.25 C 1465.908 841.56374 1477.7686 820.82657 1479.8223 817.16797 L 1483.5547 810.51562 L 1537.1582 810.50195 L 1590.7617 810.48828 L 1592.3398 812.97852 A 795.88275 795.88275 0 0 0 1592.7422 804.94531 C 1588.5165 803.8077 1580.7817 803.54361 1566.584 803.57617 z M 849.50781 806.88086 L 858.25586 821.57422 C 863.06725 829.65511 875.15557 850.40387 885.11914 867.68359 L 903.23438 899.10156 L 876.67773 945.01758 L 850.12305 990.93164 L 796.83594 991.40234 L 743.55078 991.87305 L 736.45508 979.84766 C 732.55247 973.2335 720.43814 952.32808 709.53516 933.39258 L 689.71094 898.96484 L 706.36133 870.28125 C 715.51878 854.50564 725.02209 837.99961 727.48047 833.59961 C 729.93886 829.19961 734.31831 821.59983 737.21094 816.71094 L 742.46875 807.82227 L 795.98828 807.35156 L 849.50781 806.88086 z M 375.44727 808.6582 L 428.98633 809.12891 L 482.52539 809.59961 L 508.89258 855.23438 L 535.25977 900.86719 L 508.75 946.78906 L 482.24023 992.71094 L 428.85938 993.17969 L 375.47852 993.65039 L 367.48047 979.84766 C 363.08123 972.25569 350.99987 951.38664 340.63281 933.47266 L 321.7832 900.90234 L 338.38281 872.13867 C 347.51287 856.31931 356.99049 839.77695 359.44336 835.37695 C 361.89624 830.97695 366.50106 823.16512 369.67578 818.01758 L 375.44727 808.6582 z M 1112.9336 808.71094 L 1166.1152 808.71094 L 1219.2988 808.71094 L 1225.459 818.93164 C 1228.8471 824.55387 1240.8926 845.31556 1252.2285 865.06641 L 1272.8398 900.97656 L 1254.0117 933.50977 C 1243.6565 951.40337 1231.5921 972.2445 1227.2012 979.82227 L 1219.2168 993.59961 L 1166.1328 993.59961 L 1113.0469 993.59961 L 1106.0215 981.59961 C 1102.1571 974.99961 1090.0938 954.15753 1079.2129 935.2832 L 1059.4277 900.96484 L 1082.0098 861.50391 C 1094.4299 839.80046 1106.47 819.04362 1108.7637 815.37695 L 1112.9336 808.71094 z M 347.67969 849.59961 C 348.16858 849.59961 347.71259 851.19874 346.66602 853.1543 C 345.61944 855.10985 344.36389 856.71094 343.875 856.71094 C 343.38611 856.71094 343.84209 855.10985 344.88867 853.1543 C 345.93525 851.19874 347.1908 849.59961 347.67969 849.59961 z M 1080.125 858.48828 C 1080.6139 858.48828 1080.1579 860.08741 1079.1113 862.04297 C 1078.0647 863.99852 1076.8073 865.59961 1076.3184 865.59961 C 1075.8296 865.59961 1076.2875 863.99852 1077.334 862.04297 C 1078.3806 860.08741 1079.6361 858.48828 1080.125 858.48828 z M 671.11133 906.48242 L 613.44727 906.92969 L 555.78125 907.37695 L 527.58594 956.25586 L 499.39062 1005.1367 L 503.32422 1012.2559 C 505.48785 1016.1722 514.18866 1031.3763 522.66016 1046.043 C 531.13166 1060.7096 541.99814 1079.6886 546.80859 1088.2168 L 555.55469 1103.7227 L 613.52344 1103.7715 L 671.49219 1103.8223 L 699.51172 1054.9824 C 714.92214 1028.121 727.09315 1005.0044 726.55859 1003.6113 C 726.02401 1002.2183 719.85594 991.19599 712.85352 979.11719 C 705.85109 967.03839 693.59532 945.75311 685.61719 931.81836 L 671.11133 906.48242 z M 613.33398 908.49023 C 622.83954 908.49023 632.34357 908.56544 639.55469 908.71484 C 653.97691 909.01366 642.17843 909.25781 613.33398 909.25781 C 584.48954 909.25781 572.68911 909.01366 587.11133 908.71484 C 594.32244 908.56544 603.82843 908.49023 613.33398 908.49023 z M 186.875 910.04297 L 177.30469 926.48828 C 172.04105 935.53272 159.85825 956.53207 150.23242 973.1543 C 140.60659 989.77652 132.00125 1004.5763 131.10938 1006.043 C 129.92025 1007.9984 136.46111 1020.7899 155.63281 1054.002 C 170.01229 1078.9122 182.60428 1101.1129 183.61719 1103.3359 L 185.45898 1107.377 L 243.61523 1107.377 L 301.77148 1107.377 L 329.10742 1059.8711 C 344.14262 1033.7431 356.70842 1011.3138 357.03125 1010.0293 C 357.52029 1008.0834 347.53713 990.13314 304.14844 914.94336 L 301.33398 910.06445 L 244.10352 910.05469 L 186.875 910.04297 z M 923.55469 910.07422 L 919.01562 918.50391 C 916.51919 923.14014 903.87253 945.29857 890.91016 967.74609 C 873.82776 997.32845 867.73734 1009.3726 868.78125 1011.5117 C 869.5734 1013.1349 882.222 1035.347 896.88867 1060.873 L 923.55469 1107.2852 L 981.36719 1107.3301 L 1039.1797 1107.377 L 1066.2031 1060.5488 C 1081.0669 1034.7924 1093.7317 1012.4087 1094.3457 1010.8086 C 1095.0591 1008.9495 1089.4146 997.4571 1078.7109 978.97266 C 1069.4979 963.06252 1056.8187 941.05948 1050.5352 930.07617 L 1039.1113 910.10547 L 981.33398 910.08984 L 923.55469 910.07422 z M 1293.334 910.1582 L 1270.2227 950.45117 C 1257.5116 972.6123 1244.8364 994.90629 1242.0566 999.99414 L 1237.0039 1009.2461 L 1265.168 1058.2598 L 1293.334 1107.2734 L 1351.1113 1107.3145 L 1408.8887 1107.3574 L 1437.043 1058.5 C 1452.5283 1031.628 1464.9293 1008.8753 1464.5996 1007.9375 C 1464.2699 1006.9997 1451.6009 984.62067 1436.4453 958.20508 L 1408.8887 910.17578 L 1351.1113 910.16797 L 1293.334 910.1582 z M 666.23242 911.82227 L 692.52344 957.50195 C 706.98387 982.62613 718.81445 1004.0891 718.81445 1005.1973 C 718.81445 1006.3055 707.00416 1027.7487 692.56836 1052.8496 L 666.32031 1098.4883 L 613.26367 1098.4883 L 560.20703 1098.4883 L 547.84375 1076.7109 C 541.04391 1064.7332 529.01469 1043.7811 521.11133 1030.1504 L 506.74023 1005.3672 L 510.8125 998.15039 C 532.35755 959.959 559.24208 914.23284 560.76953 913.18164 C 561.81337 912.46327 585.9689 911.86381 614.44922 911.84961 L 666.23242 911.82227 z M 245.22656 912.04688 C 254.89323 912.04708 264.48512 912.1203 271.66602 912.26953 L 271.66602 912.27148 C 286.0278 912.56995 273.77865 912.8133 244.44531 912.8125 C 215.11198 912.8117 203.36047 912.56722 218.33203 912.26953 C 225.8178 912.12047 235.5599 912.04667 245.22656 912.04688 z M 983.00586 912.04688 C 992.67252 912.04708 1002.2625 912.1203 1009.4434 912.26953 L 1009.4434 912.27148 C 1023.8052 912.56995 1011.556 912.8133 982.22266 912.8125 C 952.88933 912.8117 941.13783 912.56722 956.10938 912.26953 C 963.59514 912.12047 973.33919 912.04667 983.00586 912.04688 z M 1351.1113 912.04688 C 1360.9391 912.04688 1370.7671 912.12086 1378.2227 912.26953 C 1393.1338 912.56688 1380.9335 912.81055 1351.1113 912.81055 C 1321.2891 912.81055 1309.0889 912.56688 1324 912.26953 C 1331.4556 912.12086 1341.2836 912.04688 1351.1113 912.04688 z M 190.71875 915.32617 L 243.91211 915.79492 L 297.10547 916.26562 L 323.7207 962.41797 L 350.33789 1008.5723 L 323.75977 1054.8633 L 297.18359 1101.1543 L 244.08789 1101.625 L 190.99023 1102.0938 L 184.56836 1090.959 C 181.03643 1084.8338 169.13149 1064.2421 158.11133 1045.2012 C 147.09116 1026.1603 138.08772 1009.7614 138.10352 1008.7578 C 138.11942 1007.7543 149.96458 986.32084 164.42578 961.12891 L 190.71875 915.32617 z M 1034.1875 915.32617 L 1056.9766 954.90625 C 1069.5106 976.67594 1081.6 997.73184 1083.8418 1001.6973 L 1087.918 1008.9082 L 1081.2266 1020.3652 C 1077.5466 1026.6665 1065.4667 1047.6205 1054.3828 1066.9316 L 1034.2305 1102.043 L 981.3418 1102.043 L 928.45312 1102.043 L 909.23438 1068.7109 C 898.66352 1050.3776 886.5408 1029.2945 882.29688 1021.8594 L 874.58203 1008.3398 L 886.89062 987.19141 C 893.66046 975.55983 905.62975 954.84319 913.49023 941.1543 L 927.7832 916.26562 L 980.98438 915.79492 L 1034.1875 915.32617 z M 1403.8984 915.32617 L 1427.5801 956.64453 C 1440.6053 979.36948 1452.6993 1000.3972 1454.4551 1003.373 L 1457.6465 1008.7832 L 1442.1406 1035.4141 C 1433.6121 1050.0607 1421.476 1071.043 1415.1699 1082.043 L 1403.7031 1102.043 L 1350.8457 1102.043 C 1321.7739 1102.043 1297.6353 1101.4443 1297.2051 1100.7109 C 1296.7748 1099.9776 1285.4083 1080.1776 1271.9453 1056.7109 C 1258.4823 1033.2443 1246.7334 1012.8436 1245.8379 1011.377 C 1244.6418 1009.418 1251.2777 996.44401 1270.8398 962.48828 L 1297.4688 916.26562 L 1350.6836 915.79492 L 1403.8984 915.32617 z M 1270.3477 956.26562 C 1270.8366 956.26563 1270.3806 957.86672 1269.334 959.82227 C 1268.2875 961.77783 1267.0299 963.37695 1266.541 963.37695 C 1266.0521 963.37695 1266.5081 961.77783 1267.5547 959.82227 C 1268.6012 957.86672 1269.8588 956.26562 1270.3477 956.26562 z M 796.44531 993.82422 C 806.27309 993.82422 816.09913 993.8982 823.55469 994.04688 C 838.4658 994.34422 826.26754 994.58789 796.44531 994.58789 C 766.62309 994.58789 754.42287 994.34422 769.33398 994.04688 C 776.78954 993.8982 786.61753 993.82422 796.44531 993.82422 z M 1166.2227 995.60156 C 1176.0504 995.60156 1185.8784 995.67554 1193.334 995.82422 C 1208.2451 996.12158 1196.0449 996.36523 1166.2227 996.36523 C 1136.4005 996.36523 1124.2002 996.12158 1139.1113 995.82422 C 1146.5669 995.67554 1156.3949 995.60156 1166.2227 995.60156 z M 428.33984 995.60352 C 438.32873 995.60372 448.24097 995.67767 455.66602 995.82617 C 470.5161 996.1232 457.8658 996.36597 427.55469 996.36523 C 397.24357 996.36446 385.09365 996.12049 400.55469 995.82422 C 408.28519 995.6759 418.35095 995.60331 428.33984 995.60352 z M 856.06836 1014.9336 L 798.25586 1014.9473 L 740.44531 1014.9629 L 736.7832 1021.6133 C 734.77004 1025.2719 722.17004 1047.2566 708.7832 1070.4668 C 695.39636 1093.677 684.44531 1112.9981 684.44531 1113.4023 C 684.44531 1113.8066 696.06007 1134.213 710.25781 1158.752 C 724.45556 1183.2909 736.98485 1205.3717 738.09961 1207.8184 L 740.12695 1212.2656 L 798.0625 1212.2441 L 856 1212.2227 L 884.15625 1163.2676 C 902.09118 1132.0843 911.91384 1113.2747 911.21484 1111.4531 C 910.61128 1109.8803 897.95755 1087.5201 883.09375 1061.7637 L 856.06836 1014.9336 z M 488.22461 1016.7109 L 430.33398 1016.7559 L 372.44531 1016.8027 L 345.77734 1063.2148 C 331.11067 1088.7409 318.44445 1110.9963 317.62891 1112.6719 C 316.54763 1114.8935 319.23065 1120.9675 327.53711 1135.1035 C 333.80205 1145.7653 341.19178 1158.4881 343.95898 1163.377 C 346.72618 1168.2658 354.52327 1181.6654 361.28711 1193.1543 L 373.58594 1214.043 L 430.79297 1214.0176 L 488 1213.9922 L 516.17383 1165.0859 C 535.3605 1131.7808 543.97608 1115.2009 543.18164 1113.1113 C 542.54006 1111.4237 529.91128 1089.0436 515.11914 1063.377 L 488.22461 1016.7109 z M 1225.7773 1016.7344 L 1168 1016.748 L 1110.2227 1016.7617 L 1082.2227 1065.3672 C 1066.8227 1092.0996 1054.2227 1114.4018 1054.2227 1114.9277 C 1054.2227 1115.4537 1064.3257 1133.3705 1076.6738 1154.7422 C 1089.0219 1176.1139 1101.6219 1198.194 1104.6738 1203.8105 L 1110.2227 1214.0234 L 1167.9805 1213.5898 L 1225.7383 1213.1543 L 1251.0391 1169.5996 C 1264.9543 1145.6441 1277.6921 1123.5417 1279.3457 1120.4844 L 1282.3535 1114.9219 L 1256.8691 1070.707 C 1242.8535 1046.3879 1230.1246 1024.294 1228.582 1021.6113 L 1225.7773 1016.7344 z M 798.22266 1016.9355 C 808.05043 1016.9355 817.87843 1017.0095 825.33398 1017.1582 C 840.24509 1017.4556 828.04488 1017.6992 798.22266 1017.6992 C 768.40044 1017.6992 756.20022 1017.4556 771.11133 1017.1582 C 778.56688 1017.0095 788.39488 1016.9355 798.22266 1016.9355 z M 113.39258 1018.4883 L 57.140625 1018.8926 L 33.330078 1019.0645 A 795.88275 795.88275 0 0 0 33.601562 1019.8828 L 55.111328 1020.2656 L 109.33398 1021.2324 L 55.111328 1022.043 L 34.421875 1022.3516 A 795.88275 795.88275 0 0 0 34.78125 1023.4355 L 54.988281 1023.7812 L 109.08789 1024.7109 L 114.31836 1033.5996 C 117.19516 1038.4885 129.13254 1059.1098 140.8457 1079.4258 L 162.14258 1116.3652 L 142.94727 1149.6484 C 132.39056 1167.9547 120.50856 1188.7154 116.54297 1195.7832 L 113.04883 1202.0137 A 795.88275 795.88275 0 0 0 117.13867 1209.1445 C 119.03159 1205.4641 131.43962 1183.726 144.72461 1160.8164 C 158.01524 1137.8971 168.88867 1118.0746 168.88867 1116.7656 C 168.88867 1115.4566 156.40232 1092.8092 141.14062 1066.4375 L 113.39258 1018.4883 z M 1481.6152 1018.4883 L 1468.5547 1041.1543 C 1461.3716 1053.621 1448.7082 1075.6535 1440.4141 1090.1152 L 1425.334 1116.4102 L 1430.4453 1125.7656 C 1433.256 1130.9113 1445.9549 1153.262 1458.666 1175.4336 L 1458.668 1175.4316 L 1477.5625 1208.3906 A 795.88275 795.88275 0 0 0 1481.5645 1201.8613 C 1479.4538 1198.0465 1467.6892 1177.4754 1455.2461 1155.8457 L 1432.5059 1116.3164 L 1444.4863 1095.4023 C 1460.9899 1066.5911 1469.6155 1051.7344 1478.3066 1037.1543 L 1485.7246 1024.7109 L 1539.2363 1024.2402 L 1559.7207 1024.0605 A 795.88275 795.88275 0 0 0 1560.4531 1021.1934 C 1554.9768 1021.2305 1548.3049 1021.2539 1539.5547 1021.2539 C 1509.7324 1021.2539 1497.5342 1021.0122 1512.4453 1020.7148 C 1525.5699 1020.4531 1545.7096 1020.4358 1560.5957 1020.6348 A 795.88275 795.88275 0 0 0 1561.1426 1018.4883 L 1539.918 1018.4883 L 1481.6152 1018.4883 z M 430.22266 1018.7129 C 440.05043 1018.7129 449.87843 1018.7869 457.33398 1018.9355 C 472.24509 1019.2329 460.04488 1019.4766 430.22266 1019.4766 C 400.40044 1019.4766 388.20022 1019.2329 403.11133 1018.9355 C 410.56688 1018.7869 420.39488 1018.7129 430.22266 1018.7129 z M 1168 1018.7129 C 1177.8278 1018.7129 1187.6558 1018.7869 1195.1113 1018.9355 C 1210.0224 1019.2329 1197.8222 1019.4766 1168 1019.4766 C 1138.1778 1019.4766 1125.9776 1019.2329 1140.8887 1018.9355 C 1148.3442 1018.7869 1158.1722 1018.7129 1168 1018.7129 z M 744.5293 1021.1543 L 798.17773 1021.1543 L 851.82617 1021.1543 L 878.39258 1067.1973 L 904.95703 1113.2383 L 894.41602 1131.1973 C 888.61883 1141.0741 876.75013 1161.5554 868.04102 1176.7109 L 852.20703 1204.2656 L 798.51953 1204.7363 L 744.83203 1205.207 L 740.33203 1197.625 C 737.85656 1193.4551 725.82397 1172.6902 713.5918 1151.4805 L 691.35156 1112.918 L 717.93945 1067.0371 L 744.5293 1021.1543 z M 1115.0645 1022.043 L 1168.0078 1022.043 L 1220.9512 1022.043 L 1247.7734 1068.4004 L 1274.5957 1114.7559 L 1248.1445 1160.4004 L 1221.6934 1206.043 L 1168.4199 1206.5137 C 1127.1453 1206.8779 1114.7424 1206.4779 1113.3594 1204.7363 C 1112.3776 1203.5 1100.2302 1182.7341 1086.3652 1158.5898 L 1061.1562 1114.6914 L 1080.8008 1080.7051 C 1091.6052 1062.0126 1100.4453 1046.4126 1100.4453 1046.0391 C 1100.4453 1045.6656 1103.7336 1040.1132 1107.7539 1033.7012 L 1115.0645 1022.043 z M 376.4668 1022.9316 L 430.26172 1022.9316 L 484.05664 1022.9316 L 504.5332 1058.4883 C 515.79526 1078.0438 527.70115 1098.755 530.99219 1104.5137 L 536.97656 1114.9844 L 526.4668 1132.959 C 520.68706 1142.8447 508.82888 1163.3327 500.11523 1178.4883 L 484.27344 1206.043 L 430.63867 1206.5137 L 377.00586 1206.9844 L 374.4707 1202.959 C 373.0768 1200.7447 364.13771 1185.3332 354.60742 1168.7109 C 345.07714 1152.0887 334.19346 1133.1135 330.41992 1126.5449 L 323.55859 1114.6016 L 337.20898 1090.9902 C 344.71627 1078.0032 356.6198 1057.3765 363.66211 1045.1543 L 376.4668 1022.9316 z M 717.45898 1061.1543 C 717.94786 1061.1543 717.49189 1062.7554 716.44531 1064.7109 C 715.39874 1066.6665 714.14122 1068.2656 713.65234 1068.2656 C 713.16345 1068.2656 713.61944 1066.6665 714.66602 1064.7109 C 715.71259 1062.7554 716.97009 1061.1543 717.45898 1061.1543 z M 349.45898 1062.9316 C 349.94786 1062.9316 349.49189 1064.5327 348.44531 1066.4883 C 347.39874 1068.4438 346.14122 1070.043 345.65234 1070.043 C 345.16345 1070.043 345.61944 1068.4438 346.66602 1066.4883 C 347.71259 1064.5327 348.97009 1062.9316 349.45898 1062.9316 z M 1453.459 1073.5996 C 1453.9479 1073.5996 1453.4919 1075.1987 1452.4453 1077.1543 C 1451.3988 1079.1098 1450.1412 1080.7109 1449.6523 1080.7109 C 1449.1634 1080.7109 1449.6194 1079.1098 1450.666 1077.1543 C 1451.7125 1075.1987 1452.9701 1073.5996 1453.459 1073.5996 z M 613.33398 1100.4902 C 623.16176 1100.4902 632.98976 1100.5662 640.44531 1100.7148 C 655.35643 1101.0122 643.15621 1101.2539 613.33398 1101.2539 C 583.51176 1101.2539 571.31155 1101.0122 586.22266 1100.7148 C 593.67821 1100.5662 603.50621 1100.4902 613.33398 1100.4902 z M 245.22656 1104.0469 C 254.89323 1104.0471 264.48512 1104.1203 271.66602 1104.2695 L 271.66602 1104.2715 C 286.0278 1104.57 273.77865 1104.8133 244.44531 1104.8125 C 215.11198 1104.8117 203.36047 1104.5672 218.33203 1104.2695 C 225.8178 1104.1205 235.5599 1104.0467 245.22656 1104.0469 z M 981.33398 1104.0469 C 991.16176 1104.0469 1000.9898 1104.1209 1008.4453 1104.2695 C 1023.3565 1104.5669 1011.1563 1104.8105 981.33398 1104.8105 C 951.51176 1104.8105 939.31155 1104.5669 954.22266 1104.2695 C 961.67821 1104.1209 971.50621 1104.0469 981.33398 1104.0469 z M 1351.1113 1104.0469 C 1360.9391 1104.0469 1370.7671 1104.1209 1378.2227 1104.2695 C 1393.1338 1104.5669 1380.9335 1104.8105 1351.1113 1104.8105 C 1321.2891 1104.8105 1309.0889 1104.5669 1324 1104.2695 C 1331.4555 1104.1209 1341.2836 1104.0469 1351.1113 1104.0469 z M 558.52734 1119.8223 L 541.80469 1148.7109 C 497.70253 1224.8926 500.51591 1219.4418 503.13867 1223.584 C 504.45929 1225.6697 514.30056 1242.5765 525.00781 1261.1543 C 535.71508 1279.7321 547.48752 1300.1327 551.16797 1306.4883 L 557.85938 1318.043 L 615.37305 1317.7051 L 672.88867 1317.3652 L 700.77734 1269.7051 C 716.11633 1243.4918 728.71634 1221.1447 728.77734 1220.0469 C 728.87549 1218.2804 694.40983 1157.2731 677.92969 1130.043 L 671.74219 1119.8223 L 615.13477 1119.8223 L 558.52734 1119.8223 z M 926.45898 1123.3281 L 916.87305 1139.7969 C 884.47335 1195.4679 872.87923 1215.6745 871.12109 1219.5332 C 869.3642 1223.3892 870.34085 1225.9303 879.62695 1241.6348 C 885.39733 1251.3935 898.04272 1273.1689 907.72656 1290.0254 L 925.33398 1320.6738 L 983.35547 1320.6914 L 1041.377 1320.7109 L 1050.2812 1305.1543 C 1055.178 1296.5987 1067.6682 1274.8992 1078.0371 1256.9316 C 1088.4061 1238.9641 1096.8887 1223.6565 1096.8887 1222.916 C 1096.8887 1222.1755 1084.2599 1199.6766 1068.8242 1172.918 L 1040.7598 1124.2656 L 983.60938 1123.7969 L 926.45898 1123.3281 z M 1409.6113 1123.3281 L 1352.4453 1123.7969 L 1295.2773 1124.2656 L 1283.4902 1144.7109 C 1277.0066 1155.9554 1264.3685 1177.8584 1255.4062 1193.3848 C 1246.4438 1208.9112 1239.1113 1222.2438 1239.1113 1223.0137 C 1239.1113 1223.7835 1244.1759 1233.0811 1250.3672 1243.6738 C 1256.5585 1254.2665 1269.148 1275.9334 1278.3438 1291.8223 L 1295.0645 1320.7109 L 1353.1758 1320.7109 L 1395.959 1320.7109 A 795.88275 795.88275 0 0 0 1400.9277 1315.377 L 1352.7051 1315.377 L 1299.6367 1315.377 L 1297.1387 1311.377 C 1295.7643 1309.177 1283.7027 1288.3106 1270.3359 1265.0078 L 1246.0332 1222.6387 L 1266.9551 1185.8965 C 1278.4619 1165.6882 1290.5275 1144.9556 1293.7695 1139.8223 L 1299.6641 1130.4883 L 1352.9062 1130.4883 L 1406.1484 1130.4883 L 1415.1465 1146.043 C 1420.0965 1154.5985 1432.0502 1175.2 1441.709 1191.8223 L 1459.2695 1222.043 L 1455.2949 1229.1543 C 1453.1089 1233.0654 1441.0728 1254.0667 1428.5469 1275.8223 L 1417.998 1294.1445 A 795.88275 795.88275 0 0 0 1451.6348 1249.8945 L 1467.1953 1222.9434 L 1447.0371 1187.8281 C 1435.95 1168.5138 1422.9927 1146.0997 1418.2441 1138.0195 L 1409.6113 1123.3281 z M 188.16406 1124.2656 L 159.76758 1173.5098 L 131.37109 1222.752 L 159.46289 1271.7168 L 160.03125 1272.707 A 795.88275 795.88275 0 0 0 188.55078 1308.7539 L 165.5 1268.918 L 138.58789 1222.4062 L 156.23633 1192.0039 C 165.94313 1175.2818 175.45181 1158.7992 177.36523 1155.377 C 179.27865 1151.9547 183.20947 1145.1545 186.10156 1140.2656 L 191.35938 1131.377 L 245.44336 1131.377 L 299.52539 1131.377 L 325.8125 1176.9492 L 352.09961 1222.5195 L 325.60742 1268.5039 L 299.11328 1314.4883 L 245.76367 1314.959 L 194.39844 1315.4102 A 795.88275 795.88275 0 0 0 198.95508 1320.5977 L 245.87305 1320.252 L 304.18945 1319.8223 L 331.58203 1272.7109 C 346.64747 1246.7998 358.97075 1224.3983 358.96875 1222.9316 C 358.96618 1221.465 346.39102 1198.6656 331.02539 1172.2656 L 303.08789 1124.2656 L 245.62695 1124.2656 L 188.16406 1124.2656 z M 668.15625 1126.8809 L 674.33203 1137.1289 C 677.72878 1142.7653 689.77337 1163.5213 701.09766 1183.252 L 721.6875 1219.125 L 695.20117 1265.0293 L 668.7168 1310.9316 L 615.39258 1311.4023 L 562.06641 1311.873 L 555.98633 1301.625 C 552.64238 1295.9886 546.03792 1284.5767 541.30859 1276.2656 C 536.57925 1267.9545 527.209 1251.7367 520.48633 1240.2266 L 508.26367 1219.3008 L 529.44922 1182.4492 C 541.10117 1162.1815 552.99661 1141.5998 555.88477 1136.7109 L 561.13672 1127.8223 L 614.64648 1127.3516 L 668.15625 1126.8809 z M 929.82227 1130.4883 L 983.00391 1130.4883 L 1036.1875 1130.4883 L 1042.3477 1140.7109 C 1045.7358 1146.3332 1057.7591 1167.0509 1069.0664 1186.752 L 1089.625 1222.5723 L 1062.8438 1268.9746 L 1036.0625 1315.377 L 983.04883 1315.377 L 930.03516 1315.377 L 923.9707 1305.1543 C 920.6354 1299.5321 914.03792 1288.1334 909.30859 1279.8223 C 904.57925 1271.5112 895.20844 1255.2918 888.48438 1243.7793 L 876.25781 1222.8477 L 898.86914 1183.334 C 911.3056 1161.602 923.35862 1140.821 925.65234 1137.1543 L 929.82227 1130.4883 z M 164.57031 1171.377 C 165.0592 1171.377 164.60127 1172.9761 163.55469 1174.9316 C 162.5081 1176.8872 161.25256 1178.4883 160.76367 1178.4883 C 160.27478 1178.4883 160.73076 1176.8872 161.77734 1174.9316 C 162.82392 1172.9761 164.08142 1171.377 164.57031 1171.377 z M 1268.5703 1176.7109 C 1269.0592 1176.7109 1268.6012 1178.3101 1267.5547 1180.2656 C 1266.5081 1182.2212 1265.2526 1183.8223 1264.7637 1183.8223 C 1264.2748 1183.8223 1264.7307 1182.2212 1265.7773 1180.2656 C 1266.8239 1178.3101 1268.0815 1176.7109 1268.5703 1176.7109 z M 897.01367 1180.2656 C 897.50256 1180.2656 897.04658 1181.8667 896 1183.8223 C 894.95342 1185.7778 893.69787 1187.377 893.20898 1187.377 C 892.72009 1187.377 893.17608 1185.7778 894.22266 1183.8223 C 895.26924 1181.8667 896.52478 1180.2656 897.01367 1180.2656 z M 856 1226.5156 L 798.22266 1226.5488 L 740.44531 1226.5801 L 729.28711 1246.5352 C 723.15055 1257.5097 710.50853 1279.6676 701.19336 1295.7754 C 689.10257 1316.6828 684.66461 1325.8981 685.68359 1327.9844 C 686.46864 1329.5917 699.11067 1351.7923 713.77734 1377.3184 L 740.44531 1423.7285 L 798.2832 1423.7754 L 856.12305 1423.8223 L 883.07617 1377.1543 C 897.90031 1351.4876 910.53969 1329.136 911.16406 1327.4824 C 911.91734 1325.4874 904.25142 1310.5328 888.37891 1283.0371 C 875.22237 1260.2463 862.55454 1238.2047 860.22852 1234.0566 L 856 1226.5156 z M 429.77734 1228.2832 C 397.75512 1228.2742 371.55469 1228.9045 371.55469 1229.6855 C 371.55469 1230.4666 359.13342 1252.6008 343.95117 1278.873 C 328.76893 1305.1452 316.56871 1327.1998 316.83984 1327.8828 C 317.11098 1328.5658 329.73311 1350.8049 344.88867 1377.3027 L 372.44531 1425.4805 L 430.62109 1425.541 L 488.79688 1425.5996 L 491.77734 1419.8203 C 493.41597 1416.6425 504.98865 1396.3872 517.49414 1374.8066 C 529.99962 1353.2261 541.17546 1333.495 542.33008 1330.9609 C 544.26977 1326.7037 542.76702 1323.4694 522.55273 1288.4199 C 510.52023 1267.5568 497.82344 1245.4946 494.33789 1239.3926 L 488 1228.2988 L 429.77734 1228.2832 z M 1225.7773 1228.3965 L 1168 1228.3984 L 1110.2227 1228.4004 L 1087.1113 1268.6934 C 1074.4002 1290.8549 1061.7307 1313.1361 1058.957 1318.207 L 1053.9141 1327.4258 L 1082.0684 1376.4805 L 1110.2227 1425.5332 L 1168 1425.5605 L 1225.7773 1425.5879 L 1253.9395 1376.7461 C 1269.4288 1349.8834 1281.8298 1327.1272 1281.4961 1326.1777 C 1281.1625 1325.2283 1268.4896 1302.8394 1253.334 1276.4238 L 1225.7773 1228.3965 z M 798.22266 1228.4902 C 807.72821 1228.4902 817.2342 1228.5654 824.44531 1228.7148 C 838.86754 1229.0137 827.06711 1229.2578 798.22266 1229.2578 C 769.37822 1229.2578 757.57778 1229.0137 772 1228.7148 C 779.21111 1228.5654 788.7171 1228.4902 798.22266 1228.4902 z M 431.89453 1230.2676 C 441.5612 1230.2678 451.15113 1230.343 458.33203 1230.4922 C 472.6938 1230.7907 460.44466 1231.036 431.11133 1231.0352 C 401.778 1231.0344 390.0265 1230.7899 404.99805 1230.4922 C 412.48382 1230.3431 422.22786 1230.2674 431.89453 1230.2676 z M 1168 1230.2676 C 1177.5055 1230.2676 1187.0116 1230.3428 1194.2227 1230.4922 C 1208.6449 1230.791 1196.8444 1231.0352 1168 1231.0352 C 1139.1556 1231.0352 1127.3551 1230.791 1141.7773 1230.4922 C 1148.9884 1230.3428 1158.4945 1230.2676 1168 1230.2676 z M 745.19336 1231.8223 L 798.14844 1231.8223 L 851.10547 1231.8223 L 873.88086 1271.377 C 886.40677 1293.1325 898.47645 1314.1553 900.70312 1318.0938 L 904.75195 1325.2539 L 877.94336 1371.8711 L 851.13477 1418.4883 L 798.18555 1418.4883 L 745.23438 1418.4883 L 718.98828 1372.8496 C 704.55248 1347.7487 692.74023 1326.3256 692.74023 1325.2422 C 692.74023 1324.1588 702.60359 1306.095 714.6582 1285.1016 C 726.7128 1264.1082 738.51502 1243.5325 740.88477 1239.377 L 745.19336 1231.8223 z M 1220.7539 1233.5488 L 1247.0918 1279.3516 C 1261.5776 1304.5434 1273.4334 1325.9539 1273.4434 1326.9316 C 1273.4508 1327.9094 1261.576 1349.3105 1247.0547 1374.4883 L 1220.6523 1420.2656 L 1167.8281 1420.2656 L 1115.0039 1420.2656 L 1107.0215 1406.4883 C 1073.5346 1348.697 1061.334 1327.496 1061.334 1327.0977 C 1061.334 1326.8441 1073.2641 1305.9032 1087.8457 1280.5625 L 1114.3574 1234.4883 L 1167.5566 1234.0176 L 1220.7539 1233.5488 z M 377.33789 1233.5996 L 430.23047 1233.5996 L 483.12109 1233.5996 L 509.41211 1279.2793 C 523.87253 1304.4035 535.70312 1325.8467 535.70312 1326.9316 C 535.70312 1328.0166 523.87253 1349.4618 509.41211 1374.5859 L 483.12109 1420.2656 L 430.19141 1420.2656 L 377.26367 1420.2656 L 364.81055 1398.4883 C 357.96139 1386.5105 345.89421 1365.5584 337.99414 1351.9277 L 323.63086 1327.1445 L 327.71094 1319.9277 C 329.95491 1315.9584 342.03855 1294.9098 354.56445 1273.1543 L 377.33789 1233.5996 z M 713.90234 1279.8223 C 714.39123 1279.8223 713.93525 1281.4214 712.88867 1283.377 C 711.84209 1285.3325 710.58655 1286.9316 710.09766 1286.9316 C 709.60877 1286.9316 710.06475 1285.3325 711.11133 1283.377 C 712.15791 1281.4214 713.41345 1279.8223 713.90234 1279.8223 z M 345.90234 1281.5996 C 346.39123 1281.5996 345.93525 1283.1987 344.88867 1285.1543 C 343.84209 1287.1098 342.58655 1288.7109 342.09766 1288.7109 C 341.60877 1288.7109 342.06475 1287.1098 343.11133 1285.1543 C 344.15791 1283.1987 345.41345 1281.5996 345.90234 1281.5996 z M 615.11133 1313.8242 C 624.93911 1313.8242 634.7671 1313.8982 642.22266 1314.0469 C 657.13377 1314.3442 644.93355 1314.5879 615.11133 1314.5879 C 585.28911 1314.5879 573.08889 1314.3442 588 1314.0469 C 595.45556 1313.8982 605.28355 1313.8242 615.11133 1313.8242 z M 245.33398 1317.3789 C 255.16176 1317.3789 264.98976 1317.4548 272.44531 1317.6035 C 287.35643 1317.9009 275.15621 1318.1426 245.33398 1318.1426 C 215.51176 1318.1426 203.31155 1317.9009 218.22266 1317.6035 C 225.67821 1317.4548 235.50621 1317.3789 245.33398 1317.3789 z M 983.11133 1317.3789 C 992.9391 1317.3789 1002.7671 1317.4548 1010.2227 1317.6035 C 1025.1338 1317.9009 1012.9335 1318.1426 983.11133 1318.1426 C 953.28911 1318.1426 941.08889 1317.9009 956 1317.6035 C 963.45556 1317.4548 973.28355 1317.3789 983.11133 1317.3789 z M 1352.8887 1317.3789 C 1362.7164 1317.3789 1372.5444 1317.4548 1380 1317.6035 C 1394.9111 1317.9009 1382.7109 1318.1426 1352.8887 1318.1426 C 1323.0665 1318.1426 1310.8662 1317.9009 1325.7773 1317.6035 C 1333.2329 1317.4548 1343.0609 1317.3789 1352.8887 1317.3789 z M 672.95703 1333.1543 L 615.14453 1333.2012 L 557.33398 1333.248 L 530.66602 1379.6582 C 515.99935 1405.1842 503.35425 1427.3938 502.56445 1429.0117 C 501.52441 1431.1423 508.32562 1444.4221 527.23047 1477.1777 C 541.58654 1502.0519 554.16092 1524.2223 555.17383 1526.4453 L 557.01562 1530.4883 L 614.95117 1530.4629 L 672.88867 1530.4355 L 701.0625 1481.5312 C 719.31656 1449.8449 728.84342 1431.6011 728.12109 1429.7188 C 727.50792 1428.1208 714.84622 1405.7408 699.98242 1379.9844 L 672.95703 1333.1543 z M 615.11133 1335.1582 C 624.93911 1335.1582 634.7671 1335.2322 642.22266 1335.3809 C 657.13377 1335.6782 644.93355 1335.9219 615.11133 1335.9219 C 585.28911 1335.9219 573.08889 1335.6782 588 1335.3809 C 595.45556 1335.2322 605.28355 1335.1582 615.11133 1335.1582 z M 303.36133 1336.7109 L 245.45898 1336.7246 L 213.12891 1336.7324 A 795.88275 795.88275 0 0 0 215.13281 1339.0137 C 216.03708 1338.9882 216.89562 1338.962 218.22266 1338.9355 C 233.13377 1338.6382 257.5342 1338.6382 272.44531 1338.9355 C 287.35643 1339.2329 275.15621 1339.4766 245.33398 1339.4766 C 230.68559 1339.4766 220.42481 1339.4172 215.4043 1339.3223 A 795.88275 795.88275 0 0 0 218.57422 1342.9316 L 245.42578 1342.9316 L 299.09766 1342.9316 L 325.625 1388.7734 L 352.15234 1434.6133 L 343.02539 1450.4434 A 795.88275 795.88275 0 0 0 348.81836 1454.7051 L 359.83398 1435.6445 L 353.95312 1424.8457 C 350.7183 1418.9057 338.01184 1396.6456 325.7168 1375.3789 L 303.36133 1336.7109 z M 1040.957 1336.7109 L 983.14453 1336.7246 L 925.33398 1336.7402 L 921.63672 1343.3926 C 919.60383 1347.0512 907.00383 1369.0017 893.63672 1392.1738 C 880.26959 1415.3459 869.33398 1434.667 869.33398 1435.1094 C 869.33398 1435.5517 880.94874 1455.9923 895.14648 1480.5312 C 909.34423 1505.0702 921.87352 1527.1491 922.98828 1529.5957 L 925.01562 1534.043 L 982.95117 1534.0293 L 1040.8887 1534.0156 L 1044.5586 1527.3633 C 1046.5774 1523.7047 1059.2406 1501.6526 1072.6992 1478.3594 C 1088.0047 1451.8695 1096.7645 1434.9526 1096.0879 1433.1895 C 1095.493 1431.6391 1082.8462 1409.2974 1067.9824 1383.541 L 1040.957 1336.7109 z M 1295.1113 1336.7324 L 1292.3203 1341.6113 C 1290.7856 1344.294 1278.5362 1365.5505 1265.0996 1388.8496 C 1251.663 1412.1487 1240.2866 1432.2115 1239.8184 1433.4316 C 1239.5406 1434.1552 1243.0714 1441.3344 1248.6465 1451.6641 A 795.88275 795.88275 0 0 0 1253.6719 1448.0703 L 1245.8965 1434.7207 L 1264.9922 1401.2715 C 1275.4944 1382.8742 1287.6506 1362.0205 1292.0059 1354.9316 L 1299.9238 1342.043 L 1352.8223 1342.043 L 1376.0859 1342.043 A 795.88275 795.88275 0 0 0 1378.5801 1339.3652 C 1372.8931 1339.4305 1364.7704 1339.4766 1352.8887 1339.4766 C 1323.0665 1339.4766 1310.8662 1339.2329 1325.7773 1338.9355 C 1340.3924 1338.6441 1364.0171 1338.642 1378.9941 1338.9219 A 795.88275 795.88275 0 0 0 1381.0137 1336.7539 L 1352.8887 1336.7461 L 1295.1113 1336.7324 z M 668.09375 1338.4375 L 694.95117 1384.9023 L 721.80859 1431.3691 L 703.7168 1462.7051 C 693.76636 1479.9408 681.89551 1500.4434 677.33594 1508.2656 L 669.04492 1522.4883 L 615.38281 1522.959 L 561.72266 1523.4297 L 557.2207 1515.8477 C 554.74523 1511.6777 542.74387 1490.9683 530.55078 1469.8262 L 508.38086 1431.3848 L 514.38477 1420.9375 C 517.68705 1415.1908 529.59888 1394.4872 540.85547 1374.9316 L 561.32227 1339.377 L 614.70898 1338.9062 L 668.09375 1338.4375 z M 983.11133 1338.7129 C 992.9391 1338.7129 1002.7671 1338.7869 1010.2227 1338.9355 C 1025.1338 1339.2329 1012.9335 1339.4766 983.11133 1339.4766 C 953.28911 1339.4766 941.08889 1339.2329 956 1338.9355 C 963.45555 1338.7869 973.28355 1338.7129 983.11133 1338.7129 z M 930.20703 1341.9922 L 983.46289 1342.4629 L 1036.7168 1342.9316 L 1063.2012 1388.834 L 1089.6836 1434.7363 L 1063.3301 1480.3906 L 1036.9785 1526.043 L 983.61719 1526.5137 C 942.26823 1526.878 929.85702 1526.4782 928.48242 1524.7363 C 927.50678 1523.5 915.36295 1502.728 901.49609 1478.5762 L 876.2832 1434.6641 L 895.91992 1400.6914 C 906.71985 1382.0065 915.55469 1366.4126 915.55469 1366.0391 C 915.55469 1365.6656 918.85165 1360.102 922.88086 1353.6758 L 930.20703 1341.9922 z M 534.34766 1379.377 C 534.83655 1379.377 534.38056 1380.9761 533.33398 1382.9316 C 532.28741 1384.8872 531.02991 1386.4883 530.54102 1386.4883 C 530.05214 1386.4883 530.50811 1384.8872 531.55469 1382.9316 C 532.60126 1380.9761 533.85878 1379.377 534.34766 1379.377 z M 798.22266 1420.4902 C 808.05043 1420.4902 817.87843 1420.5662 825.33398 1420.7148 C 840.24509 1421.0122 828.04488 1421.2539 798.22266 1421.2539 C 768.40044 1421.2539 756.20022 1421.0122 771.11133 1420.7148 C 778.56688 1420.5662 788.39488 1420.4902 798.22266 1420.4902 z M 430.22266 1422.2695 C 440.05043 1422.2695 449.87843 1422.3435 457.33398 1422.4922 C 472.24509 1422.7895 460.04488 1423.0332 430.22266 1423.0332 C 400.40044 1423.0332 388.20022 1422.7895 403.11133 1422.4922 C 410.56688 1422.3435 420.39488 1422.2695 430.22266 1422.2695 z M 1168 1422.2695 C 1177.8278 1422.2695 1187.6558 1422.3435 1195.1113 1422.4922 C 1210.0224 1422.7895 1197.8222 1423.0332 1168 1423.0332 C 1138.1778 1423.0332 1125.9776 1422.7895 1140.8887 1422.4922 C 1148.3442 1422.3435 1158.1722 1422.2695 1168 1422.2695 z M 488.60156 1439.7734 L 431.7207 1440.2422 L 374.83984 1440.7109 L 362.05664 1462.8223 A 795.88275 795.88275 0 0 0 367.3418 1466.0625 C 369.28926 1462.7065 371.98375 1458.0477 372.77344 1456.7109 L 378.02539 1447.8223 L 431.53516 1447.3516 L 485.04492 1446.8809 L 491.2207 1457.1289 C 494.61745 1462.7653 506.66768 1483.5327 518 1503.2773 L 538.60547 1539.1758 L 533.88867 1547.3027 A 795.88275 795.88275 0 0 0 540.59766 1549.752 C 543.39833 1544.5983 545.25435 1541.0182 545.39844 1540.4141 C 545.83462 1538.5853 514.21742 1482.0982 494.80273 1450.0195 L 488.60156 1439.7734 z M 1113.1465 1439.8223 L 1107.0137 1450.043 C 1096.256 1467.977 1059.5528 1532.1056 1057.6289 1536.3281 C 1056.5985 1538.5896 1056.92 1540.983 1060.2168 1547.4844 A 795.88275 795.88275 0 0 0 1066.4258 1545.4219 L 1062.8613 1539.3066 L 1085.2637 1500.1094 C 1097.5842 1478.5508 1109.6494 1457.7662 1112.0762 1453.9219 L 1116.4883 1446.9316 L 1169.7227 1446.9316 L 1222.9551 1446.9316 L 1229.8691 1458.9316 C 1230.2287 1459.5556 1231.8959 1462.4242 1232.3945 1463.2871 A 795.88275 795.88275 0 0 0 1237.9512 1459.3125 C 1237.1902 1458.0081 1235.7019 1455.4301 1235.1484 1454.4883 L 1226.5293 1439.8223 L 1169.8379 1439.8223 L 1113.1465 1439.8223 z M 742.68359 1442.4883 L 727.29102 1469.1543 C 681.19566 1549.0135 685.25681 1540.9359 688.55469 1546.207 C 690.18043 1548.8056 696.87151 1560.3334 703.42383 1571.8223 C 707.32118 1578.6559 711.01455 1584.6966 713.57031 1588.5137 A 795.88275 795.88275 0 0 0 720.73828 1589.2988 C 718.99113 1585.761 713.11306 1575.2402 706.59961 1564.0352 L 693.19727 1540.9805 L 715.7832 1501.5117 C 728.20571 1479.8041 740.24729 1459.0436 742.54102 1455.377 L 746.71094 1448.7109 L 799.89453 1448.7109 L 853.07617 1448.7109 L 859.23633 1458.9316 C 862.62444 1464.5539 874.66768 1485.31 886 1505.0547 L 906.60547 1540.9531 L 891.58398 1566.832 C 885.12097 1577.9669 881.5135 1584.3053 879.85938 1587.9395 A 795.88275 795.88275 0 0 0 887.4707 1587.0156 C 890.13068 1583.2527 893.76464 1577.21 899.29883 1567.6191 C 907.26217 1553.8184 913.77734 1541.883 913.77734 1541.0977 C 913.77734 1540.3123 901.10408 1517.8052 885.61328 1491.0801 L 857.44727 1442.4883 L 800.06445 1442.4883 L 742.68359 1442.4883 z M 713.90234 1498.4883 C 714.39123 1498.4883 713.93525 1500.0874 712.88867 1502.043 C 711.84209 1503.9985 710.58655 1505.5996 710.09766 1505.5996 C 709.60877 1505.5996 710.06475 1503.9985 711.11133 1502.043 C 712.15791 1500.0874 713.41345 1498.4883 713.90234 1498.4883 z M 1042.666 1546.5117 L 984.88867 1546.5312 L 927.11133 1546.5488 L 920.51758 1558.5176 C 916.89158 1565.1011 911.00876 1575.5554 907.44336 1581.748 C 906.78202 1582.8967 906.22371 1583.8772 905.69922 1584.8027 A 795.88275 795.88275 0 0 0 912.98047 1583.918 C 914.9346 1580.954 917.2308 1577.1726 920.05273 1572.2656 L 931.29883 1552.7109 L 983.63281 1552.2402 C 1030.3735 1551.82 1036.2293 1552.0828 1038.4277 1554.6934 C 1038.4322 1554.6987 1038.4407 1554.7133 1038.4453 1554.7188 A 795.88275 795.88275 0 0 0 1045.8594 1552.2539 L 1042.666 1546.5117 z M 672.88867 1546.5293 L 615.11133 1546.5391 L 557.33398 1546.5488 L 553.06641 1554.3027 A 795.88275 795.88275 0 0 0 559.48047 1556.6445 L 562.28516 1551.8164 L 615.21484 1551.8164 L 668.14648 1551.8164 L 679.29492 1571.5547 C 682.04506 1576.4241 684.75133 1580.9216 687.04102 1584.5039 A 795.88275 795.88275 0 0 0 694.46094 1585.625 C 692.77296 1581.916 689.91578 1576.5935 685.71289 1569.1719 L 672.88867 1546.5293 z M 615.11133 1548.4902 C 624.61688 1548.4902 634.12287 1548.5654 641.33398 1548.7148 C 655.75621 1549.0136 643.95578 1549.2578 615.11133 1549.2578 C 586.26689 1549.2578 574.46645 1549.0136 588.88867 1548.7148 C 596.09978 1548.5654 605.60577 1548.4902 615.11133 1548.4902 z M 984.88867 1548.4902 C 994.39423 1548.4902 1003.9002 1548.5654 1011.1113 1548.7148 C 1025.5335 1549.0136 1013.7331 1549.2578 984.88867 1549.2578 C 956.04422 1549.2578 944.24379 1549.0136 958.66602 1548.7148 C 965.87713 1548.5654 975.38312 1548.4902 984.88867 1548.4902 z "
       id="path12055"
       transform="translate(0,-542.12598)" />
  </g>
</svg>
