<?xml version="1.0" encoding="UTF-8" standalone="no"?>
<!-- Created with Inkscape (http://www.inkscape.org/) -->

<svg
   xmlns:dc="http://purl.org/dc/elements/1.1/"
   xmlns:cc="http://creativecommons.org/ns#"
   xmlns:rdf="http://www.w3.org/1999/02/22-rdf-syntax-ns#"
   xmlns:svg="http://www.w3.org/2000/svg"
   xmlns="http://www.w3.org/2000/svg"
   xmlns:xlink="http://www.w3.org/1999/xlink"
   xmlns:sodipodi="http://sodipodi.sourceforge.net/DTD/sodipodi-0.dtd"
   xmlns:inkscape="http://www.inkscape.org/namespaces/inkscape"
   width="450mm"
   height="450mm"
   viewBox="0 0 1594.4882 1594.4882"
   id="svg2"
   version="1.1"
   inkscape:version="0.91 r13725"
   sodipodi:docname="logo.svg"
   inkscape:export-filename="C:\Users\pc\Desktop\logo.png"
   inkscape:export-xdpi="28.899555"
   inkscape:export-ydpi="28.899555">
  <defs
     id="defs4">
    <linearGradient
       inkscape:collect="always"
       id="linearGradient4555">
      <stop
         style="stop-color:#000000;stop-opacity:0.51372552"
         offset="0"
         id="stop4557" />
      <stop
         style="stop-color:#000000;stop-opacity:0;"
         offset="1"
         id="stop4559" />
    </linearGradient>
    <linearGradient
       inkscape:collect="always"
       id="linearGradient4444">
      <stop
         style="stop-color:#ff0020;stop-opacity:1;"
         offset="0"
         id="stop4446" />
      <stop
         id="stop4452"
         offset="0.09913965"
         style="stop-color:#ff0020;stop-opacity:1" />
      <stop
         style="stop-color:#000000;stop-opacity:1"
         offset="1"
         id="stop4448" />
    </linearGradient>
    <linearGradient
       inkscape:collect="always"
       id="linearGradient4366">
      <stop
         style="stop-color:#646464;stop-opacity:0.2888889"
         offset="0"
         id="stop4368" />
      <stop
         style="stop-color:#000000;stop-opacity:0.79555553"
         offset="1"
         id="stop4370" />
    </linearGradient>
    <linearGradient
       inkscape:collect="always"
       id="linearGradient4542">
      <stop
         style="stop-color:#494949;stop-opacity:1"
         offset="0"
         id="stop4544" />
      <stop
         id="stop4550"
         offset="0.5"
         style="stop-color:#b0aab0;stop-opacity:1" />
      <stop
         style="stop-color:#494949;stop-opacity:1"
         offset="1"
         id="stop4546" />
    </linearGradient>
    <linearGradient
       inkscape:collect="always"
       xlink:href="#linearGradient4542"
       id="linearGradient4548"
       x1="0"
       y1="1594.4882"
       x2="1520"
       y2="-5.5118408"
       gradientUnits="userSpaceOnUse" />
    <linearGradient
       inkscape:collect="always"
       xlink:href="#linearGradient4542"
       id="linearGradient4261"
       x1="720"
       y1="399.48819"
       x2="720"
       y2="379.48819"
       gradientUnits="userSpaceOnUse"
       gradientTransform="matrix(0.4214357,0,0,1,397.39474,-1.4674729)" />
    <linearGradient
       inkscape:collect="always"
       xlink:href="#linearGradient4542"
       id="linearGradient4265"
       gradientUnits="userSpaceOnUse"
       gradientTransform="matrix(1.7256702,0,0,0.53393429,-468.48178,179.89509)"
       x1="720"
       y1="399.48819"
       x2="720"
       y2="379.48819" />
    <linearGradient
       inkscape:collect="always"
       xlink:href="#linearGradient4542"
       id="linearGradient4284"
       x1="535"
       y1="441.98819"
       x2="735"
       y2="441.98819"
       gradientUnits="userSpaceOnUse"
       gradientTransform="matrix(1,0,0,0.6086739,0,172.02657)" />
    <radialGradient
       inkscape:collect="always"
       xlink:href="#linearGradient4366"
       id="radialGradient4372"
       cx="920"
       cy="834.48816"
       fx="920"
       fy="834.48816"
       r="300"
       gradientUnits="userSpaceOnUse"
       gradientTransform="matrix(3.6794587,-0.6132432,0.49736162,2.9841694,-2575.563,-985.59685)" />
    <linearGradient
       inkscape:collect="always"
       xlink:href="#linearGradient4542"
       id="linearGradient4439"
       x1="695"
       y1="739.48816"
       x2="835"
       y2="739.48816"
       gradientUnits="userSpaceOnUse"
       gradientTransform="matrix(0.70710678,-0.70710678,0.70710678,0.70710678,-349.59912,769.56489)" />
    <radialGradient
       inkscape:collect="always"
       xlink:href="#linearGradient4444"
       id="radialGradient4450"
       cx="959.99994"
       cy="1114.4882"
       fx="959.99994"
       fy="1114.4882"
       r="772.30665"
       gradientUnits="userSpaceOnUse"
       gradientTransform="matrix(1.0358583,-1.0358581,0.72510049,0.72510058,-842.54001,1300.7959)" />
    <radialGradient
       inkscape:collect="always"
       xlink:href="#linearGradient4555"
       id="radialGradient4561"
       cx="1440.0001"
       cy="1592.8553"
       fx="1440.0001"
       fy="1592.8553"
       r="565.49146"
       gradientTransform="matrix(0.99028893,-1.4146987,1.6472005,1.1530403,-2609.7683,1715.0279)"
       gradientUnits="userSpaceOnUse" />
  </defs>
  <sodipodi:namedview
     id="base"
     pagecolor="#ffffff"
     bordercolor="#666666"
     borderopacity="1.0"
     inkscape:pageopacity="0.0"
     inkscape:pageshadow="2"
     inkscape:zoom="0.13153028"
     inkscape:cx="-841.27375"
     inkscape:cy="815.07827"
     inkscape:document-units="px"
     inkscape:current-layer="layer2"
     showgrid="true"
     height="450mm"
     inkscape:window-width="1360"
     inkscape:window-height="716"
     inkscape:window-x="-8"
     inkscape:window-y="-8"
     inkscape:window-maximized="1"
     showguides="false"
     inkscape:guide-bbox="true">
    <inkscape:grid
       type="xygrid"
       id="grid4133" />
  </sodipodi:namedview>
  <metadata
     id="metadata7">
    <rdf:RDF>
      <cc:Work
         rdf:about="">
        <dc:format>image/svg+xml</dc:format>
        <dc:type
           rdf:resource="http://purl.org/dc/dcmitype/StillImage" />
        <dc:title />
      </cc:Work>
    </rdf:RDF>
  </metadata>
  <g
     inkscape:groupmode="layer"
     id="layer3"
     inkscape:label="fondoNegro"
     style="display:inline;opacity:1"
     sodipodi:insensitive="true">
    <path
       style="opacity:1;fill:url(#radialGradient4450);fill-opacity:1;stroke:none;stroke-width:30;stroke-miterlimit:4;stroke-dasharray:none;stroke-opacity:1"
       d="M 179.39844,24.9375 C 93.826808,24.9375 24.9375,93.826808 24.9375,179.39844 l 0,1235.69136 c 0,85.5717 68.889308,154.461 154.46094,154.461 l 1235.69136,0 c 85.5717,0 154.461,-68.8893 154.461,-154.461 l 0,-1235.69136 c 0,-85.571632 -68.8893,-154.46094 -154.461,-154.46094 l -1235.69136,0 z"
       id="rect4492"
       inkscape:connector-curvature="0" />
  </g>
  <g
     inkscape:groupmode="layer"
     id="layer5"
     inkscape:label="luceros"
     sodipodi:insensitive="true">
    <path
       sodipodi:type="star"
       style="opacity:1;fill:#ffffff;fill-opacity:1;stroke:none;stroke-width:8;stroke-linecap:round;stroke-linejoin:round;stroke-miterlimit:4;stroke-dasharray:none;stroke-dashoffset:0;stroke-opacity:1"
       id="path4469"
       sodipodi:sides="5"
       sodipodi:cx="185.92"
       sodipodi:cy="601.59222"
       sodipodi:r1="56.568542"
       sodipodi:r2="2.8284271"
       sodipodi:arg1="0.78539816"
       sodipodi:arg2="1.4137167"
       inkscape:flatsided="false"
       inkscape:rounded="-0.02"
       inkscape:randomized="0"
       d="m 225.92,641.59222 c 0.768,-0.768 -40.63028,-37.03649 -39.55754,-37.20639 1.07274,-0.16991 -27.09178,47.11625 -26.12404,47.60933 0.96773,0.49309 22.66835,-50.08659 23.16143,-49.11886 0.49309,0.96774 -53.18204,-11.20609 -53.35194,-10.13335 -0.16991,1.07275 54.64009,6.08127 53.87209,6.84927 -0.768,0.768 -5.77653,-54.04199 -6.84927,-53.87209 -1.07274,0.16991 11.10108,53.84503 10.13335,53.35195 -0.96774,-0.49309 49.61194,-22.1937 49.11886,-23.16144 -0.49309,-0.96773 -47.77924,27.19679 -47.60934,26.12405 0.16991,-1.07275 36.4384,40.32553 37.2064,39.55753 z" />
    <path
       d="m 320,754.48822 c 0.768,-0.768 -40.63028,-37.03649 -39.55754,-37.2064 1.07275,-0.1699 -27.09178,47.11625 -26.12404,47.60934 0.96773,0.49309 22.66835,-50.0866 23.16143,-49.11886 0.49309,0.96773 -53.18203,-11.20609 -53.35194,-10.13335 -0.16991,1.07274 54.64009,6.08127 53.87209,6.84927 -0.768,0.768 -5.77653,-54.042 -6.84927,-53.87209 -1.07274,0.16991 11.10108,53.84503 10.13335,53.35194 -0.96774,-0.49308 49.61195,-22.1937 49.11886,-23.16143 -0.49309,-0.96774 -47.77924,27.19679 -47.60934,26.12404 0.16991,-1.07274 36.4384,40.32554 37.2064,39.55754 z"
       inkscape:randomized="0"
       inkscape:rounded="-0.02"
       inkscape:flatsided="false"
       sodipodi:arg2="1.4137167"
       sodipodi:arg1="0.78539816"
       sodipodi:r2="2.8284271"
       sodipodi:r1="56.568542"
       sodipodi:cy="714.48822"
       sodipodi:cx="280"
       sodipodi:sides="5"
       id="path4527"
       style="opacity:1;fill:#ffffff;fill-opacity:1;stroke:none;stroke-width:8;stroke-linecap:round;stroke-linejoin:round;stroke-miterlimit:4;stroke-dasharray:none;stroke-dashoffset:0;stroke-opacity:1"
       sodipodi:type="star"
       transform="matrix(0.78220794,0.25593451,-0.25593451,0.78220794,97.080829,-360.38383)" />
    <path
       d="m 320,754.48822 c 0.768,-0.768 -40.63028,-37.03649 -39.55754,-37.2064 1.07275,-0.1699 -27.09178,47.11625 -26.12404,47.60934 0.96773,0.49309 22.66835,-50.0866 23.16143,-49.11886 0.49309,0.96773 -53.18203,-11.20609 -53.35194,-10.13335 -0.16991,1.07274 54.64009,6.08127 53.87209,6.84927 -0.768,0.768 -5.77653,-54.042 -6.84927,-53.87209 -1.07274,0.16991 11.10108,53.84503 10.13335,53.35194 -0.96774,-0.49308 49.61195,-22.1937 49.11886,-23.16143 -0.49309,-0.96774 -47.77924,27.19679 -47.60934,26.12404 0.16991,-1.07274 36.4384,40.32554 37.2064,39.55754 z"
       inkscape:randomized="0"
       inkscape:rounded="-0.02"
       inkscape:flatsided="false"
       sodipodi:arg2="1.4137167"
       sodipodi:arg1="0.78539816"
       sodipodi:r2="2.8284271"
       sodipodi:r1="56.568542"
       sodipodi:cy="714.48822"
       sodipodi:cx="280"
       sodipodi:sides="5"
       id="path4529"
       style="opacity:1;fill:#ffffff;fill-opacity:1;stroke:none;stroke-width:8;stroke-linecap:round;stroke-linejoin:round;stroke-miterlimit:4;stroke-dasharray:none;stroke-dashoffset:0;stroke-opacity:1"
       sodipodi:type="star"
       transform="matrix(0.94682074,0.32176153,-0.32176153,0.94682074,184.30169,-405.30625)" />
    <path
       d="m 320,754.48822 c 0.768,-0.768 -40.63028,-37.03649 -39.55754,-37.2064 1.07275,-0.1699 -27.09178,47.11625 -26.12404,47.60934 0.96773,0.49309 22.66835,-50.0866 23.16143,-49.11886 0.49309,0.96773 -53.18203,-11.20609 -53.35194,-10.13335 -0.16991,1.07274 54.64009,6.08127 53.87209,6.84927 -0.768,0.768 -5.77653,-54.042 -6.84927,-53.87209 -1.07274,0.16991 11.10108,53.84503 10.13335,53.35194 -0.96774,-0.49308 49.61195,-22.1937 49.11886,-23.16143 -0.49309,-0.96774 -47.77924,27.19679 -47.60934,26.12404 0.16991,-1.07274 36.4384,40.32554 37.2064,39.55754 z"
       inkscape:randomized="0"
       inkscape:rounded="-0.02"
       inkscape:flatsided="false"
       sodipodi:arg2="1.4137167"
       sodipodi:arg1="0.78539816"
       sodipodi:r2="2.8284271"
       sodipodi:r1="56.568542"
       sodipodi:cy="714.48822"
       sodipodi:cx="280"
       sodipodi:sides="5"
       id="path4537"
       style="opacity:1;fill:#ffffff;fill-opacity:1;stroke:none;stroke-width:8;stroke-linecap:round;stroke-linejoin:round;stroke-miterlimit:4;stroke-dasharray:none;stroke-dashoffset:0;stroke-opacity:1"
       sodipodi:type="star"
       transform="matrix(0.57620927,-0.22060287,0.22060287,0.57620927,-151.09491,-233.46165)" />
    <path
       d="m 320,754.48822 c 0.768,-0.768 -40.63028,-37.03649 -39.55754,-37.2064 1.07275,-0.1699 -27.09178,47.11625 -26.12404,47.60934 0.96773,0.49309 22.66835,-50.0866 23.16143,-49.11886 0.49309,0.96773 -53.18203,-11.20609 -53.35194,-10.13335 -0.16991,1.07274 54.64009,6.08127 53.87209,6.84927 -0.768,0.768 -5.77653,-54.042 -6.84927,-53.87209 -1.07274,0.16991 11.10108,53.84503 10.13335,53.35194 -0.96774,-0.49308 49.61195,-22.1937 49.11886,-23.16143 -0.49309,-0.96774 -47.77924,27.19679 -47.60934,26.12404 0.16991,-1.07274 36.4384,40.32554 37.2064,39.55754 z"
       inkscape:randomized="0"
       inkscape:rounded="-0.02"
       inkscape:flatsided="false"
       sodipodi:arg2="1.4137167"
       sodipodi:arg1="0.78539816"
       sodipodi:r2="2.8284271"
       sodipodi:r1="56.568542"
       sodipodi:cy="714.48822"
       sodipodi:cx="280"
       sodipodi:sides="5"
       id="path4539"
       style="opacity:1;fill:#ffffff;fill-opacity:1;stroke:none;stroke-width:8;stroke-linecap:round;stroke-linejoin:round;stroke-miterlimit:4;stroke-dasharray:none;stroke-dashoffset:0;stroke-opacity:1"
       sodipodi:type="star"
       transform="matrix(0.42026504,0.52035614,-0.52035614,0.42026504,823.20807,-315.06002)" />
    <path
       d="m 320,754.48822 c 0.768,-0.768 -40.63028,-37.03649 -39.55754,-37.2064 1.07275,-0.1699 -27.09178,47.11625 -26.12404,47.60934 0.96773,0.49309 22.66835,-50.0866 23.16143,-49.11886 0.49309,0.96773 -53.18203,-11.20609 -53.35194,-10.13335 -0.16991,1.07274 54.64009,6.08127 53.87209,6.84927 -0.768,0.768 -5.77653,-54.042 -6.84927,-53.87209 -1.07274,0.16991 11.10108,53.84503 10.13335,53.35194 -0.96774,-0.49308 49.61195,-22.1937 49.11886,-23.16143 -0.49309,-0.96774 -47.77924,27.19679 -47.60934,26.12404 0.16991,-1.07274 36.4384,40.32554 37.2064,39.55754 z"
       inkscape:randomized="0"
       inkscape:rounded="-0.02"
       inkscape:flatsided="false"
       sodipodi:arg2="1.4137167"
       sodipodi:arg1="0.78539816"
       sodipodi:r2="2.8284271"
       sodipodi:r1="56.568542"
       sodipodi:cy="714.48822"
       sodipodi:cx="280"
       sodipodi:sides="5"
       id="path4541"
       style="opacity:1;fill:#ffffff;fill-opacity:1;stroke:none;stroke-width:8;stroke-linecap:round;stroke-linejoin:round;stroke-miterlimit:4;stroke-dasharray:none;stroke-dashoffset:0;stroke-opacity:1"
       sodipodi:type="star"
       transform="matrix(1.2161046,-0.14717194,0.14717194,1.2161046,290.1337,-539.48673)" />
    <path
       d="m 320,754.48822 c 0.768,-0.768 -40.63028,-37.03649 -39.55754,-37.2064 1.07275,-0.1699 -27.09178,47.11625 -26.12404,47.60934 0.96773,0.49309 22.66835,-50.0866 23.16143,-49.11886 0.49309,0.96773 -53.18203,-11.20609 -53.35194,-10.13335 -0.16991,1.07274 54.64009,6.08127 53.87209,6.84927 -0.768,0.768 -5.77653,-54.042 -6.84927,-53.87209 -1.07274,0.16991 11.10108,53.84503 10.13335,53.35194 -0.96774,-0.49308 49.61195,-22.1937 49.11886,-23.16143 -0.49309,-0.96774 -47.77924,27.19679 -47.60934,26.12404 0.16991,-1.07274 36.4384,40.32554 37.2064,39.55754 z"
       inkscape:randomized="0"
       inkscape:rounded="-0.02"
       inkscape:flatsided="false"
       sodipodi:arg2="1.4137167"
       sodipodi:arg1="0.78539816"
       sodipodi:r2="2.8284271"
       sodipodi:r1="56.568542"
       sodipodi:cy="714.48822"
       sodipodi:cx="280"
       sodipodi:sides="5"
       id="path4543"
       style="opacity:1;fill:#ffffff;fill-opacity:0.25333336;stroke:none;stroke-width:8;stroke-linecap:round;stroke-linejoin:round;stroke-miterlimit:4;stroke-dasharray:none;stroke-dashoffset:0;stroke-opacity:1"
       sodipodi:type="star"
       transform="matrix(1.1416881,0.37659047,-0.37659047,1.1416881,1371.0436,-665.21745)" />
    <path
       d="m 320,754.48822 c 0.768,-0.768 -40.63028,-37.03649 -39.55754,-37.2064 1.07275,-0.1699 -27.09178,47.11625 -26.12404,47.60934 0.96773,0.49309 22.66835,-50.0866 23.16143,-49.11886 0.49309,0.96773 -53.18203,-11.20609 -53.35194,-10.13335 -0.16991,1.07274 54.64009,6.08127 53.87209,6.84927 -0.768,0.768 -5.77653,-54.042 -6.84927,-53.87209 -1.07274,0.16991 11.10108,53.84503 10.13335,53.35194 -0.96774,-0.49308 49.61195,-22.1937 49.11886,-23.16143 -0.49309,-0.96774 -47.77924,27.19679 -47.60934,26.12404 0.16991,-1.07274 36.4384,40.32554 37.2064,39.55754 z"
       inkscape:randomized="0"
       inkscape:rounded="-0.02"
       inkscape:flatsided="false"
       sodipodi:arg2="1.4137167"
       sodipodi:arg1="0.78539816"
       sodipodi:r2="2.8284271"
       sodipodi:r1="56.568542"
       sodipodi:cy="714.48822"
       sodipodi:cx="280"
       sodipodi:sides="5"
       id="path4545"
       style="opacity:1;fill:#ffffff;fill-opacity:1;stroke:none;stroke-width:8;stroke-linecap:round;stroke-linejoin:round;stroke-miterlimit:4;stroke-dasharray:none;stroke-dashoffset:0;stroke-opacity:1"
       sodipodi:type="star"
       transform="matrix(0.99998608,-0.00527626,0.00527626,0.99998608,845.81306,-603.49281)" />
    <path
       d="m 320,754.48822 c 0.768,-0.768 -40.63028,-37.03649 -39.55754,-37.2064 1.07275,-0.1699 -27.09178,47.11625 -26.12404,47.60934 0.96773,0.49309 22.66835,-50.0866 23.16143,-49.11886 0.49309,0.96773 -53.18203,-11.20609 -53.35194,-10.13335 -0.16991,1.07274 54.64009,6.08127 53.87209,6.84927 -0.768,0.768 -5.77653,-54.042 -6.84927,-53.87209 -1.07274,0.16991 11.10108,53.84503 10.13335,53.35194 -0.96774,-0.49308 49.61195,-22.1937 49.11886,-23.16143 -0.49309,-0.96774 -47.77924,27.19679 -47.60934,26.12404 0.16991,-1.07274 36.4384,40.32554 37.2064,39.55754 z"
       inkscape:randomized="0"
       inkscape:rounded="-0.02"
       inkscape:flatsided="false"
       sodipodi:arg2="1.4137167"
       sodipodi:arg1="0.78539816"
       sodipodi:r2="2.8284271"
       sodipodi:r1="56.568542"
       sodipodi:cy="714.48822"
       sodipodi:cx="280"
       sodipodi:sides="5"
       id="path4547"
       style="opacity:1;fill:#ffffff;fill-opacity:1;stroke:none;stroke-width:8;stroke-linecap:round;stroke-linejoin:round;stroke-miterlimit:4;stroke-dasharray:none;stroke-dashoffset:0;stroke-opacity:1"
       sodipodi:type="star"
       transform="matrix(0.99987313,0.01592849,-0.01592849,0.99987313,-147.48296,87.868073)" />
    <path
       d="m 320,754.48822 c 0.768,-0.768 -40.63028,-37.03649 -39.55754,-37.2064 1.07275,-0.1699 -27.09178,47.11625 -26.12404,47.60934 0.96773,0.49309 22.66835,-50.0866 23.16143,-49.11886 0.49309,0.96773 -53.18203,-11.20609 -53.35194,-10.13335 -0.16991,1.07274 54.64009,6.08127 53.87209,6.84927 -0.768,0.768 -5.77653,-54.042 -6.84927,-53.87209 -1.07274,0.16991 11.10108,53.84503 10.13335,53.35194 -0.96774,-0.49308 49.61195,-22.1937 49.11886,-23.16143 -0.49309,-0.96774 -47.77924,27.19679 -47.60934,26.12404 0.16991,-1.07274 36.4384,40.32554 37.2064,39.55754 z"
       inkscape:randomized="0"
       inkscape:rounded="-0.02"
       inkscape:flatsided="false"
       sodipodi:arg2="1.4137167"
       sodipodi:arg1="0.78539816"
       sodipodi:r2="2.8284271"
       sodipodi:r1="56.568542"
       sodipodi:cy="714.48822"
       sodipodi:cx="280"
       sodipodi:sides="5"
       id="path4549"
       style="opacity:1;fill:#ffffff;fill-opacity:0.53333327;stroke:none;stroke-width:8;stroke-linecap:round;stroke-linejoin:round;stroke-miterlimit:4;stroke-dasharray:none;stroke-dashoffset:0;stroke-opacity:1"
       sodipodi:type="star"
       transform="matrix(1.2651277,0.23410748,-0.23410748,1.2651277,107.20684,-145.33086)" />
    <path
       d="m 320,754.48822 c 0.768,-0.768 -40.63028,-37.03649 -39.55754,-37.2064 1.07275,-0.1699 -27.09178,47.11625 -26.12404,47.60934 0.96773,0.49309 22.66835,-50.0866 23.16143,-49.11886 0.49309,0.96773 -53.18203,-11.20609 -53.35194,-10.13335 -0.16991,1.07274 54.64009,6.08127 53.87209,6.84927 -0.768,0.768 -5.77653,-54.042 -6.84927,-53.87209 -1.07274,0.16991 11.10108,53.84503 10.13335,53.35194 -0.96774,-0.49308 49.61195,-22.1937 49.11886,-23.16143 -0.49309,-0.96774 -47.77924,27.19679 -47.60934,26.12404 0.16991,-1.07274 36.4384,40.32554 37.2064,39.55754 z"
       inkscape:randomized="0"
       inkscape:rounded="-0.02"
       inkscape:flatsided="false"
       sodipodi:arg2="1.4137167"
       sodipodi:arg1="0.78539816"
       sodipodi:r2="2.8284271"
       sodipodi:r1="56.568542"
       sodipodi:cy="714.48822"
       sodipodi:cx="280"
       sodipodi:sides="5"
       id="path4551"
       style="opacity:1;fill:#ffffff;fill-opacity:0.23999999;stroke:none;stroke-width:8;stroke-linecap:round;stroke-linejoin:round;stroke-miterlimit:4;stroke-dasharray:none;stroke-dashoffset:0;stroke-opacity:1"
       sodipodi:type="star"
       transform="matrix(1.3702296,-0.97394649,0.97394649,1.3702296,-911.41513,463.65685)" />
  </g>
  <g
     inkscape:groupmode="layer"
     id="layer2"
     inkscape:label="planeta"
     style="display:inline">
    <path
       style="fill:none;fill-rule:evenodd;stroke:#ff0000;stroke-width:8;stroke-linecap:round;stroke-linejoin:miter;stroke-miterlimit:4;stroke-dasharray:none;stroke-opacity:1"
       d="M 480,514.48819 1600,1634.4882"
       id="path4376"
       inkscape:connector-curvature="0" />
    <path
       style="opacity:1;fill:#ff0000;fill-opacity:1;stroke:none;stroke-width:3;stroke-linecap:round;stroke-linejoin:round;stroke-miterlimit:4;stroke-dasharray:none;stroke-dashoffset:0;stroke-opacity:1"
       d="m 1492.916,440.75586 a 1119.0636,1119.0636 0 0 0 -95.3906,4.77344 1119.0636,1119.0636 0 0 0 -55.4805,6.73437 1119.0636,1119.0636 0 0 0 -55.2988,8.35742 1119.0636,1119.0636 0 0 0 -54.5039,12.23243 1119.0636,1119.0636 0 0 0 -54.1973,13.83984 1119.0636,1119.0636 0 0 0 -53.0351,17.62305 1119.0636,1119.0636 0 0 0 -52.5235,19.17187 1119.0636,1119.0636 0 0 0 -51.0175,22.83203 1119.0636,1119.0636 0 0 0 -50.33208,24.3125 1119.0636,1119.0636 0 0 0 -48.50781,27.82617 1119.0636,1119.0636 0 0 0 -47.64453,29.21094 1119.0636,1119.0636 0 0 0 -45.46485,32.51172 1119.0636,1119.0636 0 0 0 -44.50976,33.83789 1119.0636,1119.0636 0 0 0 -42.00782,36.9043 1119.0636,1119.0636 0 0 0 -40.87695,38.08008 1119.0636,1119.0636 0 0 0 -38.14844,40.94921 1119.0636,1119.0636 0 0 0 -36.84961,41.94532 1119.0636,1119.0636 0 0 0 -33.85937,44.53906 1119.0636,1119.0636 0 0 0 -32.5,45.44531 1119.0636,1119.0636 0 0 0 -29.23047,47.67969 1119.0636,1119.0636 0 0 0 -27.79688,48.457 1119.0636,1119.0636 0 0 0 -24.33203,50.3711 1119.0636,1119.0636 0 0 0 -22.82226,50.9942 1119.0636,1119.0636 0 0 0 -19.17969,52.5449 1119.0636,1119.0636 0 0 0 -17.61328,53.0137 1119.0636,1119.0636 0 0 0 -13.84375,54.2128 1119.0636,1119.0636 0 0 0 -12.23047,54.4883 1119.0636,1119.0636 0 0 0 -8.36328,55.334 1119.0636,1119.0636 0 0 0 -6.72852,55.4317 1119.0636,1119.0636 0 0 0 -4.77539,95.4082 1119.0636,1119.0636 0 0 0 0.34571,9.7324 l 1040.89253,0 c 85.5717,0 154.461,-68.8893 154.461,-154.461 l 0,-970.49996 a 1119.0636,1119.0636 0 0 0 -76.6348,-3.83398 z"
       id="path4239"
       inkscape:connector-curvature="0" />
    <g
       id="g4321"
       inkscape:transform-center-x="-70.010184"
       inkscape:transform-center-y="-42.824969"
       transform="matrix(0.96698277,-0.9669828,0.9669828,0.96698277,-694.23398,548.84104)">
      <g
         id="g4317">
        <path
           style="opacity:1;fill:#ff2a2a;fill-opacity:1;stroke:none;stroke-width:3;stroke-linecap:round;stroke-linejoin:round;stroke-miterlimit:4;stroke-dasharray:none;stroke-dashoffset:0;stroke-opacity:1"
           d="m 635.50977,572.55273 -11.64258,0.50782 c -2e-5,0 -3.83223,2.47536 -4.65039,4.46093 -1.63997,3.98 0.31836,12.90821 0.31836,12.90821 0,2e-5 0.5462,2.40024 1.46484,3.05859 1.73447,1.24303 4.32461,1.41876 6.35547,0.76367 0.6865,-0.22145 1.59374,-1.46483 1.59375,-1.46484 l 3.5664,-11.38086 c 10e-6,-2e-5 2.99417,-8.85352 2.99415,-8.85352 z m -10.7461,12.47071 a 4,4 0 0 1 4,4 4,4 0 0 1 -4,4 4,4 0 0 1 -4,-4 4,4 0 0 1 4,-4 z"
           id="rect4307"
           inkscape:connector-curvature="0" />
        <circle
           style="opacity:1;fill:#333333;fill-opacity:1;stroke:none;stroke-width:3;stroke-linecap:round;stroke-linejoin:round;stroke-miterlimit:4;stroke-dasharray:none;stroke-dashoffset:0;stroke-opacity:1"
           id="path4312"
           cx="631.47375"
           cy="576.37646"
           r="1.5" />
      </g>
      <g
         transform="translate(0.97831526,2.9349458)"
         id="g4267">
        <rect
           y="383.1846"
           x="721.19525"
           height="8.9662218"
           width="140.0639"
           id="rect4263"
           style="opacity:1;fill:url(#linearGradient4265);fill-opacity:1;stroke:none;stroke-width:3;stroke-linecap:round;stroke-linejoin:round;stroke-miterlimit:4;stroke-dasharray:none;stroke-dashoffset:0;stroke-opacity:1" />
        <rect
           style="opacity:1;fill:url(#linearGradient4261);fill-opacity:1;stroke:none;stroke-width:3;stroke-linecap:round;stroke-linejoin:round;stroke-miterlimit:4;stroke-dasharray:none;stroke-dashoffset:0;stroke-opacity:1"
           id="rect4253"
           width="34.205799"
           height="16.792744"
           x="687.9325"
           y="379.27133" />
      </g>
      <path
         id="path4241"
         d="m 640,354.48828 a 80,80 0 0 0 -80,80 l 160,0 a 80,80 0 0 0 -80,-80 z"
         style="opacity:1;fill:#ff0000;fill-opacity:1;stroke:#000000;stroke-width:3;stroke-linecap:round;stroke-linejoin:round;stroke-miterlimit:4;stroke-dasharray:none;stroke-dashoffset:0;stroke-opacity:1"
         inkscape:connector-curvature="0" />
      <path
         id="rect4246"
         d="m 674.8418,362.54492 c -0.33941,0.231 -0.67411,0.47257 -0.99414,0.73828 -7.60767,6.31644 -6.56325,20.03629 2.34179,30.76172 l 12.85938,15.48828 c 8.67171,10.44441 21.50356,14.07895 29.19531,8.42969 A 80,80 0 0 0 674.8418,362.54492 Z"
         style="opacity:1;fill:#241c1c;fill-opacity:0.44855969;stroke:none;stroke-width:2.54310822;stroke-linecap:round;stroke-linejoin:round;stroke-miterlimit:4;stroke-dasharray:none;stroke-dashoffset:0;stroke-opacity:1"
         inkscape:connector-curvature="0" />
      <path
         id="path4271"
         d="m 632.54688,363.20703 a 36.657841,51.196415 54.693407 0 0 -36.39649,12.1543 36.657841,51.196415 54.693407 0 0 -20.82227,59.12695 l 64.13672,0 a 36.657841,51.196415 54.693407 0 0 19.65039,-58.80078 36.657841,51.196415 54.693407 0 0 -26.56835,-12.48047 z"
         style="opacity:1;fill:#550000;fill-opacity:0.47736631;stroke:none;stroke-width:3;stroke-linecap:round;stroke-linejoin:round;stroke-miterlimit:4;stroke-dasharray:none;stroke-dashoffset:0;stroke-opacity:1"
         inkscape:connector-curvature="0" />
      <path
         id="rect4286"
         d="m 625,444.48828 4.5332,148.42774 10.4668,-33.42774 0,-0.18359 -3.58398,0 0,-10 3.58398,0 0,-10.96289 -3.58398,0 0,-10 3.58398,0 0,-10.96289 -3.58398,0 0,-10 3.58398,0 0,-10.96289 -3.58398,0 0,-10 3.58398,0 0,-10.9629 -3.58398,0 0,-10 3.58398,0 0,-10.96484 -3.58398,0 0,-10 -11.41602,0 z m 6.42578,129.84766 a 2,2 0 0 1 2,2 2,2 0 0 1 -2,2 2,2 0 0 1 -2,-2 2,2 0 0 1 2,-2 z"
         style="opacity:1;fill:#5c5c5c;fill-opacity:1;stroke:none;stroke-width:3;stroke-linecap:round;stroke-linejoin:round;stroke-miterlimit:4;stroke-dasharray:none;stroke-dashoffset:0;stroke-opacity:1"
         inkscape:connector-curvature="0" />
      <rect
         y="436.48819"
         x="535"
         height="9.1301088"
         width="200"
         id="rect4276"
         style="opacity:1;fill:url(#linearGradient4284);fill-opacity:1;stroke:none;stroke-width:3;stroke-linecap:round;stroke-linejoin:round;stroke-miterlimit:4;stroke-dasharray:none;stroke-dashoffset:0;stroke-opacity:1" />
    </g>
    <path
       style="opacity:1;fill:url(#radialGradient4372);fill-opacity:1;stroke:none;stroke-width:3;stroke-linecap:round;stroke-linejoin:round;stroke-miterlimit:4;stroke-dasharray:none;stroke-dashoffset:0;stroke-opacity:1"
       d="M 1492.916,440.75586 A 1119.0636,1119.0636 0 0 0 373.85156,1559.8184 a 1119.0636,1119.0636 0 0 0 0.34571,9.7324 l 1040.89253,0 c 85.5717,0 154.461,-68.8893 154.461,-154.461 l 0,-970.49996 a 1119.0636,1119.0636 0 0 0 -76.6348,-3.83398 z"
       id="circle4364"
       inkscape:connector-curvature="0" />
    <path
       style="opacity:1;fill:url(#linearGradient4439);fill-opacity:1;stroke:none;stroke-width:8;stroke-linecap:round;stroke-linejoin:round;stroke-miterlimit:4;stroke-dasharray:none;stroke-dashoffset:0;stroke-opacity:1"
       d="m 731.91211,670.20898 -98.99414,98.99414 35.58984,35.58985 a 1119.0636,1119.0636 0 0 1 100.18555,-97.80469 l -36.78125,-36.7793 z"
       id="rect4431"
       inkscape:connector-curvature="0" />
    <path
       style="fill:url(#radialGradient4561);fill-opacity:1.0;fill-rule:evenodd;stroke:none;stroke-width:1px;stroke-linecap:butt;stroke-linejoin:miter;stroke-opacity:1"
       d="m 680,1314.4882 c 56.56854,-37.7124 -1.26763,-145.9703 40,-200 54.29116,-71.0807 167.44029,-67.7019 240,-120.00001 30.59386,-22.05081 57.9492,-49.40614 80,-80 34.8654,-48.37314 37.8363,-117.8363 80,-160 63.2456,-63.24555 155.3985,-90.97258 240,-120 64.307,-22.06423 200,-40 200,-40 l 0,720.00001 0,120 0,80 -80,40 -240,0 -720,0 c 0,0 -69.07156,-43.9058 -80,-80 -19.70153,-65.0697 -16.56854,-162.2876 40,-200 56.56854,-37.7124 143.43146,77.7124 200,40 z"
       id="path4553"
       inkscape:connector-curvature="0"
       sodipodi:nodetypes="aaaaaacccccccaaa" />
  </g>
  <g
     inkscape:groupmode="layer"
     id="layer4"
     inkscape:label="marco"
     sodipodi:insensitive="true"
     style="display:inline">
    <rect
       style="opacity:1;fill:none;fill-opacity:1;stroke:url(#linearGradient4548);stroke-width:48.26919556;stroke-miterlimit:4;stroke-dasharray:none;stroke-opacity:1"
       id="rect4524"
       width="1544.6143"
       height="1544.6143"
       x="24.936966"
       y="24.936966"
       ry="154.46143" />
  </g>
</svg>
