<?xml version="1.0" encoding="UTF-8" standalone="no"?>
<!-- Created with Inkscape (http://www.inkscape.org/) -->

<svg
   xmlns:dc="http://purl.org/dc/elements/1.1/"
   xmlns:cc="http://creativecommons.org/ns#"
   xmlns:rdf="http://www.w3.org/1999/02/22-rdf-syntax-ns#"
   xmlns:svg="http://www.w3.org/2000/svg"
   xmlns="http://www.w3.org/2000/svg"
   xmlns:xlink="http://www.w3.org/1999/xlink"
   xmlns:sodipodi="http://sodipodi.sourceforge.net/DTD/sodipodi-0.dtd"
   xmlns:inkscape="http://www.inkscape.org/namespaces/inkscape"
   width="960"
   height="540"
   viewBox="0 0 960.00002 540"
   id="svg2"
   version="1.1"
   inkscape:version="0.91 r13725"
   sodipodi:docname="slogo.svg"
   inkscape:export-filename="C:\xampp\htdocs\tC2000\sd\logo.png"
   inkscape:export-xdpi="24"
   inkscape:export-ydpi="24">
  <defs
     id="defs4">
    <linearGradient
       inkscape:collect="always"
       id="linearGradient4421">
      <stop
         style="stop-color:#24bf24;stop-opacity:1"
         offset="0"
         id="stop4423" />
      <stop
         style="stop-color:#35ff00;stop-opacity:0"
         offset="1"
         id="stop4425" />
    </linearGradient>
    <linearGradient
       inkscape:collect="always"
       id="linearGradient4411">
      <stop
         style="stop-color:#ff00bf;stop-opacity:1"
         offset="0"
         id="stop4413" />
      <stop
         id="stop4415"
         offset="0.35882381"
         style="stop-color:#994c9b;stop-opacity:1" />
      <stop
         style="stop-color:#810068;stop-opacity:1"
         offset="0.48533851"
         id="stop4417" />
      <stop
         style="stop-color:#8a8a8a;stop-opacity:1"
         offset="1"
         id="stop4419" />
    </linearGradient>
    <linearGradient
       inkscape:collect="always"
       id="linearGradient4393">
      <stop
         style="stop-color:#24bf24;stop-opacity:0.65432101"
         offset="0"
         id="stop4395" />
      <stop
         style="stop-color:#00e323;stop-opacity:0"
         offset="1"
         id="stop4397" />
    </linearGradient>
    <linearGradient
       inkscape:collect="always"
       id="linearGradient9527">
      <stop
         style="stop-color:#f8ed00;stop-opacity:1"
         offset="0"
         id="stop9529" />
      <stop
         style="stop-color:#f8c200;stop-opacity:0;"
         offset="1"
         id="stop9531" />
    </linearGradient>
    <linearGradient
       inkscape:collect="always"
       id="linearGradient9517">
      <stop
         style="stop-color:#f8c200;stop-opacity:1"
         offset="0"
         id="stop9519" />
      <stop
         style="stop-color:#2051a1;stop-opacity:0;"
         offset="1"
         id="stop9521" />
    </linearGradient>
    <linearGradient
       inkscape:collect="always"
       id="linearGradient9505">
      <stop
         style="stop-color:#2051a1;stop-opacity:1;"
         offset="0"
         id="stop9507" />
      <stop
         style="stop-color:#2051a1;stop-opacity:0;"
         offset="1"
         id="stop9509" />
    </linearGradient>
    <linearGradient
       inkscape:collect="always"
       id="linearGradient9480">
      <stop
         style="stop-color:#ff00bf;stop-opacity:1"
         offset="0"
         id="stop9482" />
      <stop
         id="stop9484"
         offset="0.35882381"
         style="stop-color:#994c9b;stop-opacity:1" />
      <stop
         style="stop-color:#810068;stop-opacity:1"
         offset="0.59084034"
         id="stop9486" />
      <stop
         style="stop-color:#8a8a8a;stop-opacity:1"
         offset="1"
         id="stop9488" />
    </linearGradient>
    <linearGradient
       inkscape:collect="always"
       id="linearGradient9458">
      <stop
         style="stop-color:#917367;stop-opacity:1"
         offset="0"
         id="stop9460" />
      <stop
         id="stop9466"
         offset="0.5"
         style="stop-color:#4d3706;stop-opacity:1" />
      <stop
         style="stop-color:#9f721d;stop-opacity:1"
         offset="0.75"
         id="stop9468" />
      <stop
         id="stop9470"
         offset="0.875"
         style="stop-color:#a69364;stop-opacity:1" />
      <stop
         style="stop-color:#6a5725;stop-opacity:1"
         offset="1"
         id="stop9462" />
    </linearGradient>
    <linearGradient
       inkscape:collect="always"
       id="linearGradient9407">
      <stop
         style="stop-color:#00f7ff;stop-opacity:1"
         offset="0"
         id="stop9409" />
      <stop
         style="stop-color:#060d9d;stop-opacity:0.92181069"
         offset="1"
         id="stop9411" />
    </linearGradient>
    <linearGradient
       inkscape:collect="always"
       id="linearGradient9367">
      <stop
         style="stop-color:#ff00bf;stop-opacity:1"
         offset="0"
         id="stop9369" />
      <stop
         id="stop9371"
         offset="0.28033659"
         style="stop-color:#994c9b;stop-opacity:1" />
      <stop
         style="stop-color:#810068;stop-opacity:1"
         offset="0.50239187"
         id="stop9373" />
      <stop
         style="stop-color:#8a8a8a;stop-opacity:1"
         offset="1"
         id="stop9375" />
    </linearGradient>
    <linearGradient
       id="linearGradient9259"
       inkscape:collect="always">
      <stop
         id="stop9261"
         offset="0"
         style="stop-color:#ff00bf;stop-opacity:1" />
      <stop
         style="stop-color:#994c9b;stop-opacity:1"
         offset="0.28033659"
         id="stop9263" />
      <stop
         id="stop9265"
         offset="0.43342626"
         style="stop-color:#810068;stop-opacity:1" />
      <stop
         id="stop9267"
         offset="1"
         style="stop-color:#8a8a8a;stop-opacity:1" />
    </linearGradient>
    <linearGradient
       id="linearGradient9197"
       inkscape:collect="always">
      <stop
         id="stop9199"
         offset="0"
         style="stop-color:#ff00bf;stop-opacity:1" />
      <stop
         style="stop-color:#994c9b;stop-opacity:1"
         offset="0.35882381"
         id="stop9201" />
      <stop
         id="stop9203"
         offset="0.75"
         style="stop-color:#810068;stop-opacity:1" />
      <stop
         id="stop9205"
         offset="1"
         style="stop-color:#8a8a8a;stop-opacity:1" />
    </linearGradient>
    <linearGradient
       inkscape:collect="always"
       id="linearGradient8969">
      <stop
         style="stop-color:#000000;stop-opacity:1"
         offset="0"
         id="stop8971" />
      <stop
         id="stop8977"
         offset="0.5"
         style="stop-color:#606060;stop-opacity:1" />
      <stop
         style="stop-color:#000000;stop-opacity:1"
         offset="1"
         id="stop8973" />
    </linearGradient>
    <linearGradient
       inkscape:collect="always"
       id="linearGradient8939">
      <stop
         style="stop-color:#ff00bf;stop-opacity:1"
         offset="0"
         id="stop8941" />
      <stop
         id="stop8947"
         offset="0.5"
         style="stop-color:#994c9b;stop-opacity:1" />
      <stop
         style="stop-color:#810068;stop-opacity:1"
         offset="0.75"
         id="stop8949" />
      <stop
         style="stop-color:#8a8a8a;stop-opacity:1"
         offset="1"
         id="stop8943" />
    </linearGradient>
    <linearGradient
       inkscape:collect="always"
       id="linearGradient7278">
      <stop
         style="stop-color:#09b70a;stop-opacity:1;"
         offset="0"
         id="stop7280" />
      <stop
         style="stop-color:#274b28;stop-opacity:1"
         offset="1"
         id="stop7282" />
    </linearGradient>
    <linearGradient
       inkscape:collect="always"
       xlink:href="#linearGradient8939"
       id="linearGradient8945"
       x1="482.86441"
       y1="242.7625"
       x2="482.86441"
       y2="455.0737"
       gradientUnits="userSpaceOnUse"
       gradientTransform="matrix(0.98208189,-0.18845466,0.18845466,0.98208189,-194.07209,41.481859)" />
    <linearGradient
       inkscape:collect="always"
       xlink:href="#linearGradient8969"
       id="linearGradient8975"
       x1="395.70959"
       y1="304.77414"
       x2="592.42598"
       y2="304.77414"
       gradientUnits="userSpaceOnUse"
       gradientTransform="translate(-198.41214,4.1647891)" />
    <linearGradient
       inkscape:collect="always"
       xlink:href="#linearGradient9197"
       id="linearGradient9179"
       x1="519.55298"
       y1="281.41321"
       x2="519.55298"
       y2="285.9743"
       gradientUnits="userSpaceOnUse"
       gradientTransform="translate(-186.62105,209.90493)" />
    <linearGradient
       inkscape:collect="always"
       xlink:href="#linearGradient8969"
       id="linearGradient9217"
       x1="513.97607"
       y1="294.82819"
       x2="513.97607"
       y2="290.96466"
       gradientUnits="userSpaceOnUse"
       gradientTransform="translate(-188.90383,200.04181)" />
    <linearGradient
       inkscape:collect="always"
       xlink:href="#linearGradient9259"
       id="linearGradient9234"
       x1="539.26721"
       y1="295.0838"
       x2="539.26721"
       y2="306.65521"
       gradientUnits="userSpaceOnUse"
       gradientTransform="matrix(0.9770716,-0.18749323,0.36461809,1.9001112,-239.48319,-230.16659)" />
    <linearGradient
       inkscape:collect="always"
       xlink:href="#linearGradient9259"
       id="linearGradient9271"
       gradientUnits="userSpaceOnUse"
       gradientTransform="matrix(0.9770716,-0.18749323,0.36461809,1.9001112,-329.25939,-212.93917)"
       x1="539.26721"
       y1="295.0838"
       x2="539.26721"
       y2="306.65521" />
    <linearGradient
       inkscape:collect="always"
       xlink:href="#linearGradient8969"
       id="linearGradient9316"
       x1="633.71954"
       y1="293.50024"
       x2="633.71954"
       y2="272.31555"
       gradientUnits="userSpaceOnUse"
       gradientTransform="matrix(0.82230385,0,0,0.61073826,81.569072,107.16711)" />
    <linearGradient
       inkscape:collect="always"
       xlink:href="#linearGradient8939"
       id="linearGradient9351"
       x1="628.00098"
       y1="275.51233"
       x2="628.00098"
       y2="285.41669"
       gradientUnits="userSpaceOnUse" />
    <linearGradient
       inkscape:collect="always"
       xlink:href="#linearGradient9367"
       id="linearGradient9365"
       x1="685.86993"
       y1="289.56912"
       x2="685.86993"
       y2="270.70435"
       gradientUnits="userSpaceOnUse" />
    <radialGradient
       inkscape:collect="always"
       xlink:href="#linearGradient9407"
       id="radialGradient9413"
       cx="619.38"
       cy="213.26346"
       fx="619.38"
       fy="213.26346"
       r="21.154869"
       gradientTransform="matrix(-0.20856799,0.64622639,-1.5077847,-0.48662138,1040.7883,-88.130841)"
       gradientUnits="userSpaceOnUse" />
    <linearGradient
       inkscape:collect="always"
       xlink:href="#linearGradient7278"
       id="linearGradient9426"
       x1="603.76349"
       y1="257.77133"
       x2="603.76349"
       y2="273.46539"
       gradientUnits="userSpaceOnUse" />
    <linearGradient
       inkscape:collect="always"
       xlink:href="#linearGradient9458"
       id="linearGradient9464"
       x1="370.82211"
       y1="326.38864"
       x2="381.80062"
       y2="326.49697"
       gradientUnits="userSpaceOnUse"
       gradientTransform="translate(-0.10816239,-3.0330217)" />
    <radialGradient
       inkscape:collect="always"
       xlink:href="#linearGradient9480"
       id="radialGradient9478"
       cx="375.87823"
       cy="308.1044"
       fx="375.87823"
       fy="308.1044"
       r="7.1826148"
       gradientTransform="matrix(-0.02093659,2.8806374,-2.4628126,-0.01789981,1142.5512,-769.27994)"
       gradientUnits="userSpaceOnUse" />
    <linearGradient
       inkscape:collect="always"
       xlink:href="#linearGradient9505"
       id="linearGradient9511"
       x1="396.09149"
       y1="330.62704"
       x2="395.85083"
       y2="358.09943"
       gradientUnits="userSpaceOnUse"
       gradientTransform="matrix(1.4504504,0,0,1,-178.60324,-3.4489152)" />
    <linearGradient
       inkscape:collect="always"
       xlink:href="#linearGradient9517"
       id="linearGradient9523"
       x1="394.96027"
       y1="328.48636"
       x2="395.07919"
       y2="368.08942"
       gradientUnits="userSpaceOnUse" />
    <linearGradient
       inkscape:collect="always"
       xlink:href="#linearGradient9527"
       id="linearGradient9533"
       x1="395.67383"
       y1="329.08099"
       x2="400.78775"
       y2="368.68405"
       gradientUnits="userSpaceOnUse"
       gradientTransform="translate(-30.64101,35.253007)" />
    <linearGradient
       inkscape:collect="always"
       xlink:href="#linearGradient9527"
       id="linearGradient9537"
       gradientUnits="userSpaceOnUse"
       gradientTransform="translate(26.612597,-36.019255)"
       x1="395.67383"
       y1="329.08099"
       x2="400.78775"
       y2="368.68405" />
    <linearGradient
       inkscape:collect="always"
       xlink:href="#linearGradient9505"
       id="linearGradient9579"
       gradientUnits="userSpaceOnUse"
       gradientTransform="matrix(1.4504504,0,0,1,-178.60324,-3.4489152)"
       x1="396.09149"
       y1="330.62704"
       x2="395.85083"
       y2="358.09943" />
    <linearGradient
       inkscape:collect="always"
       xlink:href="#linearGradient9517"
       id="linearGradient9581"
       gradientUnits="userSpaceOnUse"
       x1="394.96027"
       y1="328.48636"
       x2="395.07919"
       y2="368.08942" />
    <linearGradient
       inkscape:collect="always"
       xlink:href="#linearGradient9527"
       id="linearGradient9583"
       gradientUnits="userSpaceOnUse"
       gradientTransform="translate(-30.64101,35.253007)"
       x1="395.67383"
       y1="329.08099"
       x2="400.78775"
       y2="368.68405" />
    <linearGradient
       inkscape:collect="always"
       xlink:href="#linearGradient9527"
       id="linearGradient9585"
       gradientUnits="userSpaceOnUse"
       gradientTransform="translate(26.612597,-36.019255)"
       x1="395.67383"
       y1="329.08099"
       x2="400.78775"
       y2="368.68405" />
    <linearGradient
       inkscape:collect="always"
       xlink:href="#linearGradient9458"
       id="linearGradient9587"
       gradientUnits="userSpaceOnUse"
       gradientTransform="translate(-0.10816239,-3.0330217)"
       x1="370.82211"
       y1="326.38864"
       x2="381.80062"
       y2="326.49697" />
    <radialGradient
       inkscape:collect="always"
       xlink:href="#linearGradient9480"
       id="radialGradient9589"
       gradientUnits="userSpaceOnUse"
       gradientTransform="matrix(-0.02093659,2.8806374,-2.4628126,-0.01789981,1142.5512,-769.27994)"
       cx="375.87823"
       cy="308.1044"
       fx="375.87823"
       fy="308.1044"
       r="7.1826148" />
    <radialGradient
       inkscape:collect="always"
       xlink:href="#linearGradient4393"
       id="radialGradient4401"
       cx="289.24118"
       cy="601.14172"
       fx="289.24118"
       fy="601.14172"
       r="360.51913"
       gradientTransform="matrix(0.31056808,0.67527994,-1.1498702,0.52883694,890.64704,196.81119)"
       gradientUnits="userSpaceOnUse" />
    <linearGradient
       inkscape:collect="always"
       xlink:href="#linearGradient4411"
       id="linearGradient4409"
       x1="137.27794"
       y1="586.13904"
       x2="385.6246"
       y2="853.05859"
       gradientUnits="userSpaceOnUse" />
    <linearGradient
       inkscape:collect="always"
       xlink:href="#linearGradient4421"
       id="linearGradient4427"
       x1="613.03046"
       y1="911.534"
       x2="473.12238"
       y2="651.15662"
       gradientUnits="userSpaceOnUse" />
    <linearGradient
       inkscape:collect="always"
       xlink:href="#linearGradient4421"
       id="linearGradient4435"
       x1="61.389061"
       y1="714.36511"
       x2="579.27209"
       y2="714.36511"
       gradientUnits="userSpaceOnUse" />
  </defs>
  <sodipodi:namedview
     id="base"
     pagecolor="#ffffff"
     bordercolor="#666666"
     borderopacity="1.0"
     inkscape:pageopacity="0.0"
     inkscape:pageshadow="2"
     inkscape:zoom="0.76427531"
     inkscape:cx="455.77835"
     inkscape:cy="193.12832"
     inkscape:document-units="px"
     inkscape:current-layer="layer1"
     showgrid="false"
     units="px"
     inkscape:window-width="1360"
     inkscape:window-height="716"
     inkscape:window-x="-8"
     inkscape:window-y="-8"
     inkscape:window-maximized="1" />
  <metadata
     id="metadata7">
    <rdf:RDF>
      <cc:Work
         rdf:about="">
        <dc:format>image/svg+xml</dc:format>
        <dc:type
           rdf:resource="http://purl.org/dc/dcmitype/StillImage" />
        <dc:title />
      </cc:Work>
    </rdf:RDF>
  </metadata>
  <g
     inkscape:label="Capa 1"
     inkscape:groupmode="layer"
     id="layer1"
     transform="translate(0,-512.36219)"
     style="display:inline">
    <path
       style="opacity:1;fill:url(#radialGradient4401);fill-opacity:1;fill-rule:nonzero;stroke:url(#linearGradient4427);stroke-width:3;stroke-linecap:round;stroke-linejoin:bevel;stroke-miterlimit:4;stroke-dasharray:none;stroke-dashoffset:0;stroke-opacity:1"
       d="M 124.57525,847.67826 A 143.2491,362.74368 81.036113 0 1 460.56873,649.6589 143.2491,362.74368 81.036113 0 1 841.20208,734.63865 143.2491,362.74368 81.036113 0 1 505.20858,932.65809 143.2491,362.74368 81.036113 0 1 124.57525,847.67826 Z"
       id="path8155"
       inkscape:connector-curvature="0" />
    <text
       xml:space="preserve"
       style="font-style:normal;font-weight:normal;font-size:70px;line-height:125%;font-family:sans-serif;letter-spacing:0px;word-spacing:0px;fill:url(#linearGradient4409);fill-opacity:1;stroke:url(#linearGradient4435);stroke-width:3;stroke-linecap:butt;stroke-linejoin:miter;stroke-miterlimit:4;stroke-dasharray:none;stroke-opacity:1"
       id="text8147"
       sodipodi:linespacing="125%"><textPath
         xlink:href="#path8155"
         id="textPath8158"
         style="font-style:normal;font-variant:normal;font-weight:normal;font-stretch:normal;font-size:90px;font-family:'Apple Boy BTN';-inkscape-font-specification:'Apple Boy BTN';fill:url(#linearGradient4409);fill-opacity:1;stroke:url(#linearGradient4435);stroke-width:3;stroke-miterlimit:4;stroke-dasharray:none;stroke-opacity:1">Orbit Defender</textPath></text>
  </g>
  <g
     inkscape:groupmode="layer"
     id="layer3"
     inkscape:label="TURBS" />
  <g
     inkscape:groupmode="layer"
     id="layer2"
     inkscape:label="canon"
     style="display:inline">
    <g
       id="g4301"
       transform="matrix(1.7227019,0,0,1.7227019,62.244173,-209.25378)">
      <g
         inkscape:transform-center-x="10.714353"
         transform="matrix(0.93259046,0.36093635,-0.36093635,0.93259046,-1.9789501,-160.39025)"
         inkscape:transform-center-y="24.502744"
         id="g9545">
        <g
           id="g9539">
          <ellipse
             ry="19.920458"
             rx="9.5737133"
             cy="346.68234"
             cx="395.73331"
             id="path9503"
             style="opacity:1;fill:url(#linearGradient9511);fill-opacity:1;fill-rule:nonzero;stroke:none;stroke-width:0.354;stroke-linecap:round;stroke-linejoin:round;stroke-miterlimit:4;stroke-dasharray:none;stroke-dashoffset:0;stroke-opacity:1" />
          <ellipse
             style="opacity:1;fill:url(#linearGradient9523);fill-opacity:1;fill-rule:nonzero;stroke:none;stroke-width:0.354;stroke-linecap:round;stroke-linejoin:round;stroke-miterlimit:4;stroke-dasharray:none;stroke-dashoffset:0;stroke-opacity:1"
             id="ellipse9513"
             cx="395.31705"
             cy="348.46628"
             rx="5.3517656"
             ry="19.920458" />
          <ellipse
             transform="matrix(0.99566012,-0.09306412,0.09306412,0.99566012,0,0)"
             inkscape:transform-center-y="18.202252"
             inkscape:transform-center-x="-2.0597062"
             ry="19.920458"
             rx="5.3517656"
             cy="383.7193"
             cx="364.67606"
             id="ellipse9525"
             style="opacity:1;fill:url(#linearGradient9533);fill-opacity:1;fill-rule:nonzero;stroke:none;stroke-width:0.354;stroke-linecap:round;stroke-linejoin:round;stroke-miterlimit:4;stroke-dasharray:none;stroke-dashoffset:0;stroke-opacity:1" />
          <ellipse
             transform="matrix(0.99619549,0.0871467,-0.0871467,0.99619549,0,0)"
             inkscape:transform-center-y="18.59032"
             inkscape:transform-center-x="1.7456657"
             style="opacity:1;fill:url(#linearGradient9537);fill-opacity:1;fill-rule:nonzero;stroke:none;stroke-width:0.354;stroke-linecap:round;stroke-linejoin:round;stroke-miterlimit:4;stroke-dasharray:none;stroke-dashoffset:0;stroke-opacity:1"
             id="ellipse9535"
             cx="421.92966"
             cy="312.44702"
             rx="5.3517656"
             ry="19.920458" />
        </g>
        <g
           id="g9497"
           transform="translate(19.385282,3.9246276)"
           inkscape:transform-center-x="-0.23785622"
           inkscape:transform-center-y="7.4620429">
          <rect
             ry="0"
             y="320.57443"
             x="370.9306"
             height="5.7790384"
             width="10.76186"
             id="rect9456"
             style="opacity:1;fill:url(#linearGradient9464);fill-opacity:1;fill-rule:nonzero;stroke:none;stroke-width:0.354;stroke-linecap:round;stroke-linejoin:round;stroke-miterlimit:4;stroke-dasharray:none;stroke-dashoffset:0;stroke-opacity:1" />
          <path
             id="path9451"
             d="m 376.31055,309.70703 a 6.932621,13.486115 0 0 0 -6.93164,13.48633 6.932621,13.486115 0 0 0 0.0117,0.5957 l 13.8379,0 a 6.932621,13.486115 0 0 0 0.0156,-0.5957 6.932621,13.486115 0 0 0 -6.93359,-13.48633 z"
             style="opacity:1;fill:url(#radialGradient9478);fill-opacity:1;fill-rule:nonzero;stroke:#000000;stroke-width:0.5;stroke-linecap:round;stroke-linejoin:round;stroke-miterlimit:4;stroke-dasharray:none;stroke-dashoffset:0;stroke-opacity:1"
             inkscape:connector-curvature="0" />
          <circle
             r="2.3830884"
             cy="309.27368"
             cx="376.31152"
             id="path9490"
             style="opacity:1;fill:#86847e;fill-opacity:1;fill-rule:nonzero;stroke:#000000;stroke-width:0.354;stroke-linecap:round;stroke-linejoin:round;stroke-miterlimit:4;stroke-dasharray:none;stroke-dashoffset:0;stroke-opacity:1" />
          <rect
             ry="0.55712855"
             y="308.71655"
             x="375.02908"
             height="1.1142571"
             width="2.5648937"
             id="rect9492"
             style="opacity:1;fill:#a12091;fill-opacity:1;fill-rule:nonzero;stroke:#000000;stroke-width:0.354;stroke-linecap:round;stroke-linejoin:round;stroke-miterlimit:4;stroke-dasharray:none;stroke-dashoffset:0;stroke-opacity:1" />
        </g>
      </g>
      <g
         id="g9557"
         inkscape:transform-center-y="20.111555"
         transform="matrix(-0.73274557,0.68050271,0.68050271,0.73274557,524.04008,-261.32963)"
         inkscape:transform-center-x="-18.697818">
        <g
           id="g9559">
          <ellipse
             style="opacity:1;fill:url(#linearGradient9579);fill-opacity:1;fill-rule:nonzero;stroke:none;stroke-width:0.354;stroke-linecap:round;stroke-linejoin:round;stroke-miterlimit:4;stroke-dasharray:none;stroke-dashoffset:0;stroke-opacity:1"
             id="ellipse9561"
             cx="395.73331"
             cy="346.68234"
             rx="9.5737133"
             ry="19.920458" />
          <ellipse
             ry="19.920458"
             rx="5.3517656"
             cy="348.46628"
             cx="395.31705"
             id="ellipse9563"
             style="opacity:1;fill:url(#linearGradient9581);fill-opacity:1;fill-rule:nonzero;stroke:none;stroke-width:0.354;stroke-linecap:round;stroke-linejoin:round;stroke-miterlimit:4;stroke-dasharray:none;stroke-dashoffset:0;stroke-opacity:1" />
          <ellipse
             style="opacity:1;fill:url(#linearGradient9583);fill-opacity:1;fill-rule:nonzero;stroke:none;stroke-width:0.354;stroke-linecap:round;stroke-linejoin:round;stroke-miterlimit:4;stroke-dasharray:none;stroke-dashoffset:0;stroke-opacity:1"
             id="ellipse9565"
             cx="364.67606"
             cy="383.7193"
             rx="5.3517656"
             ry="19.920458"
             inkscape:transform-center-x="-2.0597062"
             inkscape:transform-center-y="18.202252"
             transform="matrix(0.99566012,-0.09306412,0.09306412,0.99566012,0,0)" />
          <ellipse
             ry="19.920458"
             rx="5.3517656"
             cy="312.44702"
             cx="421.92966"
             id="ellipse9567"
             style="opacity:1;fill:url(#linearGradient9585);fill-opacity:1;fill-rule:nonzero;stroke:none;stroke-width:0.354;stroke-linecap:round;stroke-linejoin:round;stroke-miterlimit:4;stroke-dasharray:none;stroke-dashoffset:0;stroke-opacity:1"
             inkscape:transform-center-x="1.7456657"
             inkscape:transform-center-y="18.59032"
             transform="matrix(0.99619549,0.0871467,-0.0871467,0.99619549,0,0)" />
        </g>
        <g
           inkscape:transform-center-y="7.4620429"
           inkscape:transform-center-x="-0.23785622"
           transform="translate(19.385282,3.9246276)"
           id="g9569">
          <rect
             style="opacity:1;fill:url(#linearGradient9587);fill-opacity:1;fill-rule:nonzero;stroke:none;stroke-width:0.354;stroke-linecap:round;stroke-linejoin:round;stroke-miterlimit:4;stroke-dasharray:none;stroke-dashoffset:0;stroke-opacity:1"
             id="rect9571"
             width="10.76186"
             height="5.7790384"
             x="370.9306"
             y="320.57443"
             ry="0" />
          <path
             inkscape:connector-curvature="0"
             style="opacity:1;fill:url(#radialGradient9589);fill-opacity:1;fill-rule:nonzero;stroke:#000000;stroke-width:0.5;stroke-linecap:round;stroke-linejoin:round;stroke-miterlimit:4;stroke-dasharray:none;stroke-dashoffset:0;stroke-opacity:1"
             d="m 376.31055,309.70703 a 6.932621,13.486115 0 0 0 -6.93164,13.48633 6.932621,13.486115 0 0 0 0.0117,0.5957 l 13.8379,0 a 6.932621,13.486115 0 0 0 0.0156,-0.5957 6.932621,13.486115 0 0 0 -6.93359,-13.48633 z"
             id="path9573" />
          <circle
             style="opacity:1;fill:#86847e;fill-opacity:1;fill-rule:nonzero;stroke:#000000;stroke-width:0.354;stroke-linecap:round;stroke-linejoin:round;stroke-miterlimit:4;stroke-dasharray:none;stroke-dashoffset:0;stroke-opacity:1"
             id="circle9575"
             cx="376.31152"
             cy="309.27368"
             r="2.3830884" />
          <rect
             style="opacity:1;fill:#a12091;fill-opacity:1;fill-rule:nonzero;stroke:#000000;stroke-width:0.354;stroke-linecap:round;stroke-linejoin:round;stroke-miterlimit:4;stroke-dasharray:none;stroke-dashoffset:0;stroke-opacity:1"
             id="rect9577"
             width="2.5648937"
             height="1.1142571"
             x="375.02908"
             y="308.71655"
             ry="0.55712855" />
        </g>
      </g>
      <g
         transform="matrix(0.98208189,-0.18845466,0.18845466,0.98208189,-283.33172,57.488729)"
         id="g9428">
        <ellipse
           style="opacity:1;fill:url(#radialGradient9413);fill-opacity:1;fill-rule:nonzero;stroke:none;stroke-width:0.69999999;stroke-linecap:round;stroke-linejoin:round;stroke-miterlimit:4;stroke-dasharray:none;stroke-dashoffset:0;stroke-opacity:1"
           id="path9405"
           cx="598.5191"
           cy="217.65984"
           rx="21.154869"
           ry="10.829824"
           transform="matrix(0.99724551,0.07417133,-0.07417133,0.99724551,0,0)" />
        <path
           inkscape:connector-curvature="0"
           style="opacity:1;fill:url(#linearGradient9426);fill-opacity:1;fill-rule:nonzero;stroke:#000000;stroke-width:0.5;stroke-linecap:round;stroke-linejoin:round;stroke-miterlimit:4;stroke-dasharray:none;stroke-dashoffset:0;stroke-opacity:1"
           d="m 599.37109,257.41406 a 21.154869,10.829824 4.2536104 0 1 2.45118,5.60742 21.154869,10.829824 4.2536104 0 1 -17.97461,9.32813 25.003337,8.4643074 4.884378 0 0 4.68164,0.63672 25.003337,8.4643074 4.884378 0 0 26.77343,-5.78516 25.003337,8.4643074 4.884378 0 0 -15.93164,-9.78711 z"
           id="path9415" />
        <g
           id="g9400"
           transform="matrix(0.6292452,0,0,0.6292452,246.5215,95.288094)">
          <path
             id="rect9343"
             d="m 577.69141,275.93555 0,8.67187 43.21679,-1.71484 51.58985,0 0,-5.24219 -51.58985,0 -43.21679,-1.71484 z"
             style="opacity:1;fill:url(#linearGradient9351);fill-opacity:1;fill-rule:nonzero;stroke:none;stroke-width:0.69999999;stroke-linecap:round;stroke-linejoin:round;stroke-miterlimit:4;stroke-dasharray:none;stroke-dashoffset:0;stroke-opacity:1"
             inkscape:connector-curvature="0" />
          <path
             inkscape:connector-curvature="0"
             id="rect9308"
             d="m 577.69141,275.91016 0,8.72265 55.88672,0 0,-8.72265 -55.88672,0 z m 3.10352,0.35156 a 1.9271107,1.1910199 0 0 1 1.92773,1.1914 1.9271107,1.1910199 0 0 1 -1.92773,1.18946 1.9271107,1.1910199 0 0 1 -1.92578,-1.18946 1.9271107,1.1910199 0 0 1 1.92578,-1.1914 z m 5.50586,0 a 1.9271107,1.1910199 0 0 1 1.92773,1.1914 1.9271107,1.1910199 0 0 1 -1.92773,1.18946 1.9271107,1.1910199 0 0 1 -1.92774,-1.18946 1.9271107,1.1910199 0 0 1 1.92774,-1.1914 z m 5.50586,0 a 1.9271107,1.1910199 0 0 1 1.92578,1.1914 1.9271107,1.1910199 0 0 1 -1.92578,1.18946 1.9271107,1.1910199 0 0 1 -1.92774,-1.18946 1.9271107,1.1910199 0 0 1 1.92774,-1.1914 z m 5.5039,0 a 1.9271107,1.1910199 0 0 1 1.92774,1.1914 1.9271107,1.1910199 0 0 1 -1.92774,1.18946 1.9271107,1.1910199 0 0 1 -1.92578,-1.18946 1.9271107,1.1910199 0 0 1 1.92578,-1.1914 z m 5.50586,0 a 1.9271107,1.1910199 0 0 1 1.92774,1.1914 1.9271107,1.1910199 0 0 1 -1.92774,1.18946 1.9271107,1.1910199 0 0 1 -1.92773,-1.18946 1.9271107,1.1910199 0 0 1 1.92773,-1.1914 z m 5.50586,0 a 1.9271107,1.1910199 0 0 1 1.92578,1.1914 1.9271107,1.1910199 0 0 1 -1.92578,1.18946 1.9271107,1.1910199 0 0 1 -1.92773,-1.18946 1.9271107,1.1910199 0 0 1 1.92773,-1.1914 z m 5.50391,0 a 1.9271107,1.1910199 0 0 1 1.92773,1.1914 1.9271107,1.1910199 0 0 1 -1.92773,1.18946 1.9271107,1.1910199 0 0 1 -1.92578,-1.18946 1.9271107,1.1910199 0 0 1 1.92578,-1.1914 z m 5.50586,0 a 1.9271107,1.1910199 0 0 1 1.92773,1.1914 1.9271107,1.1910199 0 0 1 -1.92773,1.18946 1.9271107,1.1910199 0 0 1 -1.92774,-1.18946 1.9271107,1.1910199 0 0 1 1.92774,-1.1914 z m 5.50586,0 a 1.9271107,1.1910199 0 0 1 1.92578,1.1914 1.9271107,1.1910199 0 0 1 -1.92578,1.18946 1.9271107,1.1910199 0 0 1 -1.92774,-1.18946 1.9271107,1.1910199 0 0 1 1.92774,-1.1914 z m 5.5039,0 a 1.9271107,1.1910199 0 0 1 1.92774,1.1914 1.9271107,1.1910199 0 0 1 -1.92774,1.18946 1.9271107,1.1910199 0 0 1 -1.92773,-1.18946 1.9271107,1.1910199 0 0 1 1.92773,-1.1914 z m -49.54687,5.33594 a 1.9271107,1.1910199 0 0 1 1.92773,1.1914 1.9271107,1.1910199 0 0 1 -1.92773,1.18946 1.9271107,1.1910199 0 0 1 -1.92578,-1.18946 1.9271107,1.1910199 0 0 1 1.92578,-1.1914 z m 5.50586,0 a 1.9271107,1.1910199 0 0 1 1.92773,1.1914 1.9271107,1.1910199 0 0 1 -1.92773,1.18946 1.9271107,1.1910199 0 0 1 -1.92774,-1.18946 1.9271107,1.1910199 0 0 1 1.92774,-1.1914 z m 5.50586,0 a 1.9271107,1.1910199 0 0 1 1.92578,1.1914 1.9271107,1.1910199 0 0 1 -1.92578,1.18946 1.9271107,1.1910199 0 0 1 -1.92774,-1.18946 1.9271107,1.1910199 0 0 1 1.92774,-1.1914 z m 5.5039,0 a 1.9271107,1.1910199 0 0 1 1.92774,1.1914 1.9271107,1.1910199 0 0 1 -1.92774,1.18946 1.9271107,1.1910199 0 0 1 -1.92578,-1.18946 1.9271107,1.1910199 0 0 1 1.92578,-1.1914 z m 5.50586,0 a 1.9271107,1.1910199 0 0 1 1.92774,1.1914 1.9271107,1.1910199 0 0 1 -1.92774,1.18946 1.9271107,1.1910199 0 0 1 -1.92773,-1.18946 1.9271107,1.1910199 0 0 1 1.92773,-1.1914 z m 5.50586,0 a 1.9271107,1.1910199 0 0 1 1.92578,1.1914 1.9271107,1.1910199 0 0 1 -1.92578,1.18946 1.9271107,1.1910199 0 0 1 -1.92773,-1.18946 1.9271107,1.1910199 0 0 1 1.92773,-1.1914 z m 5.50391,0 a 1.9271107,1.1910199 0 0 1 1.92773,1.1914 1.9271107,1.1910199 0 0 1 -1.92773,1.18946 1.9271107,1.1910199 0 0 1 -1.92578,-1.18946 1.9271107,1.1910199 0 0 1 1.92578,-1.1914 z m 5.50586,0 a 1.9271107,1.1910199 0 0 1 1.92773,1.1914 1.9271107,1.1910199 0 0 1 -1.92773,1.18946 1.9271107,1.1910199 0 0 1 -1.92774,-1.18946 1.9271107,1.1910199 0 0 1 1.92774,-1.1914 z m 5.50586,0 a 1.9271107,1.1910199 0 0 1 1.92578,1.1914 1.9271107,1.1910199 0 0 1 -1.92578,1.18946 1.9271107,1.1910199 0 0 1 -1.92774,-1.18946 1.9271107,1.1910199 0 0 1 1.92774,-1.1914 z m 5.5039,0 a 1.9271107,1.1910199 0 0 1 1.92774,1.1914 1.9271107,1.1910199 0 0 1 -1.92774,1.18946 1.9271107,1.1910199 0 0 1 -1.92773,-1.18946 1.9271107,1.1910199 0 0 1 1.92773,-1.1914 z"
             style="opacity:1;fill:url(#linearGradient9316);fill-opacity:1;fill-rule:nonzero;stroke:none;stroke-width:0.69999999;stroke-linecap:round;stroke-linejoin:round;stroke-miterlimit:4;stroke-dasharray:none;stroke-dashoffset:0;stroke-opacity:1" />
          <path
             id="rect9357"
             d="m 671.6543,275.99414 0,8.55469 27.28711,0 0,-8.55469 -27.28711,0 z m 7.58984,0.82813 c 0.10395,0 0.20741,0.0394 0.28711,0.11914 l 1.04297,1.04297 c 0.1593,0.15931 0.1593,0.4149 0,0.57421 l -1.04297,1.04297 c -0.15931,0.15931 -0.41491,0.15931 -0.57422,0 l -1.04297,-1.04297 c -0.15931,-0.15931 -0.15931,-0.4149 0,-0.57421 l 1.04297,-1.04297 c 0.0797,-0.0796 0.18315,-0.11914 0.28711,-0.11914 z m 8.06836,0 c 0.10395,0 0.20936,0.0394 0.28906,0.11914 l 1.04102,1.04297 c 0.15931,0.15931 0.15931,0.4149 0,0.57421 l -1.04102,1.04297 c -0.15931,0.15931 -0.41687,0.15931 -0.57617,0 l -1.04101,-1.04297 c -0.15932,-0.15931 -0.15932,-0.4149 0,-0.57421 l 1.04101,-1.04297 c 0.0797,-0.0796 0.18315,-0.11914 0.28711,-0.11914 z m 8.07031,0 c 0.10395,0 0.20741,0.0394 0.28711,0.11914 l 1.04297,1.04297 c 0.15931,0.15931 0.15931,0.4149 0,0.57421 l -1.04297,1.04297 c -0.15931,0.15931 -0.41686,0.15931 -0.57617,0 l -1.04102,-1.04297 c -0.15931,-0.15931 -0.15931,-0.4149 0,-0.57421 l 1.04102,-1.04297 c 0.0797,-0.0796 0.1851,-0.11914 0.28906,-0.11914 z m -20.17187,2 c 0.10395,0 0.20741,0.0394 0.28711,0.11914 l 1.04101,1.04297 c 0.1593,0.15931 0.1593,0.4149 0,0.57421 l -1.04101,1.04297 c -0.15931,0.15931 -0.41686,0.15931 -0.57617,0 l -1.04102,-1.04297 c -0.15931,-0.15931 -0.15931,-0.4149 0,-0.57421 l 1.04102,-1.04297 c 0.0796,-0.0796 0.18511,-0.11914 0.28906,-0.11914 z m 8.06836,0 c 0.10395,0 0.20741,0.0394 0.28711,0.11914 l 1.04297,1.04297 c 0.15931,0.15931 0.15931,0.4149 0,0.57421 l -1.04297,1.04297 c -0.15931,0.15931 -0.41491,0.15931 -0.57422,0 l -1.04297,-1.04297 c -0.15931,-0.15931 -0.15931,-0.4149 0,-0.57421 l 1.04297,-1.04297 c 0.0797,-0.0796 0.18316,-0.11914 0.28711,-0.11914 z m 8.06836,0 c 0.10395,0 0.20936,0.0394 0.28906,0.11914 l 1.04101,1.04297 c 0.15931,0.15931 0.15931,0.4149 0,0.57421 l -1.04101,1.04297 c -0.15931,0.15931 -0.41686,0.15931 -0.57617,0 l -1.04297,-1.04297 c -0.15931,-0.15931 -0.15931,-0.4149 0,-0.57421 l 1.04297,-1.04297 c 0.0797,-0.0796 0.18316,-0.11914 0.28711,-0.11914 z m -12.10352,2 c 0.10395,0 0.20741,0.0394 0.28711,0.11914 l 1.04297,1.04297 c 0.1593,0.15931 0.1593,0.4149 0,0.57421 l -1.04297,1.04297 c -0.15931,0.15931 -0.41491,0.15931 -0.57422,0 l -1.04297,-1.04297 c -0.15931,-0.15931 -0.15931,-0.4149 0,-0.57421 l 1.04297,-1.04297 c 0.0797,-0.0796 0.18315,-0.11914 0.28711,-0.11914 z m 8.06836,0 c 0.10395,0 0.20936,0.0394 0.28906,0.11914 l 1.04102,1.04297 c 0.15931,0.15931 0.15931,0.4149 0,0.57421 l -1.04102,1.04297 c -0.15931,0.15931 -0.41687,0.15931 -0.57617,0 l -1.04101,-1.04297 c -0.15932,-0.15931 -0.15932,-0.4149 0,-0.57421 l 1.04101,-1.04297 c 0.0797,-0.0796 0.18315,-0.11914 0.28711,-0.11914 z m 8.07031,0 c 0.10395,0 0.20741,0.0394 0.28711,0.11914 l 1.04297,1.04297 c 0.15931,0.15931 0.15931,0.4149 0,0.57421 l -1.04297,1.04297 c -0.15931,0.15931 -0.41686,0.15931 -0.57617,0 l -1.04102,-1.04297 c -0.15931,-0.15931 -0.15931,-0.4149 0,-0.57421 l 1.04102,-1.04297 c 0.0797,-0.0796 0.1851,-0.11914 0.28906,-0.11914 z"
             style="opacity:1;fill:url(#linearGradient9365);fill-opacity:1;fill-rule:nonzero;stroke:none;stroke-width:0.69999999;stroke-linecap:round;stroke-linejoin:round;stroke-miterlimit:4;stroke-dasharray:none;stroke-dashoffset:0;stroke-opacity:1"
             inkscape:connector-curvature="0" />
        </g>
        <path
           style="opacity:1;fill:#256b1f;fill-opacity:1;fill-rule:nonzero;stroke:#000000;stroke-width:0.5;stroke-linecap:round;stroke-linejoin:round;stroke-miterlimit:4;stroke-dasharray:none;stroke-dashoffset:0;stroke-opacity:1"
           d="m 562.35956,255.25522 6.0599,7.72708 24.47794,0.27292 21.01514,0 4,5.7314 0,5.79963 -21.12197,0 -12.05125,11.53103 -11.87219,0 -13.01514,0 -12,-17.59926 z"
           id="rect9273"
           inkscape:connector-curvature="0"
           sodipodi:nodetypes="cccccccccccc" />
        <circle
           style="opacity:1;fill:#008000;fill-opacity:1;fill-rule:nonzero;stroke:#000000;stroke-width:0.5;stroke-linecap:round;stroke-linejoin:round;stroke-miterlimit:4;stroke-dasharray:none;stroke-dashoffset:0;stroke-opacity:1"
           id="path9278"
           cx="569.41833"
           cy="277.97473"
           r="5.2942629" />
        <path
           style="fill:none;fill-rule:evenodd;stroke:#000000;stroke-width:0.5;stroke-linecap:round;stroke-linejoin:round;stroke-miterlimit:4;stroke-dasharray:none;stroke-opacity:0.60082302"
           d="m 549.07665,270.15873 4.50535,-2.97161 7.38109,10.92786 -2.01303,1.43787 2.49232,3.9302 -2.20474,1.62959 z"
           id="path9284"
           inkscape:connector-curvature="0"
           sodipodi:nodetypes="ccccccc" />
        <rect
           style="opacity:1;fill:#333333;fill-opacity:1;fill-rule:nonzero;stroke:#000000;stroke-width:0.5;stroke-linecap:round;stroke-linejoin:round;stroke-miterlimit:4;stroke-dasharray:none;stroke-dashoffset:0;stroke-opacity:0.60082302"
           id="rect9286"
           width="28.853365"
           height="3.3550425"
           x="587.41998"
           y="270.54214"
           ry="1.6775212" />
        <circle
           r="1.3582174"
           cy="272.22321"
           cx="614.28003"
           id="circle9288"
           style="opacity:1;fill:#008000;fill-opacity:1;fill-rule:nonzero;stroke:#000000;stroke-width:0.12827256;stroke-linecap:round;stroke-linejoin:round;stroke-miterlimit:4;stroke-dasharray:none;stroke-dashoffset:0;stroke-opacity:1" />
        <path
           style="fill:none;fill-rule:evenodd;stroke:#000000;stroke-width:0.69999999;stroke-linecap:round;stroke-linejoin:round;stroke-miterlimit:4;stroke-dasharray:none;stroke-opacity:1"
           d="m 615.31478,269.29601 -27.70307,0 -2.70019,4.67687"
           id="path9290"
           inkscape:connector-curvature="0" />
        <path
           inkscape:connector-curvature="0"
           id="path9292"
           d="m 613.31478,269.29601 -27.70307,0 -2.70019,4.67687"
           style="fill:none;fill-rule:evenodd;stroke:#000000;stroke-width:0.69999999;stroke-linecap:round;stroke-linejoin:round;stroke-miterlimit:4;stroke-dasharray:none;stroke-opacity:1" />
        <path
           style="fill:none;fill-rule:evenodd;stroke:#000000;stroke-width:0.69999999;stroke-linecap:round;stroke-linejoin:round;stroke-miterlimit:4;stroke-dasharray:none;stroke-opacity:1"
           d="m 611.31478,269.29601 -27.70307,0 -2.70019,4.67687"
           id="path9294"
           inkscape:connector-curvature="0" />
        <path
           inkscape:connector-curvature="0"
           id="path9296"
           d="m 609.31478,269.29601 -27.70307,0 -2.70019,4.67687"
           style="fill:none;fill-rule:evenodd;stroke:#000000;stroke-width:0.69999999;stroke-linecap:round;stroke-linejoin:round;stroke-miterlimit:4;stroke-dasharray:none;stroke-opacity:1" />
        <path
           style="fill:none;fill-rule:evenodd;stroke:#000000;stroke-width:1px;stroke-linecap:round;stroke-linejoin:round;stroke-opacity:1"
           d="m 561.72996,258.08058 -3.64262,3.64262"
           id="path9298"
           inkscape:connector-curvature="0" />
        <path
           inkscape:connector-curvature="0"
           id="path9300"
           d="m 562.92815,259.63826 -3.64262,3.64262"
           style="fill:none;fill-rule:evenodd;stroke:#000000;stroke-width:1px;stroke-linecap:round;stroke-linejoin:round;stroke-opacity:1" />
        <path
           style="fill:none;fill-rule:evenodd;stroke:#000000;stroke-width:1px;stroke-linecap:round;stroke-linejoin:round;stroke-opacity:1"
           d="m 564.12642,261.19597 -3.64262,3.64262"
           id="path9302"
           inkscape:connector-curvature="0" />
        <path
           inkscape:connector-curvature="0"
           id="path9304"
           d="m 565.32469,262.75369 -3.64262,3.64262"
           style="fill:none;fill-rule:evenodd;stroke:#000000;stroke-width:1px;stroke-linecap:round;stroke-linejoin:round;stroke-opacity:1" />
        <path
           style="fill:none;fill-rule:evenodd;stroke:#000000;stroke-width:1px;stroke-linecap:round;stroke-linejoin:round;stroke-opacity:1"
           d="m 566.52288,264.31138 -3.64262,3.64262"
           id="path9306"
           inkscape:connector-curvature="0" />
      </g>
      <rect
         transform="matrix(0.98208189,-0.18845466,0.18845466,0.98208189,0,0)"
         y="307.1496"
         x="197.29745"
         height="3.5786667"
         width="196.71638"
         id="rect8964"
         style="opacity:1;fill:url(#linearGradient8975);fill-opacity:1;fill-rule:nonzero;stroke:none;stroke-width:1.16299999;stroke-linecap:round;stroke-linejoin:bevel;stroke-miterlimit:4;stroke-dasharray:none;stroke-dashoffset:0;stroke-opacity:1" />
      <g
         transform="matrix(0.01393516,0.99990289,-0.99990289,0.01393516,656.54285,-308.60322)"
         inkscape:transform-center-y="-9.4373132"
         inkscape:transform-center-x="4.8750891"
         id="g9219">
        <rect
           style="opacity:1;fill:url(#linearGradient9217);fill-opacity:1;fill-rule:nonzero;stroke:none;stroke-width:0.43677467;stroke-linecap:round;stroke-linejoin:round;stroke-miterlimit:4;stroke-dasharray:none;stroke-dashoffset:0;stroke-opacity:1"
           id="rect9209"
           width="18.253914"
           height="1.673021"
           x="316.75497"
           y="492.10168"
           ry="0"
           transform="matrix(0.89026768,-0.45543765,0.45543765,0.89026768,0,0)" />
        <rect
           style="opacity:1;fill:url(#linearGradient9179);fill-opacity:1;fill-rule:nonzero;stroke:#000000;stroke-width:0.36978468;stroke-linecap:round;stroke-linejoin:round;stroke-miterlimit:4;stroke-dasharray:none;stroke-dashoffset:0;stroke-opacity:1"
           id="rect9171"
           width="9.5743494"
           height="3.2424865"
           x="329.57523"
           y="491.5213"
           ry="0.96116823"
           transform="matrix(0.88992063,-0.45611541,0.45611541,0.88992063,0,0)" />
        <circle
           style="opacity:1;fill:#383838;fill-opacity:1;fill-rule:nonzero;stroke:#000000;stroke-width:0.5;stroke-linecap:round;stroke-linejoin:round;stroke-miterlimit:4;stroke-dasharray:none;stroke-dashoffset:0;stroke-opacity:1"
           id="path9207"
           cx="506.73679"
           cy="294.42572"
           r="1.046367" />
      </g>
      <path
         inkscape:connector-curvature="0"
         id="path8921"
         d="m 337.10632,185.91602 a 107.43682,107.43682 0 0 0 -44.70479,20.17101 l 37.39201,-7.17527 -3.82834,17.43227 a 7.4183183,7.4183183 0 0 0 -0.70829,0.10211 7.4183183,7.4183183 0 0 0 -5.8871,8.683 7.4183183,7.4183183 0 0 0 3.56573,5.01554 l -4.73113,21.54723 4.78765,-0.91872 4.5611,-19.68692 a 7.4183183,7.4183183 0 0 0 0.49966,-0.07 7.4183183,7.4183183 0 0 0 5.8871,-8.683 7.4183183,7.4183183 0 0 0 -3.24286,-4.815 l 4.55355,-19.65365 13.79518,-2.6472 24.31435,23.18285 a 4.9635363,4.9635363 0 0 0 -0.0689,2.14915 4.9635363,4.9635363 0 0 0 5.81117,3.93832 4.9635363,4.9635363 0 0 0 0.50587,-0.13089 l 13.57768,12.94665 5.01015,-0.96141 -15.547,-14.60723 a 4.9635363,4.9635363 0 0 0 0.39198,-3.05637 4.9635363,4.9635363 0 0 0 -5.80924,-3.93868 4.9635363,4.9635363 0 0 0 -1.46091,0.53291 l -22.67995,-21.30885 32.06536,-6.15312 a 107.43682,107.43682 0 0 0 -48.05006,-1.8947 z m -19.73716,69.57957 -0.23789,1.0818 -64.5949,12.39531 a 107.43682,107.43682 0 0 0 -0.93687,4.25872 c 18.75596,4.05855 37.87091,10.89305 54.48151,22.15507 28.93823,19.62021 47.6832,64.06577 59.14509,103.11752 a 107.43682,107.43682 0 0 0 12.37405,-1.56506 107.43682,107.43682 0 0 0 12.06648,-3.18855 c -3.80057,-40.50759 -2.82959,-88.7002 16.78046,-117.62346 11.27747,-16.63336 26.53078,-30.07226 42.47593,-40.79234 a 107.43682,107.43682 0 0 0 -2.73211,-3.99817 l -44.27809,8.49665 -0.4951,-0.46582 -5.05042,0.96914 0.90531,0.86242 -75.41507,14.47163 0.25131,-1.08437 -4.73969,0.90951 z m 32.72396,-0.77262 c 11.34493,-2.18211 34.60207,-4.60341 34.60207,-4.60341 0,0 -8.90516,43.90575 -9.34984,66.18027 -0.42238,21.15721 6.36346,63.165 6.36346,63.165 l -14.36487,2.75652 c 0,0 -9.23046,-41.53793 -17.44832,-61.0379 -8.65126,-20.52832 -33.16356,-58.02224 -33.16356,-58.02224 0,0 22.01608,-6.25636 33.36106,-8.43824 z"
         style="opacity:1;fill:url(#linearGradient8945);fill-opacity:1;fill-rule:nonzero;stroke:#000000;stroke-width:1;stroke-linecap:round;stroke-linejoin:bevel;stroke-miterlimit:4;stroke-dasharray:none;stroke-dashoffset:0;stroke-opacity:1" />
      <circle
         transform="matrix(0.98208189,-0.18845466,0.18845466,0.98208189,0,0)"
         r="4.6571817"
         cy="281.28482"
         cx="278.55493"
         id="path9135"
         style="opacity:1;fill:#005800;fill-opacity:1;fill-rule:nonzero;stroke:#000000;stroke-width:0.60000002;stroke-linecap:round;stroke-linejoin:round;stroke-miterlimit:4;stroke-dasharray:none;stroke-dashoffset:0;stroke-opacity:1" />
      <circle
         transform="matrix(0.98208189,-0.18845466,0.18845466,0.98208189,0,0)"
         style="opacity:1;fill:#383838;fill-opacity:1;fill-rule:nonzero;stroke:#000000;stroke-width:0.3311637;stroke-linecap:round;stroke-linejoin:round;stroke-miterlimit:4;stroke-dasharray:0.3311637, 0.66232741;stroke-dashoffset:0;stroke-opacity:1"
         id="circle9137"
         cx="278.55493"
         cy="281.28482"
         r="2.5704825" />
      <path
         sodipodi:nodetypes="ccacaac"
         inkscape:connector-curvature="0"
         id="path9139"
         d="m 266.90298,272.0429 38.38665,-6.78249 c 0,0 26.75818,30.40807 35.82087,48.28111 10.95432,21.60365 21.49149,69.41577 21.49149,69.41577 0,0 -11.27203,-41.48039 -22.7512,-59.252 -10.23585,-15.84672 -23.84986,-30.17358 -39.81836,-40.21839 -9.88955,-6.2209 -33.12945,-11.444 -33.12945,-11.444 z"
         style="fill:#383838;fill-opacity:0.46913578;fill-rule:evenodd;stroke:#000000;stroke-width:1;stroke-linecap:round;stroke-linejoin:miter;stroke-miterlimit:4;stroke-dasharray:none;stroke-dashoffset:0;stroke-opacity:1" />
      <path
         style="fill:#383838;fill-opacity:0.46913578;fill-rule:evenodd;stroke:#000000;stroke-width:1;stroke-linecap:round;stroke-linejoin:miter;stroke-miterlimit:4;stroke-dasharray:none;stroke-dashoffset:0;stroke-opacity:1"
         d="m 434.38538,239.90419 -38.17062,7.90832 c 0,0 -13.60181,38.15288 -15.40496,58.11099 -2.17951,24.12394 5.72971,72.44034 5.72971,72.44034 0,0 -4.88284,-42.70642 -0.7973,-63.46479 3.64304,-18.50998 10.98687,-36.85851 22.10298,-52.10067 6.88438,-9.4397 26.54019,-22.89419 26.54019,-22.89419 z"
         id="path9141"
         inkscape:connector-curvature="0"
         sodipodi:nodetypes="ccacaac" />
      <circle
         transform="matrix(0.98208189,-0.18845466,0.18845466,0.98208189,0,0)"
         r="1.9317546"
         cy="287.02679"
         cx="330.08371"
         id="path9169"
         style="opacity:1;fill:#256b1f;fill-opacity:1;fill-rule:nonzero;stroke:#000000;stroke-width:1;stroke-linecap:round;stroke-linejoin:round;stroke-miterlimit:4;stroke-dasharray:none;stroke-dashoffset:0;stroke-opacity:1" />
      <path
         inkscape:connector-curvature="0"
         id="rect9226"
         d="m 381.19833,236.55504 c -0.91175,0.17496 -1.37168,1.74408 -1.03143,3.51717 l 0.43359,2.25955 0.89403,-3.58028 1.92614,3.2181 2.85033,-0.54696 0.94147,-3.76838 1.92613,3.21811 2.85035,-0.54697 0.94146,-3.76837 1.92614,3.2181 2.85034,-0.54696 0.94147,-3.76837 1.92613,3.2181 2.84842,-0.54659 0.94147,-3.76838 1.92805,3.21774 2.84842,-0.5466 0.94147,-3.76837 1.92613,3.2181 2.85035,-0.54696 0.94146,-3.76838 1.92614,3.21811 0.004,-7.6e-4 -0.46672,-2.43218 c -0.34025,-1.77309 -1.3464,-3.06088 -2.25815,-2.88592 l -33.80702,6.48733 z"
         style="opacity:1;fill:url(#linearGradient9234);fill-opacity:1;fill-rule:nonzero;stroke:#000000;stroke-width:0.69370532;stroke-linecap:round;stroke-linejoin:round;stroke-miterlimit:4;stroke-dasharray:none;stroke-dashoffset:0;stroke-opacity:1" />
      <path
         style="opacity:1;fill:url(#linearGradient9271);fill-opacity:1;fill-rule:nonzero;stroke:#000000;stroke-width:0.69370532;stroke-linecap:round;stroke-linejoin:round;stroke-miterlimit:4;stroke-dasharray:none;stroke-dashoffset:0;stroke-opacity:1"
         d="m 291.42213,253.78246 c -0.91175,0.17496 -1.37168,1.74408 -1.03143,3.51717 l 0.43359,2.25956 0.89403,-3.58029 1.92614,3.2181 2.85033,-0.54695 0.94147,-3.76838 1.92613,3.2181 2.85035,-0.54696 0.94146,-3.76837 1.92614,3.2181 2.85033,-0.54696 0.94148,-3.76838 1.92613,3.21811 2.84842,-0.5466 0.94147,-3.76837 1.92805,3.21773 2.84842,-0.54659 0.94147,-3.76838 1.92613,3.21811 2.85035,-0.54696 0.94146,-3.76838 1.92614,3.2181 0.004,-7.5e-4 -0.46672,-2.43218 c -0.34025,-1.77309 -1.3464,-3.06088 -2.25815,-2.88593 l -33.80702,6.48733 z"
         id="path9269"
         inkscape:connector-curvature="0" />
    </g>
  </g>
</svg>
